<svg width="356" height="88" viewBox="0 0 356 88" fill="none" xmlns="http://www.w3.org/2000/svg">
<path d="M206.896 30.265V34.2554H213.363V30.265H206.896ZM205.933 39.53L200.612 36.457V28.5221L205.933 25.4491H213.363V21.7339H203.906C203.353 21.7339 202.906 21.2862 202.906 20.7339V17.3676C202.906 16.8153 203.353 16.3676 203.906 16.3676H214.326L219.147 19.1519C219.456 19.3305 219.647 19.6606 219.647 20.0178V38.53C219.647 39.0823 219.199 39.53 218.647 39.53H216.888C216.712 39.53 216.54 39.4838 216.388 39.396L213.363 37.6495L210.107 39.53H205.933Z" fill="#ffffff"/>
<path d="M179.079 16.1381H185.088L188.344 18.0186V6.81824C188.344 6.26595 188.792 5.81824 189.344 5.81824H193.628C194.18 5.81824 194.628 6.26595 194.628 6.81824V38.5299C194.628 39.0822 194.18 39.5299 193.628 39.5299H190.018C189.663 39.5299 189.335 39.3416 189.155 39.0351L188.344 37.6494L185.088 39.5299H179.079L173.759 36.4569V19.2112L179.079 16.1381ZM188.344 34.1636V21.5045H180.042V34.1636H188.344Z" fill="#ffffff"/>
<path d="M154.132 30.265V34.2554H160.599V30.265H154.132ZM153.169 39.53L147.848 36.457V28.5221L153.169 25.4491H160.599V21.7339H151.141C150.589 21.7339 150.141 21.2862 150.141 20.7339V17.3676C150.141 16.8153 150.589 16.3676 151.141 16.3676H161.562L166.383 19.1519C166.692 19.3305 166.883 19.6606 166.883 20.0178V38.53C166.883 39.0823 166.435 39.53 165.883 39.53H163.855L160.599 37.6495L157.342 39.53H153.169Z" fill="#ffffff"/>
<path d="M136.255 39.3006C135.703 39.3006 135.255 38.8528 135.255 38.3006V18.1104H135.164L128.148 38.6241C128.01 39.0287 127.63 39.3006 127.202 39.3006H122.533C122.105 39.3006 121.724 39.0278 121.586 38.6222L114.524 17.8352H114.432V38.3006C114.432 38.8528 113.984 39.3006 113.432 39.3006H109.24C108.688 39.3006 108.24 38.8528 108.24 38.3006V8.19421C108.24 7.64193 108.688 7.19421 109.24 7.19421H116.056C116.484 7.19421 116.864 7.46616 117.003 7.87083L124.844 30.8153H124.936L132.732 7.87248C132.869 7.46696 133.25 7.19421 133.678 7.19421H140.447C141 7.19421 141.447 7.64193 141.447 8.19421V38.3006C141.447 38.8528 141 39.3006 140.447 39.3006H136.255Z" fill="#ffffff"/>
<path d="M128.568 72.7359L124.101 75.3036H109.354C108.802 75.3036 108.354 74.8559 108.354 74.3036V49.4767C108.354 48.9245 108.802 48.4767 109.354 48.4767H124.101L128.568 51.0445V72.7359ZM112.204 51.9259V71.8544H124.718V51.9259H112.204Z" fill="#ffffff"/>
<path d="M148.127 71.9694C148.679 71.9694 149.127 72.4171 149.127 72.9694V74.3036C149.127 74.8559 148.679 75.3036 148.127 75.3036H138.384L133.918 72.7359V59.0962C133.918 58.7383 134.109 58.4077 134.42 58.2293L138.384 55.9499H144.66L149.127 58.5176V66.0256C149.127 66.5779 148.679 67.0256 148.127 67.0256H137.653V71.9694H148.127ZM137.653 59.2841V63.6914H145.392V59.2841H137.653Z" fill="#ffffff"/>
<path d="M168.052 66.2007C168.362 66.3791 168.554 66.7097 168.554 67.0676V72.7359L164.087 75.3036H155.077C154.525 75.3036 154.077 74.8559 154.077 74.3036V72.9694C154.077 72.4171 154.525 71.9694 155.077 71.9694H164.819V67.2555H158.543L154.578 64.9762C154.268 64.7978 154.077 64.4672 154.077 64.1092V59.2878C154.077 58.9299 154.268 58.5993 154.578 58.4209L158.543 56.1416H167.169C167.721 56.1416 168.169 56.5893 168.169 57.1416V58.4757C168.169 59.028 167.721 59.4757 167.169 59.4757H157.812V63.9213H164.087L168.052 66.2007Z" fill="#ffffff"/>
<path d="M176.256 56.1416C176.808 56.1416 177.256 56.5893 177.256 57.1416V74.3036C177.256 74.8559 176.808 75.3036 176.256 75.3036H174.521C173.969 75.3036 173.521 74.8559 173.521 74.3036V57.1416C173.521 56.5893 173.969 56.1416 174.521 56.1416H176.256ZM174.329 51.4277C173.776 51.4277 173.329 50.98 173.329 50.4277V48.327C173.329 47.7747 173.776 47.327 174.329 47.327H176.448C177.001 47.327 177.448 47.7747 177.448 48.327V50.4277C177.448 50.98 177.001 51.4277 176.448 51.4277H174.329Z" fill="#ffffff"/>
<path d="M185.947 75.3036L182.212 73.1574V69.7083L184.946 68.137L182.212 66.5657V58.7093L186.678 56.1416H198.96V57.4446L195.457 59.4757L197.805 60.8554V66.1441L193.339 68.7118H185.947V71.9694H194.494L198.96 74.5371V80.5923L194.494 83.16H185.908L181.442 80.5923V78.2162L185.177 76.0701V79.9025H195.226V75.3036H185.947ZM185.947 59.3991V65.4543H194.071V59.3991H185.947Z" fill="#ffffff"/>
<path d="M219.524 58.5176V74.3036C219.524 74.8559 219.076 75.3036 218.524 75.3036H216.789C216.237 75.3036 215.789 74.8559 215.789 74.3036V59.2841H206.895V74.3036C206.895 74.8559 206.447 75.3036 205.895 75.3036H204.16C203.608 75.3036 203.16 74.8559 203.16 74.3036V55.9499H205.971L206.895 57.5212L209.629 55.9499H215.057L219.524 58.5176Z" fill="#ffffff"/>
<path d="M233.673 61.1237V50.8528L238.567 48.2851H247.538L251.577 50.8528V53.8002C251.577 54.3525 251.129 54.8002 250.577 54.8002H248.727C248.174 54.8002 247.727 54.3525 247.727 53.8002V51.7343H237.523V59.859H247.11L251.577 62.4267V72.9275L247.11 75.4952H237.754L233.288 72.9275V69.9801C233.288 69.4278 233.736 68.9801 234.288 68.9801H236.138C236.691 68.9801 237.138 69.4278 237.138 69.9801V72.046H247.727V63.6914H238.139L233.673 61.1237Z" fill="#ffffff"/>
<path d="M260.143 82.9684C259.439 82.9684 258.955 82.2594 259.212 81.6035L262.027 74.4221L255.155 57.5181C254.888 56.8605 255.372 56.1416 256.082 56.1416H257.654C258.063 56.1416 258.43 56.3902 258.582 56.7696L263.798 69.7849H263.875L269.053 56.7718C269.204 56.3913 269.573 56.1416 269.982 56.1416H271.563C272.27 56.1416 272.754 56.8554 272.492 57.5121L262.586 82.339C262.434 82.719 262.066 82.9684 261.657 82.9684H260.143Z" fill="#ffffff"/>
<path d="M290.15 66.489V72.7359L285.684 75.3036H276.674C276.121 75.3036 275.674 74.8559 275.674 74.3036V72.9694C275.674 72.4171 276.121 71.9694 276.674 71.9694H286.416V67.2555H280.14L275.674 64.6878V58.7093L280.14 56.1416H288.765C289.318 56.1416 289.765 56.5893 289.765 57.1416V58.4757C289.765 59.028 289.318 59.4757 288.765 59.4757H279.408V63.9213H285.684L290.15 66.489Z" fill="#ffffff"/>
<path d="M294.578 59.4757C294.026 59.4757 293.578 59.028 293.578 58.4757V57.1416C293.578 56.5893 294.026 56.1416 294.578 56.1416H297.12V53.501C297.12 53.143 297.311 52.8124 297.622 52.634L299.357 51.6371C300.023 51.254 300.855 51.7353 300.855 52.5042V56.1416H304.475C305.027 56.1416 305.475 56.5893 305.475 57.1416V58.4757C305.475 59.028 305.027 59.4757 304.475 59.4757H300.855V71.9694H304.475C305.027 71.9694 305.475 72.4171 305.475 72.9694V74.3036C305.475 74.8559 305.027 75.3036 304.475 75.3036H301.586L297.12 72.7359V59.4757H294.578Z" fill="#ffffff"/>
<path d="M323.883 71.9694C324.435 71.9694 324.883 72.4171 324.883 72.9694V74.3036C324.883 74.8559 324.435 75.3036 323.883 75.3036H314.141L309.674 72.7359V59.0962C309.674 58.7383 309.866 58.4077 310.176 58.2293L314.141 55.9499H320.416L324.883 58.5176V66.0256C324.883 66.5779 324.435 67.0256 323.883 67.0256H313.409V71.9694H323.883ZM313.409 59.2841V63.6914H321.148V59.2841H313.409Z" fill="#ffffff"/>
<path d="M355.745 58.5176V74.3036C355.745 74.8559 355.297 75.3036 354.745 75.3036H353.01C352.458 75.3036 352.01 74.8559 352.01 74.3036V59.2841H344.656V74.3036C344.656 74.8559 344.209 75.3036 343.656 75.3036H341.922C341.369 75.3036 340.922 74.8559 340.922 74.3036V59.2841H333.568V74.3036C333.568 74.8559 333.12 75.3036 332.568 75.3036H330.833C330.281 75.3036 329.833 74.8559 329.833 74.3036V56.9499C329.833 56.3977 330.281 55.9499 330.833 55.9499H332.072C332.426 55.9499 332.754 56.1375 332.934 56.443L333.568 57.5212L336.301 55.9499H340.19L343.771 58.0194L347.39 55.9499H351.279L355.745 58.5176Z" fill="#ffffff"/>
<path fill-rule="evenodd" clip-rule="evenodd" d="M60.7201 73.0401L53.5966 83.2877C52.2138 85.2769 53.6373 88 56.0599 88H77.1406C80.9389 88.0011 89.4711 88.0034 92.5853 79.2474C95.6982 70.4947 87.0907 64.564 82.9401 62.4801L91.4149 51.4665C92.933 49.4937 91.5266 46.637 89.0373 46.637H73.9075H62.3895C59.5685 46.637 53.611 49.9885 52.1168 55.4902C50.249 62.3673 53.8716 70.5393 60.7201 73.0401Z" fill="#1B8354"/>
<path d="M39.799 4.52682L22.405 20.24L5.01103 4.52682C3.08174 2.78395 0 4.15302 0 6.75297V38.3631C0 40.02 1.34314 41.3631 3 41.3631H41.81C43.4669 41.3631 44.81 40.0199 44.81 38.3631V6.75296C44.81 4.15301 41.7283 2.78395 39.799 4.52682Z" fill="#ffffff"/>
<path d="M91.9702 0H53.1602C51.5033 0 50.1602 1.34314 50.1602 3V19.3518C50.1602 20.1986 50.518 21.0059 51.1454 21.5746L70.9255 39.503C72.0844 40.5535 73.856 40.5372 74.9954 39.4657L94.0254 21.57C94.6283 21.0031 94.9702 20.2122 94.9702 19.3846V3C94.9702 1.34315 93.627 0 91.9702 0Z" fill="#1B8354"/>
<path d="M24.0087 46.637C35.4964 46.6371 44.8087 55.8969 44.8087 67.319C44.8085 78.7409 35.4963 87.9999 24.0087 88.0001C23.5093 88.0001 24.5584 88.0001 24.0087 88.0001H3C1.34315 88.0001 0 86.6569 0 85.0001V49.637C0 47.9801 1.34315 46.637 3 46.637L24.0087 46.637Z" fill="#1B8354"/>
</svg>
