<svg width="358" height="90" viewBox="0 0 358 90" fill="none" xmlns="http://www.w3.org/2000/svg">
<path d="M85.5012 0C87.7103 0 89.5012 1.79086 89.5012 4V85.5012C89.5012 87.7103 87.7103 89.5012 85.5012 89.5012H4C1.79086 89.5012 0 87.7103 0 85.5012V4C0 1.79086 1.79086 0 4 0H85.5012ZM3.53294 83.9683C3.53294 85.0728 4.42837 85.9683 5.53294 85.9683H83.9683C85.0728 85.9683 85.9683 85.0728 85.9683 83.9683V5.53294C85.9683 4.42838 85.0728 3.53294 83.9683 3.53294H5.53294C4.42838 3.53294 3.53294 4.42837 3.53294 5.53294V83.9683Z" fill="white"/>
<path d="M205.322 31.2418C205.046 31.2418 204.822 31.4657 204.822 31.7418V34.84C204.822 35.1162 205.046 35.34 205.322 35.34H210.964C211.24 35.34 211.464 35.1162 211.464 34.84V31.7418C211.464 31.4657 211.24 31.2418 210.964 31.2418H205.322ZM203.967 40.7572C203.879 40.7572 203.793 40.7341 203.717 40.6902L198.619 37.7455C198.464 37.6562 198.369 37.4911 198.369 37.3125V29.7404C198.369 29.5618 198.464 29.3968 198.619 29.3075L203.717 26.3627C203.793 26.3188 203.879 26.2957 203.967 26.2957H210.964C211.24 26.2957 211.464 26.0719 211.464 25.7957V22.9801C211.464 22.704 211.24 22.4801 210.964 22.4801H201.224C200.948 22.4801 200.724 22.2563 200.724 21.9801V17.4688C200.724 17.1926 200.948 16.9688 201.224 16.9688H212.319C212.407 16.9688 212.493 16.9919 212.569 17.0358L217.668 19.9805C217.822 20.0698 217.918 20.2349 217.918 20.4135V40.2572C217.918 40.5334 217.694 40.7572 217.418 40.7572H214.943C214.855 40.7572 214.769 40.7341 214.693 40.6902L211.714 38.9703C211.559 38.8809 211.369 38.8809 211.214 38.9703L208.236 40.6902C208.16 40.7341 208.073 40.7572 207.986 40.7572H203.967Z" fill="white"/>
<path d="M176.138 16.8003C176.214 16.7563 176.3 16.7332 176.388 16.7332H182.291C182.378 16.7332 182.465 16.7563 182.541 16.8002L185.019 18.2314C185.353 18.4239 185.769 18.1834 185.769 17.7985V6.6344C185.769 6.35826 185.993 6.1344 186.269 6.1344H191.723C191.999 6.1344 192.223 6.35826 192.223 6.6344V40.2572C192.223 40.5334 191.999 40.7572 191.723 40.7572H187.186C187.009 40.7572 186.845 40.6631 186.755 40.5098L186.02 39.2549C185.881 39.0175 185.577 38.9369 185.339 39.0745L182.541 40.6902C182.465 40.7341 182.378 40.7572 182.291 40.7572H176.388C176.3 40.7572 176.214 40.7341 176.138 40.6902L171.039 37.7455C170.885 37.6562 170.79 37.4911 170.79 37.3125V20.1779C170.79 19.9993 170.885 19.8343 171.039 19.745L176.138 16.8003ZM185.269 35.2458C185.545 35.2458 185.769 35.022 185.769 34.7458V22.7446C185.769 22.4685 185.545 22.2446 185.269 22.2446H177.743C177.467 22.2446 177.243 22.4685 177.243 22.7446V34.7458C177.243 35.022 177.467 35.2458 177.743 35.2458H185.269Z" fill="white"/>
<path d="M151.132 31.2418C150.856 31.2418 150.632 31.4657 150.632 31.7418V34.84C150.632 35.1162 150.856 35.34 151.132 35.34H156.774C157.05 35.34 157.274 35.1162 157.274 34.84V31.7418C157.274 31.4657 157.05 31.2418 156.774 31.2418H151.132ZM149.777 40.7572C149.689 40.7572 149.603 40.7341 149.527 40.6902L144.429 37.7455C144.274 37.6562 144.179 37.4911 144.179 37.3125V29.7404C144.179 29.5618 144.274 29.3968 144.429 29.3075L149.527 26.3627C149.603 26.3188 149.689 26.2957 149.777 26.2957H156.774C157.05 26.2957 157.274 26.0719 157.274 25.7957V22.9801C157.274 22.704 157.05 22.4801 156.774 22.4801H147.034C146.758 22.4801 146.534 22.2563 146.534 21.9801V17.4688C146.534 17.1926 146.758 16.9688 147.034 16.9688H158.129C158.217 16.9688 158.303 16.9919 158.379 17.0358L163.478 19.9805C163.632 20.0698 163.728 20.2349 163.728 20.4135V40.2572C163.728 40.5334 163.504 40.7572 163.228 40.7572H160.753C160.665 40.7572 160.579 40.7341 160.503 40.6902L157.524 38.9703C157.369 38.8809 157.179 38.8809 157.024 38.9703L154.046 40.6902C153.97 40.7341 153.883 40.7572 153.796 40.7572H149.777Z" fill="white"/>
<path d="M131.745 40.5217C131.469 40.5217 131.245 40.2979 131.245 40.0217V18.8138C131.245 18.7834 131.221 18.7588 131.19 18.7588V18.7588C131.167 18.7588 131.146 18.7737 131.138 18.796L123.824 40.1835C123.755 40.3858 123.565 40.5217 123.351 40.5217H117.802C117.587 40.5217 117.397 40.3854 117.328 40.1826L109.966 18.5134C109.959 18.4911 109.938 18.4762 109.914 18.4762V18.4762C109.884 18.4762 109.859 18.5008 109.859 18.5311V40.0217C109.859 40.2979 109.635 40.5217 109.359 40.5217H104C103.724 40.5217 103.5 40.2979 103.5 40.0217V8.04761C103.5 7.77146 103.724 7.54761 104 7.54761H111.904C112.118 7.54761 112.308 7.68358 112.377 7.88592L120.537 31.7626C120.546 31.7892 120.571 31.8071 120.599 31.8071V31.8071C120.628 31.8071 120.653 31.7892 120.662 31.7625L128.775 7.88674C128.844 7.68398 129.034 7.54761 129.248 7.54761H137.105C137.381 7.54761 137.605 7.77147 137.605 8.04761V40.0217C137.605 40.2979 137.381 40.5217 137.105 40.5217H131.745Z" fill="white"/>
<path d="M66.6894 75.8181C65.5848 75.8181 64.6894 74.9227 64.6894 73.8181V34.8255C64.6894 34.7653 64.6405 34.7165 64.5803 34.7165V34.7165C64.5384 34.7165 64.5002 34.7406 64.482 34.7784L51.0199 62.868C50.6873 63.562 49.986 64.0036 49.2164 64.0036H39.9262C39.1533 64.0036 38.4496 63.5583 38.1188 62.8597L24.5652 34.245C24.5472 34.2069 24.5089 34.1827 24.4668 34.1827V34.1827C24.4067 34.1827 24.358 34.2314 24.358 34.2915V73.8181C24.358 74.9227 23.4626 75.8181 22.358 75.8181H14.3652C13.2607 75.8181 12.3652 74.9227 12.3652 73.8181V15.543C12.3652 14.4384 13.2607 13.543 14.3652 13.543H27.607C28.3881 13.543 29.0978 13.9977 29.4241 14.7074L44.4866 47.4646C44.5092 47.5137 44.5583 47.5452 44.6124 47.5452V47.5452C44.6666 47.5452 44.7158 47.5136 44.7384 47.4643L59.7134 14.7113C60.0388 13.9995 60.7496 13.543 61.5323 13.543H74.6822C75.7867 13.543 76.6822 14.4384 76.6822 15.543V73.8181C76.6822 74.9227 75.7867 75.8181 74.6822 75.8181H66.6894Z" fill="white"/>
<path d="M124.378 74.5714C124.378 74.7504 124.282 74.9157 124.127 75.0049L119.906 77.4313C119.831 77.4749 119.745 77.4978 119.657 77.4978H104.118C103.842 77.4978 103.618 77.274 103.618 76.9978V50.4459C103.618 50.1698 103.842 49.9459 104.118 49.9459H119.657C119.745 49.9459 119.831 49.9689 119.906 50.0125L124.127 52.4389C124.282 52.5281 124.378 52.6934 124.378 52.8723V74.5714ZM108.072 53.4883C107.796 53.4883 107.572 53.7122 107.572 53.9883V73.4555C107.572 73.7316 107.796 73.9555 108.072 73.9555H119.923C120.2 73.9555 120.423 73.7316 120.423 73.4555V53.9883C120.423 53.7122 120.2 53.4883 119.923 53.4883H108.072Z" fill="white"/>
<path d="M144.992 74.0735C145.268 74.0735 145.492 74.2974 145.492 74.5735V76.9978C145.492 77.274 145.268 77.4978 144.992 77.4978H134.593C134.506 77.4978 134.42 77.4749 134.344 77.4313L130.124 75.0049C129.968 74.9157 129.873 74.7504 129.873 74.5714V60.5475C129.873 60.3685 129.968 60.2032 130.124 60.114L134.344 57.6876C134.42 57.644 134.506 57.6211 134.593 57.6211H140.772C140.859 57.6211 140.945 57.644 141.021 57.6876L145.241 60.114C145.397 60.2032 145.492 60.3685 145.492 60.5475V68.4961C145.492 68.7723 145.268 68.9961 144.992 68.9961H134.208C133.932 68.9961 133.708 69.22 133.708 69.4961V73.5735C133.708 73.8497 133.932 74.0735 134.208 74.0735H144.992ZM134.208 61.0454C133.932 61.0454 133.708 61.2693 133.708 61.5454V65.0718C133.708 65.3479 133.932 65.5718 134.208 65.5718H141.157C141.433 65.5718 141.657 65.3479 141.657 65.0718V61.5454C141.657 61.2693 141.433 61.0454 141.157 61.0454H134.208Z" fill="white"/>
<path d="M165.194 68.3009C165.349 68.3901 165.444 68.5554 165.444 68.7344V74.5714C165.444 74.7504 165.349 74.9157 165.194 75.0049L160.973 77.4313C160.897 77.4749 160.811 77.4978 160.724 77.4978H151.076C150.8 77.4978 150.576 77.274 150.576 76.9978V74.5735C150.576 74.2974 150.8 74.0735 151.076 74.0735H161.109C161.385 74.0735 161.609 73.8497 161.609 73.5735V69.7323C161.609 69.4561 161.385 69.2323 161.109 69.2323H155.297C155.209 69.2323 155.123 69.2093 155.048 69.1657L150.827 66.7393C150.672 66.6501 150.576 66.4848 150.576 66.3059V60.7443C150.576 60.5653 150.672 60.4 150.827 60.3108L155.048 57.8844C155.123 57.8408 155.209 57.8179 155.297 57.8179H164.549C164.825 57.8179 165.049 58.0418 165.049 58.3179V60.7422C165.049 61.0184 164.825 61.2422 164.549 61.2422H154.912C154.636 61.2422 154.412 61.4661 154.412 61.7422V65.308C154.412 65.5841 154.636 65.808 154.912 65.808H160.724C160.811 65.808 160.897 65.8309 160.973 65.8745L165.194 68.3009Z" fill="white"/>
<path d="M173.882 57.8179C174.158 57.8179 174.382 58.0418 174.382 58.3179V76.9978C174.382 77.274 174.158 77.4978 173.882 77.4978H171.046C170.77 77.4978 170.546 77.274 170.546 76.9978V58.3179C170.546 58.0418 170.77 57.8179 171.046 57.8179H173.882ZM170.848 52.9766C170.572 52.9766 170.348 52.7528 170.348 52.4766V49.2651C170.348 48.989 170.572 48.7651 170.848 48.7651H174.08C174.356 48.7651 174.58 48.989 174.58 49.2651V52.4766C174.58 52.7528 174.356 52.9766 174.08 52.9766H170.848Z" fill="white"/>
<path d="M183.441 77.4978C183.353 77.4978 183.268 77.4749 183.192 77.4314L179.723 75.4379C179.567 75.3487 179.472 75.1833 179.472 75.0043V72.0406C179.472 71.8616 179.567 71.6963 179.723 71.6071L181.525 70.571C181.86 70.3788 181.86 69.8963 181.525 69.7041L179.723 68.668C179.567 68.5788 179.472 68.4135 179.472 68.2345V60.7443C179.472 60.5653 179.567 60.4 179.723 60.3108L183.943 57.8844C184.019 57.8408 184.105 57.8179 184.192 57.8179H196.173C196.449 57.8179 196.673 58.0418 196.673 58.3179V58.8681C196.673 59.0464 196.578 59.2112 196.424 59.3006L193.816 60.8125C193.485 61.0045 193.483 61.4823 193.813 61.6762L195.24 62.5142C195.393 62.604 195.487 62.7681 195.487 62.9453V67.8016C195.487 67.9805 195.391 68.1458 195.236 68.235L191.015 70.6614C190.94 70.705 190.854 70.7279 190.766 70.7279H183.807C183.531 70.7279 183.307 70.9518 183.307 71.2279V73.5735C183.307 73.8497 183.531 74.0735 183.807 74.0735H191.953C192.04 74.0735 192.126 74.0965 192.202 74.1401L196.422 76.5665C196.577 76.6557 196.673 76.821 196.673 76.9999V82.6402C196.673 82.8192 196.577 82.9845 196.422 83.0737L192.202 85.5001C192.126 85.5437 192.04 85.5666 191.953 85.5666H183.401C183.314 85.5666 183.228 85.5437 183.152 85.5001L178.932 83.0737C178.777 82.9845 178.681 82.8192 178.681 82.6402V80.7785C178.681 80.5996 178.777 80.4342 178.932 80.345L181.767 78.7155C182.101 78.524 182.517 78.7646 182.517 79.149V81.721C182.517 81.9972 182.74 82.221 183.017 82.221H192.337C192.613 82.221 192.837 81.9972 192.837 81.721V77.9978C192.837 77.7217 192.613 77.4978 192.337 77.4978H183.441ZM183.807 61.1635C183.531 61.1635 183.307 61.3874 183.307 61.6635V66.8824C183.307 67.1585 183.531 67.3824 183.807 67.3824H191.151C191.427 67.3824 191.651 67.1585 191.651 66.8824V61.6635C191.651 61.3874 191.427 61.1635 191.151 61.1635H183.807Z" fill="white"/>
<path d="M217.541 60.114C217.696 60.2032 217.792 60.3685 217.792 60.5475V76.9978C217.792 77.274 217.568 77.4978 217.292 77.4978H214.456C214.18 77.4978 213.956 77.274 213.956 76.9978V61.5454C213.956 61.2693 213.733 61.0454 213.456 61.0454H205.322C205.046 61.0454 204.822 61.2693 204.822 61.5454V76.9978C204.822 77.274 204.598 77.4978 204.322 77.4978H201.486C201.21 77.4978 200.986 77.274 200.986 76.9978V58.1211C200.986 57.845 201.21 57.6211 201.486 57.6211H203.587C203.764 57.6211 203.928 57.7149 204.018 57.8676L204.571 58.8081C204.71 59.0445 205.013 59.1248 205.251 58.9882L207.514 57.6876C207.59 57.644 207.676 57.6211 207.763 57.6211H213.072C213.159 57.6211 213.245 57.644 213.321 57.6876L217.541 60.114Z" fill="white"/>
<path d="M232.575 63.0789C232.42 62.9897 232.324 62.8244 232.324 62.6454V52.6886C232.324 52.5027 232.427 52.3322 232.592 52.2458L237.241 49.8064C237.313 49.7688 237.393 49.7491 237.474 49.7491H246.418C246.514 49.7491 246.607 49.7762 246.687 49.8272L250.48 52.2389C250.624 52.3307 250.711 52.4898 250.711 52.6608V55.9403C250.711 56.2165 250.488 56.4403 250.211 56.4403H247.257C246.981 56.4403 246.757 56.2165 246.757 55.9403V53.7915C246.757 53.5154 246.533 53.2915 246.257 53.2915H236.778C236.502 53.2915 236.278 53.5154 236.278 53.7915V61.1358C236.278 61.412 236.502 61.6358 236.778 61.6358H245.991C246.078 61.6358 246.164 61.6588 246.24 61.7023L250.461 64.1287C250.616 64.2179 250.711 64.3833 250.711 64.5622V74.7682C250.711 74.9472 250.616 75.1125 250.461 75.2017L246.24 77.6281C246.164 77.6717 246.078 77.6946 245.991 77.6946H236.649C236.561 77.6946 236.476 77.6717 236.4 77.6281L232.179 75.2017C232.024 75.1125 231.928 74.9472 231.928 74.7682V71.5035C231.928 71.2273 232.152 71.0035 232.428 71.0035H235.383C235.659 71.0035 235.883 71.2273 235.883 71.5035V73.6523C235.883 73.9284 236.107 74.1523 236.383 74.1523H246.257C246.533 74.1523 246.757 73.9284 246.757 73.6523V66.0718C246.757 65.7957 246.533 65.5718 246.257 65.5718H237.044C236.957 65.5718 236.871 65.5489 236.795 65.5053L232.575 63.0789Z" fill="white"/>
<path d="M258.737 85.3698C258.384 85.3698 258.143 85.0153 258.271 84.6874L261.371 76.7784C261.418 76.6591 261.417 76.5264 261.369 76.4077L254.092 58.5062C253.958 58.1774 254.2 57.8179 254.555 57.8179H257.31C257.514 57.8179 257.698 57.9422 257.774 58.1319L263.248 71.7934C263.257 71.8155 263.279 71.83 263.302 71.83V71.83C263.326 71.83 263.348 71.8154 263.357 71.7932L268.792 58.1331C268.868 57.9428 269.052 57.8179 269.257 57.8179H272.015C272.369 57.8179 272.611 58.1748 272.48 58.5032L261.886 85.0551C261.81 85.2452 261.626 85.3698 261.421 85.3698H258.737Z" fill="white"/>
<path d="M290.077 68.3009C290.232 68.3901 290.328 68.5554 290.328 68.7344V74.5714C290.328 74.7504 290.232 74.9157 290.077 75.0049L285.856 77.4313C285.781 77.4749 285.695 77.4978 285.607 77.4978H275.959C275.683 77.4978 275.459 77.274 275.459 76.9978V74.5735C275.459 74.2974 275.683 74.0735 275.959 74.0735H285.992C286.268 74.0735 286.492 73.8497 286.492 73.5735V69.7323C286.492 69.4561 286.268 69.2323 285.992 69.2323H280.18C280.093 69.2323 280.007 69.2093 279.931 69.1657L275.71 66.7393C275.555 66.6501 275.459 66.4848 275.459 66.3059V60.7443C275.459 60.5653 275.555 60.4 275.71 60.3108L279.931 57.8844C280.007 57.8408 280.093 57.8179 280.18 57.8179H289.432C289.708 57.8179 289.932 58.0418 289.932 58.3179V60.7422C289.932 61.0184 289.708 61.2422 289.432 61.2422H279.795C279.519 61.2422 279.295 61.4661 279.295 61.7422V65.308C279.295 65.5841 279.519 65.808 279.795 65.808H285.607C285.695 65.808 285.781 65.8309 285.856 65.8745L290.077 68.3009Z" fill="white"/>
<path d="M294.348 61.2422C294.071 61.2422 293.848 61.0184 293.848 60.7422V58.3179C293.848 58.0418 294.071 57.8179 294.348 57.8179H296.986C297.262 57.8179 297.486 57.5941 297.486 57.3179V54.801C297.486 54.622 297.581 54.4567 297.736 54.3675L300.572 52.738C300.905 52.5465 301.321 52.7871 301.321 53.1715V57.3179C301.321 57.5941 301.545 57.8179 301.821 57.8179H305.566C305.843 57.8179 306.066 58.0418 306.066 58.3179V60.7422C306.066 61.0184 305.843 61.2422 305.566 61.2422H301.821C301.545 61.2422 301.321 61.4661 301.321 61.7422V73.5735C301.321 73.8497 301.545 74.0735 301.821 74.0735H305.566C305.843 74.0735 306.066 74.2974 306.066 74.5735V76.9978C306.066 77.274 305.843 77.4978 305.566 77.4978H302.206C302.119 77.4978 302.033 77.4749 301.957 77.4313L297.736 75.0049C297.581 74.9157 297.486 74.7504 297.486 74.5714V61.7422C297.486 61.4661 297.262 61.2422 296.986 61.2422H294.348Z" fill="white"/>
<path d="M325.499 74.0735C325.775 74.0735 325.999 74.2974 325.999 74.5735V76.9978C325.999 77.274 325.775 77.4978 325.499 77.4978H315.1C315.012 77.4978 314.926 77.4749 314.85 77.4313L310.63 75.0049C310.475 74.9157 310.379 74.7504 310.379 74.5714V60.5475C310.379 60.3685 310.475 60.2032 310.63 60.114L314.85 57.6876C314.926 57.644 315.012 57.6211 315.1 57.6211H321.278C321.366 57.6211 321.451 57.644 321.527 57.6876L325.748 60.114C325.903 60.2032 325.999 60.3685 325.999 60.5475V68.4961C325.999 68.7723 325.775 68.9961 325.499 68.9961H314.715C314.439 68.9961 314.215 69.22 314.215 69.4961V73.5735C314.215 73.8497 314.439 74.0735 314.715 74.0735H325.499ZM314.715 61.0454C314.439 61.0454 314.215 61.2693 314.215 61.5454V65.0718C314.215 65.3479 314.439 65.5718 314.715 65.5718H321.663C321.939 65.5718 322.163 65.3479 322.163 65.0718V61.5454C322.163 61.2693 321.939 61.0454 321.663 61.0454H314.715Z" fill="white"/>
<path d="M357.444 60.114C357.599 60.2032 357.695 60.3685 357.695 60.5475V76.9978C357.695 77.274 357.471 77.4978 357.195 77.4978H354.359C354.083 77.4978 353.859 77.274 353.859 76.9978V61.5454C353.859 61.2693 353.636 61.0454 353.359 61.0454H346.807C346.531 61.0454 346.307 61.2693 346.307 61.5454V76.9978C346.307 77.274 346.083 77.4978 345.807 77.4978H342.971C342.695 77.4978 342.471 77.274 342.471 76.9978V61.5454C342.471 61.2693 342.247 61.0454 341.971 61.0454H335.418C335.142 61.0454 334.918 61.2693 334.918 61.5454V76.9978C334.918 77.274 334.694 77.4978 334.418 77.4978H331.583C331.307 77.4978 331.083 77.274 331.083 76.9978V58.1211C331.083 57.845 331.307 57.6211 331.583 57.6211H333.683C333.861 57.6211 334.024 57.7149 334.114 57.8676L334.667 58.8081C334.806 59.0445 335.11 59.1248 335.348 58.9882L337.61 57.6876C337.686 57.644 337.772 57.6211 337.859 57.6211H341.586C341.673 57.6211 341.76 57.6443 341.836 57.6882L345.148 59.6027C345.302 59.6918 345.492 59.6922 345.647 59.6039L348.999 57.6871C349.075 57.6438 349.16 57.6211 349.247 57.6211H352.975C353.062 57.6211 353.148 57.644 353.224 57.6876L357.444 60.114Z" fill="white"/>
</svg>
