
<svg version="1.1" id="Layer_1" xmlns="http://www.w3.org/2000/svg" xmlns:xlink="http://www.w3.org/1999/xlink" x="0px" y="0px"
	 width="100%" viewBox="0 0 71 65" enable-background="new 0 0 71 65" xml:space="preserve">
<path fill="#13B68F" opacity="1.000000" stroke="none"
	d="
M50.000290,66.000000
	C33.333569,66.000000 17.166908,66.000000 1.000188,66.000000
	C1.000126,44.333427 1.000126,22.666857 1.000063,1.000215
	C24.666559,1.000143 48.333118,1.000143 71.999756,1.000072
	C71.999840,22.666548 71.999840,44.333096 71.999924,65.999817
	C64.833450,66.000000 57.666901,66.000000 50.000290,66.000000
M28.577324,50.177769
	C31.581533,52.704472 33.367355,49.944317 34.753139,48.275646
	C37.999950,44.366062 41.951874,43.320717 46.742031,43.874168
	C49.044205,44.140156 51.419945,44.146473 53.716606,43.878365
	C54.518890,43.784706 55.183949,42.515491 55.911674,41.783123
	C55.206097,41.201057 54.484795,40.096409 53.797352,40.117088
	C46.231087,40.344749 37.901997,37.539371 32.094807,45.264076
	C31.734137,45.743835 31.024361,45.961147 30.096287,46.536655
	C24.945230,39.288773 17.159595,39.450222 9.257376,39.754429
	C9.257376,32.820274 9.257376,26.392452 9.257376,19.981007
	C16.408751,18.689310 23.055992,18.520514 28.213341,24.614944
	C30.167475,26.924137 31.935963,25.955513 33.584389,24.032763
	C36.965279,20.089245 41.191509,18.329245 46.441105,18.980288
	C48.409714,19.224432 50.472164,19.248779 52.419693,18.931101
	C53.650524,18.730331 54.747921,17.711567 55.905170,17.059698
	C54.801125,16.368088 53.715096,15.111435 52.590145,15.075569
	C44.639179,14.822075 36.396862,13.762461 30.562962,21.640297
	C26.129211,16.563419 20.859411,15.074726 14.906123,15.454466
	C12.923779,15.580914 10.911974,15.769010 8.949896,15.570514
	C5.777113,15.249535 4.873999,16.648819 4.938590,19.607462
	C5.076726,25.934902 5.220136,32.279716 4.897300,38.593685
	C4.675783,42.926105 6.431161,44.267494 10.429546,43.881519
	C17.118277,43.235847 23.451832,43.824501 28.577324,50.177769
M52.646244,33.467617
	C54.758240,31.707745 54.428280,30.194265 51.799442,29.934151
	C48.374561,29.595272 44.884903,29.721943 41.439106,29.922678
	C40.625713,29.970064 39.876152,31.113251 39.097225,31.752346
	C39.881363,32.437706 40.632828,33.664467 41.455338,33.714111
	C44.897743,33.921867 48.361458,33.776592 52.646244,33.467617
M51.435265,26.201347
	C52.261391,26.199198 53.188995,26.437037 53.890587,26.140373
	C55.030128,25.658525 56.021656,24.826641 57.075661,24.142509
	C56.092468,23.478704 55.155029,22.342834 54.117245,22.242241
	C51.334400,21.972498 48.482380,21.923429 45.712379,22.249754
	C44.556862,22.385880 43.539566,23.695339 42.459419,24.471294
	C43.491772,25.044899 44.469761,25.923933 45.569374,26.119675
	C47.171406,26.404848 48.860973,26.198303 51.435265,26.201347
M60.204197,43.951248
	C61.865643,43.964256 63.580189,44.224991 65.165977,43.885052
	C65.950890,43.716793 66.498657,42.442322 67.153725,41.668350
	C65.094147,41.107441 63.039085,40.117779 60.973824,40.096008
	C58.488598,40.069813 57.796917,41.596752 60.204197,43.951248
z"/>
<path fill="#F3FBFA" opacity="1.000000" stroke="none"
	d="
M28.298527,49.929977
	C23.451832,43.824501 17.118277,43.235847 10.429546,43.881519
	C6.431161,44.267494 4.675783,42.926105 4.897300,38.593685
	C5.220136,32.279716 5.076726,25.934902 4.938590,19.607462
	C4.873999,16.648819 5.777113,15.249535 8.949896,15.570514
	C10.911974,15.769010 12.923779,15.580914 14.906123,15.454466
	C20.859411,15.074726 26.129211,16.563419 30.562962,21.640297
	C36.396862,13.762461 44.639179,14.822075 52.590145,15.075569
	C53.715096,15.111435 54.801125,16.368088 55.905170,17.059696
	C54.747921,17.711567 53.650524,18.730331 52.419693,18.931101
	C50.472164,19.248779 48.409714,19.224432 46.441105,18.980288
	C41.191509,18.329245 36.965279,20.089245 33.584389,24.032763
	C31.935963,25.955513 30.167475,26.924137 28.213341,24.614944
	C23.055992,18.520514 16.408751,18.689310 9.257376,19.981007
	C9.257376,26.392452 9.257376,32.820274 9.257376,39.754429
	C17.159595,39.450222 24.945230,39.288773 30.096287,46.536655
	C31.024361,45.961147 31.734137,45.743835 32.094807,45.264076
	C37.901997,37.539371 46.231087,40.344749 53.797352,40.117088
	C54.484795,40.096409 55.206097,41.201057 55.911674,41.783123
	C55.183949,42.515491 54.518890,43.784706 53.716606,43.878365
	C51.419945,44.146473 49.044205,44.140156 46.742031,43.874168
	C41.951874,43.320717 37.999950,44.366062 34.753139,48.275646
	C33.367355,49.944317 31.581533,52.704472 28.298527,49.929977
z"/>
<path fill="#ECF9F6" opacity="1.000000" stroke="none"
	d="
M52.231804,33.614143
	C48.361458,33.776592 44.897743,33.921867 41.455338,33.714111
	C40.632828,33.664467 39.881363,32.437706 39.097225,31.752346
	C39.876152,31.113251 40.625713,29.970064 41.439106,29.922678
	C44.884903,29.721943 48.374561,29.595272 51.799442,29.934151
	C54.428280,30.194265 54.758240,31.707745 52.231804,33.614143
z"/>
<path fill="#F0FAF8" opacity="1.000000" stroke="none"
	d="
M50.974243,26.201374
	C48.860973,26.198303 47.171406,26.404848 45.569374,26.119675
	C44.469761,25.923933 43.491772,25.044899 42.459419,24.471294
	C43.539566,23.695339 44.556862,22.385880 45.712379,22.249754
	C48.482380,21.923429 51.334400,21.972498 54.117245,22.242241
	C55.155029,22.342834 56.092468,23.478704 57.075661,24.142509
	C56.021656,24.826641 55.030128,25.658525 53.890587,26.140373
	C53.188995,26.437037 52.261391,26.199198 50.974243,26.201374
z"/>
<path fill="#EEFAF7" opacity="1.000000" stroke="none"
	d="
M59.833000,43.835926
	C57.796917,41.596752 58.488598,40.069813 60.973824,40.096008
	C63.039085,40.117779 65.094147,41.107441 67.153725,41.668350
	C66.498657,42.442322 65.950890,43.716793 65.165977,43.885052
	C63.580189,44.224991 61.865643,43.964256 59.833000,43.835926
z"/>
</svg>