<svg width="182" height="48" viewBox="0 0 182 48" fill="none" xmlns="http://www.w3.org/2000/svg">
<path d="M3.74159 33.2595C4.19925 33.7196 4.82852 34.0072 5.51501 34.0072C6.14428 34.0072 6.77356 33.7196 7.28842 33.2595C7.74608 32.7993 8.03212 32.1667 8.03212 31.534C8.03212 30.2687 6.83077 29.0033 5.51501 29.0033C4.88573 29.0033 4.25645 29.2909 3.7988 29.751C3.34114 30.2111 3.05511 30.9013 3.05511 31.534C2.9979 32.1667 3.28394 32.7993 3.74159 33.2595Z" fill="#13806C"/>
<path d="M24.1595 35.084C25.0861 34.5639 25.4915 33.408 24.9703 32.4256C24.4491 31.5009 23.2908 31.1541 22.3642 31.6165C21.4375 32.1366 21.0321 33.2924 21.5534 34.2749C21.6113 34.4483 21.785 34.5639 21.9008 34.7372C22.48 35.3152 23.4066 35.4885 24.1595 35.084Z" fill="#13806C"/>
<path d="M15.6215 33.3131C16.6372 32.4954 16.8065 30.9769 16.0729 29.9256C15.2829 28.8744 13.8157 28.6991 12.7999 29.5168C11.7842 30.3345 11.6149 31.853 12.4049 32.9042C12.4613 32.9626 12.5178 33.0794 12.5742 33.1378C13.3642 33.9555 14.6622 34.0723 15.6215 33.3131Z" fill="#13806C"/>
<path d="M30.1786 37.3189C30.4133 37.5445 30.7654 37.7137 31.1761 37.7137C31.5281 37.7137 31.8802 37.5445 32.1735 37.3189C32.4082 37.0933 32.5842 36.7549 32.5842 36.4164C32.5842 35.6832 31.9388 35.1191 31.2348 35.1191C30.8827 35.1191 30.5307 35.2319 30.2373 35.514C30.0026 35.7396 29.8266 36.1344 29.8266 36.4728C29.7679 36.7549 29.9439 37.0933 30.1786 37.3189Z" fill="#13806C"/>
<path d="M30.5012 28.4697C31.4814 28.0075 31.9426 26.8518 31.4814 25.9272C31.0778 24.9449 29.9247 24.4826 28.9446 24.8871C27.9644 25.3494 27.5032 26.5051 27.9644 27.4296C28.0797 27.6608 28.195 27.8341 28.368 28.0075C28.9446 28.5853 29.7517 28.8165 30.5012 28.4697Z" fill="#13806C"/>
<path d="M3.9599 15.6698C4.58694 16.2999 5.38498 16.5863 6.18302 16.5863C6.98106 16.5863 7.77911 16.2426 8.40614 15.6698C9.03317 15.0397 9.37519 14.2377 9.31818 13.4357C9.31818 11.8318 7.83611 10.2852 6.18302 10.2852C5.38498 10.2852 4.52993 10.5716 3.9599 11.2017C3.38987 11.7745 3.04785 12.6338 3.04785 13.4357C3.04785 14.2377 3.33287 15.097 3.9599 15.6698Z" fill="#13806C"/>
<path d="M43.7249 26.1893C44.5785 25.965 45.0906 25.1238 44.9199 24.2827C44.6923 23.4415 43.8956 22.9368 43.0421 23.105C42.1885 23.3293 41.6764 24.1705 41.8471 25.0117C41.904 25.292 42.0747 25.5724 42.2454 25.7407C42.6437 26.1332 43.2128 26.3014 43.7249 26.1893Z" fill="#13806C"/>
<path d="M37.0789 22.3885C38.0339 22.0349 38.5395 20.9151 38.2024 19.9132C37.8653 18.9114 36.798 18.381 35.8429 18.7346C34.8879 19.0882 34.3823 20.2079 34.7194 21.2098C34.8317 21.5044 34.9441 21.7402 35.1688 21.917C35.6182 22.4474 36.4047 22.6831 37.0789 22.3885Z" fill="#13806C"/>
<path d="M30.2865 20.0091C31.5036 19.4243 32.0252 17.904 31.3877 16.676C30.7502 15.448 29.3013 14.9218 28.0262 15.565C26.8091 16.2082 26.3455 17.7285 26.9251 18.898C27.041 19.1319 27.2148 19.3658 27.3887 19.5413C28.1421 20.3014 29.3592 20.5353 30.2865 20.0091Z" fill="#13806C"/>
<path d="M23.1827 18.1321C24.5062 17.2685 24.8514 15.4837 23.9883 14.1595C23.1252 12.8353 21.3415 12.4899 20.018 13.3535C18.6946 14.2747 18.3494 16.0595 19.2125 17.3837C19.27 17.5564 19.4427 17.6715 19.5577 17.7867C20.5359 18.7079 22.0319 18.9382 23.1827 18.1321Z" fill="#13806C"/>
<path d="M15.7182 16.4441C16.9242 15.4096 17.0391 13.5706 16.0054 12.4212C14.9717 11.2143 13.1914 11.0419 11.9854 12.0764C10.7795 13.1108 10.6646 14.8924 11.6409 16.1567C11.6983 16.2142 11.7557 16.2717 11.8132 16.3292C12.9043 17.3636 14.5697 17.4211 15.7182 16.4441Z" fill="#13806C"/>
<path d="M3.84716 24.6796C4.361 25.1955 5.10322 25.4821 5.84543 25.4821C6.58765 25.4821 7.27277 25.1955 7.78662 24.6796C8.30046 24.1638 8.58593 23.4759 8.58593 22.7308C8.58593 21.2405 7.27278 19.9222 5.78834 19.9222C5.10322 19.9222 4.361 20.2088 3.84716 20.7247C3.33332 21.2405 3.04785 21.9857 3.04785 22.6735C3.04785 23.4759 3.33332 24.1638 3.84716 24.6796Z" fill="#13806C"/>
<path d="M37.5911 31.9032C38.5022 31.6166 39.0717 30.6422 38.787 29.7252C38.5022 28.8081 37.5341 28.235 36.6229 28.5216C35.7118 28.8081 35.1423 29.7825 35.427 30.6995C35.5409 30.9861 35.6548 31.2727 35.8826 31.4446C36.3382 31.9032 36.9646 32.0751 37.5911 31.9032Z" fill="#13806C"/>
<path d="M23.3596 26.2542C24.4503 25.5691 24.7947 24.1418 24.1059 23.057C23.4171 21.9722 21.982 21.6297 20.9488 22.3148C19.8581 22.9999 19.5137 24.4272 20.2025 25.512C20.3173 25.6833 20.4321 25.7975 20.5469 25.9116C21.2358 26.6539 22.4412 26.8251 23.3596 26.2542Z" fill="#13806C"/>
<path d="M15.7988 24.9434C16.884 24.0803 16.9982 22.4693 16.1415 21.376C15.2848 20.3404 13.6856 20.1677 12.6575 21.0308C11.5723 21.8939 11.401 23.5049 12.3148 24.5406C12.3719 24.5982 12.429 24.6557 12.4861 24.7132C13.3429 25.6338 14.8278 25.7489 15.7988 24.9434Z" fill="#13806C"/>
<path d="M54 7L54 41" stroke="#EBEBEB" stroke-linecap="round"/>
<path d="M168.179 29.7402V20.4659H170.793V22.0381H170.899C171.064 21.5435 171.347 21.1254 171.747 20.7839C172.148 20.4306 172.695 20.2539 173.39 20.2539C174.026 20.2539 174.568 20.4129 175.015 20.7309C175.463 21.0488 175.787 21.514 175.987 22.1264H176.04C176.122 21.8673 176.246 21.6259 176.411 21.4022C176.587 21.1666 176.799 20.9664 177.047 20.8015C177.294 20.6367 177.571 20.5071 177.877 20.4129C178.183 20.3069 178.513 20.2539 178.866 20.2539C179.761 20.2539 180.444 20.5719 180.915 21.2078C181.398 21.8438 181.64 22.7506 181.64 23.9283V29.7402H179.025V24.1403C179.025 22.9626 178.601 22.3737 177.753 22.3737C177.365 22.3737 177.011 22.4856 176.693 22.7094C176.375 22.9331 176.216 23.2747 176.216 23.734V29.7402H173.602V24.1403C173.602 22.9626 173.178 22.3737 172.33 22.3737C172.142 22.3737 171.953 22.4032 171.765 22.4621C171.588 22.5092 171.423 22.5916 171.27 22.7094C171.129 22.8272 171.011 22.9744 170.917 23.151C170.834 23.3159 170.793 23.5102 170.793 23.734V29.7402H168.179Z" fill="#13806C"/>
<path d="M162.127 29.9521C161.421 29.9521 160.791 29.8403 160.237 29.6165C159.684 29.381 159.213 29.0571 158.824 28.6449C158.447 28.221 158.159 27.7087 157.958 27.108C157.77 26.5074 157.676 25.8361 157.676 25.0942C157.676 24.364 157.77 23.7045 157.958 23.1157C158.147 22.5151 158.424 22.0028 158.789 21.5788C159.166 21.1548 159.625 20.831 160.167 20.6072C160.708 20.3717 161.327 20.2539 162.021 20.2539C162.787 20.2539 163.441 20.3835 163.982 20.6425C164.536 20.9016 164.983 21.2491 165.325 21.6848C165.678 22.1205 165.931 22.6269 166.084 23.204C166.249 23.7693 166.332 24.364 166.332 24.9882V25.7655H160.379V25.9068C160.379 26.5192 160.543 27.0079 160.873 27.373C161.203 27.7263 161.721 27.903 162.428 27.903C162.969 27.903 163.411 27.797 163.753 27.585C164.094 27.3612 164.412 27.0963 164.707 26.7901L166.014 28.4153C165.602 28.8981 165.06 29.275 164.389 29.5458C163.729 29.8167 162.975 29.9521 162.127 29.9521ZM162.074 22.1794C161.544 22.1794 161.126 22.3561 160.82 22.7094C160.526 23.0509 160.379 23.5102 160.379 24.0873V24.2286H163.629V24.0696C163.629 23.5043 163.499 23.0509 163.24 22.7094C162.993 22.3561 162.604 22.1794 162.074 22.1794Z" fill="#13806C"/>
<path d="M154.815 29.7437C153.908 29.7437 153.219 29.514 152.748 29.0547C152.289 28.5954 152.059 27.9242 152.059 27.0409V22.5009H150.752V20.4694H151.406C151.759 20.4694 152 20.387 152.13 20.2221C152.259 20.0454 152.324 19.7981 152.324 19.4802V17.9609H154.674V20.4694H156.511V22.5009H154.674V27.7122H156.37V29.7437H154.815Z" fill="#13806C"/>
<path d="M145.946 29.9521C145.051 29.9521 144.297 29.8108 143.685 29.5282C143.072 29.2338 142.525 28.8216 142.042 28.2916L143.579 26.7371C143.909 27.1021 144.274 27.3907 144.674 27.6027C145.075 27.8147 145.528 27.9206 146.034 27.9206C146.553 27.9206 146.912 27.8441 147.112 27.691C147.312 27.5261 147.412 27.3082 147.412 27.0374C147.412 26.6016 147.1 26.3425 146.476 26.2601L145.469 26.1364C143.385 25.8774 142.342 24.9234 142.342 23.2747C142.342 22.8271 142.425 22.4208 142.59 22.0558C142.766 21.6789 143.008 21.3609 143.314 21.1018C143.632 20.831 144.009 20.6249 144.444 20.4836C144.892 20.3305 145.393 20.2539 145.946 20.2539C146.429 20.2539 146.853 20.2892 147.218 20.3599C147.595 20.4188 147.925 20.513 148.207 20.6425C148.502 20.7603 148.767 20.9134 149.002 21.1018C149.249 21.2785 149.491 21.4787 149.726 21.7025L148.225 23.2393C147.93 22.9449 147.595 22.7153 147.218 22.5504C146.853 22.3737 146.476 22.2854 146.087 22.2854C145.64 22.2854 145.322 22.3561 145.133 22.4974C144.945 22.6387 144.851 22.8271 144.851 23.0627C144.851 23.31 144.916 23.5043 145.045 23.6456C145.186 23.7752 145.445 23.8694 145.822 23.9283L146.865 24.0696C148.902 24.3405 149.921 25.2708 149.921 26.8607C149.921 27.3082 149.826 27.7204 149.638 28.0973C149.45 28.4742 149.179 28.8039 148.825 29.0866C148.484 29.3574 148.066 29.5694 147.571 29.7225C147.088 29.8756 146.547 29.9521 145.946 29.9521Z" fill="#13806C"/>
<path d="M139.192 20.4727H141.629L138.061 31.1778C137.826 31.8962 137.49 32.4262 137.054 32.7677C136.63 33.1092 136.018 33.28 135.217 33.28H133.592V31.2485H135.341L135.659 30.2239L132.408 20.4727H135.005L136.365 24.8007L137.037 27.4858H137.143L137.831 24.8007L139.192 20.4727Z" fill="#13806C"/>
<path d="M126.631 29.9575C125.547 29.9575 124.628 29.7749 123.875 29.4098C123.121 29.033 122.479 28.5501 121.949 27.9613L123.716 26.1771C124.552 27.1192 125.582 27.5903 126.807 27.5903C127.467 27.5903 127.955 27.4549 128.273 27.184C128.591 26.9131 128.75 26.554 128.75 26.1064C128.75 25.7649 128.656 25.4823 128.468 25.2585C128.279 25.023 127.897 24.864 127.319 24.7815L126.101 24.6225C124.793 24.4577 123.834 24.0631 123.221 23.439C122.62 22.8148 122.32 21.9845 122.32 20.9482C122.32 20.3947 122.426 19.8882 122.638 19.429C122.85 18.9697 123.15 18.5751 123.539 18.2454C123.94 17.9156 124.422 17.6624 124.988 17.4858C125.565 17.2973 126.218 17.2031 126.948 17.2031C127.879 17.2031 128.697 17.3503 129.404 17.6448C130.111 17.9392 130.717 18.369 131.223 18.9343L129.439 20.7362C129.145 20.3947 128.786 20.1179 128.362 19.9059C127.95 19.6822 127.425 19.5703 126.79 19.5703C126.189 19.5703 125.741 19.6763 125.447 19.8882C125.153 20.1002 125.005 20.3947 125.005 20.7715C125.005 21.1955 125.117 21.5017 125.341 21.6901C125.576 21.8785 125.953 22.014 126.472 22.0964L127.69 22.2907C128.962 22.4909 129.904 22.8855 130.517 23.4743C131.129 24.0514 131.435 24.8757 131.435 25.9474C131.435 26.5363 131.329 27.078 131.118 27.5726C130.906 28.0673 130.593 28.4912 130.181 28.8446C129.781 29.1979 129.28 29.4746 128.68 29.6748C128.079 29.8633 127.396 29.9575 126.631 29.9575Z" fill="#13806C"/>
<path d="M107.799 29.7402V20.4659H110.413V22.0381H110.519C110.684 21.5552 110.973 21.1372 111.385 20.7839C111.797 20.4306 112.368 20.2539 113.098 20.2539C114.052 20.2539 114.771 20.5719 115.254 21.2078C115.748 21.8438 115.996 22.7506 115.996 23.9283V29.7402H113.381V24.1403C113.381 23.5396 113.287 23.098 113.098 22.8154C112.91 22.521 112.574 22.3737 112.091 22.3737C111.88 22.3737 111.673 22.4032 111.473 22.4621C111.273 22.5092 111.09 22.5916 110.926 22.7094C110.772 22.8272 110.649 22.9744 110.555 23.151C110.46 23.3159 110.413 23.5102 110.413 23.734V29.7402H107.799Z" fill="#13806C"/>
<path d="M106.637 30.4133C106.637 30.908 106.549 31.3437 106.372 31.7206C106.207 32.0974 105.931 32.4154 105.542 32.6745C105.153 32.9454 104.635 33.1456 103.987 33.2751C103.352 33.4164 102.562 33.4871 101.62 33.4871C100.82 33.4871 100.136 33.4341 99.5712 33.3281C99.0176 33.2339 98.5642 33.0926 98.2109 32.9042C97.8694 32.7275 97.6162 32.5037 97.4513 32.2329C97.2982 31.9738 97.2217 31.6735 97.2217 31.3319C97.2217 30.8138 97.3748 30.4075 97.681 30.113C97.9872 29.8186 98.4111 29.6361 98.9529 29.5654V29.3711C98.5054 29.2887 98.1697 29.1002 97.946 28.8058C97.7222 28.4996 97.6103 28.1463 97.6103 27.7459C97.6103 27.4986 97.6574 27.2866 97.7516 27.1099C97.8576 26.9215 97.9872 26.7625 98.1403 26.633C98.3051 26.4917 98.4936 26.3798 98.7056 26.2973C98.9175 26.2149 99.1295 26.1501 99.3415 26.103V26.0324C98.7762 25.7733 98.3581 25.42 98.0873 24.9724C97.8164 24.5131 97.681 23.9832 97.681 23.3826C97.681 22.4404 98.0048 21.6867 98.6526 21.1214C99.3121 20.5443 100.313 20.2558 101.656 20.2558C102.268 20.2558 102.792 20.3147 103.228 20.4325V20.0792C103.228 19.5845 103.346 19.2312 103.581 19.0192C103.828 18.7955 104.176 18.6836 104.623 18.6836H106.09V20.6268H104.04V20.7328C104.582 20.9919 104.983 21.3511 105.242 21.8104C105.501 22.2579 105.63 22.7819 105.63 23.3826C105.63 24.3129 105.301 25.0608 104.641 25.6261C103.993 26.1796 102.998 26.4563 101.656 26.4563C101.055 26.4563 100.507 26.3915 100.013 26.262C99.7419 26.4387 99.6065 26.686 99.6065 27.0039C99.6065 27.2277 99.6889 27.4044 99.8538 27.5339C100.03 27.6517 100.319 27.7106 100.719 27.7106H103.405C104.535 27.7106 105.354 27.9461 105.86 28.4172C106.378 28.8882 106.637 29.5536 106.637 30.4133ZM104.182 30.7667C104.182 30.4958 104.076 30.2897 103.864 30.1484C103.652 30.007 103.281 29.9364 102.751 29.9364H99.5712C99.4534 30.0542 99.3651 30.1837 99.3062 30.325C99.2591 30.4781 99.2355 30.6253 99.2355 30.7667C99.2355 31.1082 99.3827 31.3555 99.6772 31.5086C99.9716 31.6735 100.472 31.7559 101.179 31.7559H102.239C102.945 31.7559 103.446 31.6735 103.74 31.5086C104.035 31.3555 104.182 31.1082 104.182 30.7667ZM101.656 24.7428C102.174 24.7428 102.557 24.6368 102.804 24.4248C103.063 24.2011 103.193 23.8831 103.193 23.4709V23.2589C103.193 22.8467 103.063 22.5346 102.804 22.3226C102.557 22.0989 102.174 21.987 101.656 21.987C101.137 21.987 100.749 22.0989 100.49 22.3226C100.242 22.5346 100.119 22.8467 100.119 23.2589V23.4709C100.119 23.8831 100.242 24.2011 100.49 24.4248C100.749 24.6368 101.137 24.7428 101.656 24.7428Z" fill="#13806C"/>
<path d="M94.3044 19.4795C93.7744 19.4795 93.3858 19.3617 93.1385 19.1262C92.9029 18.8789 92.7852 18.5668 92.7852 18.1899V17.8013C92.7852 17.4244 92.9029 17.1182 93.1385 16.8827C93.3858 16.6354 93.7744 16.5117 94.3044 16.5117C94.8343 16.5117 95.2171 16.6354 95.4526 16.8827C95.6999 17.1182 95.8236 17.4244 95.8236 17.8013V18.1899C95.8236 18.5668 95.6999 18.8789 95.4526 19.1262C95.2171 19.3617 94.8343 19.4795 94.3044 19.4795ZM92.9971 20.4687H95.6116V29.743H92.9971V20.4687Z" fill="#13806C"/>
<path d="M87.24 29.9521C86.3449 29.9521 85.5912 29.8108 84.9788 29.5282C84.3664 29.2338 83.8188 28.8216 83.3359 28.2916L84.8728 26.7371C85.2026 27.1021 85.5677 27.3907 85.9681 27.6027C86.3685 27.8147 86.8219 27.9206 87.3283 27.9206C87.8465 27.9206 88.2057 27.8441 88.4059 27.691C88.6061 27.5261 88.7062 27.3082 88.7062 27.0374C88.7062 26.6016 88.3941 26.3425 87.7699 26.2601L86.763 26.1364C84.6785 25.8774 83.6362 24.9234 83.6362 23.2747C83.6362 22.8271 83.7187 22.4208 83.8836 22.0558C84.0602 21.6789 84.3016 21.3609 84.6078 21.1018C84.9258 20.831 85.3027 20.6249 85.7384 20.4836C86.1859 20.3305 86.6865 20.2539 87.24 20.2539C87.7228 20.2539 88.1468 20.2892 88.5119 20.3599C88.8887 20.4188 89.2185 20.513 89.5011 20.6425C89.7955 20.7603 90.0605 20.9134 90.2961 21.1018C90.5434 21.2785 90.7848 21.4787 91.0203 21.7025L89.5188 23.2393C89.2244 22.9449 88.8887 22.7153 88.5119 22.5504C88.1468 22.3737 87.7699 22.2854 87.3813 22.2854C86.9338 22.2854 86.6158 22.3561 86.4274 22.4974C86.2389 22.6387 86.1447 22.8271 86.1447 23.0627C86.1447 23.31 86.2095 23.5043 86.339 23.6456C86.4804 23.7752 86.7394 23.8694 87.1163 23.9283L88.1586 24.0696C90.196 24.3405 91.2147 25.2708 91.2147 26.8607C91.2147 27.3082 91.1204 27.7204 90.932 28.0973C90.7436 28.4742 90.4727 28.8039 90.1194 29.0866C89.7779 29.3574 89.3598 29.5694 88.8652 29.7225C88.3823 29.8756 87.8406 29.9521 87.24 29.9521Z" fill="#13806C"/>
<path d="M78.0444 29.9521C77.3378 29.9521 76.7078 29.8403 76.1542 29.6165C75.6007 29.381 75.1297 29.0571 74.741 28.6449C74.3642 28.221 74.0756 27.7087 73.8754 27.108C73.687 26.5074 73.5928 25.8361 73.5928 25.0942C73.5928 24.364 73.687 23.7045 73.8754 23.1157C74.0638 22.5151 74.3406 22.0028 74.7057 21.5788C75.0825 21.1548 75.5418 20.831 76.0836 20.6072C76.6253 20.3717 77.2436 20.2539 77.9384 20.2539C78.7039 20.2539 79.3575 20.3835 79.8993 20.6425C80.4528 20.9016 80.9003 21.2491 81.2418 21.6848C81.5951 22.1205 81.8484 22.6269 82.0015 23.204C82.1663 23.7693 82.2488 24.364 82.2488 24.9882V25.7655H76.2956V25.9068C76.2956 26.5192 76.4604 27.0079 76.7902 27.373C77.1199 27.7263 77.6381 27.903 78.3447 27.903C78.8865 27.903 79.3281 27.797 79.6696 27.585C80.0112 27.3612 80.3291 27.0963 80.6236 26.7901L81.9308 28.4153C81.5186 28.8981 80.9769 29.275 80.3056 29.5458C79.6461 29.8167 78.8924 29.9521 78.0444 29.9521ZM77.9914 22.1794C77.4615 22.1794 77.0434 22.3561 76.7372 22.7094C76.4428 23.0509 76.2956 23.5102 76.2956 24.0873V24.2286H79.546V24.0696C79.546 23.5043 79.4164 23.0509 79.1573 22.7094C78.91 22.3561 78.5214 22.1794 77.9914 22.1794Z" fill="#13806C"/>
<path d="M62 17.4141H66.646C67.4586 17.4141 68.2005 17.5436 68.8718 17.8027C69.5431 18.0618 70.1143 18.4504 70.5853 18.9686C71.0564 19.475 71.4215 20.1169 71.6806 20.8941C71.9397 21.6596 72.0692 22.5547 72.0692 23.5792C72.0692 24.6038 71.9397 25.5048 71.6806 26.282C71.4215 27.0475 71.0564 27.6894 70.5853 28.2076C70.1143 28.714 69.5431 29.0967 68.8718 29.3558C68.2005 29.6149 67.4586 29.7444 66.646 29.7444H62V17.4141ZM66.646 27.3596C67.4468 27.3596 68.0769 27.1359 68.5362 26.6883C68.9955 26.2408 69.2251 25.5224 69.2251 24.5332V22.6253C69.2251 21.6361 68.9955 20.9177 68.5362 20.4702C68.0769 20.0226 67.4468 19.7989 66.646 19.7989H64.6851V27.3596H66.646Z" fill="#13806C"/>
</svg>
