<svg xmlns="http://www.w3.org/2000/svg" width="243" height="40" viewBox="0 0 243 40" fill="none">
<g clip-path="url(#clip0_137_3783)">
<path d="M104.978 -0.0414432C96.5703 -0.0460814 88.1627 -0.0460814 79.7597 -0.0414432C78.1737 -0.0414432 77.223 0.733139 77.1767 2.00865C77.1257 3.33518 78.1273 4.20716 79.7504 4.21644C82.8482 4.23036 85.946 4.26746 89.0438 4.19325C90.1197 4.16542 90.3515 4.50865 90.3469 5.52906C90.3052 13.9381 90.3237 22.3472 90.3283 30.7563C90.3283 32.4168 91.0379 33.261 92.3827 33.2517C93.7136 33.2424 94.4278 32.3751 94.4324 30.7285C94.4371 26.568 94.4324 22.4075 94.4371 18.2471C94.4371 13.9984 94.4742 9.74984 94.4093 5.50123C94.3907 4.42052 94.7339 4.17934 95.7541 4.19789C98.8055 4.26282 101.862 4.22572 104.913 4.21644C106.592 4.2118 107.491 3.43722 107.473 2.04575C107.45 0.672842 106.615 -0.0414432 104.978 -0.0414432Z" fill="#00778B"/>
<path d="M140.069 29.0169C139.716 28.9984 139.359 29.0123 139.007 29.0123C132.153 29.0123 125.294 29.0169 118.44 29.0076C116.492 29.003 115.309 27.8991 115.3 26.0253C115.277 20.0976 115.277 14.17 115.3 8.24233C115.309 6.05309 116.928 4.27665 119.103 4.24882C124.144 4.17925 129.189 4.17925 134.225 4.26274C136.331 4.29984 137.898 6.06237 137.991 8.17739C138.014 8.70615 137.996 9.23955 137.996 9.7683C137.991 12.9037 136.414 14.4761 133.247 14.4807C129.486 14.4854 125.73 14.4668 121.969 14.49C120.689 14.4993 119.724 15.3156 119.701 16.4427C119.678 17.6254 120.188 18.4835 121.5 18.618C125.92 18.618 130.339 18.6134 134.763 18.6134C136.618 18.5438 138.13 17.7275 139.512 16.5447C142.633 13.8685 142.837 8.45569 141.566 5.19038C140.421 2.24975 138.223 0.487227 135.028 0.092978C129.458 -0.106465 123.889 -0.097189 118.319 0.0883398C114.34 0.454759 111.131 3.78036 111.066 7.89446C110.969 14.0865 110.969 20.2831 111.066 26.4705C111.126 30.3017 114.289 33.2331 118.152 33.2702C121.027 33.298 123.903 33.2748 126.778 33.2748C131.202 33.2748 135.621 33.2887 140.045 33.2609C141.376 33.2516 142.244 32.324 142.206 31.0902C142.183 29.9214 141.335 29.0911 140.069 29.0169Z" fill="#00778B"/>
<path d="M242.25 8.19582C242.212 3.56223 238.554 -0.0231116 233.944 -0.0416645C227.178 -0.0694938 220.412 -0.0555791 213.646 -0.0463027C211.782 -0.0463027 211.054 0.644792 211.049 2.50472C211.031 10.3758 210.998 18.2515 211.063 26.1225C211.091 29.898 213.762 32.7877 217.324 33.1448C217.806 33.1819 218.288 33.2468 218.766 33.2468C225.634 33.2515 232.497 33.2515 239.365 33.2468C239.801 33.2468 240.237 33.1726 240.673 33.1355C241.879 32.8619 242.263 31.9899 242.263 30.8813C242.273 23.3211 242.314 15.7608 242.25 8.19582ZM215.283 25.6123C215.269 22.2496 215.278 18.8916 215.278 15.5288C215.278 12.1244 215.302 8.71993 215.26 5.31548C215.251 4.46205 215.478 4.18839 216.373 4.19303C222.207 4.23478 228.045 4.20231 233.879 4.22086C236.239 4.23014 238.02 5.95555 238.03 8.30713C238.062 14.8517 238.025 21.3962 238.062 27.9407C238.067 28.8637 237.719 29.0307 236.903 29.0261C230.8 28.9982 224.702 29.0214 218.599 29.0075C216.401 29.0029 215.292 27.8619 215.283 25.6123Z" fill="#00778B"/>
<path d="M205.145 29.0122C199.617 29.0122 194.085 29.0168 188.557 29.0075C185.561 29.0029 183.896 27.3285 183.896 24.3044C183.892 18.1123 183.924 11.9157 183.868 5.72366C183.859 4.527 184.142 4.1745 185.38 4.18378C191.882 4.24871 198.384 4.20233 204.89 4.22552C206.077 4.23016 206.991 3.88229 207.389 2.69955C207.895 1.20604 206.805 -0.0416402 204.983 -0.0462784C197.637 -0.0509166 190.296 -0.0462784 182.95 -0.0462784C180.261 -0.0462784 179.672 0.528861 179.672 3.1912C179.667 9.91661 179.662 16.642 179.676 23.3674C179.676 24.3368 179.741 25.3109 179.857 26.2756C180.298 29.8609 183.46 32.8712 187.045 33.1494C191.158 33.3906 195.272 33.2237 199.385 33.2422C201.551 33.2515 203.721 33.386 205.882 33.1448C207.158 32.8526 207.626 31.9481 207.436 30.7747C207.241 29.5548 206.36 29.0122 205.145 29.0122Z" fill="#00778B"/>
<path d="M173.625 -0.0415192C165.222 -0.0507957 156.823 -0.0461575 148.421 -0.0415192C146.76 -0.0415192 145.81 0.774807 145.847 2.12453C145.884 3.42787 146.816 4.20709 148.388 4.21173C151.393 4.221 154.403 4.27202 157.408 4.1839C158.609 4.14679 158.938 4.46219 158.929 5.69132C158.869 14.0494 158.906 22.4121 158.892 30.7702C158.887 31.9715 159.263 32.8991 160.501 33.1681C161.6 33.4093 162.514 33.0754 162.898 31.8741C163.274 31.3592 163.121 30.7655 163.121 30.2089C163.13 21.939 163.14 13.6691 163.107 5.39447C163.103 4.49002 163.311 4.17462 164.271 4.19318C167.364 4.25347 170.462 4.221 173.555 4.21173C175.215 4.20709 176.157 3.40932 176.134 2.04568C176.115 0.733063 175.211 -0.0415192 173.625 -0.0415192Z" fill="#00778B"/>
<path d="M56.5954 -0.0277255H45.0761C44.028 -0.0277255 42.9707 -0.0741077 41.9226 -0.0277255C40.3691 0.0372095 38.9037 0.579881 37.5078 1.23387C33.8257 2.96393 30.7233 5.93702 28.0522 8.94259H31.2288C29.3228 7.27747 27.4679 5.51958 25.4923 3.93331C23.6281 2.43517 21.3789 1.43331 19.0417 0.9463C15.406 0.190271 11.6729 0.672645 7.99076 0.681922C6.11262 0.68656 4.22519 0.672645 2.35168 0.533499C1.13668 0.440734 0.102539 1.63739 0.102539 2.7784V27.2079V30.6402C0.102539 31.8554 1.13204 32.8851 2.34704 32.8851H12.7812H15.2576C15.457 32.8851 15.6564 32.8804 15.8558 32.8851C15.8975 32.8851 15.9439 32.8851 15.9856 32.8851C16.0413 32.8851 16.1016 32.8897 16.1572 32.8897C16.6627 32.9083 15.8651 32.8201 16.2732 32.9036C19.371 33.5437 21.7731 35.3387 24.0501 37.4908C25.0332 38.4185 26.0117 39.3461 26.9948 40.2691C27.3983 40.6494 27.8296 41.1504 28.3119 41.4333C30.3013 42.5975 32.3464 39.912 33.6449 38.7153C34.9248 37.5372 36.2465 36.3869 37.4893 35.1671C37.5867 35.0697 37.6748 34.9676 37.7722 34.8702C37.8974 34.7496 38.0226 34.629 38.1478 34.5131C38.2174 34.4528 38.8202 33.9704 38.5744 34.1467C39.6689 33.3443 40.8375 32.7738 42.2194 32.8526C47.0099 33.1309 51.7818 33.27 56.5861 33.219C59.4752 33.1866 59.4845 28.6968 56.5861 28.7246C52.2131 28.771 47.7936 28.8359 43.4344 28.4741C41.8855 28.3443 40.4248 28.3257 38.9362 28.8776C37.48 29.4203 36.1955 30.2459 35.0361 31.271C34.0808 32.1151 33.1765 33.0289 32.2397 33.8916C30.7929 35.2274 29.346 36.5585 27.8991 37.8943C28.4278 37.6763 28.9565 37.4537 29.4898 37.2357H29.448C29.9767 37.4537 30.5054 37.6763 31.0387 37.8943C27.0783 34.1884 23.322 29.963 17.836 28.6457C16.4633 28.3164 15.0906 28.3814 13.6948 28.3814H6.98445H2.34704C3.09366 29.1281 3.84492 29.8795 4.59155 30.6263V6.21068V2.7784C3.84492 3.52515 3.09366 4.27654 2.34704 5.02329C3.72435 5.12533 5.1063 5.15316 6.48361 5.16708C8.06032 5.18563 9.6324 5.16708 11.2091 5.12533C13.0826 5.07431 14.984 4.87487 16.8528 5.11142C19.1066 5.38971 20.6787 6.03906 22.4595 7.23109C22.8676 7.50474 22.4456 7.21253 22.4456 7.21717C22.5244 7.29138 22.6125 7.35168 22.6913 7.42589C22.7702 7.5001 22.849 7.57431 22.9278 7.64853C23.2803 7.96392 23.642 8.27005 23.9991 8.58545C25.3486 9.76355 26.6981 10.9463 28.0522 12.1244C28.924 12.8851 30.3802 13.0799 31.2288 12.1244C33.5289 9.53628 36.0656 7.04556 39.1541 5.42682C39.386 5.30623 39.6225 5.19491 39.8544 5.07895C40.3738 4.82385 39.6086 5.14389 40.1048 4.96764C40.4711 4.83777 40.8329 4.70326 41.2085 4.60122C41.445 4.53628 41.7372 4.527 41.9644 4.43888C41.8948 4.46671 41.3801 4.46207 41.8995 4.46671C45.1688 4.49454 48.4382 4.46671 51.7076 4.46671H56.5908C59.4891 4.46207 59.4938 -0.0277255 56.5954 -0.0277255Z" fill="#00778B"/>
<path d="M41.2086 21.4285H54.2351C57.1242 21.4285 57.1288 16.9341 54.2351 16.9341H41.2086C38.3195 16.9341 38.3149 21.4285 41.2086 21.4285Z" fill="#DD5354"/>
<path d="M45.1412 12.8895H58.1677C61.0568 12.8895 61.0614 8.39502 58.1677 8.39502H45.1412C42.2521 8.39502 42.2475 12.8895 45.1412 12.8895Z" fill="#279B6F"/>
<path d="M61.5385 21.4288H64.6826C65.8559 21.4288 66.9828 20.3944 66.9271 19.1839C66.8715 17.9686 65.9394 16.939 64.6826 16.939H61.5385C60.3652 16.939 59.2383 17.9733 59.294 19.1839C59.3496 20.3991 60.2817 21.4288 61.5385 21.4288Z" fill="#DD5354"/>
<path d="M63.5611 33.2234H69.6269C72.516 33.2234 72.5206 28.729 69.6269 28.729H63.5611C60.672 28.729 60.6674 33.2234 63.5611 33.2234Z" fill="#279B6F"/>






































































































</g>
<defs>
<clipPath id="clip0_137_3783">
<rect width="243" height="80" fill="white"/>
</clipPath>
</defs>
</svg>