<svg width="32" height="23" viewBox="0 0 32 23" fill="none" xmlns="http://www.w3.org/2000/svg">
<g clip-path="url(#clip0_7_15103)">
<rect width="32" height="23" fill="white"/>
<rect width="32" height="24" fill="#006923"/>
<path fill-rule="evenodd" clip-rule="evenodd" d="M13.0736 5C13.0496 5 13.0136 5.012 12.9676 5.04C12.8596 5.11201 12.6476 5.33403 12.6396 5.59004C12.6336 5.73606 12.6056 5.73606 12.6996 5.83006C12.7676 5.92607 12.8396 5.91807 12.9756 5.84406C13.0556 5.78406 13.0816 5.75006 13.1096 5.65205C13.1416 5.49204 12.9356 5.73205 12.9096 5.54804C12.8636 5.38003 12.9956 5.30802 13.1196 5.14801C13.1236 5.06801 13.1236 5.008 13.0736 5.004V5ZM15.0798 5.01C15.0397 5.018 14.9937 5.07001 14.9277 5.18601C14.8817 5.31002 14.6797 5.49804 14.8277 5.88607C14.9437 6.13208 14.9937 6.53011 14.9397 6.97615C14.8557 7.10216 14.8397 7.14616 14.7297 7.27217C14.5777 7.43818 14.4097 7.39618 14.2857 7.33217C14.1657 7.25217 14.0737 7.21216 14.0197 6.96015C14.0297 6.56012 14.0537 5.89607 13.9797 5.75606C13.8717 5.54004 13.6916 5.61605 13.6156 5.68205C13.2496 6.02208 13.0676 6.58812 12.9556 7.04215C12.8556 7.37018 12.7456 7.27417 12.6696 7.14216C12.4836 6.96615 12.4696 5.60205 12.2455 5.82806C11.8855 6.85614 12.4516 7.98222 12.8456 7.87221C13.1256 7.99222 13.3056 7.45218 13.4216 6.86214C13.5016 6.69613 13.5616 6.67613 13.6016 6.76213C13.5916 7.54619 13.6616 7.7222 13.8617 7.95822C14.3097 8.30625 14.6817 8.00222 14.7117 7.97422L15.0618 7.62619C15.1418 7.54619 15.2418 7.53819 15.3518 7.61019C15.4598 7.7102 15.4458 7.87621 15.6718 7.99022C15.8678 8.07023 16.2778 8.01022 16.3718 7.84421C16.5019 7.6242 16.5319 7.54819 16.5919 7.46418C16.6839 7.34417 16.8419 7.39818 16.8419 7.43618C16.8279 7.50619 16.7359 7.57619 16.7979 7.6962C16.9079 7.77621 16.9339 7.7242 16.9979 7.7062C17.2259 7.59819 17.3979 7.10216 17.3979 7.10216C17.4079 6.91814 17.3039 6.93214 17.2379 6.97015C17.1479 7.02415 17.1439 7.04215 17.0579 7.09616C16.9439 7.11216 16.7279 7.18616 16.6219 7.02015C16.5119 6.82014 16.5119 6.54412 16.4279 6.3401C16.4279 6.3281 16.2818 6.02608 16.4159 6.00807C16.4819 6.02008 16.6299 6.05808 16.6519 5.93607C16.7239 5.81606 16.4979 5.47604 16.3438 5.30802C16.2118 5.16201 16.0278 5.14401 15.8498 5.29202C15.7238 5.40803 15.7438 5.53604 15.7178 5.65805C15.6878 5.79806 15.6938 5.97207 15.8378 6.15809C15.9618 6.4021 16.1878 6.71813 16.1118 7.16216C16.1118 7.16216 15.9818 7.37418 15.7518 7.34617C15.6518 7.32617 15.4958 7.28617 15.4118 6.66612C15.3518 6.20009 15.4278 5.54604 15.2318 5.24002C15.1858 5.12601 15.1478 5.014 15.0838 5.02L15.0798 5.01ZM14.4437 5.062C14.3837 5.06801 14.3177 5.13801 14.2637 5.27202C14.2177 5.37603 14.1597 5.91207 14.1697 5.91207C14.1297 6.07208 14.3357 6.14008 14.4297 5.93607C14.5697 5.55604 14.5697 5.39603 14.5777 5.24002C14.5577 5.12001 14.5037 5.058 14.4437 5.062ZM16.7899 5.10201C16.7299 5.11001 16.6799 5.14601 16.6619 5.23802C16.6359 5.45003 16.6499 5.56804 16.6859 5.74606C16.7119 5.86606 16.8859 6.06208 16.9699 6.17809C17.3759 6.72413 17.77 7.27217 18.146 7.83821C18.206 8.26224 18.246 8.67427 18.276 9.0863C18.34 9.98637 18.356 11.1065 18.302 12.0565C18.47 12.0625 18.742 11.7825 18.836 11.3765C18.896 10.8084 18.816 9.65635 18.808 9.32032L18.788 8.84429C19.2281 9.56434 19.6521 10.3244 20.0681 11.1565C20.2221 11.0845 20.1881 10.2264 20.1001 10.1064C19.7641 9.38633 19.3001 8.67427 19.1541 8.40025C19.1001 8.30025 18.918 8.02623 18.704 7.7082C18.664 7.25217 18.62 6.86814 18.592 6.75213C18.522 6.27209 18.788 6.80613 18.752 6.52811C18.664 6.04808 18.4 5.72405 18.088 5.28402C17.988 5.14401 17.988 5.11201 17.834 5.32002C17.7439 5.53004 17.7439 5.70605 17.774 5.87006C17.7299 5.81006 17.6799 5.74205 17.6079 5.65405L17.0979 5.22202C17.0279 5.17201 16.8919 5.09601 16.7899 5.10201ZM23.7424 5.17601C23.7124 5.17201 23.6824 5.18601 23.6424 5.24002C23.5724 5.30002 23.4984 5.41403 23.5024 5.56004C23.5164 5.81006 23.5624 6.06808 23.5784 6.3201L23.5984 6.42011C23.5704 6.3881 23.5464 6.3601 23.5324 6.3481C23.0383 5.82806 23.7584 6.26009 23.4364 5.86206C23.1664 5.56204 23.0863 5.47004 22.8563 5.29002C22.7363 5.21802 22.6683 5.07401 22.6303 5.31802C22.6143 5.53204 22.5983 5.78206 22.6103 5.96207C22.6103 6.06208 22.7163 6.25209 22.8063 6.3621C23.1343 6.76813 23.4704 7.19816 23.8064 7.6462C23.8784 8.56026 23.8964 9.39833 23.9664 10.3144C23.9584 10.7064 23.8384 11.2265 23.7264 11.2745C23.7264 11.2745 23.5504 11.3745 23.4344 11.2645C23.3484 11.2305 23.0103 10.6984 23.0103 10.6984C22.8363 10.5384 22.7203 10.5844 22.5983 10.6984C22.2583 11.0264 22.1023 11.6425 21.8723 12.0665C21.8123 12.1605 21.6462 12.2425 21.4602 12.0585C20.9862 11.4105 21.2602 10.4884 21.2042 10.7264C20.7842 11.2025 20.9682 11.9905 21.0642 12.1605C21.2042 12.4406 21.3162 12.6206 21.5842 12.7546C21.8343 12.9346 22.0243 12.8246 22.1323 12.6946C22.3803 12.4386 22.3843 11.7805 22.5003 11.6505C22.5803 11.4105 22.7863 11.4505 22.8863 11.5585C22.9863 11.6985 23.0983 11.7885 23.2404 11.8645C23.4724 12.0685 23.7484 12.1045 24.0204 11.9185C24.2064 11.8145 24.3284 11.6785 24.4364 11.4105C24.5565 11.0985 24.4965 9.45833 24.4704 8.54626L24.9905 9.29832C25.0625 10.0984 25.0965 10.8884 25.0705 11.6445C25.0545 11.7945 25.5965 11.1965 25.5905 10.9124C25.5905 10.6664 25.5945 10.4404 25.5905 10.2324C25.8566 10.6524 26.1106 11.0785 26.3506 11.5125C26.5006 11.4325 26.4506 10.5864 26.3566 10.4724C26.1046 10.0484 25.7805 9.59234 25.5305 9.23632C25.4805 8.79028 25.4145 8.26424 25.3825 8.10223C25.3365 7.85021 25.2885 7.47218 25.2165 7.17416C25.1965 7.06015 25.1365 6.68813 25.1565 6.65412C25.1845 6.56812 25.2965 6.65412 25.3505 6.55812C25.4305 6.46811 25.0665 5.51804 24.8805 5.25002C24.8145 5.13001 24.6925 5.17001 24.5445 5.37003C24.4044 5.49804 24.4564 5.79406 24.5085 6.07608C24.6445 6.79613 24.7685 7.52419 24.8645 8.25624C24.6845 7.98622 24.4644 7.6622 24.2484 7.35217L24.2204 7.21216C24.2204 7.19616 24.1924 6.62212 24.1664 6.48611C24.1604 6.43011 24.1464 6.41411 24.2064 6.42211C24.2664 6.47411 24.2744 6.47611 24.3124 6.49411C24.3764 6.50211 24.4324 6.3981 24.3924 6.3001L23.8124 5.23202C23.7924 5.20602 23.7644 5.18201 23.7324 5.17801L23.7424 5.17601ZM5.80106 5.19602C5.69105 5.19201 5.57505 5.25602 5.62105 5.38603C5.59305 5.45603 5.82906 5.69205 5.87107 5.82206C5.90507 5.91607 5.83106 6.21209 5.91107 6.24209C5.98108 6.27209 6.07908 6.03408 6.11509 5.81606C6.13509 5.69605 6.12109 5.28402 5.84106 5.20002C5.82706 5.19601 5.81306 5.19601 5.79706 5.19401L5.80106 5.19602ZM26.2426 5.19602C26.2166 5.20002 26.1866 5.23602 26.1426 5.33602C26.0326 5.51604 25.9946 5.83606 26.0386 6.11608C26.2986 7.89622 26.4986 9.62034 26.5386 11.1965C26.5146 11.3485 26.5066 11.4285 26.4386 11.6165C26.2826 11.8165 26.1106 12.0645 25.9486 12.1845C25.7885 12.3045 25.4445 12.4206 25.3325 12.5086C24.9725 12.7126 24.9725 12.9486 25.2605 12.9586C25.7565 12.8986 26.3446 12.8586 26.7486 12.2485C26.8566 12.0785 26.9846 11.6145 26.9886 11.3285C27.0286 9.66835 26.9686 8.03823 26.7186 6.83614C26.7026 6.71613 26.6506 6.45011 26.6706 6.41611C26.7006 6.3321 26.8626 6.42211 26.9206 6.3281C27.0066 6.24009 26.5006 5.59404 26.3246 5.31802C26.2886 5.25002 26.2646 5.19201 26.2366 5.19802L26.2426 5.19602ZM21.0362 5.22402C21.0162 5.22802 20.9882 5.26002 20.9322 5.33402C20.7922 5.78606 20.7442 6.15409 20.7982 6.43811C21.1582 8.29825 21.5182 9.98837 21.4622 11.7585C21.6302 11.7585 21.8263 11.3725 21.9103 10.9884C21.9563 10.4584 21.8783 10.1364 21.8663 9.82836C21.8523 9.51634 21.5142 6.99615 21.4462 6.76213C21.3622 6.3181 21.7742 6.70213 21.7302 6.44611C21.5862 6.11808 21.2302 5.64605 21.1222 5.36003C21.0822 5.28402 21.0742 5.21402 21.0422 5.22002L21.0362 5.22402ZM8.36725 5.26002C8.32725 5.26802 8.28125 5.30402 8.26725 5.36003C8.25725 5.40003 8.28325 5.46604 8.24724 5.48604C8.22724 5.50604 8.15124 5.49204 8.15524 5.38603C8.15524 5.35003 8.12924 5.31402 8.11523 5.29202C8.09923 5.28402 8.08923 5.28202 8.06123 5.28202C8.02723 5.28202 8.02723 5.29202 8.00923 5.32202C8.00123 5.35003 7.98923 5.37803 7.98923 5.41003C7.98522 5.45003 7.96922 5.46003 7.94322 5.46603C7.91122 5.46603 7.91722 5.47004 7.89322 5.45203C7.87322 5.43803 7.85722 5.43203 7.85722 5.40403C7.85722 5.37403 7.84921 5.32402 7.84121 5.30802C7.82721 5.28802 7.80521 5.28002 7.78121 5.27402C7.6492 5.27402 7.6412 5.43003 7.6472 5.48604C7.6372 5.49804 7.6332 5.76606 7.81321 5.84206C8.05323 5.95807 8.50926 5.90807 8.49326 5.51804C8.49326 5.48404 8.48326 5.36803 8.47926 5.33802C8.45526 5.27802 8.40926 5.25802 8.36525 5.26402L8.36725 5.26002ZM11.6195 5.26402C11.5355 5.26802 11.4595 5.29202 11.3995 5.32402C11.2395 5.47804 11.1995 5.72405 11.3275 5.87806C11.4475 5.93807 11.5735 6.05808 11.4915 6.12808C11.1435 6.49811 10.2374 7.12016 10.1914 7.23417V7.24617H10.1994V7.25017C10.2454 7.28017 10.8134 7.28017 10.8754 7.25017H10.8794C11.0755 7.17616 11.9995 6.12008 11.9995 6.12008C11.9515 6.08008 11.9075 6.04808 11.8595 6.00607C11.8075 5.96207 11.8135 5.91807 11.8595 5.87406C12.0875 5.74206 12.0155 5.44803 11.8955 5.31402C11.7955 5.27002 11.7035 5.25402 11.6195 5.26002V5.26402ZM20.1201 5.26402C20.0961 5.27002 20.0661 5.30402 20.0201 5.40403C19.9101 5.58404 19.8361 5.89407 19.8461 6.18409C20.0821 7.82421 20.1541 9.25832 20.3101 10.8984C20.3221 11.0585 20.2981 11.2865 20.1941 11.3785C19.8021 11.7865 19.2401 12.2865 18.628 12.5186C18.562 12.5926 18.792 12.9066 19.088 12.9066C19.5841 12.8466 20.0201 12.5706 20.4281 11.8365C20.5342 11.6665 20.7242 11.3005 20.7282 11.0164C20.7682 9.35232 20.6482 8.05623 20.3961 6.85614C20.3821 6.73613 20.3921 6.59612 20.4121 6.56412C20.4441 6.52411 20.5522 6.56412 20.6122 6.47011C20.6962 6.3821 20.3841 5.66405 20.2081 5.39003C20.1721 5.32002 20.1521 5.26202 20.1201 5.26402ZM6.95115 5.31802C6.88314 5.32602 6.81914 5.37803 6.78714 5.45803C6.77713 5.71805 6.77513 5.97807 6.80714 6.22209C6.92715 6.64812 6.96115 7.02215 7.01915 7.45618C7.03915 8.04023 6.68313 7.7082 6.69913 7.42018C6.77914 7.04415 6.75913 6.45411 6.68713 6.3041C6.62712 6.15409 6.56312 6.11808 6.42311 6.14409C6.3131 6.13608 6.02708 6.44411 5.94707 6.96415C5.94707 6.96415 5.87907 7.22817 5.85107 7.46418C5.81106 7.7302 5.63505 7.92022 5.51104 7.42818C5.40503 7.06815 5.34103 6.18809 5.16301 6.3921C5.11101 7.08016 5.05101 8.29224 5.63505 8.41625C6.3431 8.48426 5.95107 7.22017 6.20709 6.99015C6.2571 6.88014 6.3471 6.87814 6.3531 7.02015V8.09423C6.3451 8.44226 6.57312 8.54626 6.75313 8.61827C6.93915 8.60427 7.06116 8.61027 7.13316 8.79028L7.22317 10.6504C7.22317 10.6504 7.6512 10.7704 7.6712 9.60434C7.6912 8.91829 7.53119 8.34425 7.6252 8.21024C7.6292 8.07823 7.79721 8.07023 7.91322 8.13623C8.09923 8.26624 8.18124 8.42625 8.46926 8.36225C8.90929 8.24224 9.16931 8.03022 9.17531 7.6942C9.15531 7.37418 9.11531 7.05415 8.9753 6.73413C8.9953 6.67812 8.89529 6.52811 8.91529 6.47011C8.9913 6.59012 9.11131 6.58212 9.13531 6.47011C9.0633 6.22409 8.9473 5.99007 8.75928 5.89007C8.60527 5.75006 8.37925 5.78006 8.29525 6.06408C8.25524 6.3921 8.41526 6.78013 8.65527 7.09816C8.70328 7.22217 8.77528 7.42818 8.74328 7.61419C8.61727 7.6862 8.49126 7.6542 8.38325 7.54419C8.38325 7.54419 8.03723 7.28417 8.03723 7.22417C8.13124 6.63412 8.05723 6.56412 8.00723 6.4041C7.97122 6.17609 7.86321 6.10408 7.77721 5.94807C7.6892 5.85406 7.57119 5.85406 7.51719 5.94807C7.36118 6.21409 7.43318 6.78813 7.54519 7.04215C7.6252 7.27817 7.74921 7.42618 7.6912 7.42618C7.6432 7.55619 7.54319 7.52619 7.47119 7.37218C7.37118 7.05215 7.34718 6.58012 7.34718 6.3661C7.31718 6.10208 7.28317 5.53604 7.10716 5.39203C7.06116 5.32803 7.00715 5.30602 6.95315 5.31202L6.95115 5.31802ZM9.43533 5.31802C9.40133 5.32602 9.36133 5.34603 9.31532 5.35803C9.16531 5.40403 9.0253 5.53404 9.06931 5.78606C9.24932 6.86614 9.36333 7.6922 9.54134 8.77228C9.56734 8.90029 9.46133 9.0663 9.32532 9.0523C9.09331 8.89229 9.0353 8.57227 8.63927 8.58827C8.35125 8.58827 8.02323 8.90429 7.98322 9.20431C7.93522 9.44433 7.91922 9.70435 7.98322 9.91236C8.18324 10.1524 8.42726 10.1284 8.63927 10.0724C8.81329 10.0024 8.9593 9.83236 9.0193 9.87236C9.0593 9.93837 9.0153 10.5004 8.19924 10.9324C7.6952 11.1605 7.29517 11.2125 7.07916 10.8044C6.94715 10.5484 7.09116 9.57234 6.76313 9.79636C5.79106 12.3005 9.0373 12.6486 9.39933 9.90036C9.42333 9.82036 9.49334 9.74435 9.54534 9.76435C9.56534 9.77435 9.58534 9.80436 9.59334 9.86036C9.51734 12.3485 7.08116 12.5206 6.66913 11.7365C6.56512 11.5525 6.53512 11.1405 6.52512 10.8964C6.50511 10.7464 6.46911 10.6604 6.42511 10.6264C6.3251 10.5524 6.19309 10.7464 6.16509 11.0805C6.12509 11.3505 6.13509 11.4245 6.13509 11.6845C6.2671 13.6506 9.40133 12.8046 9.91137 11.1845C10.1634 10.3444 9.90537 9.71035 9.99137 9.63234L9.99737 9.62834H10.0034L10.0134 9.62434C10.3254 9.96037 10.7614 9.66435 10.8574 9.55034C10.8974 9.49033 11.0014 9.45033 11.0735 9.53034C11.3135 9.70235 11.7415 9.62034 11.8295 9.31032C11.8815 9.0103 11.9255 8.70228 11.9355 8.38025C11.7755 8.43026 11.6475 8.46626 11.5955 8.52026C11.5835 8.53426 11.5755 8.55026 11.5715 8.56627L11.5315 8.83228C11.5315 8.84229 11.5275 8.84829 11.5235 8.85229C11.5175 8.86629 11.5035 8.87629 11.4955 8.88229C11.4395 8.91229 11.3415 8.89629 11.3355 8.81428C11.2615 8.47426 10.9514 8.43026 10.7634 8.96029C10.6374 9.0603 10.4034 9.0803 10.3834 8.92829C10.4134 8.57227 10.2694 8.52426 9.98337 8.69227L9.70735 6.61212C9.82736 6.60612 9.93537 6.69213 10.0474 6.55612C9.92737 6.18809 9.67735 5.44003 9.53534 5.36803H9.53134L9.51134 5.34803C9.51134 5.34403 9.50534 5.34203 9.50134 5.34003L9.49334 5.32802C9.48534 5.32802 9.47733 5.32402 9.47333 5.32202C9.45933 5.31802 9.44933 5.31802 9.43533 5.31802ZM19.1201 5.32602C18.996 5.32202 18.86 5.40003 18.912 5.55604C18.88 5.64205 19.1781 5.93007 19.2261 6.08608C19.3121 6.3261 19.1601 6.56012 19.2501 6.59412C19.3341 6.63012 19.4501 6.3441 19.4901 6.07808C19.5421 5.86206 19.3901 5.42203 19.1701 5.33202L19.1201 5.32802V5.32602ZM11.5735 5.58804C11.6295 5.58404 11.6975 5.63605 11.7335 5.70805C11.7675 5.78806 11.7495 5.86206 11.6935 5.87606C11.6335 5.89007 11.5575 5.84006 11.5215 5.76006C11.4855 5.68005 11.5015 5.60605 11.5615 5.59204H11.5735V5.58804ZM25.5685 5.95207C25.4545 5.94807 25.3285 6.03208 25.3805 6.20209C25.3525 6.2941 25.6205 6.60612 25.6665 6.77813C25.7065 6.89814 25.6065 7.29017 25.6865 7.32617C25.7625 7.36618 25.8666 7.05415 25.9066 6.76613C25.9306 6.60612 25.8145 6.05608 25.6165 5.95807C25.6025 5.95407 25.5865 5.95007 25.5705 5.95007L25.5685 5.95207ZM17.828 6.14409C17.842 6.19009 17.852 6.23609 17.858 6.2841C17.882 6.3841 17.902 6.48411 17.922 6.58812C17.834 6.46411 17.762 6.3641 17.7279 6.3281C17.5279 6.08808 17.7319 6.17209 17.828 6.14409ZM19.6141 7.02015C19.5701 7.02815 19.5281 7.06615 19.5141 7.12616C19.5021 7.16216 19.5301 7.22617 19.4941 7.24617C19.4741 7.26617 19.3941 7.25417 19.4001 7.14616C19.4001 7.11016 19.3741 7.07215 19.3601 7.05215C19.3441 7.04215 19.3341 7.03815 19.3061 7.03815C19.2721 7.03815 19.2721 7.04815 19.2541 7.07815C19.2461 7.10616 19.2341 7.13416 19.2341 7.16816C19.2341 7.20816 19.2181 7.22017 19.1901 7.22817C19.1581 7.22817 19.1641 7.22817 19.1381 7.21416C19.1221 7.19416 19.104 7.19016 19.104 7.16216C19.104 7.13216 19.0981 7.08616 19.088 7.06615C19.074 7.04615 19.054 7.04015 19.028 7.03215C18.898 7.03215 18.888 7.18416 18.896 7.24017C18.888 7.25217 18.882 7.52419 19.062 7.60019C19.3061 7.7142 19.7621 7.6602 19.7421 7.27217C19.7421 7.23817 19.7321 7.12216 19.7301 7.09216C19.7041 7.03215 19.6581 7.01215 19.6161 7.01815L19.6141 7.02015ZM11.4735 7.10016C11.4455 7.10016 11.4055 7.10816 11.3595 7.13616C11.1455 7.25217 11.0635 7.59619 11.1995 7.79621C11.3195 7.97622 11.5195 7.91022 11.5455 7.91022C11.7555 7.93822 11.8795 7.51819 11.8795 7.51819C11.8795 7.51819 11.8855 7.39818 11.6395 7.6222C11.5315 7.6422 11.5195 7.60219 11.4915 7.54219C11.4675 7.43618 11.4715 7.32217 11.5215 7.21616C11.5455 7.15016 11.5215 7.10816 11.4735 7.10416V7.10016ZM22.9803 7.15416C22.8603 7.14816 22.7343 7.22617 22.7003 7.38818C22.7003 7.48418 22.7443 7.53619 22.7363 7.62419C22.7263 7.6742 22.6763 7.7042 22.5523 7.6482C22.5723 7.6282 22.4723 7.49219 22.4723 7.49219C22.3783 7.43218 22.2523 7.49218 22.1683 7.54819C22.1223 7.6322 22.0883 7.77421 22.1403 7.91822C22.2763 8.17224 22.7463 8.60427 22.9703 8.60827C22.9743 8.38025 22.9963 8.07623 23.0103 7.88821C23.0143 7.81621 23.0303 7.7382 23.1003 7.7202C23.1684 7.7002 23.2864 7.78821 23.2864 7.7142C23.2744 7.57019 23.2464 7.35418 23.1664 7.25417C23.1223 7.19416 23.0523 7.15816 22.9823 7.15416H22.9803ZM13.4536 7.94822L13.4476 7.95422C13.4476 7.95422 13.4436 7.95422 13.4416 7.95822C13.4176 7.97822 13.3896 8.01822 13.3276 8.05823C13.2216 8.17824 13.2036 8.26424 13.2076 8.50426C13.2156 8.53026 13.4076 9.0703 13.5736 9.44833C13.6856 9.84236 13.7877 10.2944 13.7137 10.7204C13.4536 11.2845 12.9336 11.7905 12.4276 12.0665C12.1675 12.1465 11.9475 12.1185 11.8875 12.0625C11.7395 11.9625 11.7375 11.7825 11.7475 11.7545V11.7485C12.1715 11.4525 12.6576 11.2125 13.0376 10.4144C13.1496 10.1084 13.1856 9.92437 13.0736 9.45433C13.0296 9.27432 12.9736 9.13431 12.8536 9.0063H12.8576C12.9296 8.9723 13.1176 9.11031 13.1476 9.0263C13.1016 8.79828 12.9476 8.49626 12.7776 8.34025C12.6256 8.20024 12.4576 8.18624 12.3215 8.31225C12.1655 8.40025 12.1335 8.71228 12.2075 8.9843C12.2915 9.18831 12.5176 9.22431 12.6776 9.63834C12.6816 9.66635 12.7316 9.94837 12.6516 10.0644C12.5836 10.2684 11.7415 10.9324 11.6815 10.9724L11.6755 10.9764L11.6715 10.9804H11.6675H11.6635V10.9744C11.6595 10.9584 11.6635 10.9144 11.6635 10.8484C11.6575 10.7244 11.7095 10.4424 11.7035 10.3924V10.3884C11.4235 10.5684 11.3295 11.1185 11.2795 11.2825C10.5734 11.7685 9.77336 12.1305 9.31132 12.6226C9.07131 13.0026 10.9674 12.1945 11.1875 12.0965L11.1935 12.1025C11.2375 12.1485 11.2395 12.3085 11.3655 12.4546C11.5655 12.7206 11.9815 12.8846 12.3896 12.7826C13.0736 12.5366 13.4696 12.0705 13.8697 11.5525C13.9257 11.4725 14.0157 11.4045 14.0997 11.4685C14.3737 12.0845 15.1698 12.5246 16.1958 12.5686C16.4359 12.2805 16.3218 12.1385 16.2258 12.0785C16.1958 12.0585 15.7158 11.8705 15.6398 11.6845C15.5938 11.5125 15.7078 11.3585 15.9358 11.2445C16.5959 11.1645 17.2439 11.0745 17.872 10.8724C17.878 10.6604 18.002 10.3464 18.086 10.2084C18.146 10.1144 18.18 10.1044 18.194 10.0924V10.0884H18.198V10.0824V10.0624L18.09 9.99837L15.9838 9.99037C15.9578 9.98037 15.9398 9.97037 15.9278 9.96037L15.9238 9.95437C15.9238 9.95437 15.9198 9.95437 15.9198 9.95037C15.9198 9.94637 15.9158 9.94637 15.9158 9.94637V9.94437V9.94037V9.93637L15.9198 9.93037C15.9298 9.91837 15.9558 9.90436 15.9858 9.89036C16.4899 9.82436 17.3819 9.67835 17.4419 8.82028C17.4319 8.37225 17.2499 8.08023 16.7019 8.00022C16.2978 8.03023 16.0098 8.42025 16.0558 8.84829C16.0358 8.96229 16.0958 9.18831 15.9758 9.21431C15.2038 9.28632 14.3597 9.77035 14.3317 10.1184H14.3277H14.3237H14.3197C14.3197 10.1224 14.3137 10.1224 14.3137 10.1224H14.3057H14.3017H14.2937C14.2437 10.1064 14.1797 10.0224 14.1897 9.90836C14.1597 9.30832 13.9637 8.62827 13.6596 8.10823C13.5496 7.99822 13.4996 7.95422 13.4716 7.94822H13.4656H13.4596H13.4536ZM15.4698 8.26424C15.4298 8.27224 15.3838 8.30825 15.3698 8.36825C15.3598 8.40825 15.3898 8.47226 15.3538 8.49226C15.3338 8.51226 15.2538 8.50026 15.2578 8.39225C15.2578 8.35825 15.2318 8.32025 15.2178 8.29824C15.2018 8.28824 15.1918 8.28624 15.1658 8.28624C15.1318 8.28624 15.1298 8.29424 15.1118 8.32225C15.1018 8.35025 15.0918 8.38225 15.0918 8.41225C15.0878 8.45226 15.0717 8.46426 15.0457 8.46826C15.0137 8.46826 15.0217 8.47426 14.9957 8.45826C14.9797 8.44226 14.9597 8.43426 14.9597 8.40625C14.9597 8.37625 14.9537 8.32625 14.9457 8.30625C14.9317 8.29224 14.9097 8.28624 14.8857 8.27824C14.7517 8.27824 14.7457 8.42826 14.7517 8.48626C14.7417 8.49626 14.7357 8.76628 14.9157 8.84229C15.1558 8.95829 15.7358 8.89029 15.5958 8.51626C15.5958 8.48226 15.5858 8.36625 15.5838 8.33625C15.5578 8.27624 15.5118 8.25624 15.4678 8.26224L15.4698 8.26424ZM23.6004 8.59827H23.5804C23.5804 8.59827 22.4563 9.39833 22.4303 9.42633C22.3183 9.52634 22.3743 9.87236 22.4303 9.83236C22.5103 9.86236 23.6404 9.0963 23.6184 9.0063C23.6684 9.0103 23.6924 8.61227 23.5984 8.59627L23.6004 8.59827ZM16.5319 8.71828C16.5759 8.71228 16.6359 8.72828 16.6919 8.75828C16.7779 8.81028 16.8319 8.88229 16.8219 8.93829V8.94629C16.8179 8.94629 16.8179 8.94629 16.8179 8.95029V8.95429C16.8179 8.95429 16.8139 8.95429 16.8139 8.95829C16.8139 8.96229 16.8079 8.96629 16.8039 8.97029C16.7639 9.0103 16.6719 9.0023 16.5839 8.95029C16.4999 8.90429 16.4499 8.83028 16.4539 8.77828V8.77228L16.4639 8.75228C16.4639 8.75228 16.4639 8.74828 16.4679 8.74628L16.4779 8.73428C16.4919 8.72428 16.5099 8.71428 16.5319 8.71428V8.71828ZM6.69513 8.91829C6.11509 8.93029 5.26102 9.68235 5.23902 10.0984L7.07916 9.21831C6.97915 9.0663 7.07316 8.93029 6.69513 8.91829ZM8.58127 9.17831C8.63727 9.18231 8.69728 9.21031 8.72928 9.29032C8.75728 9.36432 8.72928 9.44033 8.69528 9.47833V9.48433C8.66727 9.51634 8.58327 9.50433 8.52126 9.50433C8.44726 9.50033 8.41126 9.48833 8.36725 9.42833C8.34325 9.35832 8.40726 9.29232 8.43726 9.24432L8.45126 9.22431C8.47126 9.20431 8.51126 9.18831 8.55127 9.18431L8.57727 9.18031L8.58127 9.17831ZM23.3824 9.41233C23.2764 9.42433 23.1784 9.52234 23.2224 9.67835C23.1944 9.77035 23.3624 10.0924 23.4084 10.2624C23.4484 10.3824 23.3564 10.7284 23.4384 10.7624C23.5144 10.8024 23.7124 10.5624 23.7064 10.2544C23.7264 10.0944 23.6504 9.51434 23.4524 9.41833C23.4284 9.41233 23.4064 9.41033 23.3824 9.41233ZM10.8134 9.98037C10.7214 9.98637 10.6394 10.0344 10.6774 10.1644C10.6714 10.2564 10.9374 10.3704 10.9514 10.5844C10.9874 10.6764 10.8914 10.9644 10.9714 10.9884C11.0435 11.0184 11.1435 10.7884 11.1815 10.5804C11.2015 10.4644 11.0895 10.0604 10.9014 9.98637C10.8714 9.97837 10.8414 9.97637 10.8114 9.97837L10.8134 9.98037ZM14.5737 10.4924H14.5977C14.8337 10.5564 15.1778 10.5644 15.4778 10.5924C15.7238 10.6124 15.8438 10.8004 15.6178 10.8824C15.3898 10.9584 15.1718 11.0224 15.1718 11.3465C15.1998 11.5065 15.1918 11.5905 15.1678 11.6265C15.1678 11.6325 15.1598 11.6385 15.1598 11.6385C15.1598 11.6385 15.1598 11.6425 15.1558 11.6425V11.6465H15.1498L15.1358 11.6525H15.1258C15.0717 11.6625 14.9937 11.6125 14.9357 11.5805C14.7957 11.4805 14.4057 11.2405 14.3497 10.7204C14.3417 10.6004 14.4297 10.5004 14.5697 10.4904L14.5737 10.4924ZM5.38503 10.8924C5.37103 10.8924 5.34503 10.9364 5.30503 10.9864C4.957 11.5365 4.925 12.3585 5.11701 12.6066C5.21702 12.7206 5.38503 12.7726 5.50904 12.7366C5.72906 12.6426 5.82306 12.2005 5.76906 12.0405C5.69905 11.9265 5.64105 11.9085 5.56905 12.0045C5.41503 12.3145 5.34903 12.1005 5.33903 11.9245C5.31503 11.5985 5.34703 11.2945 5.38303 11.0545C5.40303 10.9344 5.40303 10.8884 5.38303 10.8884L5.38503 10.8924ZM17.1799 11.6165C17.1539 11.6165 17.1279 11.6205 17.0999 11.6365C17.0939 11.6365 16.8519 11.7965 16.7739 11.9125C16.7259 11.9485 16.7339 11.9785 16.7459 12.0425C16.7819 12.1285 16.8459 12.1025 16.9219 12.0625C17.0219 12.0465 17.0679 12.1125 17.0619 12.2305C17.0159 12.3805 17.0819 12.4346 17.0819 12.4446C17.0819 12.4526 17.1759 12.5346 17.2879 12.4706C17.5219 12.3805 17.6679 12.2905 17.998 12.2205C18.084 12.2205 18.078 11.9885 17.942 11.9805C17.7619 11.9885 17.6019 12.0005 17.4219 12.1405C17.3119 12.1645 17.2939 12.0965 17.2679 12.0365C17.2399 11.8885 17.3319 11.7845 17.3119 11.6725C17.3159 11.6785 17.2559 11.6245 17.1779 11.6205L17.1799 11.6165ZM24.7325 11.8965L24.5725 11.9125C24.5005 11.9265 24.4764 11.9585 24.4624 12.0465C24.4684 12.1765 24.5485 12.1705 24.6325 12.2225C24.6805 12.2825 24.7125 12.3385 24.6285 12.4426C24.5485 12.5126 24.4944 12.5526 24.4144 12.6226C24.3804 12.6866 24.3544 12.7826 24.4704 12.8146C24.6805 12.8746 25.1665 12.5586 25.1665 12.5546C25.2465 12.4946 25.2185 12.3805 25.2125 12.3805C25.1645 12.3285 25.0605 12.3605 24.9925 12.3505C24.9585 12.3505 24.8525 12.3345 24.9005 12.2385C24.9445 12.1785 24.9605 12.1445 24.9905 12.0705C25.0205 11.9985 24.9905 11.9505 24.8745 11.9105C24.8145 11.8985 24.7745 11.8945 24.7285 11.8965H24.7325Z" fill="white"/>
<path d="M24.6671 15.8005H24.3733H22.6105V15.4026C22.6105 15.1827 22.479 15.0047 22.3167 15.0047C22.1544 15.0047 22.0229 15.1826 22.0229 15.4026V15.8005H6.45117C7.03874 16.5961 8.21395 16.9941 9.09542 16.9941C9.72757 16.9941 17.6129 16.9941 22.0229 16.9941V17.7898C22.0229 18.0096 22.1544 18.1876 22.3167 18.1876H24.6671C25.1532 18.1876 25.5486 17.6522 25.5486 16.994C25.5486 16.3358 25.1532 15.8005 24.6671 15.8005ZM24.6671 17.3919H22.6104V16.994C24.0264 16.994 24.9609 16.994 24.9609 16.994L24.9081 16.7799C24.9387 16.8425 24.9609 16.9133 24.9609 16.994C24.9609 17.2136 24.8291 17.3919 24.6671 17.3919Z" fill="white"/>
</g>
<defs>
<clipPath id="clip0_7_15103">
<rect width="32" height="23" fill="white"/>
</clipPath>
</defs>
</svg>
