<svg width="55" height="43" viewBox="0 0 55 43" fill="none" xmlns="http://www.w3.org/2000/svg">
<g id="Group 6">
<g id="Group 1">
<g id="g758">
<g id="g760">
<g id="g766">
<g id="g768">
<path id="path778" d="M27.0684 36.747C26.8549 36.747 26.6617 36.7791 26.496 36.8426C26.3315 36.9058 26.1919 37.0007 26.0822 37.1275C25.9196 37.3189 25.8987 37.569 25.8732 37.8854L25.8652 37.975L25.8714 40.4546H26.3567L26.3589 38.7015H27.1815V38.3843H26.3603V38.3642L26.3629 37.9967C26.3629 37.8222 26.3783 37.666 26.4097 37.5311C26.4445 37.4039 26.4933 37.3028 26.5534 37.2313C26.6135 37.1582 26.6927 37.1048 26.789 37.0718C26.8619 37.0473 26.9534 37.0354 27.0684 37.0322H27.0882V37.0358H27.3477V36.747H27.0684Z" fill="white"/>
</g>
</g>
</g>
</g>
<g id="g780">
<g id="g782">
<g id="g788">
<g id="g790">
<path id="path800" d="M20.3432 37.6287L20.3384 39.2131C20.3384 39.3876 20.322 39.5446 20.2906 39.6795C20.2556 39.8068 20.2071 39.9074 20.1469 39.9804C20.0878 40.0516 20.0078 40.1059 19.9117 40.1374C19.8508 40.1583 19.7738 40.17 19.674 40.1758C19.572 40.17 19.4937 40.1583 19.4335 40.1374C19.3372 40.1059 19.2586 40.0516 19.1975 39.9804C19.1382 39.9074 19.0902 39.8068 19.0548 39.6805C19.0226 39.5438 19.007 39.3921 19.007 39.2131L19.0009 37.6287H18.5155L18.5098 39.2367L18.5174 39.3243C18.5434 39.6417 18.5641 39.8914 18.7264 40.0836C18.8364 40.2088 18.9757 40.3043 19.141 40.368C19.2775 40.4196 19.437 40.449 19.6325 40.4566L19.6497 40.4575V40.4619H19.651C19.6652 40.4601 19.6811 40.4601 19.6939 40.4619H19.6949L19.6952 40.4575L19.7125 40.4566C19.9074 40.449 20.0683 40.4196 20.2044 40.368C20.2283 40.3582 20.2504 40.3463 20.2726 40.3338C20.2853 40.3254 20.2985 40.3195 20.3113 40.3119L20.3392 40.2972L20.3384 40.8303C20.3384 41.0053 20.322 41.162 20.2906 41.2968C20.2556 41.4245 20.2071 41.5246 20.1469 41.5967C20.0878 41.6698 20.0078 41.7231 19.9117 41.756C19.8331 41.7814 19.7367 41.7948 19.6237 41.7967L19.6497 42.0801C19.857 42.0783 20.0427 42.0467 20.2044 41.9844C20.3698 41.9221 20.5085 41.826 20.6181 41.7C20.7813 41.5096 20.802 41.2577 20.8281 40.9415L20.8364 40.8526L20.8325 39.271L20.8364 39.2345L20.8299 37.6287H20.3432Z" fill="white"/>
</g>
</g>
</g>
</g>
<g id="g802">
<g id="g804">
<g id="g810">
<g id="g812">
<path id="path822" d="M5.20703 37.0077V37.0928C5.20703 37.2337 5.32106 37.3481 5.46118 37.3481C5.60089 37.3481 5.71492 37.2337 5.71492 37.0928V37.0077C5.71492 36.867 5.60089 36.7518 5.46118 36.7518C5.32106 36.7518 5.20703 36.867 5.20703 37.0077Z" fill="white"/>
</g>
</g>
</g>
</g>
<g id="g824">
<g id="g826">
<g id="g832">
<g id="g834">
<path id="path844" d="M5.20717 37.6611L5.20703 40.4541H5.72598V37.6611H5.20717Z" fill="white"/>
</g>
</g>
</g>
</g>
<g id="g846">
<g id="g848">
<g id="g854">
<g id="g856">
<path id="path866" d="M10.3906 37.0077V37.0928C10.3906 37.2337 10.5051 37.3481 10.6448 37.3481C10.7849 37.3481 10.8989 37.2337 10.8989 37.0928V37.0077C10.8989 36.867 10.7849 36.7518 10.6448 36.7518C10.5051 36.7518 10.3906 36.867 10.3906 37.0077Z" fill="white"/>
</g>
</g>
</g>
</g>
<g id="g868">
<g id="g870">
<g id="g876">
<g id="g878">
<path id="path888" d="M10.3906 37.63V40.4598L10.9094 40.46V37.63H10.3906Z" fill="white"/>
</g>
</g>
</g>
</g>
<g id="g890">
<g id="g892">
<g id="g898">
<g id="g900">
<path id="path910" d="M47.375 37.0077V37.0318C47.375 37.1729 47.4885 37.2881 47.6286 37.2881C47.7687 37.2881 47.8823 37.1729 47.8823 37.0318V37.0077C47.8823 36.8666 47.7687 36.7518 47.6286 36.7518C47.4885 36.7518 47.375 36.8666 47.375 37.0077Z" fill="white"/>
</g>
</g>
</g>
</g>
<g id="g912">
<g id="g914">
<g id="g920">
<g id="g922">
<path id="path932" d="M47.3691 37.63V40.46H47.8878L47.8879 37.63H47.3691Z" fill="white"/>
</g>
</g>
</g>
</g>
<g id="g934">
<g id="g936">
<g id="g942">
<g id="g944">
<path id="path954" d="M37.6152 37.629V40.1783H36.6443C36.2707 40.1783 35.9666 39.8716 35.9666 39.4955V37.629H35.4587L35.4531 39.1092C35.4531 39.6352 35.621 39.9014 35.7682 40.0741C35.8778 40.2001 36.017 40.296 36.1828 40.3589C36.3229 40.4128 36.4869 40.4439 36.6699 40.451V40.4546H38.1336L38.1338 37.629H37.6152Z" fill="white"/>
</g>
</g>
</g>
</g>
<g id="g956">
<g id="g958">
<g id="g964">
<g id="g966">
<path id="path976" d="M34.178 36.7514V37.629H33.1654L33.1504 37.6317C32.9664 37.6401 32.8026 37.6705 32.6624 37.7243C32.4979 37.7875 32.3578 37.8832 32.2487 38.0086C32.0308 38.2659 31.9336 38.5632 31.9336 38.9745V39.1128C31.9336 39.6393 32.1024 39.9063 32.2487 40.0789C32.3578 40.204 32.4971 40.2998 32.6624 40.3634C32.803 40.4164 32.9674 40.4478 33.1504 40.4554L33.1694 40.4564V40.459H34.6969V36.7514H34.178ZM32.5294 39.5004V38.5867C32.5294 38.2112 32.8338 37.905 33.2071 37.905H34.178V40.1827H33.2071C32.8338 40.1827 32.5294 39.876 32.5294 39.5004Z" fill="white"/>
</g>
</g>
</g>
</g>
<g id="g978">
<g id="g980">
<g id="g986">
<g id="g988">
<path id="path998" d="M51.9648 37.6284V40.459H52.4837V37.9052H53.454C53.8269 37.9052 54.1324 38.2115 54.1324 38.5875V40.459H54.6615L54.6672 38.9752C54.6672 38.5639 54.57 38.2658 54.352 38.0089C54.2429 37.8835 54.1036 37.7878 53.9384 37.7245C53.7978 37.6711 53.6334 37.6396 53.4504 37.6326L53.4318 37.6315V37.6284H51.9648Z" fill="white"/>
</g>
</g>
</g>
</g>
<g id="g1000">
<g id="g1002">
<g id="g1008">
<g id="g1010">
<path id="path1020" d="M40.0211 37.6317C39.8403 37.6401 39.6782 37.6695 39.5389 37.7229C39.3766 37.7853 39.2384 37.8805 39.1296 38.0048C38.9762 38.1866 38.8184 38.4207 38.8184 38.7817V39.1279C38.8184 39.5347 38.9142 39.8293 39.1296 40.0835C39.2384 40.2072 39.3753 40.302 39.5389 40.3642C39.679 40.4177 39.8403 40.4478 40.0211 40.4554L40.0397 40.4564V40.459H41.2582V40.1871H40.0778C39.7078 40.1871 39.4068 39.8832 39.4068 39.511C39.4068 39.511 39.3863 39.197 39.3863 39.0219C39.3863 38.8488 39.4068 38.5775 39.4068 38.5775C39.4068 38.204 39.7078 37.901 40.0778 37.901H41.2582V37.6291L41.2581 37.629L40.0211 37.6317Z" fill="white"/>
</g>
</g>
</g>
</g>
<g id="g1022">
<g id="g1024">
<g id="g1030">
<g id="g1032">
<path id="path1042" d="M12.2395 37.5968C12.0671 37.6619 11.9565 37.7379 11.8444 37.8652C11.6194 38.1247 11.6194 38.5207 11.8452 38.7869C11.9592 38.9173 12.1029 39.0166 12.2717 39.0805C12.3835 39.1229 12.5104 39.1519 12.6487 39.1666L12.6788 39.1692C12.8424 39.1847 13.0262 39.2034 13.1473 39.3437C13.2776 39.4945 13.3034 39.6382 13.2264 39.7704C13.0567 40.0583 12.7381 40.0971 12.4503 40.0971H11.8687V40.4612C11.9751 40.4723 12.7066 40.4612 12.8017 40.4503C13.1932 40.4099 13.4762 40.284 13.6662 40.0668C13.8143 39.8963 13.87 39.6597 13.8143 39.4349C13.7882 39.3272 13.737 39.2279 13.6653 39.1461C13.5513 39.0156 13.4086 38.9173 13.2388 38.8518C13.1447 38.8168 13.0319 38.8008 12.9104 38.7842C12.6333 38.7473 12.3199 38.705 12.2501 38.3762C12.2041 38.1572 12.3981 37.985 12.5989 37.9186C12.6726 37.8933 12.7667 37.8808 12.8772 37.8808L13.4134 37.8799V37.5323C13.3197 37.5323 13.2256 37.5266 13.1262 37.523C13.0191 37.5176 12.9108 37.5124 12.8039 37.5124C12.608 37.5124 12.4159 37.5301 12.2395 37.5968Z" fill="white"/>
</g>
</g>
</g>
</g>
<g id="g1044">
<g id="g1046">
<g id="g1052">
<g id="g1054">
<path id="path1064" d="M3.52927 36.7514L2.1083 39.6259H2.05518L2.04944 39.6156L0.607717 36.7514H0V40.4541H0.509117V37.803L1.85415 40.4541H2.12865L3.47942 37.7171L3.58143 37.5274V40.4541H4.12633V36.7514H3.52927Z" fill="white"/>
</g>
</g>
</g>
</g>
<g id="g1066">
<g id="g1068">
<g id="g1074">
<g id="g1076">
<path id="path1086" d="M29.0938 36.7505V40.4531H31.5708V40.1831H29.6097V38.6165H30.922V38.3325H29.6097V37.0669H31.5708V36.7505H31.5706H29.0938Z" fill="white"/>
</g>
</g>
</g>
</g>
<g id="g1088">
<g id="g1090">
<g id="g1096">
<g id="g1098">
<path id="path1108" d="M14.326 36.7932L14.3203 39.2329L14.3284 39.3229C14.354 39.6388 14.3748 39.8881 14.5375 40.0799C14.6466 40.2054 14.7867 40.3002 14.9511 40.3633C15.1106 40.4248 15.2972 40.4546 15.5235 40.4546H15.7448L15.745 40.4545V40.1826H15.5478C15.4408 40.1826 15.3388 40.1653 15.2442 40.1337C15.1478 40.1012 15.0687 40.0483 15.0086 39.9757C14.9485 39.9036 14.9007 39.8035 14.8649 39.6767C14.8326 39.54 14.8181 39.3882 14.8181 39.2098L14.8154 37.9927H15.6367V37.629H14.8137L14.8118 36.7932H14.326Z" fill="white"/>
</g>
</g>
</g>
</g>
<g id="g1110">
<g id="g1112">
<g id="g1118">
<g id="g1120">
<path id="path1130" d="M17.6314 37.6302C17.4116 37.6315 17.215 37.6646 17.0462 37.7285C16.8737 37.7948 16.7279 37.8949 16.6134 38.0262C16.4442 38.2256 16.4225 38.4877 16.3946 38.818L16.3867 38.9115L16.3929 40.459H16.9029L16.9079 38.935C16.9079 38.7517 16.9241 38.5884 16.9573 38.4481C16.9944 38.3151 17.0444 38.2105 17.1071 38.1358C17.1695 38.0597 17.2531 38.0037 17.3529 37.9703C17.4381 37.9408 17.546 37.9267 17.6737 37.9267H17.8934V37.6284H17.8933L17.6314 37.6302Z" fill="white"/>
</g>
</g>
</g>
</g>
<g id="g1132">
<g id="g1134">
<g id="g1140">
<g id="g1142">
<path id="path1152" d="M49.8535 37.6293L49.8384 37.6326C49.6599 37.6396 49.499 37.6699 49.3629 37.7224C49.202 37.7829 49.0649 37.8768 48.9579 38.0002C48.8152 38.1696 48.6504 38.4295 48.6504 38.9422V39.1438C48.6504 39.5453 48.7454 39.8355 48.9579 40.0865C49.0649 40.2092 49.202 40.3031 49.3629 40.3642C49.499 40.4171 49.6599 40.4468 49.8384 40.4541H50.1607C50.3388 40.4468 50.4988 40.4171 50.6362 40.3642C50.7967 40.3031 50.9332 40.2092 51.0412 40.0865C51.2533 39.8355 51.3478 39.5453 51.3478 39.1438V38.9422C51.3478 38.5421 51.2533 38.2511 51.0412 38.0002C50.9332 37.8768 50.7967 37.7829 50.6362 37.7224C50.4988 37.6699 50.3388 37.6396 50.1593 37.6326L50.1417 37.6293H49.8535ZM49.1976 39.3752C49.1618 39.0272 49.1401 38.4002 49.4093 38.11C49.5344 37.9756 49.7107 37.8977 49.8937 37.8977H50.1036C50.6447 37.8977 50.7688 38.4447 50.799 38.6807C50.8211 38.864 50.8496 39.2172 50.7896 39.5297C50.7591 39.6886 50.7095 39.818 50.6417 39.9129C50.5174 40.0856 50.3168 40.1893 50.105 40.1893H49.8937C49.3429 40.1893 49.2236 39.62 49.1976 39.3752Z" fill="white"/>
</g>
</g>
</g>
</g>
<g id="g1154">
<g id="g1156">
<g id="g1162">
<g id="g1164">
<path id="path1174" d="M42.8922 37.6236L42.8766 37.6275C42.6901 37.6356 42.5217 37.6671 42.3782 37.721C42.2093 37.7864 42.0665 37.8838 41.9551 38.0125C41.7328 38.2751 41.6328 38.5786 41.6328 38.9987L41.6519 39.3557C41.6887 39.6472 41.784 39.8762 41.9535 40.0756C42.0656 40.2043 42.2084 40.3027 42.376 40.3673C42.4549 40.3966 42.5395 40.4139 42.6203 40.4304C42.7972 40.4656 42.9634 40.462 43.1309 40.4642C43.229 40.4656 43.3182 40.4666 43.4098 40.4455L43.4155 40.4437C43.5096 40.4228 43.6065 40.401 43.6984 40.3673C43.7762 40.3369 43.8456 40.2956 43.8954 40.264L43.9251 40.2449V40.4545H44.4555V37.6236H42.8922ZM42.2407 39.485C42.2407 39.485 42.2195 39.2667 42.2195 39.0442C42.2195 38.822 42.2424 38.6031 42.2424 38.6013C42.2424 38.219 42.5533 37.9066 42.9346 37.9066H43.9251V39.2635L43.9189 39.486C43.9189 39.8629 43.5895 40.1816 43.1999 40.1816H42.9324C42.5509 40.1816 42.2407 39.8692 42.2407 39.485Z" fill="white"/>
</g>
</g>
</g>
</g>
<g id="g1176">
<g id="g1178">
<g id="g1184">
<g id="g1186">
<path id="path1196" d="M45.3055 36.7932L45.2988 39.233L45.3073 39.3225C45.3334 39.6389 45.3545 39.8877 45.5164 40.0786C45.6269 40.205 45.7657 40.2998 45.931 40.3634C46.0897 40.4243 46.2766 40.4546 46.5029 40.4546H46.7253V40.1827H46.5272C46.4207 40.1814 46.3186 40.1654 46.2235 40.1337C46.1276 40.1012 46.0476 40.0478 45.9875 39.9752C45.9283 39.9032 45.8798 39.8031 45.8448 39.6763C45.8134 39.5418 45.797 39.3847 45.797 39.2093L45.7948 37.9451H46.6156V37.6286H45.7935L45.7909 36.7932H45.3055Z" fill="white"/>
</g>
</g>
</g>
</g>
<g id="g1198">
<g id="g1200">
<g id="g1206">
<g id="g1208">
<path id="path1218" d="M23.8399 37.6228L23.8253 37.6254C23.6459 37.6335 23.4846 37.6636 23.3472 37.7157C23.1858 37.7772 23.0502 37.8711 22.9423 37.9951C22.7279 38.2464 22.6328 38.5391 22.6328 38.9415V39.1436C22.6328 39.5458 22.7279 39.8373 22.9423 40.0896C23.0492 40.2124 23.1858 40.3063 23.3472 40.3682C23.4855 40.4203 23.6459 40.451 23.8253 40.458H24.1484C24.327 40.451 24.4885 40.4203 24.6263 40.3682C24.7875 40.3063 24.9251 40.2124 25.0316 40.0896C25.245 39.8373 25.3415 39.5458 25.3415 39.1436V38.9415C25.3415 38.5391 25.245 38.2472 25.0316 37.9939C24.9242 37.8711 24.7875 37.7772 24.6263 37.7157C24.4885 37.6636 24.3284 37.6335 24.1484 37.6254L24.1298 37.6228H23.8399ZM23.1832 39.3749C23.1451 39.0264 23.1243 38.3962 23.3948 38.1053C23.5195 37.9694 23.6972 37.892 23.8812 37.892H24.0919C24.6342 37.892 24.7598 38.4416 24.7895 38.6784C24.8119 38.8617 24.8407 39.2169 24.7806 39.5301C24.75 39.6905 24.7006 39.8194 24.632 39.9143C24.5079 40.088 24.3053 40.1919 24.0932 40.1919H23.8812C23.3272 40.1919 23.2079 39.6206 23.1832 39.3749Z" fill="white"/>
</g>
</g>
</g>
</g>
<g id="g1220">
<g id="g1222">
<g id="g1228">
<g id="g1230">
<path id="path1240" d="M6.67773 37.6284V40.459H7.19614V37.9052H8.1663C8.54063 37.9052 8.84489 38.2115 8.84489 38.5875V40.459H9.37436L9.37969 38.9752C9.37969 38.5639 9.28272 38.2658 9.06449 38.0089C8.95538 37.8835 8.81608 37.7878 8.65084 37.7245C8.50976 37.6711 8.34575 37.6396 8.16289 37.6326L8.14459 37.6315V37.6284H6.67773Z" fill="white"/>
</g>
</g>
</g>
</g>
<g id="g1242">
<g id="g1244">
<g id="g1250">
<g id="g1252">
<path id="path1262" d="M38.3301 26.1485C38.3301 26.4072 38.54 26.6177 38.7967 26.6177C39.0536 26.6177 39.2627 26.4072 39.2627 26.1485C39.2627 25.8892 39.0536 25.6787 38.7967 25.6787C38.54 25.6787 38.3301 25.8892 38.3301 26.1485Z" fill="white"/>
</g>
</g>
</g>
</g>
<g id="g1264">
<g id="g1266">
<g id="g1272">
<g id="g1274">
<path id="path1284" d="M47.8031 27.6228L47.7951 31.3972C47.7951 31.6314 47.7749 31.8382 47.7342 32.0131C47.6873 32.1787 47.6253 32.309 47.5494 32.4011C47.4739 32.4933 47.3731 32.5601 47.2524 32.6009C47.1445 32.6371 47.0101 32.6548 46.851 32.6548H46.832L46.8744 33.123H46.8895C47.182 33.123 47.4459 33.0785 47.6749 32.9917C47.9016 32.9054 48.0957 32.7714 48.2482 32.5961C48.4943 32.3068 48.6406 31.913 48.6826 31.4261L48.6747 27.6228H47.8031Z" fill="white"/>
</g>
</g>
</g>
</g>
<g id="g1286">
<g id="g1288">
<g id="g1294">
<g id="g1296">
<path id="path1306" d="M45.5119 25.6796H45.5117V31.187H45.5119H46.3643L46.3644 31.1869V25.6796H45.5119Z" fill="white"/>
</g>
</g>
</g>
</g>
<g id="g1308">
<g id="g1310">
<g id="g1316">
<g id="g1318">
<path id="path1328" d="M43.3012 27.6228L43.2931 31.3972C43.2931 31.6303 43.2724 31.8368 43.2322 32.0131C43.1853 32.1787 43.1226 32.3096 43.0475 32.4011C42.9719 32.4933 42.8712 32.5601 42.7504 32.6009C42.6425 32.6371 42.5068 32.6548 42.3491 32.6548H42.3301L42.3716 33.123H42.3874C42.6801 33.123 42.9439 33.0785 43.1724 32.9917C43.3997 32.9054 43.5937 32.7714 43.7463 32.5961C43.9919 32.3059 44.1386 31.9124 44.1807 31.4261L44.1723 27.6228H43.3012Z" fill="white"/>
</g>
</g>
</g>
</g>
<g id="g1330">
<g id="g1332">
<g id="g1338">
<g id="g1340">
<path id="path1350" d="M38.6687 27.6232C37.6557 27.6232 36.834 28.4496 36.834 29.4698V31.1865H41.7142V27.6232H38.6687ZM37.6928 29.3851C37.6928 28.802 38.1622 28.3294 38.7413 28.3294H40.8588V30.4385H37.6928V29.3851Z" fill="white"/>
</g>
</g>
</g>
</g>
<g id="g1352">
<g id="g1354">
<g id="g1360">
<g id="g1362">
<path id="path1372" d="M26.7988 26.1485C26.7988 26.4072 27.0087 26.6177 27.2651 26.6177C27.5219 26.6177 27.7318 26.4072 27.7318 26.1485C27.7318 25.8892 27.5219 25.6787 27.2651 25.6787C27.0087 25.6787 26.7988 25.8892 26.7988 26.1485Z" fill="white"/>
</g>
</g>
</g>
</g>
<g id="g1374">
<g id="g1376">
<g id="g1382">
<g id="g1384">
<path id="path1394" d="M5.76758 32.6261C5.76758 32.8846 5.97748 33.0947 6.23422 33.0947C6.4911 33.0947 6.70059 32.8846 6.70059 32.6261C6.70059 32.3666 6.4911 32.1561 6.23422 32.1561C5.97748 32.1561 5.76758 32.3666 5.76758 32.6261Z" fill="white"/>
</g>
</g>
</g>
</g>
<g id="g1396">
<g id="g1398">
<g id="g1404">
<g id="g1406">
<path id="path1416" d="M7.11328 32.6261C7.11328 32.8846 7.32373 33.0947 7.57993 33.0947C7.83681 33.0947 8.04684 32.8846 8.04684 32.6261C8.04684 32.3666 7.83681 32.1561 7.57993 32.1561C7.32373 32.1561 7.11328 32.3666 7.11328 32.6261Z" fill="white"/>
</g>
</g>
</g>
</g>
<g id="g1418">
<g id="g1420">
<g id="g1426">
<g id="g1428">
<path id="path1438" d="M28.1465 26.1485C28.1465 26.4072 28.3564 26.6177 28.6131 26.6177C28.8699 26.6177 29.079 26.4072 29.079 26.1485C29.079 25.8892 28.8699 25.6787 28.6131 25.6787C28.3564 25.6787 28.1465 25.8892 28.1465 26.1485Z" fill="white"/>
</g>
</g>
</g>
</g>
<g id="g1440">
<g id="g1442">
<g id="g1448">
<g id="g1450">
<path id="path1460" d="M39.6758 26.1485C39.6758 26.4072 39.8862 26.6177 40.1426 26.6177C40.3994 26.6177 40.6098 26.4072 40.6098 26.1485C40.6098 25.8892 40.3994 25.6787 40.1426 25.6787C39.8862 25.6787 39.6758 25.8892 39.6758 26.1485Z" fill="white"/>
</g>
</g>
</g>
</g>
<g id="g1462">
<g id="g1464">
<g id="g1470">
<g id="g1472">
<path id="path1482" d="M47.7852 26.1491C47.7852 26.4072 47.9948 26.6177 48.2511 26.6177C48.5079 26.6177 48.7178 26.4072 48.7178 26.1491C48.7178 25.8892 48.5079 25.6787 48.2511 25.6787C47.9948 25.6787 47.7852 25.8892 47.7852 26.1491Z" fill="white"/>
</g>
</g>
</g>
</g>
<g id="g1484">
<g id="g1486">
<g id="g1492">
<g id="g1494">
<path id="path1504" d="M30.8627 25.6788V30.4381H28.7305V27.6229H27.8789V30.4381H19.3571V29.4408C19.3571 28.827 19.8513 28.3291 20.4622 28.3291H24.0985V27.6229H20.3883C19.3447 27.6229 18.4992 28.4746 18.4992 29.5254V30.4381H11.6152V25.6788H10.7727V30.4381H8.39783V27.6229H7.54525V30.4381H5.93159L5.92435 29.5815V29.5807V29.569C5.92435 28.9637 5.73617 28.4843 5.36362 28.1476C5.0334 27.8308 4.56307 27.6545 3.96641 27.6229H0.589964V27.6233L0.601981 31.2502C0.601981 31.484 0.580267 31.6914 0.540117 31.8667C0.493685 32.0332 0.431411 32.1631 0.354934 32.2551C0.279686 32.3466 0.179447 32.4133 0.0579038 32.4537C0.0411062 32.4595 0.0184364 32.4622 0 32.4676V32.9574C0.172756 32.9373 0.334586 32.9014 0.480848 32.8463C0.708503 32.7585 0.901606 32.626 1.05497 32.4501C1.30065 32.1604 1.44746 31.7666 1.48857 31.2798V31.1862H31.7424V25.6788H30.8627ZM1.48119 28.3852C1.48119 28.3544 1.50673 28.3291 1.53677 28.3291L4.00479 28.33H4.06979C4.10694 28.3357 4.13835 28.3408 4.17194 28.3474C4.68243 28.4422 5.05197 28.8894 5.05197 29.4119V30.4381H1.48693L1.48119 28.3852Z" fill="white"/>
</g>
</g>
</g>
</g>
<g id="g1506">
<g id="g1508">
<g id="g1514">
<g id="g1516">
<path id="path1526" d="M51.6523 27.623C50.6246 27.623 49.791 28.4624 49.791 29.4975V31.1864H53.7835V31.3969C53.7835 31.6302 53.7628 31.838 53.7217 32.0133C53.6756 32.1785 53.6142 32.3098 53.5378 32.4018C53.4614 32.4931 53.3619 32.5598 53.2398 32.6008C53.1957 32.6159 53.1426 32.6262 53.0892 32.6351V33.1147C53.2979 33.0982 53.49 33.0578 53.6624 32.992C53.89 32.9052 54.0846 32.7725 54.2366 32.5972C54.4823 32.307 54.6291 31.9127 54.6711 31.4259L54.6675 27.623H51.6523ZM50.6489 29.413C50.6489 28.8144 51.1307 28.3293 51.7251 28.3293H53.7906V28.3573L53.7853 30.4383H50.6489V29.413Z" fill="white"/>
</g>
</g>
</g>
</g>
<g id="g1528">
<g id="g1530">
<g id="g1536">
<g id="g1538">
<path id="path1548" d="M33.0342 25.6789C33.0272 25.6789 33.0215 25.6851 33.0215 25.6917V31.1737C33.0215 31.1809 33.0272 31.1865 33.0342 31.1865H33.8616C33.8683 31.1865 33.8732 31.1809 33.8732 31.1737V25.6917C33.8732 25.6846 33.8683 25.6789 33.8616 25.6789H33.0342Z" fill="white"/>
</g>
</g>
</g>
</g>
</g>
<g id="Group 3">
<g id="g10">
<g id="g12">
<g id="g18">
<g id="g20">
<path id="path30" d="M53.1767 10.9363C52.4111 10.9363 51.7219 11.6529 51.7329 12.3986C51.7219 12.7791 51.8872 13.1498 52.1544 13.4174C52.4328 13.6954 52.8025 13.8603 53.1833 13.8496C53.5646 13.8603 53.9339 13.6954 54.2117 13.4174C54.4794 13.1498 54.6441 12.7791 54.6336 12.3986C54.6441 12.0178 54.49 11.6365 54.2117 11.3585C53.9444 11.0907 53.5646 10.9363 53.194 10.9363H53.1767Z" fill="white"/>
</g>
</g>
</g>
</g>
<g id="g32">
<g id="g34">
<g id="g40">
<g id="g42">
<path id="path52" d="M41.8605 12.9089C41.5662 13.4573 41.7734 14.1411 42.3203 14.4342C42.7661 14.6729 43.2971 14.5848 43.6457 14.2352C43.7176 14.1642 43.7893 14.0769 43.8369 13.9811C44.1311 13.434 43.9248 12.7496 43.3757 12.4562C43.2065 12.3651 43.0236 12.3222 42.8442 12.3222C42.444 12.3222 42.0575 12.5356 41.8605 12.9089Z" fill="white"/>
</g>
</g>
</g>
</g>
<g id="g54">
<g id="g56">
<g id="g62">
<g id="g64">
<path id="path74" d="M47.0358 11.5459L47.0261 11.556C46.5667 12.1528 46.6744 13.0236 47.2797 13.493C47.8368 13.9323 48.6192 13.8744 49.1078 13.3851C49.1462 13.3457 49.1855 13.306 49.2155 13.2578C49.6846 12.651 49.5769 11.7815 48.9704 11.3121C48.7176 11.1159 48.4203 11.0222 48.1257 11.0222C47.7149 11.0226 47.3094 11.2046 47.0358 11.5459Z" fill="white"/>
</g>
</g>
</g>
</g>
<g id="g76">
<g id="g78">
<g id="g84">
<g id="g86">
<path id="path96" d="M38.1609 14.5276C37.7521 14.5276 37.389 14.8909 37.389 15.3112C37.3823 15.514 37.4712 15.7129 37.6148 15.8567C37.7574 15.9998 37.9567 16.0879 38.1665 16.0879C38.3747 16.0879 38.5681 16.0055 38.7175 15.8567C38.8606 15.7129 38.9485 15.514 38.9432 15.3112C38.9485 15.1061 38.8659 14.9018 38.7175 14.7539C38.5742 14.6106 38.371 14.5276 38.1639 14.5276H38.1609Z" fill="white"/>
</g>
</g>
</g>
</g>
<g id="g98">
<g id="g100">
<g id="g106">
<g id="g108">
<path id="path118" d="M1.46143 11.0571C0.710434 11.0466 -0.0105301 11.7463 0.00011647 12.5189C0.00011647 12.8897 0.154219 13.2703 0.421612 13.5377C0.699788 13.8157 1.08061 13.9703 1.46143 13.9594C1.84143 13.9703 2.21201 13.8051 2.47913 13.5377C2.75758 13.2592 2.92246 12.8897 2.91168 12.5082C2.92246 12.1276 2.75758 11.7569 2.47913 11.4788C2.21993 11.2199 1.86381 11.0568 1.49637 11.0568C1.48436 11.0568 1.47303 11.0568 1.46143 11.0571Z" fill="white"/>
</g>
</g>
</g>
</g>
<g id="g120">
<g id="g122">
<g id="g128">
<g id="g130">
<path id="path140" d="M11.2675 12.5773C10.7275 12.8624 10.5222 13.5461 10.8156 14.0941C11.1085 14.6423 11.7923 14.8487 12.3395 14.5544C12.4345 14.5079 12.5224 14.4358 12.5933 14.3644C12.9431 14.0143 13.0309 13.4825 12.7926 13.0374C12.5892 12.6585 12.2004 12.4429 11.7989 12.4429C11.6191 12.4429 11.437 12.4863 11.2675 12.5773Z" fill="white"/>
</g>
</g>
</g>
</g>
<g id="g142">
<g id="g144">
<g id="g150">
<g id="g152">
<path id="path162" d="M5.83573 11.4221L5.827 11.4314C5.24035 11.9017 5.12323 12.7618 5.59182 13.3678C6.06095 13.9746 6.93138 14.0826 7.53659 13.6127C7.58477 13.5836 7.62408 13.5451 7.6638 13.5052C8.15286 13.016 8.21115 12.2336 7.77164 11.6763C7.49769 11.3221 7.08643 11.1383 6.67285 11.1383C6.37871 11.1383 6.08361 11.2312 5.83573 11.4221Z" fill="white"/>
</g>
</g>
</g>
</g>
<g id="g164">
<g id="g166">
<g id="g172">
<g id="g174">
<path id="path184" d="M37.9997 9.2235C37.7542 9.78657 38.0078 10.4545 38.579 10.7087C39.0158 10.8921 39.5084 10.7806 39.8181 10.47C39.921 10.367 40.001 10.2557 40.0567 10.1208C40.3023 9.55727 40.0487 8.88932 39.4761 8.63476C39.333 8.57522 39.1847 8.54681 39.0385 8.54681C38.6006 8.54736 38.184 8.80055 37.9997 9.2235Z" fill="white"/>
</g>
</g>
</g>
</g>
<g id="g186">
<g id="g188">
<g id="g194">
<g id="g196">
<path id="path206" d="M52.7897 0.0804052C51.8287 0.0795858 50.9444 0.963452 50.9576 1.91342C50.9444 2.39345 51.1516 2.86065 51.5032 3.21286C51.8403 3.55018 52.3089 3.75736 52.7897 3.74602C53.2693 3.75845 53.751 3.56384 54.1018 3.21286C54.4392 2.87527 54.6336 2.39346 54.6336 1.92667C54.6336 1.43202 54.4392 0.950206 54.1018 0.613156C53.7615 0.272693 53.3008 0.0799968 52.8365 0.0799968C52.8209 0.0799968 52.8051 0.0799954 52.7897 0.0804052Z" fill="white"/>
</g>
</g>
</g>
</g>
<g id="g208">
<g id="g210">
<g id="g216">
<g id="g218">
<path id="path228" d="M30.1698 8.2343C30.0513 8.73413 30.361 9.24039 30.8598 9.35743C31.1818 9.43036 31.5096 9.3252 31.7331 9.10191C31.8454 8.98965 31.9367 8.83137 31.9774 8.66134C32.0945 8.16137 31.7787 7.66235 31.2865 7.53685C31.2167 7.52128 31.1474 7.51431 31.0794 7.51431C30.6522 7.51431 30.2718 7.80288 30.1698 8.2343Z" fill="white"/>
</g>
</g>
</g>
</g>
<g id="g230">
<g id="g232">
<g id="g238">
<g id="g240">
<path id="path250" d="M34.0515 5.7211C33.8426 6.28826 34.1373 6.92563 34.7116 7.1272C35.1241 7.27429 35.5735 7.16558 35.8685 6.87032C35.9772 6.76202 36.0634 6.62982 36.1248 6.47482L36.1168 6.46676C36.3271 5.89973 36.0241 5.2707 35.4648 5.0683C35.3411 5.02283 35.2139 5.00111 35.0883 5.00111C34.6399 5.00111 34.2154 5.27875 34.0515 5.7211Z" fill="white"/>
</g>
</g>
</g>
</g>
<g id="g252">
<g id="g254">
<g id="g260">
<g id="g262">
<path id="path272" d="M38.0464 3.7837C37.6934 4.48019 37.9761 5.34917 38.6825 5.69223C39.2375 5.98435 39.9137 5.85434 40.3379 5.43016C40.4386 5.32923 40.5194 5.20741 40.6002 5.06634C40.954 4.37025 40.6709 3.50127 39.9737 3.14674C39.7649 3.04418 39.5449 2.99516 39.3288 2.99516C38.8045 2.99516 38.3036 3.28331 38.0464 3.7837Z" fill="white"/>
</g>
</g>
</g>
</g>
<g id="g274">
<g id="g276">
<g id="g282">
<g id="g284">
<path id="path294" d="M42.3441 2.33204C41.8366 3.10024 42.0499 4.14061 42.8177 4.64851C43.4897 5.10874 44.3639 4.99157 44.92 4.4356C44.9899 4.36472 45.0738 4.28264 45.1202 4.18718C45.6287 3.42035 45.4268 2.39132 44.659 1.85911C44.3767 1.67256 44.0576 1.58324 43.7419 1.58324C43.1989 1.58324 42.6658 1.84723 42.3441 2.33204Z" fill="white"/>
</g>
</g>
</g>
</g>
<g id="g296">
<g id="g298">
<g id="g304">
<g id="g306">
<path id="path316" d="M46.9817 1.34227C46.3796 2.03986 46.4613 3.09088 47.1594 3.69465C47.8436 4.26045 48.8125 4.21402 49.427 3.59974C49.4627 3.56423 49.4861 3.54046 49.521 3.50509C50.1102 2.79644 50.0286 1.7446 49.3324 1.14206C49.0165 0.878623 48.6326 0.748746 48.2517 0.748746C47.7782 0.748746 47.3091 0.949366 46.9817 1.34227Z" fill="white"/>
</g>
</g>
</g>
</g>
<g id="g318">
<g id="g320">
<g id="g326">
<g id="g328">
<path id="path338" d="M51.4103 7.36126C51.4111 7.79581 51.5825 8.19568 51.8909 8.50474C52.1878 8.80163 52.588 8.9733 53.0227 8.97412C53.457 8.9733 53.8687 8.81324 54.177 8.50474C54.4739 8.20729 54.6452 7.78421 54.6347 7.36126C54.6463 6.93831 54.4739 6.51399 54.177 6.21736C53.8687 5.90831 53.4442 5.7361 53.0342 5.7361C52.1878 5.7361 51.3983 6.50334 51.4103 7.36126Z" fill="white"/>
</g>
</g>
</g>
</g>
<g id="g340">
<g id="g342">
<g id="g348">
<g id="g350">
<path id="path360" d="M30.0224 14.1338C29.9552 14.601 30.2827 15.0372 30.7562 15.0982C31.0288 15.1401 31.2951 15.0439 31.4833 14.8551C31.6109 14.7274 31.6962 14.5581 31.7205 14.3644C31.7869 13.8964 31.4529 13.4658 30.9863 13.3996C30.9452 13.3938 30.9046 13.3908 30.8644 13.3908C30.4457 13.3908 30.0773 13.7015 30.0224 14.1338Z" fill="white"/>
</g>
</g>
</g>
</g>
<g id="g362">
<g id="g364">
<g id="g370">
<g id="g372">
<path id="path382" d="M33.8017 11.3999C33.6492 11.9458 33.9692 12.5138 34.5147 12.6663C34.8853 12.776 35.2648 12.6592 35.5197 12.4041C35.6429 12.2804 35.7299 12.135 35.7884 11.96C35.9412 11.4132 35.6205 10.8452 35.0752 10.6936C34.9785 10.6658 34.8814 10.6521 34.7854 10.6521C34.3358 10.6521 33.9277 10.9491 33.8017 11.3999Z" fill="white"/>
</g>
</g>
</g>
</g>
<g id="g384">
<g id="g386">
<g id="g392">
<g id="g394">
<path id="path404" d="M42.3509 7.55018C41.9598 8.18973 42.1594 9.01856 42.7885 9.41898C43.3314 9.75275 44.0184 9.6577 44.4563 9.21877C44.5225 9.15335 44.5897 9.06718 44.6462 8.9709C45.0376 8.33299 44.837 7.50293 44.1986 7.11262C43.9817 6.98138 43.7419 6.91897 43.5038 6.91897C43.0509 6.91897 42.6065 7.14444 42.3509 7.55018Z" fill="white"/>
</g>
</g>
</g>
</g>
<g id="g406">
<g id="g408">
<g id="g414">
<g id="g416">
<path id="path426" d="M46.9946 6.56062C46.4914 7.1887 46.583 8.10411 47.2009 8.62034C47.7778 9.09327 48.6305 9.0411 49.1554 8.51695C49.1858 8.48541 49.2176 8.45495 49.2583 8.41344L49.2475 8.40415C49.7622 7.78673 49.6703 6.86954 49.0426 6.36478C48.7732 6.14026 48.4467 6.03142 48.1215 6.03142C47.702 6.03142 47.2844 6.21279 46.9946 6.56062Z" fill="white"/>
</g>
</g>
</g>
</g>
<g id="g428">
<g id="g430">
<g id="g436">
<g id="g438">
<path id="path448" d="M1.8323 0.0802567C0.883249 0.0670094 -0.000144132 0.951422 0.000674836 1.91327C-0.0129746 2.39276 0.180984 2.87416 0.532594 3.2261C0.869736 3.56328 1.35156 3.7583 1.84595 3.7583C2.31248 3.7583 2.79349 3.56328 3.13104 3.2261C3.48183 2.87512 3.6762 2.39276 3.66433 1.91327C3.67579 1.43187 3.46859 0.963306 3.13104 0.625711C2.79049 0.284838 2.34074 0.0798483 1.87693 0.0798483C1.86191 0.0798483 1.84731 0.0798469 1.8323 0.0802567Z" fill="white"/>
</g>
</g>
</g>
</g>
<g id="g450">
<g id="g452">
<g id="g458">
<g id="g460">
<path id="path470" d="M23.3643 7.6664C22.8646 7.78535 22.5559 8.27863 22.6672 8.78461C22.7931 9.27749 23.2913 9.59351 23.7914 9.4751C23.9616 9.4344 24.1206 9.34291 24.2315 9.2316C24.455 9.00708 24.5597 8.68 24.4873 8.3577C24.3865 7.92984 24.0013 7.64127 23.5794 7.64127C23.5083 7.64127 23.4364 7.6496 23.3643 7.6664Z" fill="white"/>
</g>
</g>
</g>
</g>
<g id="g472">
<g id="g474">
<g id="g480">
<g id="g482">
<path id="path492" d="M19.1867 5.18377C18.6195 5.39423 18.3244 6.03063 18.5346 6.59821C18.7361 7.15732 19.3652 7.46049 19.9321 7.25059L19.94 7.25892C20.0942 7.19664 20.227 7.11047 20.3358 7.00176C20.6304 6.70691 20.7392 6.25733 20.5919 5.84408C20.4344 5.39504 20.0107 5.11617 19.5623 5.11617C19.4371 5.11658 19.3105 5.1383 19.1867 5.18377Z" fill="white"/>
</g>
</g>
</g>
</g>
<g id="g494">
<g id="g496">
<g id="g502">
<g id="g504">
<path id="path514" d="M14.6842 3.26172C13.9782 3.62513 13.6956 4.47417 14.0481 5.19019C14.4015 5.88723 15.2708 6.17102 15.9667 5.81745C16.1076 5.73605 16.2286 5.65603 16.3298 5.55442C16.7539 5.1301 16.8846 4.45341 16.5917 3.8984C16.3491 3.39747 15.8425 3.11027 15.3202 3.11027C15.1051 3.11027 14.8873 3.15875 14.6842 3.26172Z" fill="white"/>
</g>
</g>
</g>
</g>
<g id="g516">
<g id="g518">
<g id="g524">
<g id="g526">
<path id="path536" d="M10.9072 1.70718C10.5917 1.70718 10.2723 1.79595 9.99005 1.9825C9.22309 2.49245 9.01071 3.53091 9.51833 4.29992C10.0497 5.06729 11.0772 5.26914 11.8441 4.76002C11.9391 4.71359 12.0218 4.63096 12.0929 4.55981C12.6476 4.00466 12.7657 3.1294 12.3049 2.45625C11.9845 1.97103 11.4515 1.70718 10.9087 1.70718C10.9081 1.70718 10.9077 1.70718 10.9072 1.70718Z" fill="white"/>
</g>
</g>
</g>
</g>
<g id="g538">
<g id="g540">
<g id="g546">
<g id="g548">
<path id="path558" d="M5.32153 1.34017C4.61312 1.9311 4.53095 2.98308 5.12061 3.69118C5.72282 4.38822 6.7737 4.47139 7.48224 3.88169L7.57724 3.78623C8.19229 3.17141 8.23774 2.20246 7.67238 1.51743C7.34056 1.13381 6.87402 0.936198 6.40489 0.936198C6.02093 0.936198 5.63533 1.06881 5.32153 1.34017Z" fill="white"/>
</g>
</g>
</g>
</g>
<g id="g560">
<g id="g562">
<g id="g568">
<g id="g570">
<path id="path580" d="M1.60627 5.85629C0.755908 5.85629 0 6.64073 0 7.48186C0 7.8921 0.172393 8.31642 0.480734 8.62493C0.77802 8.92237 1.20211 9.09431 1.62483 9.08243C2.04674 9.09349 2.47042 8.92237 2.76729 8.62493C3.07604 8.31642 3.2352 7.90439 3.23643 7.46997C3.2352 7.03459 3.06417 6.63473 2.76729 6.33715C2.45882 6.02864 2.05834 5.85711 1.62483 5.85629H1.60627Z" fill="white"/>
</g>
</g>
</g>
</g>
<g id="g582">
<g id="g584">
<g id="g590">
<g id="g592">
<path id="path602" d="M23.6611 13.5222C23.1884 13.5823 22.8612 14.0194 22.9288 14.487C22.994 14.9538 23.4248 15.2874 23.8917 15.2211C24.0865 15.1969 24.2562 15.112 24.3834 14.9843C24.5708 14.7969 24.6688 14.5291 24.6265 14.2568C24.5708 13.824 24.2018 13.5137 23.7823 13.5137C23.742 13.5137 23.7017 13.5163 23.6611 13.5222Z" fill="white"/>
</g>
</g>
</g>
</g>
<g id="g604">
<g id="g606">
<g id="g612">
<g id="g614">
<path id="path624" d="M19.5798 10.806C19.0334 10.9594 18.713 11.5268 18.8734 12.0806C19.0263 12.6262 19.5938 12.9466 20.14 12.7949C20.3149 12.7367 20.4594 12.6486 20.583 12.5244C20.838 12.2697 20.9555 11.891 20.8451 11.5197C20.7183 11.0658 20.3043 10.7679 19.8551 10.7679C19.7641 10.7679 19.6717 10.7802 19.5798 10.806Z" fill="white"/>
</g>
</g>
</g>
</g>
<g id="g626">
<g id="g628">
<g id="g634">
<g id="g636">
<path id="path646" d="M15.1732 8.76329C14.61 9.00952 14.3481 9.66901 14.5857 10.2405C14.8405 10.8129 15.5068 11.0669 16.0709 10.8208C16.2056 10.7656 16.317 10.6856 16.4203 10.5822C16.7304 10.2718 16.8418 9.78127 16.6589 9.34329C16.4703 8.91939 16.0536 8.6696 15.6212 8.6696C15.471 8.6696 15.3185 8.69965 15.1732 8.76329Z" fill="white"/>
</g>
</g>
</g>
</g>
<g id="g648">
<g id="g650">
<g id="g656">
<g id="g658">
<path id="path668" d="M10.4363 7.2389C9.81725 7.62962 9.61674 8.45831 9.99893 9.08858C10.3885 9.7273 11.2177 9.92751 11.8555 9.53638C11.9511 9.47984 12.0376 9.41224 12.1038 9.34628C12.5417 8.90831 12.6375 8.22096 12.3039 7.67769C12.0421 7.26662 11.598 7.0391 11.144 7.0391C10.9022 7.0391 10.6579 7.10302 10.4363 7.2389Z" fill="white"/>
</g>
</g>
</g>
</g>
<g id="g670">
<g id="g672">
<g id="g678">
<g id="g680">
<path id="path690" d="M5.47211 6.48374C4.85488 6.99873 4.76261 7.9151 5.27692 8.53294C5.78181 9.16046 6.69755 9.25292 7.31478 8.73888L7.32447 8.74872C7.36597 8.70747 7.396 8.67661 7.42739 8.6452C7.95221 8.12064 8.00435 7.26614 7.53072 6.69023C7.23876 6.33966 6.81904 6.15857 6.39536 6.15857C6.07104 6.15857 5.74469 6.26495 5.47211 6.48374Z" fill="white"/>
</g>
</g>
</g>
</g>
<g id="g692">
<g id="g694">
<g id="g700">
<g id="g702">
<path id="path712" d="M16.484 14.6474C16.0644 14.6474 15.7012 15.0111 15.7012 15.42C15.7008 15.6286 15.7838 15.8329 15.9273 15.9765C16.0754 16.1255 16.2799 16.2081 16.484 16.2024C16.6868 16.2081 16.8859 16.1201 17.0295 15.9765C17.1785 15.8275 17.261 15.6336 17.261 15.4257C17.261 15.2158 17.1731 15.0164 17.0295 14.8737C16.8909 14.7349 16.7005 14.6474 16.5047 14.6474H16.484Z" fill="white"/>
</g>
</g>
</g>
</g>
<g id="g714">
<g id="g716">
<g id="g722">
<g id="g724">
<path id="path734" d="M27.2958 10.3921C26.8439 10.3921 26.4338 10.8022 26.4338 11.2544C26.4281 11.4811 26.52 11.7073 26.6839 11.8727C26.8439 12.0328 27.0642 12.1176 27.2958 12.1172C27.5289 12.1176 27.7484 12.0314 27.9076 11.8727C28.0727 11.7073 28.1586 11.4877 28.1586 11.2552C28.1586 11.0231 28.067 10.8085 27.9076 10.6489C27.7468 10.4889 27.5347 10.3921 27.3144 10.3921H27.2958Z" fill="white"/>
</g>
</g>
</g>
</g>
<g id="g736">
<g id="g738">
<g id="g744">
<g id="g746">
<path id="path756" d="M26.514 17.5268C26.5078 17.7322 26.5975 17.9329 26.7472 18.0823C26.8916 18.2274 27.0926 18.316 27.2972 18.3108C27.5036 18.316 27.7084 18.233 27.8534 18.0881C28.0027 17.9387 28.0871 17.7322 28.0863 17.532C28.0863 17.3212 28.0027 17.1147 27.8591 16.9701C27.7084 16.8203 27.5089 16.7436 27.2972 16.7422C26.8863 16.7422 26.513 17.1147 26.514 17.5268Z" fill="white"/>
</g>
</g>
</g>
</g>
</g>
</g>
</svg>
