<svg width="55" height="43" fill="none" xmlns="http://www.w3.org/2000/svg"><path d="M27.068 36.747c-.213 0-.406.032-.572.096a1.024 1.024 0 0 0-.414.284c-.162.192-.183.442-.209.758l-.008.09.006 2.48h.486l.002-1.753h.822v-.318h-.82v-.02l.002-.367c0-.175.015-.331.047-.466a.788.788 0 0 1 .143-.3.514.514 0 0 1 .236-.16.978.978 0 0 1 .28-.039h.02v.004h.259v-.289h-.28zM20.343 37.629l-.005 1.584c0 .175-.016.332-.047.466a.806.806 0 0 1-.144.301.507.507 0 0 1-.235.157.908.908 0 0 1-.238.039.91.91 0 0 1-.24-.039.52.52 0 0 1-.236-.157.829.829 0 0 1-.143-.3 2.024 2.024 0 0 1-.048-.467l-.006-1.584h-.486l-.005 1.608.007.087c.026.318.047.567.21.76.11.125.249.22.414.284.137.052.296.081.492.089h.017v.005h.001a.171.171 0 0 1 .043 0l.001-.005h.017c.195-.008.356-.037.492-.089a.612.612 0 0 0 .069-.034c.012-.009.026-.015.038-.022l.028-.015v.533c0 .175-.017.332-.048.467a.791.791 0 0 1-.144.3.508.508 0 0 1-.235.159 1.003 1.003 0 0 1-.288.04l.026.284c.207-.002.393-.033.554-.096.166-.062.305-.158.414-.284.163-.19.184-.442.21-.759l.008-.088-.003-1.582.003-.037-.006-1.605h-.487zM5.207 37.008v.085c0 .14.114.255.254.255s.254-.114.254-.255v-.085a.256.256 0 0 0-.254-.256.256.256 0 0 0-.254.256zM5.207 37.661v2.793h.519v-2.793h-.519zM10.39 37.008v.085a.255.255 0 1 0 .508 0v-.085a.256.256 0 0 0-.253-.256.256.256 0 0 0-.254.256zM10.39 37.63v2.83h.52v-2.83h-.52zM47.375 37.008v.024c0 .14.114.256.254.256s.253-.115.253-.256v-.024a.255.255 0 0 0-.253-.256.255.255 0 0 0-.254.256zM47.37 37.63v2.83h.518v-2.83h-.519zM37.615 37.629v2.55h-.97a.681.681 0 0 1-.678-.684V37.63h-.508l-.006 1.48c0 .526.168.792.315.965.11.126.249.222.415.285.14.054.304.085.487.092v.004h1.464v-2.826h-.519zM34.178 36.751v.878h-1.013l-.015.003a1.564 1.564 0 0 0-.488.092 1.032 1.032 0 0 0-.413.285c-.218.257-.315.554-.315.965v.139c0 .526.168.793.315.966.109.125.248.22.413.284.141.053.305.085.488.092l.02.001v.003h1.527v-3.708h-.519zm-1.649 2.75v-.914c0-.376.305-.682.678-.682h.971v2.278h-.97a.681.681 0 0 1-.679-.683zM51.965 37.628v2.831h.519v-2.554h.97c.373 0 .678.306.678.682v1.872h.53l.005-1.484c0-.411-.097-.71-.315-.966a1.028 1.028 0 0 0-.414-.285 1.544 1.544 0 0 0-.488-.091l-.018-.002v-.003h-1.467zM40.021 37.632c-.18.008-.343.038-.482.09-.162.063-.3.158-.41.283-.153.182-.31.416-.31.777v.346c0 .407.095.701.31.956.11.123.246.218.41.28.14.054.301.084.482.091l.019.001v.003h1.218v-.272h-1.18a.675.675 0 0 1-.671-.676s-.02-.314-.02-.49c0-.172.02-.444.02-.444 0-.373.3-.676.67-.676h1.181v-.272l-1.237.003zM12.24 37.597a.907.907 0 0 0-.396.268.713.713 0 0 0 .001.922c.114.13.258.23.427.294.111.042.238.07.377.086l.03.002c.163.016.347.034.468.175.13.15.156.294.08.426-.17.288-.489.327-.777.327h-.581v.364c.106.011.838 0 .933-.01.391-.041.674-.167.864-.384a.706.706 0 0 0 0-.92 1.066 1.066 0 0 0-.427-.295 1.592 1.592 0 0 0-.329-.068c-.277-.037-.59-.079-.66-.408-.046-.219.148-.391.349-.457a.875.875 0 0 1 .278-.038l.536-.001v-.348c-.093 0-.187-.005-.287-.009a6.431 6.431 0 0 0-.322-.01 1.59 1.59 0 0 0-.565.084zM3.53 36.751l-1.422 2.875h-.053l-.006-.01L.608 36.75H0v3.703h.51v-2.651l1.344 2.651h.275l1.35-2.737.102-.19v2.927h.545v-3.703H3.53zM29.094 36.75v3.703h2.477v-.27H29.61v-1.566h1.312v-.284H29.61v-1.266h1.96v-.316h-2.476zM14.326 36.793l-.006 2.44.008.09c.026.316.047.565.21.757.109.125.249.22.413.283.16.062.346.092.572.092h.222v-.272h-.197a.956.956 0 0 1-.304-.05.511.511 0 0 1-.235-.157.807.807 0 0 1-.144-.3 2.021 2.021 0 0 1-.047-.466l-.003-1.217h.822v-.364h-.823l-.002-.836h-.486zM17.631 37.63c-.22.002-.416.035-.585.098a1.08 1.08 0 0 0-.433.298c-.169.2-.19.462-.218.792l-.008.093.006 1.548h.51l.005-1.524c0-.183.016-.347.05-.487a.83.83 0 0 1 .15-.312.53.53 0 0 1 .245-.166.998.998 0 0 1 .32-.043h.22v-.299l-.262.002zM49.853 37.63l-.015.003a1.49 1.49 0 0 0-.475.09.991.991 0 0 0-.405.277c-.143.17-.308.43-.308.942v.202c0 .401.095.692.308.943.107.122.244.216.405.277.136.053.297.083.475.09h.323c.178-.007.338-.037.475-.09.16-.06.297-.155.405-.277.212-.252.307-.542.307-.943v-.202c0-.4-.095-.69-.307-.942a1 1 0 0 0-.405-.278 1.501 1.501 0 0 0-.477-.09l-.017-.003h-.289zm-.655 1.745c-.036-.348-.058-.975.211-1.265a.665.665 0 0 1 .485-.212h.21c.54 0 .665.547.695.783.022.183.05.536-.01.849a.976.976 0 0 1-.147.383.664.664 0 0 1-.537.276h-.211c-.551 0-.67-.569-.696-.814zM42.892 37.624l-.015.003c-.187.009-.355.04-.499.094a1.054 1.054 0 0 0-.423.292c-.222.262-.322.566-.322.986l.019.357c.037.291.132.52.301.72.113.128.255.227.423.291.079.03.163.047.244.063.177.036.343.032.51.034.099.002.188.003.28-.018l.006-.002c.094-.021.19-.043.282-.077.078-.03.148-.071.197-.103l.03-.02v.21h.53v-2.83h-1.563zm-.651 1.861s-.022-.218-.022-.44c0-.223.023-.442.023-.444 0-.382.311-.694.693-.694h.99v1.357l-.006.222c0 .377-.33.696-.72.696h-.267a.695.695 0 0 1-.691-.697zM45.306 36.793l-.007 2.44.008.09c.026.316.047.565.21.756.11.126.249.22.414.284.159.061.346.092.572.092h.222v-.272h-.198a.997.997 0 0 1-.303-.05.516.516 0 0 1-.236-.158.807.807 0 0 1-.143-.299 2.074 2.074 0 0 1-.048-.467l-.002-1.264h.82v-.316h-.822l-.002-.836h-.485zM23.84 37.623l-.015.002c-.18.008-.34.039-.478.09a1.001 1.001 0 0 0-.405.28c-.214.251-.31.544-.31.947v.202c0 .402.096.693.31.946.107.122.244.216.405.278.138.052.299.083.478.09h.323c.179-.007.34-.038.478-.09.162-.062.3-.156.406-.278.213-.253.31-.544.31-.946v-.203c0-.402-.097-.694-.31-.947a1.01 1.01 0 0 0-.406-.278 1.55 1.55 0 0 0-.478-.09l-.018-.003h-.29zm-.657 1.752c-.038-.349-.059-.979.212-1.27a.662.662 0 0 1 .486-.213h.21c.543 0 .669.55.698.786.023.184.052.539-.008.852-.031.16-.08.29-.149.384a.665.665 0 0 1-.539.278h-.212c-.554 0-.673-.571-.698-.817zM6.678 37.628v2.831h.518v-2.554h.97c.375 0 .679.306.679.682v1.872h.53l.005-1.484c0-.411-.097-.71-.316-.966a1.028 1.028 0 0 0-.413-.285 1.547 1.547 0 0 0-.488-.091l-.018-.002v-.003H6.678zM38.33 26.148c0 .26.21.47.467.47s.466-.21.466-.47c0-.259-.21-.47-.466-.47a.469.469 0 0 0-.467.47zM47.803 27.623l-.008 3.774c0 .234-.02.441-.06.616a1.067 1.067 0 0 1-.186.388.642.642 0 0 1-.297.2 1.28 1.28 0 0 1-.401.054h-.019l.042.468h.015c.293 0 .557-.044.786-.131.227-.087.42-.22.573-.396.246-.29.393-.683.435-1.17l-.008-3.803h-.872zM45.512 25.68v5.507h.852V25.68h-.852zM43.301 27.623l-.008 3.774c0 .233-.02.44-.06.616-.048.166-.11.297-.185.388a.642.642 0 0 1-.298.2 1.285 1.285 0 0 1-.4.054h-.02l.042.468h.015c.293 0 .557-.044.785-.131.228-.087.422-.22.574-.396.246-.29.393-.684.435-1.17l-.009-3.803h-.87zM38.669 27.623a1.84 1.84 0 0 0-1.835 1.847v1.716h4.88v-3.563H38.67zm-.976 1.762c0-.583.47-1.056 1.048-1.056h2.118v2.11h-3.166v-1.054zM26.799 26.148c0 .26.21.47.466.47a.469.469 0 0 0 0-.94.469.469 0 0 0-.466.47zM5.768 32.626c0 .259.21.469.466.469a.469.469 0 0 0 0-.939.469.469 0 0 0-.466.47zM7.113 32.626c0 .259.21.469.467.469a.469.469 0 0 0 0-.939.47.47 0 0 0-.467.47zM28.146 26.148c0 .26.21.47.467.47s.466-.21.466-.47c0-.259-.21-.47-.466-.47a.469.469 0 0 0-.466.47zM39.676 26.148c0 .26.21.47.467.47a.47.47 0 0 0 0-.94.47.47 0 0 0-.467.47zM47.785 26.15c0 .257.21.468.466.468a.469.469 0 0 0 0-.94.469.469 0 0 0-.466.471z" fill="#fff"/><path d="M30.863 25.679v4.76H28.73v-2.816h-.851v2.815h-8.522v-.997c0-.614.494-1.112 1.105-1.112H24.1v-.706h-3.71c-1.044 0-1.89.852-1.89 1.902v.913h-6.884v-4.76h-.842v4.76H8.398v-2.815h-.853v2.815H5.932l-.008-.857v-.012c0-.605-.188-1.085-.56-1.421-.33-.317-.8-.494-1.398-.525H.59l.012 3.627c0 .234-.022.441-.062.617a1.045 1.045 0 0 1-.185.388.636.636 0 0 1-.297.199c-.017.005-.04.008-.058.014v.49c.173-.02.335-.057.48-.112.229-.087.422-.22.575-.396.246-.29.392-.683.434-1.17v-.094h30.253V25.68h-.88zM1.48 28.385c0-.03.026-.056.056-.056l2.468.001h.065c.037.006.068.01.102.017.51.095.88.542.88 1.065v1.026H1.487l-.006-2.053zM51.652 27.623c-1.027 0-1.861.84-1.861 1.874v1.69h3.992v.21c0 .233-.02.441-.061.616a1.051 1.051 0 0 1-.184.389.65.65 0 0 1-.298.199.98.98 0 0 1-.15.034v.48c.208-.017.4-.057.572-.123a1.42 1.42 0 0 0 .575-.395c.245-.29.392-.684.434-1.171l-.004-3.803h-3.015zm-1.003 1.79a1.08 1.08 0 0 1 1.076-1.084h2.066v.028l-.006 2.081H50.65v-1.025zM33.034 25.679a.013.013 0 0 0-.012.013v5.482c0 .007.005.012.012.012h.828c.006 0 .011-.005.011-.012v-5.482c0-.007-.005-.013-.011-.013h-.828z" fill="#fff"/><g><path d="M53.177 10.936c-.766 0-1.455.717-1.444 1.463-.011.38.154.75.421 1.018.279.278.648.443 1.03.433.38.01.75-.155 1.028-.433.267-.267.432-.638.422-1.018.01-.381-.144-.762-.422-1.04a1.464 1.464 0 0 0-1.018-.423h-.017zM41.86 12.909a1.127 1.127 0 0 0 .46 1.525c.446.239.977.15 1.326-.199a.988.988 0 0 0 .19-.254 1.126 1.126 0 0 0-.992-1.659c-.4 0-.787.214-.983.587zM47.036 11.546l-.01.01a1.387 1.387 0 0 0 .254 1.937c.557.44 1.34.381 1.828-.108.038-.04.078-.079.108-.127a1.386 1.386 0 0 0-2.18-1.712zM38.16 14.528c-.408 0-.771.363-.771.783a.75.75 0 0 0 .226.546.774.774 0 0 0 1.103 0 .757.757 0 0 0 .225-.546.766.766 0 0 0-.225-.557.79.79 0 0 0-.554-.226h-.003zM1.461 11.057c-.75-.01-1.472.69-1.46 1.462 0 .37.153.751.42 1.019.279.278.66.432 1.04.421.38.011.751-.154 1.018-.421.279-.279.443-.648.433-1.03.01-.38-.154-.751-.433-1.03a1.411 1.411 0 0 0-.983-.421h-.035zM11.268 12.577a1.12 1.12 0 0 0-.452 1.517c.292.548.976.755 1.523.46a.981.981 0 0 0 .254-.19c.35-.35.438-.882.2-1.327a1.127 1.127 0 0 0-1.525-.46zM5.836 11.422l-.009.01a1.392 1.392 0 0 0-.235 1.936c.469.607 1.34.715 1.945.245a.677.677 0 0 0 .127-.108c.489-.489.547-1.271.108-1.829a1.385 1.385 0 0 0-1.936-.254zM38 9.223a1.134 1.134 0 0 0 .579 1.486c.437.183.93.072 1.24-.239a1.134 1.134 0 0 0-.342-1.835A1.137 1.137 0 0 0 38 9.223zM52.79.08c-.961 0-1.846.883-1.832 1.833-.014.48.194.948.545 1.3.337.337.806.544 1.287.533.48.012.961-.182 1.312-.533a1.855 1.855 0 0 0 0-2.6A1.804 1.804 0 0 0 52.837.08h-.047zM30.17 8.234a.934.934 0 0 0 .69 1.123.943.943 0 0 0 .873-.255.95.95 0 0 0 .244-.44.946.946 0 0 0-.69-1.125.932.932 0 0 0-1.117.697zM34.051 5.721a1.093 1.093 0 0 0 .66 1.406 1.11 1.11 0 0 0 1.414-.652l-.008-.008A1.092 1.092 0 0 0 35.088 5c-.448 0-.873.278-1.037.72zM38.046 3.784a1.417 1.417 0 0 0 .636 1.908 1.423 1.423 0 0 0 1.656-.262c.1-.1.181-.223.262-.364a1.437 1.437 0 0 0-.626-1.92 1.44 1.44 0 0 0-1.927.637zM42.344 2.332a1.676 1.676 0 0 0 .474 2.317c.672.46 1.546.343 2.102-.213.07-.071.154-.153.2-.249a1.69 1.69 0 0 0-.461-2.328 1.675 1.675 0 0 0-2.315.473zM46.982 1.342a1.667 1.667 0 0 0 .177 2.353c.685.565 1.654.519 2.268-.095l.094-.095c.59-.709.508-1.76-.189-2.363a1.684 1.684 0 0 0-1.08-.393c-.474 0-.943.2-1.27.593zM51.41 7.361c.001.435.173.835.48 1.144.298.297.698.468 1.133.47.434-.002.846-.162 1.154-.47.297-.298.468-.72.458-1.144a1.58 1.58 0 0 0-.458-1.144 1.64 1.64 0 0 0-1.143-.48c-.846 0-1.636.766-1.624 1.624zM30.022 14.134a.85.85 0 0 0 .734.964.844.844 0 0 0 .965-.734.86.86 0 0 0-.857-.973.85.85 0 0 0-.842.743zM33.802 11.4a1.029 1.029 0 0 0 .713 1.266c.37.11.75-.007 1.005-.262.123-.124.21-.269.268-.444a1.028 1.028 0 0 0-.713-1.266 1.021 1.021 0 0 0-1.274.706zM42.35 7.55a1.368 1.368 0 0 0 .438 1.869c.543.334 1.23.239 1.668-.2a1.23 1.23 0 0 0 .19-.248 1.348 1.348 0 0 0-.447-1.858 1.362 1.362 0 0 0-1.848.438zM46.995 6.56a1.479 1.479 0 0 0 .206 2.06c.577.473 1.43.421 1.954-.103.03-.032.063-.062.103-.104l-.01-.009a1.435 1.435 0 0 0-.205-2.04 1.433 1.433 0 0 0-.922-.333c-.419 0-.837.182-1.126.53zM1.832.08C.883.067 0 .951.001 1.913c-.014.48.18.961.532 1.313a1.855 1.855 0 0 0 2.598 0c.35-.35.545-.833.533-1.313A1.786 1.786 0 0 0 3.131.626C2.791.285 2.341.08 1.877.08h-.045zM23.364 7.666a.936.936 0 0 0-.697 1.119.944.944 0 0 0 1.124.69c.17-.04.33-.132.44-.243a.946.946 0 0 0 .256-.874.934.934 0 0 0-1.123-.692zM19.187 5.184c-.568.21-.863.847-.652 1.414.201.56.83.862 1.397.653l.008.008a1.11 1.11 0 0 0 .652-1.415 1.091 1.091 0 0 0-1.405-.66zM14.684 3.262a1.441 1.441 0 0 0-.636 1.928c.354.697 1.223.981 1.919.627.14-.081.262-.161.363-.263a1.423 1.423 0 0 0 .262-1.656c-.243-.5-.75-.788-1.272-.788-.215 0-.433.049-.636.152zM10.907 1.707c-.315 0-.635.089-.917.275A1.677 1.677 0 0 0 9.518 4.3c.532.767 1.56.97 2.326.46a1 1 0 0 0 .249-.2c.555-.555.673-1.43.212-2.104a1.67 1.67 0 0 0-1.396-.749h-.002zM5.322 1.34a1.668 1.668 0 0 0-.201 2.351c.602.697 1.653.78 2.361.19l.095-.095c.615-.615.66-1.584.095-2.269a1.672 1.672 0 0 0-1.267-.58c-.384 0-.77.132-1.083.403zM1.606 5.856C.756 5.856 0 6.641 0 7.482c0 .41.172.834.48 1.143.298.297.722.47 1.145.457A1.579 1.579 0 0 0 3.236 7.47a1.599 1.599 0 0 0-.469-1.133 1.604 1.604 0 0 0-1.142-.48h-.019zM23.661 13.522a.85.85 0 0 0-.732.965c.065.467.496.8.963.734a.847.847 0 0 0 .735-.964.852.852 0 0 0-.966-.735zM19.58 10.806c-.547.153-.867.72-.707 1.275.153.545.72.866 1.267.714.175-.058.32-.146.443-.27a1.01 1.01 0 0 0 .262-1.005 1.03 1.03 0 0 0-1.265-.714zM15.173 8.763a1.137 1.137 0 0 0-.587 1.478 1.133 1.133 0 0 0 1.834.341c.31-.31.422-.8.239-1.239a1.136 1.136 0 0 0-1.486-.58zM10.436 7.239c-.619.39-.82 1.22-.437 1.85.39.638 1.219.839 1.856.447.096-.056.183-.124.249-.19a1.355 1.355 0 0 0 .2-1.668 1.375 1.375 0 0 0-1.16-.639c-.242 0-.486.064-.708.2zM5.472 6.484a1.456 1.456 0 0 0-.195 2.049c.505.627 1.42.72 2.038.206l.01.01.102-.104c.525-.524.577-1.379.104-1.955a1.473 1.473 0 0 0-2.059-.206zM16.484 14.647a.798.798 0 0 0-.783.773c0 .209.083.413.226.556a.763.763 0 0 0 .557.226.754.754 0 0 0 .545-.226.773.773 0 0 0 0-1.102.753.753 0 0 0-.524-.227h-.021zM27.296 10.392c-.452 0-.862.41-.862.862a.857.857 0 0 0 .25.619c.16.16.38.245.612.244a.859.859 0 0 0 .612-.244.864.864 0 0 0 .25-.618.853.853 0 0 0-.25-.606.849.849 0 0 0-.594-.257h-.018zM26.514 17.527a.762.762 0 0 0 .233.555.76.76 0 0 0 .55.229.768.768 0 0 0 .556-.223.796.796 0 0 0 .006-1.118.794.794 0 0 0-.562-.228.812.812 0 0 0-.783.785z" fill="#fff"/></g></svg>