<svg width="122" height="41" viewBox="0 0 122 41" fill="none" xmlns="http://www.w3.org/2000/svg">
<g id="Group">
<path id="Vector" d="M52.9819 0.509277C48.818 0.509277 44.6353 0.509277 40.4713 0.509277C39.6835 0.509277 39.2146 0.88441 39.1958 1.52213C39.1771 2.17862 39.6648 2.61002 40.4713 2.61002C42.0093 2.61002 43.5474 2.62878 45.0854 2.59126C45.6106 2.57251 45.7419 2.74131 45.7231 3.24774C45.7044 7.41171 45.7044 11.5944 45.7044 15.7584C45.7044 16.5837 46.0608 16.9963 46.7172 16.9963C47.3737 16.9963 47.7301 16.5649 47.7301 15.7397C47.7301 13.6764 47.7301 11.6132 47.7301 9.54997C47.7301 7.44923 47.7489 5.32973 47.7113 3.22899C47.7113 2.68504 47.8801 2.57251 48.3866 2.59126C49.9059 2.62878 51.4064 2.61002 52.9257 2.61002C53.751 2.61002 54.2011 2.21613 54.2011 1.54089C54.2199 0.865653 53.8072 0.509277 52.9819 0.509277Z" fill="white"/>
<path id="Vector_2" d="M70.3895 14.9146C70.2207 14.8958 70.0331 14.9146 69.8643 14.9146C66.4693 14.9146 63.0744 14.9146 59.6607 14.9146C58.6853 14.9146 58.1039 14.3706 58.1039 13.4328C58.0851 10.488 58.0851 7.56196 58.1039 4.61717C58.1039 3.52929 58.9104 2.64773 59.9983 2.62897C62.4929 2.59146 65.0063 2.59146 67.5009 2.62897C68.5513 2.64773 69.3203 3.52929 69.3579 4.57966C69.3766 4.84225 69.3579 5.10484 69.3579 5.36744C69.3579 6.92423 68.5701 7.69326 66.9945 7.71201C65.1376 7.71201 63.262 7.71201 61.405 7.71201C60.7673 7.71201 60.2984 8.12466 60.2797 8.68736C60.2609 9.26881 60.5235 9.70021 61.18 9.77524C63.3745 9.77524 65.569 9.77524 67.7635 9.77524C68.6826 9.73773 69.4329 9.34384 70.1269 8.74363C71.6649 7.41191 71.7775 4.72971 71.1397 3.11664C70.577 1.65362 69.4891 0.79082 67.8948 0.584497C65.1376 0.490714 62.3804 0.490714 59.6044 0.584497C57.635 0.772064 56.0407 2.42265 56.0031 4.44836C55.9469 7.52445 55.9469 10.5818 56.0031 13.6579C56.0407 15.5523 57.5975 17.0153 59.5106 17.0341C60.9361 17.0528 62.3616 17.0341 63.7871 17.0341C65.9817 17.0341 68.1762 17.0341 70.3707 17.0341C71.0272 17.0341 71.4586 16.5651 71.4398 15.9649C71.4398 15.3647 71.0084 14.9521 70.3895 14.9146Z" fill="white"/>
<path id="Vector_3" d="M121.07 4.5797C121.051 2.27264 119.232 0.509515 116.943 0.490758C113.586 0.472002 110.228 0.490758 106.871 0.490758C105.952 0.490758 105.577 0.828377 105.577 1.74745C105.577 5.64883 105.558 9.5502 105.577 13.4516C105.595 15.3272 106.908 16.7527 108.69 16.9403C108.934 16.9591 109.159 16.9966 109.403 16.9966C112.817 16.9966 116.212 16.9966 119.625 16.9966C119.85 16.9966 120.057 16.9591 120.282 16.9403C120.882 16.809 121.07 16.3776 121.07 15.8149C121.07 12.0823 121.088 8.33103 121.07 4.5797ZM107.696 13.2265C107.696 11.5572 107.696 9.88782 107.696 8.23724C107.696 6.54915 107.715 4.86105 107.696 3.17295C107.696 2.74155 107.809 2.61026 108.24 2.61026C111.129 2.62901 114.036 2.61026 116.924 2.62901C118.087 2.62901 118.969 3.49182 118.988 4.65473C119.006 7.89962 118.988 11.1445 119.006 14.3894C119.006 14.8396 118.838 14.9334 118.425 14.9334C115.405 14.9146 112.367 14.9334 109.347 14.9146C108.24 14.8958 107.696 14.3331 107.696 13.2265Z" fill="white"/>
<path id="Vector_4" d="M102.669 14.9144C99.9308 14.9144 97.1924 14.9144 94.4351 14.9144C92.9534 14.9144 92.1281 14.0891 92.1281 12.5885C92.1281 9.51245 92.1468 6.45512 92.1093 3.37904C92.1093 2.77883 92.2406 2.61002 92.8596 2.61002C96.0857 2.64753 99.3119 2.62877 102.538 2.62877C103.119 2.62877 103.57 2.45997 103.776 1.87851C104.02 1.147 103.495 0.528034 102.576 0.509277C98.9367 0.509277 95.298 0.509277 91.6592 0.509277C90.3275 0.509277 90.0273 0.790627 90.0273 2.12235C90.0273 5.46102 90.0273 8.7997 90.0273 12.1196C90.0273 12.6073 90.0649 13.0762 90.1211 13.5639C90.3462 15.3458 91.903 16.8275 93.6849 16.9776C95.7294 17.0901 97.7738 17.0151 99.7995 17.0339C100.869 17.0339 101.957 17.1089 103.026 16.9776C103.663 16.8275 103.888 16.3774 103.795 15.7959C103.701 15.177 103.27 14.9144 102.669 14.9144Z" fill="white"/>
<path id="Vector_5" d="M87.0257 0.509277C82.8617 0.509277 78.6978 0.509277 74.5338 0.509277C73.7085 0.509277 73.2396 0.921923 73.2584 1.5784C73.2771 2.21613 73.746 2.61002 74.5151 2.61002C76.0156 2.61002 77.4974 2.64753 78.9791 2.59126C79.5793 2.57251 79.7294 2.72256 79.7294 3.34153C79.6919 7.48674 79.7106 11.632 79.7106 15.7772C79.7106 16.3774 79.8982 16.8275 80.4984 16.9588C81.0424 17.0714 81.4925 16.9213 81.6801 16.3211C81.8676 16.0585 81.7926 15.7772 81.7926 15.4958C81.7926 11.3881 81.8114 7.29917 81.7926 3.19147C81.7926 2.74131 81.8864 2.59126 82.3741 2.59126C83.9121 2.62878 85.4502 2.61002 86.9882 2.61002C87.8135 2.61002 88.2824 2.21613 88.2636 1.54089C88.2636 0.88441 87.8135 0.509277 87.0257 0.509277Z" fill="white"/>
<g id="Group_2">
<g id="Group_3">
<path id="Vector_6" d="M28.9919 0.509313C27.0787 0.509313 25.1843 0.509313 23.2711 0.509313C22.746 0.509313 22.2208 0.490556 21.7143 0.509313C20.9453 0.546826 20.2138 0.809419 19.5198 1.12828C17.7004 1.99109 16.1624 3.4541 14.8307 4.95463C15.3559 4.95463 15.881 4.95463 16.4062 4.95463C15.4684 4.12934 14.5493 3.24778 13.5552 2.47876C12.6361 1.72849 11.5107 1.24082 10.3478 0.996985C8.56596 0.621853 6.70905 0.865689 4.88966 0.865689C3.95183 0.865689 3.014 0.865689 2.09492 0.790662C1.49471 0.753149 0.988281 1.3346 0.988281 1.8973C0.988281 5.92998 0.988281 9.96265 0.988281 14.0141C0.988281 14.5768 0.988281 15.1395 0.988281 15.7209C0.988281 16.3211 1.49471 16.8276 2.09492 16.8276C3.82053 16.8276 5.54614 16.8276 7.27175 16.8276C7.68439 16.8276 8.09704 16.8276 8.49093 16.8276C8.58471 16.8276 8.69725 16.8276 8.79103 16.8276C8.80979 16.8276 8.82855 16.8276 8.8473 16.8276C8.88482 16.8276 8.90357 16.8276 8.94109 16.8276C9.18492 16.8276 8.79103 16.7901 8.99736 16.8276C10.5354 17.1464 11.7171 18.028 12.8612 19.0971C13.3489 19.5473 13.8366 20.0162 14.3242 20.4664C14.5306 20.6539 14.7369 20.8978 14.9807 21.0478C15.9748 21.6293 16.9877 20.2975 17.6254 19.6973C18.2631 19.1159 18.9196 18.5344 19.5386 17.9342C19.5948 17.8779 19.6324 17.8404 19.6699 17.7842C19.7261 17.7279 19.8012 17.6716 19.8574 17.6153C19.895 17.5778 20.1951 17.3528 20.0638 17.4278C20.6077 17.0339 21.1892 16.7525 21.8644 16.7901C24.2465 16.9214 26.6098 16.9964 28.9919 16.9776C30.4174 16.9589 30.4362 14.7268 28.9919 14.7456C26.8161 14.7643 24.6404 14.8019 22.4646 14.6143C21.6956 14.558 20.9641 14.5393 20.2326 14.8206C19.5198 15.0832 18.8633 15.4958 18.3006 16.0023C17.8317 16.4149 17.3816 16.8651 16.9127 17.2965C16.1999 17.953 15.4684 18.6282 14.7556 19.2847C15.0182 19.1721 15.2808 19.0596 15.5434 18.9658H15.5247C15.7873 19.0784 16.0498 19.1909 16.3124 19.2847C14.343 17.4465 12.4861 15.3458 9.76638 14.7081C9.09114 14.5393 8.39715 14.5768 7.70315 14.5768C6.59651 14.5768 5.48987 14.5768 4.38323 14.5768C3.61421 14.5768 2.84519 14.5768 2.07616 14.5768C2.4513 14.9519 2.82643 15.327 3.18281 15.6834C3.18281 11.6507 3.18281 7.61807 3.18281 3.56664C3.18281 3.00394 3.18281 2.44124 3.18281 1.85979C2.80767 2.23492 2.43254 2.61005 2.07616 2.96643C2.7514 3.0227 3.4454 3.0227 4.12064 3.04146C4.90841 3.04146 5.67744 3.04146 6.46521 3.0227C7.40304 3.00394 8.34088 2.8914 9.25995 3.0227C10.3853 3.154 11.1544 3.47286 12.0359 4.07307C12.0734 4.11058 12.111 4.1481 12.1672 4.16685C12.2047 4.20437 12.2423 4.24188 12.2798 4.27939C12.4486 4.42945 12.6361 4.5795 12.805 4.74831C13.4802 5.32976 14.1367 5.91122 14.8119 6.51143C15.2433 6.88656 15.9748 6.98035 16.3875 6.51143C17.5316 5.23598 18.7883 3.99804 20.3264 3.19151C20.4389 3.13524 20.5514 3.07897 20.6827 3.0227C20.9453 2.8914 20.5702 3.06021 20.814 2.96643C21.0016 2.91016 21.1704 2.83513 21.358 2.77886C21.4705 2.74135 21.6206 2.74135 21.7331 2.70384C21.6956 2.72259 21.4518 2.72259 21.6956 2.72259C23.3087 2.74135 24.9405 2.72259 26.5536 2.72259C27.3601 2.72259 28.1666 2.72259 28.9732 2.72259C30.4362 2.74135 30.4362 0.509313 28.9919 0.509313Z" fill="white"/>
<path id="Vector_7" d="M21.3582 11.1441C23.5152 11.1441 25.6722 11.1441 27.8105 11.1441C29.236 11.1441 29.2547 8.91211 27.8105 8.91211C25.6535 8.91211 23.4964 8.91211 21.3582 8.91211C19.9327 8.91211 19.9327 11.1441 21.3582 11.1441Z" fill="white"/>
<path id="Vector_8" d="M23.3094 6.90538C25.4664 6.90538 27.6234 6.90538 29.7616 6.90538C31.1871 6.90538 31.2059 4.67334 29.7616 4.67334C27.6046 4.67334 25.4476 4.67334 23.3094 4.67334C21.8839 4.6921 21.8839 6.90538 23.3094 6.90538Z" fill="white"/>
<path id="Vector_9" d="M31.4483 11.1444C31.9734 11.1444 32.4799 11.1444 33.0051 11.1444C33.5865 11.1444 34.1492 10.638 34.1117 10.0378C34.0929 9.43758 33.624 8.93115 33.0051 8.93115C32.4799 8.93115 31.9734 8.93115 31.4483 8.93115C30.8668 8.93115 30.3041 9.43758 30.3416 10.0378C30.3604 10.638 30.8293 11.1444 31.4483 11.1444Z" fill="white"/>
<path id="Vector_10" d="M32.4422 16.9962C33.4363 16.9962 34.4491 16.9962 35.4432 16.9962C36.8687 16.9962 36.8875 14.7642 35.4432 14.7642C34.4491 14.7642 33.4363 14.7642 32.4422 14.7642C31.0167 14.7642 31.0167 16.9962 32.4422 16.9962Z" fill="white"/>
</g>
</g>
<g id="Group_4">
<path id="Vector_11" d="M5.73482 30.1075C5.54725 30.1075 5.37844 30.07 5.24715 29.995C5.11585 29.92 5.00331 29.7887 4.90953 29.6198V29.6011C4.81574 29.7887 4.68445 29.9387 4.49688 30.0513C4.30931 30.1638 4.08424 30.2201 3.82164 30.2201C3.59656 30.2201 3.35273 30.1825 3.10889 30.1075C2.86506 30.0325 2.62122 29.9012 2.37738 29.7136C2.24609 29.7511 2.13355 29.7887 2.05852 29.8449C1.98349 29.9012 1.92722 29.9575 1.87095 30.0513C1.83344 30.145 1.81468 30.2388 1.79593 30.3701C1.77717 30.5014 1.77717 30.6702 1.77717 30.8578V33.1273H1.1582V30.839C1.1582 30.5764 1.17696 30.3701 1.19572 30.1825C1.21447 29.995 1.27074 29.8449 1.34577 29.6949C1.4208 29.5448 1.53334 29.4323 1.66463 29.3385C1.79593 29.2447 1.98349 29.1509 2.18982 29.0759C2.24609 28.7383 2.33987 28.4569 2.45241 28.2319C2.56495 28.0068 2.715 27.838 2.8463 27.6879C2.99635 27.5566 3.1464 27.4628 3.29646 27.4066C3.44651 27.3503 3.59656 27.3315 3.72786 27.3315C3.91543 27.3315 4.08424 27.3691 4.25305 27.4441C4.4031 27.5191 4.55315 27.6129 4.66569 27.7442C4.77823 27.8755 4.87201 28.0255 4.94704 28.2131C5.02207 28.4007 5.04082 28.607 5.04082 28.8133C5.04082 28.8508 5.04082 28.8883 5.04082 28.9071C5.04082 28.9446 5.04082 28.9634 5.04082 29.0009C5.09709 29.1509 5.17212 29.2822 5.2659 29.3573C5.35969 29.4323 5.50974 29.4886 5.71606 29.4886C5.92238 29.4886 6.01617 29.5823 6.01617 29.7887C6.01617 29.92 5.99741 29.995 5.94114 30.0513C5.92238 30.0888 5.84736 30.1075 5.73482 30.1075ZM4.45937 28.7946C4.45937 28.682 4.44061 28.5695 4.4031 28.4757C4.36558 28.3632 4.32807 28.2881 4.25305 28.1943C4.19678 28.1193 4.12175 28.0443 4.02797 28.0068C3.93418 27.9505 3.8404 27.9318 3.7091 27.9318C3.50278 27.9318 3.29646 28.0255 3.10889 28.2131C2.92133 28.4007 2.75252 28.7195 2.63998 29.1697C2.82754 29.2822 3.01511 29.376 3.18392 29.451C3.37148 29.5261 3.55905 29.5636 3.74662 29.5636C3.95294 29.5636 4.12175 29.5073 4.25305 29.376C4.4031 29.2822 4.45937 29.0759 4.45937 28.7946Z" fill="white"/>
<path id="Vector_12" d="M5.75323 30.1072C5.54691 30.1072 5.45312 30.0135 5.45312 29.8071C5.45312 29.6758 5.47188 29.6008 5.52815 29.5633C5.58442 29.5258 5.65945 29.4883 5.75323 29.4883H6.85987C7.06619 29.4883 7.15998 29.5821 7.15998 29.7884C7.15998 29.9197 7.14122 29.9947 7.08495 30.0322C7.02868 30.0697 6.95365 30.1072 6.85987 30.1072H5.75323Z" fill="white"/>
<path id="Vector_13" d="M6.84112 30.1072C6.6348 30.1072 6.54102 30.0135 6.54102 29.8071C6.54102 29.6758 6.55977 29.6008 6.61604 29.5633C6.67231 29.5258 6.74734 29.4883 6.84112 29.4883H7.94776C8.15409 29.4883 8.24787 29.5821 8.24787 29.7884C8.24787 29.9197 8.22911 29.9947 8.17284 30.0322C8.11657 30.0697 8.04155 30.1072 7.94776 30.1072H6.84112Z" fill="white"/>
<path id="Vector_14" d="M7.94854 30.1072C7.74222 30.1072 7.64844 30.0135 7.64844 29.8071C7.64844 29.6758 7.66719 29.6008 7.72346 29.5633C7.77973 29.5258 7.85476 29.4883 7.94854 29.4883H9.05518C9.26151 29.4883 9.35529 29.5821 9.35529 29.7884C9.35529 29.9197 9.33653 29.9947 9.28026 30.0322C9.22399 30.0697 9.14897 30.1072 9.05518 30.1072H7.94854Z" fill="white"/>
<path id="Vector_15" d="M9.05401 30.1072C8.84769 30.1072 8.75391 30.0135 8.75391 29.8071C8.75391 29.6758 8.77266 29.6008 8.82893 29.5633C8.8852 29.5258 8.96023 29.4883 9.05401 29.4883H10.1607C10.367 29.4883 10.4608 29.5821 10.4608 29.7884C10.4608 29.9197 10.442 29.9947 10.3857 30.0322C10.3295 30.0697 10.2544 30.1072 10.1607 30.1072H9.05401Z" fill="white"/>
<path id="Vector_16" d="M10.1614 30.1072C9.95511 30.1072 9.86133 30.0135 9.86133 29.8071C9.86133 29.6758 9.88008 29.6008 9.93635 29.5633C9.99262 29.5258 10.0677 29.4883 10.1614 29.4883H11.2681C11.4744 29.4883 11.5682 29.5821 11.5682 29.7884C11.5682 29.9197 11.5494 29.9947 11.4932 30.0322C11.4369 30.0697 11.3619 30.1072 11.2681 30.1072H10.1614Z" fill="white"/>
<path id="Vector_17" d="M11.2493 30.1072C11.043 30.1072 10.9492 30.0135 10.9492 29.8071C10.9492 29.6758 10.968 29.6008 11.0242 29.5633C11.0805 29.5258 11.1555 29.4883 11.2493 29.4883H12.356C12.5623 29.4883 12.6561 29.5821 12.6561 29.7884C12.6561 29.9197 12.6373 29.9947 12.581 30.0322C12.5248 30.0697 12.4497 30.1072 12.356 30.1072H11.2493Z" fill="white"/>
<path id="Vector_18" d="M12.3567 30.1072C12.1504 30.1072 12.0566 30.0135 12.0566 29.8071C12.0566 29.6758 12.0754 29.6008 12.1317 29.5633C12.1879 29.5258 12.263 29.4883 12.3567 29.4883H13.4634C13.6697 29.4883 13.7635 29.5821 13.7635 29.7884C13.7635 29.9197 13.7447 29.9947 13.6885 30.0322C13.6322 30.0697 13.5572 30.1072 13.4634 30.1072H12.3567Z" fill="white"/>
<path id="Vector_19" d="M13.4622 30.1072C13.2559 30.1072 13.1621 30.0135 13.1621 29.8071C13.1621 29.6758 13.1809 29.6008 13.2371 29.5633C13.2934 29.5258 13.3684 29.4883 13.4622 29.4883H14.5689C14.7752 29.4883 14.869 29.5821 14.869 29.7884C14.869 29.9197 14.8502 29.9947 14.7939 30.0322C14.7377 30.0697 14.6626 30.1072 14.5689 30.1072H13.4622Z" fill="white"/>
<path id="Vector_20" d="M14.5696 30.1072C14.3633 30.1072 14.2695 30.0135 14.2695 29.8071C14.2695 29.6758 14.2883 29.6008 14.3446 29.5633C14.4008 29.5258 14.4759 29.4883 14.5696 29.4883H15.6763C15.8826 29.4883 15.9764 29.5821 15.9764 29.7884C15.9764 29.9197 15.9576 29.9947 15.9014 30.0322C15.8451 30.0697 15.7701 30.1072 15.6763 30.1072H14.5696Z" fill="white"/>
<path id="Vector_21" d="M15.6575 30.1072C15.4512 30.1072 15.3574 30.0135 15.3574 29.8071C15.3574 29.6758 15.3762 29.6008 15.4324 29.5633C15.4887 29.5258 15.5637 29.4883 15.6575 29.4883H16.7642C16.9705 29.4883 17.0643 29.5821 17.0643 29.7884C17.0643 29.9197 17.0455 29.9947 16.9892 30.0322C16.933 30.0697 16.858 30.1072 16.7642 30.1072H15.6575Z" fill="white"/>
<path id="Vector_22" d="M16.763 30.1072C16.5567 30.1072 16.4629 30.0135 16.4629 29.8071C16.4629 29.6758 16.4816 29.6008 16.5379 29.5633C16.5942 29.5258 16.6692 29.4883 16.763 29.4883H17.8696C18.076 29.4883 18.1697 29.5821 18.1697 29.7884C18.1697 29.9197 18.151 29.9947 18.0947 30.0322C18.0384 30.0697 17.9634 30.1072 17.8696 30.1072H16.763Z" fill="white"/>
<path id="Vector_23" d="M17.8704 30.1072C17.6641 30.1072 17.5703 30.0135 17.5703 29.8071C17.5703 29.6758 17.5891 29.6008 17.6453 29.5633C17.7016 29.5258 17.7766 29.4883 17.8704 29.4883H18.9771C19.1834 29.4883 19.2772 29.5821 19.2772 29.7884C19.2772 29.9197 19.2584 29.9947 19.2021 30.0322C19.1459 30.0697 19.0708 30.1072 18.9771 30.1072H17.8704Z" fill="white"/>
<path id="Vector_24" d="M18.9778 30.1072C18.7715 30.1072 18.6777 30.0135 18.6777 29.8071C18.6777 29.6758 18.6965 29.6008 18.7528 29.5633C18.809 29.5258 18.8841 29.4883 18.9778 29.4883H20.0845C20.2908 29.4883 20.3846 29.5821 20.3846 29.7884C20.3846 29.9197 20.3658 29.9947 20.3096 30.0322C20.2533 30.0697 20.1783 30.1072 20.0845 30.1072H18.9778Z" fill="white"/>
<path id="Vector_25" d="M20.0657 30.1072C19.8594 30.1072 19.7656 30.0135 19.7656 29.8071C19.7656 29.6758 19.7844 29.6008 19.8407 29.5633C19.8969 29.5258 19.9719 29.4883 20.0657 29.4883H21.1724C21.3787 29.4883 21.4725 29.5821 21.4725 29.7884C21.4725 29.9197 21.4537 29.9947 21.3975 30.0322C21.3412 30.0697 21.2662 30.1072 21.1724 30.1072H20.0657Z" fill="white"/>
<path id="Vector_26" d="M21.1712 30.1072C20.9649 30.1072 20.8711 30.0135 20.8711 29.8071C20.8711 29.6758 20.8899 29.6008 20.9461 29.5633C21.0024 29.5258 21.0774 29.4883 21.1712 29.4883H22.2778C22.4842 29.4883 22.5779 29.5821 22.5779 29.7884C22.5779 29.9197 22.5592 29.9947 22.5029 30.0322C22.4467 30.0697 22.3716 30.1072 22.2778 30.1072H21.1712Z" fill="white"/>
<path id="Vector_27" d="M22.2786 30.1072C22.0723 30.1072 21.9785 30.0135 21.9785 29.8071C21.9785 29.6758 21.9973 29.6008 22.0535 29.5633C22.1098 29.5258 22.1848 29.4883 22.2786 29.4883H23.3853C23.5916 29.4883 23.6854 29.5821 23.6854 29.7884C23.6854 29.9197 23.6666 29.9947 23.6103 30.0322C23.5541 30.0697 23.479 30.1072 23.3853 30.1072H22.2786Z" fill="white"/>
<path id="Vector_28" d="M23.3841 30.1072C23.1778 30.1072 23.084 30.0135 23.084 29.8071C23.084 29.6758 23.1027 29.6008 23.159 29.5633C23.2153 29.5258 23.2903 29.4883 23.3841 29.4883H24.4907C24.6971 29.4883 24.7908 29.5821 24.7908 29.7884C24.7908 29.9197 24.7721 29.9947 24.7158 30.0322C24.6595 30.0697 24.5845 30.1072 24.4907 30.1072H23.3841Z" fill="white"/>
<path id="Vector_29" d="M24.472 30.1072C24.2657 30.1072 24.1719 30.0135 24.1719 29.8071C24.1719 29.6758 24.1906 29.6008 24.2469 29.5633C24.3032 29.5258 24.3782 29.4883 24.472 29.4883H25.5786C25.7849 29.4883 25.8787 29.5821 25.8787 29.7884C25.8787 29.9197 25.86 29.9947 25.8037 30.0322C25.7474 30.0697 25.6724 30.1072 25.5786 30.1072H24.472Z" fill="white"/>
<path id="Vector_30" d="M25.5794 30.1073C25.3731 30.1073 25.2793 30.0135 25.2793 29.8072C25.2793 29.6759 25.2981 29.6008 25.3543 29.5633C25.4106 29.5258 25.4856 29.4883 25.5794 29.4883H26.0858C26.1984 29.4883 26.3109 29.4883 26.3859 29.4695C26.461 29.4508 26.536 29.432 26.5923 29.3945C26.6485 29.357 26.686 29.3007 26.7236 29.2257C26.7423 29.1507 26.7611 29.0569 26.7611 28.9256V27.2188H27.38V28.6443C27.38 28.7756 27.38 28.8881 27.3988 28.9819C27.4175 29.0757 27.4551 29.1694 27.4926 29.2445C27.5488 29.3195 27.6051 29.3758 27.6989 29.4133C27.7739 29.4508 27.8865 29.4695 28.0178 29.4695C28.2241 29.4695 28.3179 29.5633 28.3179 29.7697C28.3179 29.9009 28.2991 29.976 28.2428 30.0135C28.1866 30.051 28.1115 30.0885 28.0178 30.0885C27.8302 30.0885 27.6614 30.051 27.5488 29.9572C27.4363 29.8634 27.3425 29.7509 27.305 29.6196C27.2112 29.8259 27.0799 29.9572 26.8924 30.0135C26.7048 30.0698 26.461 30.1073 26.1796 30.1073H25.5794ZM26.1796 31.2327C26.1796 31.1201 26.2171 31.0263 26.2922 30.9513C26.3672 30.8763 26.461 30.8388 26.5735 30.8388C26.686 30.8388 26.7798 30.8763 26.8549 30.9513C26.9299 31.0263 26.9674 31.1201 26.9674 31.2327C26.9674 31.3452 26.9299 31.439 26.8549 31.514C26.7798 31.589 26.686 31.6266 26.5735 31.6266C26.461 31.6266 26.3672 31.589 26.2922 31.514C26.2171 31.439 26.1796 31.3452 26.1796 31.2327ZM27.1362 31.2327C27.1362 31.1201 27.1737 31.0263 27.2487 30.9513C27.3238 30.8763 27.4176 30.8388 27.5301 30.8388C27.6426 30.8388 27.7364 30.8763 27.8114 30.9513C27.8865 31.0263 27.924 31.1201 27.924 31.2327C27.924 31.3452 27.8865 31.439 27.8114 31.514C27.7364 31.589 27.6426 31.6266 27.5301 31.6266C27.4176 31.6266 27.3238 31.589 27.2487 31.514C27.1737 31.439 27.1362 31.3452 27.1362 31.2327Z" fill="white"/>
<path id="Vector_31" d="M28.0169 30.1072C27.8106 30.1072 27.7168 30.0135 27.7168 29.8071C27.7168 29.6758 27.7356 29.6008 27.7918 29.5633C27.8481 29.5258 27.9231 29.4883 28.0169 29.4883H29.1235C29.3299 29.4883 29.4236 29.5821 29.4236 29.7884C29.4236 29.9197 29.4049 29.9947 29.3486 30.0322C29.2924 30.0697 29.2173 30.1072 29.1235 30.1072H28.0169Z" fill="white"/>
<path id="Vector_32" d="M29.1243 30.1074C28.918 30.1074 28.8242 30.0136 28.8242 29.8073C28.8242 29.676 28.843 29.6009 28.8992 29.5634C28.9555 29.5259 29.0305 29.4884 29.1243 29.4884H29.7245C29.8183 29.4884 29.8933 29.4884 29.9684 29.4696C30.0434 29.4509 30.0997 29.4321 30.1372 29.3946C30.1935 29.3571 30.2122 29.3008 30.2497 29.2258C30.2685 29.1508 30.2872 29.057 30.2872 28.9257V24.7617H30.9062V28.6443C30.9062 28.8882 30.9625 29.0945 31.0563 29.2446C31.15 29.3946 31.3188 29.4696 31.5439 29.4696C31.7503 29.4696 31.844 29.5634 31.844 29.7697C31.844 29.901 31.8253 29.9761 31.769 30.0136C31.7127 30.0511 31.6377 30.0886 31.5439 30.0886C31.3564 30.0886 31.1876 30.0511 31.075 29.9573C30.9625 29.8635 30.8874 29.751 30.8312 29.6197C30.7374 29.826 30.6061 29.9573 30.3998 30.0136C30.2122 30.0698 29.9496 30.1074 29.6495 30.1074H29.1243Z" fill="white"/>
<path id="Vector_33" d="M31.5442 30.1072C31.3379 30.1072 31.2441 30.0135 31.2441 29.8071C31.2441 29.6758 31.2629 29.6008 31.3192 29.5633C31.3754 29.5258 31.4505 29.4883 31.5442 29.4883H32.6509C32.8572 29.4883 32.951 29.5821 32.951 29.7884C32.951 29.9197 32.9322 29.9947 32.876 30.0322C32.8197 30.0697 32.7447 30.1072 32.6509 30.1072H31.5442Z" fill="white"/>
<path id="Vector_34" d="M32.6497 30.1074C32.4434 30.1074 32.3496 30.0136 32.3496 29.8073C32.3496 29.676 32.3684 29.601 32.4246 29.5634C32.4809 29.5259 32.5559 29.4884 32.6497 29.4884H32.9873C33.1749 29.4884 33.3625 29.4697 33.55 29.4509C33.7376 29.4321 33.9064 29.3946 34.0752 29.3384L33.1374 28.288C33.1561 28.2317 33.1749 28.1755 33.1937 28.1192C33.2124 28.0629 33.2499 28.0066 33.2687 27.9504C33.2874 27.8941 33.325 27.8378 33.3437 27.8003C33.3625 27.7441 33.4 27.7065 33.4375 27.6878C33.5875 27.5377 33.7939 27.4064 34.0189 27.3127C34.244 27.2189 34.4879 27.1626 34.7505 27.1626C34.9755 27.1626 35.1631 27.1814 35.3132 27.2376C35.482 27.2939 35.6133 27.3502 35.707 27.4439C35.8196 27.5377 35.8946 27.6315 35.9509 27.7441C36.0071 27.8566 36.0259 27.9691 36.0259 28.0817C36.0259 28.363 35.9509 28.6069 35.7821 28.8507C35.632 29.0945 35.4069 29.3009 35.1443 29.4884C35.2381 29.5072 35.3694 29.5259 35.5195 29.5259H36.5698C36.7762 29.5259 36.87 29.6197 36.87 29.826C36.87 29.9573 36.8512 30.0324 36.7949 30.0699C36.7387 30.1074 36.6636 30.1449 36.5698 30.1449H35.3319C35.1819 30.1449 35.0506 30.1261 34.9193 30.0886C34.788 30.0511 34.6567 29.9761 34.5066 29.8448C34.2815 29.9386 34.0377 30.0136 33.7751 30.0699C33.5313 30.1261 33.2687 30.1449 33.0061 30.1449H32.6497V30.1074ZM34.7129 27.7253C34.5066 27.7253 34.3191 27.7628 34.1502 27.8378C33.9814 27.9129 33.8314 28.0254 33.7376 28.1567L34.6379 29.1133C34.8818 29.0007 35.0693 28.8507 35.2194 28.6819C35.3694 28.5131 35.4445 28.3443 35.4445 28.1567C35.4445 28.0442 35.3882 27.9316 35.2756 27.8566C35.1443 27.7628 34.9568 27.7253 34.7129 27.7253Z" fill="white"/>
<path id="Vector_35" d="M36.5892 30.1073C36.3828 30.1073 36.2891 30.0135 36.2891 29.8072C36.2891 29.6759 36.3078 29.6008 36.3641 29.5633C36.4204 29.5258 36.4954 29.4883 36.5892 29.4883H37.0956C37.2081 29.4883 37.3207 29.4883 37.3957 29.4695C37.4707 29.4508 37.5458 29.432 37.602 29.3945C37.6583 29.357 37.6958 29.3007 37.7333 29.2257C37.7521 29.1507 37.7708 29.0569 37.7708 28.9256V27.2187H38.3898V28.6442C38.3898 28.7755 38.3898 28.8881 38.4086 28.9819C38.4273 29.0756 38.4648 29.1694 38.5023 29.2445C38.5586 29.3195 38.6149 29.3758 38.7087 29.4133C38.7837 29.4508 38.8962 29.4695 39.0275 29.4695C39.2338 29.4695 39.3276 29.5633 39.3276 29.7696C39.3276 29.9009 39.3089 29.976 39.2526 30.0135C39.1963 30.051 39.1213 30.0885 39.0275 30.0885C38.84 30.0885 38.6712 30.051 38.5586 29.9572C38.4461 29.8634 38.3523 29.7509 38.3148 29.6196C38.221 29.8259 38.0897 29.9572 37.9021 30.0135C37.7146 30.0697 37.4707 30.1073 37.1894 30.1073H36.5892ZM37.1706 25.9808C37.1706 25.8683 37.2081 25.7745 37.2832 25.6995C37.3582 25.6244 37.452 25.5869 37.5645 25.5869C37.6771 25.5869 37.7708 25.6244 37.8459 25.6995C37.9209 25.7745 37.9584 25.8683 37.9584 25.9808C37.9584 26.0933 37.9209 26.1871 37.8459 26.2622C37.7708 26.3372 37.6771 26.3747 37.5645 26.3747C37.452 26.3747 37.3582 26.3372 37.2832 26.2622C37.2081 26.1871 37.1706 26.0933 37.1706 25.9808ZM38.146 25.9808C38.146 25.8683 38.1835 25.7745 38.2585 25.6995C38.3335 25.6244 38.4273 25.5869 38.5399 25.5869C38.6524 25.5869 38.7462 25.6244 38.8212 25.6995C38.8962 25.7745 38.9337 25.8683 38.9337 25.9808C38.9337 26.0933 38.8962 26.1871 38.8212 26.2622C38.7462 26.3372 38.6524 26.3747 38.5399 26.3747C38.4273 26.3747 38.3335 26.3372 38.2585 26.2622C38.1835 26.1871 38.146 26.0933 38.146 25.9808Z" fill="white"/>
<path id="Vector_36" d="M39.0286 30.1072C38.8223 30.1072 38.7285 30.0134 38.7285 29.807C38.7285 29.6758 38.7473 29.6007 38.8035 29.5632C38.8598 29.5257 38.9348 29.4882 39.0286 29.4882H40.1915V24.7803H40.8105V30.0884H39.0286V30.1072Z" fill="white"/>
<path id="Vector_37" d="M42.4412 24.7993V30.1074H41.8223V24.7993H42.4412Z" fill="white"/>
<path id="Vector_38" d="M51.0502 30.1073H46.5298C46.2485 30.1073 46.0046 30.0885 45.8171 30.051C45.6295 30.0135 45.4795 29.9572 45.3482 29.8635C45.2356 29.7697 45.1418 29.6571 45.1043 29.5258C45.0481 29.3945 45.0293 29.2257 45.0293 29.0194V27.8565H45.6483V28.7943C45.6483 28.9444 45.667 29.0757 45.7045 29.1695C45.742 29.2632 45.7983 29.3383 45.8921 29.3758C45.9859 29.4321 46.0984 29.4508 46.2485 29.4696C46.3985 29.4883 46.6049 29.4883 46.8299 29.4883H50.4312V27.2375H51.0502V30.1073ZM47.2238 26.431C47.2238 26.3185 47.2613 26.2247 47.3364 26.1497C47.4114 26.0746 47.5052 26.0371 47.6177 26.0371C47.7303 26.0371 47.824 26.0746 47.8991 26.1497C47.9741 26.2247 48.0116 26.3185 48.0116 26.431C48.0116 26.5435 47.9741 26.6373 47.8991 26.7123C47.824 26.7874 47.7303 26.8249 47.6177 26.8249C47.5052 26.8249 47.4114 26.7874 47.3364 26.7123C47.2613 26.6373 47.2238 26.5435 47.2238 26.431ZM48.1804 26.431C48.1804 26.3185 48.2179 26.2247 48.2929 26.1497C48.368 26.0746 48.4618 26.0371 48.5743 26.0371C48.6868 26.0371 48.7806 26.0746 48.8556 26.1497C48.9307 26.2247 48.9682 26.3185 48.9682 26.431C48.9682 26.5435 48.9307 26.6373 48.8556 26.7123C48.7806 26.7874 48.6868 26.8249 48.5743 26.8249C48.4618 26.8249 48.368 26.7874 48.2929 26.7123C48.2179 26.6373 48.1804 26.5435 48.1804 26.431Z" fill="white"/>
<path id="Vector_39" d="M53.6584 29.7883C53.6584 29.9196 53.6396 29.9946 53.5833 30.0321C53.5271 30.0696 53.452 30.1072 53.3583 30.1072H53.1707C53.0206 30.1072 52.8706 30.0884 52.7393 30.0509C52.608 30.0134 52.4955 29.9571 52.4017 29.8821C52.3079 29.807 52.2329 29.6945 52.1766 29.5632C52.1203 29.4319 52.1016 29.2631 52.1016 29.0755V24.7803H52.7205V28.9067C52.7205 29.1131 52.758 29.2631 52.8143 29.3569C52.8706 29.4507 53.0206 29.4882 53.2457 29.4882H53.3583C53.5646 29.4882 53.6584 29.582 53.6584 29.7883Z" fill="white"/>
<path id="Vector_40" d="M53.3587 30.1072C53.1524 30.1072 53.0586 30.0135 53.0586 29.8071C53.0586 29.6758 53.0773 29.6008 53.1336 29.5633C53.1899 29.5258 53.2649 29.4883 53.3587 29.4883H54.4653C54.6717 29.4883 54.7654 29.5821 54.7654 29.7884C54.7654 29.9197 54.7467 29.9947 54.6904 30.0322C54.6341 30.0697 54.5591 30.1072 54.4653 30.1072H53.3587Z" fill="white"/>
<path id="Vector_41" d="M54.4642 30.1072C54.2578 30.1072 54.1641 30.0135 54.1641 29.8071C54.1641 29.6758 54.1828 29.6008 54.2391 29.5633C54.2954 29.5258 54.3704 29.4883 54.4642 29.4883H55.5708C55.7771 29.4883 55.8709 29.5821 55.8709 29.7884C55.8709 29.9197 55.8522 29.9947 55.7959 30.0322C55.7396 30.0697 55.6646 30.1072 55.5708 30.1072H54.4642Z" fill="white"/>
<path id="Vector_42" d="M55.5716 30.1072C55.3653 30.1072 55.2715 30.0135 55.2715 29.8071C55.2715 29.6758 55.2902 29.6008 55.3465 29.5633C55.4028 29.5258 55.4778 29.4883 55.5716 29.4883H56.6782C56.8846 29.4883 56.9783 29.5821 56.9783 29.7884C56.9783 29.9197 56.9596 29.9947 56.9033 30.0322C56.847 30.0697 56.772 30.1072 56.6782 30.1072H55.5716Z" fill="white"/>
<path id="Vector_43" d="M56.6595 30.1072C56.4532 30.1072 56.3594 30.0135 56.3594 29.8071C56.3594 29.6758 56.3781 29.6008 56.4344 29.5633C56.4907 29.5258 56.5657 29.4883 56.6595 29.4883H57.7661C57.9724 29.4883 58.0662 29.5821 58.0662 29.7884C58.0662 29.9197 58.0475 29.9947 57.9912 30.0322C57.9349 30.0697 57.8599 30.1072 57.7661 30.1072H56.6595Z" fill="white"/>
<path id="Vector_44" d="M57.7649 30.1072C57.5586 30.1072 57.4648 30.0135 57.4648 29.8071C57.4648 29.6758 57.4836 29.6008 57.5399 29.5633C57.5961 29.5258 57.6712 29.4883 57.7649 29.4883H58.8716C59.0779 29.4883 59.1717 29.5821 59.1717 29.7884C59.1717 29.9197 59.1529 29.9947 59.0967 30.0322C59.0404 30.0697 58.9654 30.1072 58.8716 30.1072H57.7649Z" fill="white"/>
<path id="Vector_45" d="M58.8724 30.1072C58.666 30.1072 58.5723 30.0135 58.5723 29.8071C58.5723 29.6758 58.591 29.6008 58.6473 29.5633C58.7036 29.5258 58.7786 29.4883 58.8724 29.4883H59.979C60.1853 29.4883 60.2791 29.5821 60.2791 29.7884C60.2791 29.9197 60.2604 29.9947 60.2041 30.0322C60.1478 30.0697 60.0728 30.1072 59.979 30.1072H58.8724Z" fill="white"/>
<path id="Vector_46" d="M59.9798 30.1072C59.7735 30.1072 59.6797 30.0135 59.6797 29.8071C59.6797 29.6758 59.6984 29.6008 59.7547 29.5633C59.811 29.5258 59.886 29.4883 59.9798 29.4883H61.0864C61.2928 29.4883 61.3865 29.5821 61.3865 29.7884C61.3865 29.9197 61.3678 29.9947 61.3115 30.0322C61.2552 30.0697 61.1802 30.1072 61.0864 30.1072H59.9798Z" fill="white"/>
<path id="Vector_47" d="M61.0677 30.1072C60.8614 30.1072 60.7676 30.0135 60.7676 29.8071C60.7676 29.6758 60.7863 29.6008 60.8426 29.5633C60.8989 29.5258 60.9739 29.4883 61.0677 29.4883H62.1743C62.3806 29.4883 62.4744 29.5821 62.4744 29.7884C62.4744 29.9197 62.4557 29.9947 62.3994 30.0322C62.3431 30.0697 62.2681 30.1072 62.1743 30.1072H61.0677Z" fill="white"/>
<path id="Vector_48" d="M62.1731 30.1072C61.9668 30.1072 61.873 30.0135 61.873 29.8071C61.873 29.6758 61.8918 29.6008 61.9481 29.5633C62.0043 29.5258 62.0794 29.4883 62.1731 29.4883H63.2798C63.4861 29.4883 63.5799 29.5821 63.5799 29.7884C63.5799 29.9197 63.5611 29.9947 63.5049 30.0322C63.4486 30.0697 63.3736 30.1072 63.2798 30.1072H62.1731Z" fill="white"/>
<path id="Vector_49" d="M63.2806 30.1072C63.0743 30.1072 62.9805 30.0135 62.9805 29.8071C62.9805 29.6758 62.9992 29.6008 63.0555 29.5633C63.1118 29.5258 63.1868 29.4883 63.2806 29.4883H64.3872C64.5935 29.4883 64.6873 29.5821 64.6873 29.7884C64.6873 29.9197 64.6686 29.9947 64.6123 30.0322C64.556 30.0697 64.481 30.1072 64.3872 30.1072H63.2806Z" fill="white"/>
<path id="Vector_50" d="M64.386 30.1072C64.1797 30.1072 64.0859 30.0135 64.0859 29.8071C64.0859 29.6758 64.1047 29.6008 64.161 29.5633C64.2172 29.5258 64.2923 29.4883 64.386 29.4883H65.4927C65.699 29.4883 65.7928 29.5821 65.7928 29.7884C65.7928 29.9197 65.774 29.9947 65.7178 30.0322C65.6615 30.0697 65.5865 30.1072 65.4927 30.1072H64.386Z" fill="white"/>
<path id="Vector_51" d="M65.4739 30.1072C65.2676 30.1072 65.1738 30.0135 65.1738 29.8071C65.1738 29.6758 65.1926 29.6008 65.2489 29.5633C65.3051 29.5258 65.3802 29.4883 65.4739 29.4883H66.5806C66.7869 29.4883 66.8807 29.5821 66.8807 29.7884C66.8807 29.9197 66.8619 29.9947 66.8057 30.0322C66.7494 30.0697 66.6744 30.1072 66.5806 30.1072H65.4739Z" fill="white"/>
<path id="Vector_52" d="M66.5814 30.1072C66.375 30.1072 66.2812 30.0135 66.2812 29.8071C66.2812 29.6758 66.3 29.6008 66.3563 29.5633C66.4125 29.5258 66.4876 29.4883 66.5814 29.4883H67.688C67.8943 29.4883 67.9881 29.5821 67.9881 29.7884C67.9881 29.9197 67.9693 29.9947 67.9131 30.0322C67.8568 30.0697 67.7818 30.1072 67.688 30.1072H66.5814Z" fill="white"/>
<path id="Vector_53" d="M67.6888 30.1072C67.4825 30.1072 67.3887 30.0135 67.3887 29.8071C67.3887 29.6758 67.4074 29.6008 67.4637 29.5633C67.52 29.5258 67.595 29.4883 67.6888 29.4883H68.7954C69.0017 29.4883 69.0955 29.5821 69.0955 29.7884C69.0955 29.9197 69.0768 29.9947 69.0205 30.0322C68.9642 30.0697 68.8892 30.1072 68.7954 30.1072H67.6888Z" fill="white"/>
<path id="Vector_54" d="M68.7942 30.1073C68.5879 30.1073 68.4941 30.0135 68.4941 29.8072C68.4941 29.6759 68.5129 29.6008 68.5692 29.5633C68.6254 29.5258 68.7005 29.4883 68.7942 29.4883H69.3007C69.4132 29.4883 69.5258 29.4883 69.6008 29.4695C69.6758 29.4508 69.7508 29.432 69.8071 29.3945C69.8634 29.357 69.9009 29.3007 69.9384 29.2257C69.9572 29.1507 69.9759 29.0569 69.9759 28.9256V27.2188H70.5949V28.6443C70.5949 28.7756 70.5949 28.8881 70.6136 28.9819C70.6324 29.0757 70.6699 29.1694 70.7074 29.2445C70.7637 29.3195 70.82 29.3758 70.9137 29.4133C70.9888 29.4508 71.1013 29.4695 71.2326 29.4695C71.4389 29.4695 71.5327 29.5633 71.5327 29.7697C71.5327 29.9009 71.514 29.976 71.4577 30.0135C71.4014 30.051 71.3264 30.0885 71.2326 30.0885C71.045 30.0885 70.8762 30.051 70.7637 29.9572C70.6512 29.8634 70.5574 29.7509 70.5199 29.6196C70.4261 29.8259 70.2948 29.9572 70.1072 30.0135C69.9196 30.0698 69.6758 30.1073 69.3945 30.1073H68.7942ZM69.3757 31.2327C69.3757 31.1201 69.4132 31.0263 69.4882 30.9513C69.5633 30.8763 69.657 30.8388 69.7696 30.8388C69.8821 30.8388 69.9759 30.8763 70.0509 30.9513C70.126 31.0263 70.1635 31.1201 70.1635 31.2327C70.1635 31.3452 70.126 31.439 70.0509 31.514C69.9759 31.589 69.8821 31.6266 69.7696 31.6266C69.657 31.6266 69.5633 31.589 69.4882 31.514C69.4132 31.439 69.3757 31.3452 69.3757 31.2327ZM70.351 31.2327C70.351 31.1201 70.3886 31.0263 70.4636 30.9513C70.5386 30.8763 70.6324 30.8388 70.7449 30.8388C70.8575 30.8388 70.9513 30.8763 71.0263 30.9513C71.1013 31.0263 71.1388 31.1201 71.1388 31.2327C71.1388 31.3452 71.1013 31.439 71.0263 31.514C70.9513 31.589 70.8575 31.6266 70.7449 31.6266C70.6324 31.6266 70.5386 31.589 70.4636 31.514C70.3886 31.439 70.351 31.3452 70.351 31.2327Z" fill="white"/>
<path id="Vector_55" d="M71.2337 30.1072C71.0274 30.1072 70.9336 30.0135 70.9336 29.8071C70.9336 29.6758 70.9523 29.6008 71.0086 29.5633C71.0649 29.5258 71.1399 29.4883 71.2337 29.4883H72.3403C72.5467 29.4883 72.6404 29.5821 72.6404 29.7884C72.6404 29.9197 72.6217 29.9947 72.5654 30.0322C72.5091 30.0697 72.4341 30.1072 72.3403 30.1072H71.2337Z" fill="white"/>
<path id="Vector_56" d="M72.3392 30.1073C72.1328 30.1073 72.0391 30.0135 72.0391 29.8072C72.0391 29.6759 72.0578 29.6008 72.1141 29.5633C72.1704 29.5258 72.2454 29.4883 72.3392 29.4883H72.8456C72.9581 29.4883 73.0707 29.4883 73.1457 29.4695C73.2207 29.4508 73.2958 29.432 73.352 29.3945C73.4083 29.357 73.4458 29.3007 73.4833 29.2257C73.5021 29.1507 73.5208 29.0569 73.5208 28.9256V27.2187H74.1398V28.6442C74.1398 28.7755 74.1398 28.8881 74.1586 28.9819C74.1773 29.0756 74.2148 29.1694 74.2523 29.2445C74.3086 29.3195 74.3649 29.3758 74.4587 29.4133C74.5337 29.4508 74.6462 29.4695 74.7775 29.4695C74.9839 29.4695 75.0776 29.5633 75.0776 29.7696C75.0776 29.9009 75.0589 29.976 75.0026 30.0135C74.9463 30.051 74.8713 30.0885 74.7775 30.0885C74.59 30.0885 74.4212 30.051 74.3086 29.9572C74.1961 29.8634 74.1023 29.7509 74.0648 29.6196C73.971 29.8259 73.8397 29.9572 73.6521 30.0135C73.4646 30.0697 73.2207 30.1073 72.9394 30.1073H72.3392ZM73.4458 25.9808C73.4458 25.8683 73.4833 25.7745 73.5583 25.6995C73.6334 25.6244 73.7272 25.5869 73.8397 25.5869C73.9522 25.5869 74.046 25.6244 74.121 25.6995C74.1961 25.7745 74.2336 25.8683 74.2336 25.9808C74.2336 26.0933 74.1961 26.1871 74.121 26.2622C74.046 26.3372 73.9522 26.3747 73.8397 26.3747C73.7272 26.3747 73.6334 26.3372 73.5583 26.2622C73.4833 26.1871 73.4458 26.0933 73.4458 25.9808Z" fill="white"/>
<path id="Vector_57" d="M74.7786 30.1072C74.5723 30.1072 74.4785 30.0135 74.4785 29.8071C74.4785 29.6758 74.4973 29.6008 74.5535 29.5633C74.6098 29.5258 74.6848 29.4883 74.7786 29.4883H75.8853C76.0916 29.4883 76.1854 29.5821 76.1854 29.7884C76.1854 29.9197 76.1666 29.9947 76.1103 30.0322C76.0541 30.0697 75.979 30.1072 75.8853 30.1072H74.7786Z" fill="white"/>
<path id="Vector_58" d="M75.8841 30.1073C75.6778 30.1073 75.584 30.0135 75.584 29.8072C75.584 29.6759 75.6027 29.6008 75.659 29.5633C75.7153 29.5258 75.7903 29.4883 75.8841 29.4883H76.7281C76.6719 29.3758 76.6344 29.2632 76.5781 29.1507C76.5406 29.0194 76.5218 28.8881 76.5218 28.7193C76.5218 28.5317 76.5593 28.3254 76.6156 28.1378C76.6719 27.9502 76.7657 27.7814 76.8969 27.6314C77.0282 27.4813 77.1783 27.3688 77.3471 27.275C77.5347 27.1812 77.741 27.1437 77.9848 27.1437C78.2662 27.1437 78.4913 27.2 78.6601 27.2938C78.8289 27.3875 78.9789 27.5188 79.0727 27.6689C79.1665 27.819 79.2415 27.9878 79.279 28.1753C79.3166 28.3629 79.3353 28.5505 79.3353 28.7193V29.4883H79.898C80.0856 29.4883 80.1981 29.5821 80.1981 29.7884C80.1981 29.9197 80.1794 29.9947 80.1231 30.0322C80.0668 30.0697 79.9918 30.1073 79.898 30.1073H75.8841ZM77.0095 25.9808C77.0095 25.8683 77.047 25.7745 77.122 25.6995C77.1971 25.6244 77.2908 25.5869 77.4034 25.5869C77.5159 25.5869 77.6097 25.6244 77.6847 25.6995C77.7598 25.7745 77.7973 25.8683 77.7973 25.9808C77.7973 26.0933 77.7598 26.1871 77.6847 26.2622C77.6097 26.3372 77.5159 26.3747 77.4034 26.3747C77.2908 26.3747 77.1971 26.3372 77.122 26.2622C77.047 26.1871 77.0095 26.0933 77.0095 25.9808ZM77.1033 28.6067C77.1033 28.9068 77.1971 29.1319 77.3659 29.282C77.5534 29.432 77.7598 29.4883 78.0223 29.4883H78.7351V28.738C78.7351 28.6255 78.7163 28.4942 78.6976 28.3816C78.6788 28.2691 78.6413 28.1566 78.5663 28.0628C78.51 27.969 78.4162 27.894 78.3225 27.819C78.2099 27.7627 78.0786 27.7252 77.9286 27.7252C77.666 27.7252 77.4596 27.819 77.3096 27.9878C77.1783 28.1566 77.1033 28.3629 77.1033 28.6067ZM77.9848 25.9808C77.9848 25.8683 78.0223 25.7745 78.0974 25.6995C78.1724 25.6244 78.2662 25.5869 78.3787 25.5869C78.4913 25.5869 78.585 25.6244 78.6601 25.6995C78.7351 25.7745 78.7726 25.8683 78.7726 25.9808C78.7726 26.0933 78.7351 26.1871 78.6601 26.2622C78.585 26.3372 78.4913 26.3747 78.3787 26.3747C78.2662 26.3747 78.1724 26.3372 78.0974 26.2622C78.0223 26.1871 77.9848 26.0933 77.9848 25.9808Z" fill="white"/>
<path id="Vector_59" d="M79.9173 30.1073C79.711 30.1073 79.6172 30.0135 79.6172 29.8072C79.6172 29.6759 79.6359 29.6008 79.6922 29.5633C79.7485 29.5258 79.8235 29.4883 79.9173 29.4883H80.4237C80.5363 29.4883 80.6488 29.4883 80.7238 29.4695C80.7989 29.4508 80.8739 29.432 80.9302 29.3945C80.9864 29.357 81.0239 29.3007 81.0614 29.2257C81.0802 29.1507 81.099 29.0569 81.099 28.9256V27.2187H81.7179V28.6442C81.7179 28.7755 81.7179 28.8881 81.7367 28.9819C81.7554 29.0756 81.793 29.1694 81.8305 29.2445C81.8867 29.3195 81.943 29.3758 82.0368 29.4133C82.1118 29.4508 82.2244 29.4695 82.3557 29.4695C82.562 29.4695 82.6558 29.5633 82.6558 29.7696C82.6558 29.9009 82.637 29.976 82.5807 30.0135C82.5245 30.051 82.4494 30.0885 82.3557 30.0885C82.1681 30.0885 81.9993 30.051 81.8867 29.9572C81.7742 29.8634 81.6804 29.7509 81.6429 29.6196C81.5491 29.8259 81.4178 29.9572 81.2303 30.0135C81.0427 30.0697 80.7989 30.1073 80.5175 30.1073H79.9173ZM80.4988 25.9808C80.4988 25.8683 80.5363 25.7745 80.6113 25.6995C80.6863 25.6244 80.7801 25.5869 80.8926 25.5869C81.0052 25.5869 81.099 25.6244 81.174 25.6995C81.249 25.7745 81.2865 25.8683 81.2865 25.9808C81.2865 26.0933 81.249 26.1871 81.174 26.2622C81.099 26.3372 81.0052 26.3747 80.8926 26.3747C80.7801 26.3747 80.6863 26.3372 80.6113 26.2622C80.5363 26.1871 80.4988 26.0933 80.4988 25.9808ZM81.4741 25.9808C81.4741 25.8683 81.5116 25.7745 81.5866 25.6995C81.6617 25.6244 81.7554 25.5869 81.868 25.5869C81.9805 25.5869 82.0743 25.6244 82.1493 25.6995C82.2244 25.7745 82.2619 25.8683 82.2619 25.9808C82.2619 26.0933 82.2244 26.1871 82.1493 26.2622C82.0743 26.3372 81.9805 26.3747 81.868 26.3747C81.7554 26.3747 81.6617 26.3372 81.5866 26.2622C81.5116 26.1871 81.4741 26.0933 81.4741 25.9808Z" fill="white"/>
<path id="Vector_60" d="M82.3548 30.1072C82.1485 30.1072 82.0547 30.0134 82.0547 29.807C82.0547 29.6758 82.0734 29.6007 82.1297 29.5632C82.186 29.5257 82.261 29.4882 82.3548 29.4882H83.5177V24.7803H84.1367V30.0884H82.3548V30.1072Z" fill="white"/>
<path id="Vector_61" d="M89.0332 30.1074C88.8644 30.1074 88.7331 30.0699 88.6206 29.9949C88.508 29.9199 88.433 29.8261 88.3767 29.7323C88.3767 30.0887 88.358 30.3888 88.3017 30.6326C88.2642 30.8764 88.1704 31.0828 88.0579 31.2328C87.9453 31.3829 87.7765 31.4954 87.5702 31.5517C87.3639 31.6267 87.0825 31.6455 86.7637 31.6455V31.0265C87.0075 31.0265 87.1951 31.0077 87.3264 30.9515C87.4577 30.8952 87.5702 30.8202 87.6265 30.7076C87.7015 30.5951 87.739 30.445 87.739 30.2575C87.7578 30.0699 87.7578 29.8636 87.7578 29.601V27.6128H88.358V28.6632C88.358 28.907 88.3955 29.1133 88.4893 29.2634C88.5831 29.4134 88.7519 29.4885 88.9957 29.4885C89.202 29.4885 89.2958 29.5822 89.2958 29.7886C89.2958 29.9199 89.2771 29.9949 89.2208 30.0324C89.2208 30.0887 89.1458 30.1074 89.0332 30.1074Z" fill="white"/>
<path id="Vector_62" d="M89.0325 30.1072C88.8262 30.1072 88.7324 30.0135 88.7324 29.8071C88.7324 29.6758 88.7512 29.6008 88.8074 29.5633C88.8637 29.5258 88.9387 29.4883 89.0325 29.4883H90.1392C90.3455 29.4883 90.4393 29.5821 90.4393 29.7884C90.4393 29.9197 90.4205 29.9947 90.3643 30.0322C90.308 30.0697 90.233 30.1072 90.1392 30.1072H89.0325Z" fill="white"/>
<path id="Vector_63" d="M90.14 30.1072C89.9336 30.1072 89.8398 30.0135 89.8398 29.8071C89.8398 29.6758 89.8586 29.6008 89.9149 29.5633C89.9711 29.5258 90.0462 29.4883 90.14 29.4883H91.2466C91.4529 29.4883 91.5467 29.5821 91.5467 29.7884C91.5467 29.9197 91.5279 29.9947 91.4717 30.0322C91.4154 30.0697 91.3404 30.1072 91.2466 30.1072H90.14Z" fill="white"/>
<path id="Vector_64" d="M91.2454 30.1072C91.0391 30.1072 90.9453 30.0135 90.9453 29.8071C90.9453 29.6758 90.9641 29.6008 91.0203 29.5633C91.0766 29.5258 91.1516 29.4883 91.2454 29.4883H92.3521C92.5584 29.4883 92.6522 29.5821 92.6522 29.7884C92.6522 29.9197 92.6334 29.9947 92.5771 30.0322C92.5209 30.0697 92.4458 30.1072 92.3521 30.1072H91.2454Z" fill="white"/>
<path id="Vector_65" d="M92.3333 30.1072C92.127 30.1072 92.0332 30.0135 92.0332 29.8071C92.0332 29.6758 92.052 29.6008 92.1082 29.5633C92.1645 29.5258 92.2395 29.4883 92.3333 29.4883H93.44C93.6463 29.4883 93.7401 29.5821 93.7401 29.7884C93.7401 29.9197 93.7213 29.9947 93.665 30.0322C93.6088 30.0697 93.5337 30.1072 93.44 30.1072H92.3333Z" fill="white"/>
<path id="Vector_66" d="M93.4407 30.1072C93.2344 30.1072 93.1406 30.0135 93.1406 29.8071C93.1406 29.6758 93.1594 29.6008 93.2157 29.5633C93.2719 29.5258 93.3469 29.4883 93.4407 29.4883H94.5474C94.7537 29.4883 94.8475 29.5821 94.8475 29.7884C94.8475 29.9197 94.8287 29.9947 94.7724 30.0322C94.7162 30.0697 94.6411 30.1072 94.5474 30.1072H93.4407Z" fill="white"/>
<path id="Vector_67" d="M94.5482 30.1072C94.3418 30.1072 94.248 30.0135 94.248 29.8071C94.248 29.6758 94.2668 29.6008 94.3231 29.5633C94.3793 29.5258 94.4544 29.4883 94.5482 29.4883H95.6548C95.8611 29.4883 95.9549 29.5821 95.9549 29.7884C95.9549 29.9197 95.9361 29.9947 95.8799 30.0322C95.8236 30.0697 95.7486 30.1072 95.6548 30.1072H94.5482Z" fill="white"/>
<path id="Vector_68" d="M95.6536 30.1072C95.4473 30.1072 95.3535 30.0135 95.3535 29.8071C95.3535 29.6758 95.3723 29.6008 95.4285 29.5633C95.4848 29.5258 95.5598 29.4883 95.6536 29.4883H96.7603C96.9666 29.4883 97.0604 29.5821 97.0604 29.7884C97.0604 29.9197 97.0416 29.9947 96.9853 30.0322C96.9291 30.0697 96.854 30.1072 96.7603 30.1072H95.6536Z" fill="white"/>
<path id="Vector_69" d="M96.7415 30.1072C96.5352 30.1072 96.4414 30.0135 96.4414 29.8071C96.4414 29.6758 96.4602 29.6008 96.5164 29.5633C96.5727 29.5258 96.6477 29.4883 96.7415 29.4883H97.8482C98.0545 29.4883 98.1483 29.5821 98.1483 29.7884C98.1483 29.9197 98.1295 29.9947 98.0732 30.0322C98.017 30.0697 97.9419 30.1072 97.8482 30.1072H96.7415Z" fill="white"/>
<path id="Vector_70" d="M97.8489 30.1072C97.6426 30.1072 97.5488 30.0135 97.5488 29.8071C97.5488 29.6758 97.5676 29.6008 97.6238 29.5633C97.6801 29.5258 97.7551 29.4883 97.8489 29.4883H98.9556C99.1619 29.4883 99.2557 29.5821 99.2557 29.7884C99.2557 29.9197 99.2369 29.9947 99.1806 30.0322C99.1244 30.0697 99.0494 30.1072 98.9556 30.1072H97.8489Z" fill="white"/>
<path id="Vector_71" d="M98.9544 30.1072C98.7481 30.1072 98.6543 30.0135 98.6543 29.8071C98.6543 29.6758 98.6731 29.6008 98.7293 29.5633C98.7856 29.5258 98.8606 29.4883 98.9544 29.4883H100.061C100.267 29.4883 100.361 29.5821 100.361 29.7884C100.361 29.9197 100.342 29.9947 100.286 30.0322C100.23 30.0697 100.155 30.1072 100.061 30.1072H98.9544Z" fill="white"/>
<path id="Vector_72" d="M100.062 30.1072C99.8555 30.1072 99.7617 30.0135 99.7617 29.8071C99.7617 29.6758 99.7805 29.6008 99.8367 29.5633C99.893 29.5258 99.968 29.4883 100.062 29.4883H101.168C101.375 29.4883 101.469 29.5821 101.469 29.7884C101.469 29.9197 101.45 29.9947 101.394 30.0322C101.337 30.0697 101.262 30.1072 101.168 30.1072H100.062Z" fill="white"/>
<path id="Vector_73" d="M101.15 30.1072C100.943 30.1072 100.85 30.0135 100.85 29.8071C100.85 29.6758 100.868 29.6008 100.925 29.5633C100.981 29.5258 101.056 29.4883 101.15 29.4883H102.256C102.463 29.4883 102.556 29.5821 102.556 29.7884C102.556 29.9197 102.538 29.9947 102.481 30.0322C102.425 30.0697 102.35 30.1072 102.256 30.1072H101.15Z" fill="white"/>
<path id="Vector_74" d="M102.257 30.1076C102.051 30.1076 101.957 30.0138 101.957 29.8074C101.957 29.6762 101.976 29.6011 102.032 29.5636C102.088 29.5261 102.163 29.4886 102.257 29.4886H103.42V27.2378H104.039V30.1076H102.257ZM102.557 31.2329C102.557 31.1204 102.595 31.0266 102.67 30.9516C102.745 30.8766 102.839 30.8391 102.951 30.8391C103.064 30.8391 103.157 30.8766 103.232 30.9516C103.308 31.0266 103.345 31.1204 103.345 31.2329C103.345 31.3455 103.308 31.4393 103.232 31.5143C103.157 31.5893 103.064 31.6268 102.951 31.6268C102.839 31.6268 102.745 31.5893 102.67 31.5143C102.595 31.4393 102.557 31.3455 102.557 31.2329ZM103.533 31.2329C103.533 31.1204 103.57 31.0266 103.645 30.9516C103.72 30.8766 103.814 30.8391 103.926 30.8391C104.039 30.8391 104.133 30.8766 104.208 30.9516C104.283 31.0266 104.32 31.1204 104.32 31.2329C104.32 31.3455 104.283 31.4393 104.208 31.5143C104.133 31.5893 104.039 31.6268 103.926 31.6268C103.814 31.6268 103.72 31.5893 103.645 31.5143C103.57 31.4393 103.533 31.3455 103.533 31.2329Z" fill="white"/>
<path id="Vector_75" d="M107.696 30.1072C107.677 30.4073 107.621 30.6699 107.508 30.8574C107.396 31.0638 107.265 31.2138 107.077 31.3264C106.889 31.4389 106.664 31.5327 106.42 31.5702C106.158 31.6265 105.877 31.6452 105.576 31.6452H105.258V31.0263H105.483C105.708 31.0263 105.933 31.0075 106.12 30.9887C106.308 30.97 106.477 30.9137 106.627 30.8574C106.777 30.7824 106.871 30.6886 106.964 30.5761C107.039 30.4448 107.096 30.2948 107.096 30.0884H106.252C106.045 30.0884 105.858 30.0697 105.689 30.0134C105.52 29.9571 105.37 29.9009 105.239 29.7883C105.108 29.6945 105.014 29.5445 104.939 29.3944C104.864 29.2256 104.826 29.0193 104.826 28.7755C104.826 28.5691 104.864 28.3816 104.92 28.1753C104.995 27.9877 105.089 27.8189 105.201 27.6688C105.333 27.5188 105.483 27.4062 105.67 27.3124C105.858 27.2187 106.064 27.1812 106.289 27.1812C106.552 27.1812 106.758 27.2187 106.946 27.3124C107.133 27.4062 107.265 27.5375 107.377 27.7063C107.49 27.8751 107.565 28.0815 107.621 28.3253C107.677 28.5691 107.696 28.8317 107.696 29.1131V29.4695H108.221C108.427 29.4695 108.521 29.5632 108.521 29.7696C108.521 29.9009 108.502 29.9759 108.446 30.0134C108.39 30.0509 108.315 30.0884 108.221 30.0884H107.696V30.1072ZM105.426 28.7567C105.426 29.0005 105.501 29.1881 105.651 29.3194C105.802 29.4319 106.008 29.507 106.289 29.507H107.077V29.0005C107.077 28.6254 107.021 28.3441 106.889 28.119C106.758 27.8939 106.552 27.8001 106.252 27.8001C106.102 27.8001 105.989 27.8376 105.877 27.8939C105.764 27.9502 105.689 28.0252 105.614 28.119C105.539 28.2128 105.501 28.3065 105.464 28.4191C105.445 28.5316 105.426 28.6442 105.426 28.7567Z" fill="white"/>
<path id="Vector_76" d="M108.24 30.1072C108.033 30.1072 107.939 30.0135 107.939 29.8071C107.939 29.6758 107.958 29.6008 108.014 29.5633C108.071 29.5258 108.146 29.4883 108.24 29.4883H109.346C109.553 29.4883 109.646 29.5821 109.646 29.7884C109.646 29.9197 109.628 29.9947 109.571 30.0322C109.515 30.0697 109.44 30.1072 109.346 30.1072H108.24Z" fill="white"/>
<path id="Vector_77" d="M109.347 30.1072C109.141 30.1072 109.047 30.0135 109.047 29.8071C109.047 29.6758 109.066 29.6008 109.122 29.5633C109.178 29.5258 109.253 29.4883 109.347 29.4883H110.454C110.66 29.4883 110.754 29.5821 110.754 29.7884C110.754 29.9197 110.735 29.9947 110.679 30.0322C110.622 30.0697 110.547 30.1072 110.454 30.1072H109.347Z" fill="white"/>
<path id="Vector_78" d="M110.452 30.1072C110.246 30.1072 110.152 30.0135 110.152 29.8071C110.152 29.6758 110.171 29.6008 110.227 29.5633C110.284 29.5258 110.359 29.4883 110.452 29.4883H111.559C111.765 29.4883 111.859 29.5821 111.859 29.7884C111.859 29.9197 111.84 29.9947 111.784 30.0322C111.728 30.0697 111.653 30.1072 111.559 30.1072H110.452Z" fill="white"/>
<path id="Vector_79" d="M111.54 30.1072C111.334 30.1072 111.24 30.0135 111.24 29.8071C111.24 29.6758 111.259 29.6008 111.315 29.5633C111.372 29.5258 111.447 29.4883 111.54 29.4883H112.647C112.853 29.4883 112.947 29.5821 112.947 29.7884C112.947 29.9197 112.928 29.9947 112.872 30.0322C112.816 30.0697 112.741 30.1072 112.647 30.1072H111.54Z" fill="white"/>
<path id="Vector_80" d="M112.648 30.1072C112.441 30.1072 112.348 30.0135 112.348 29.8071C112.348 29.6758 112.366 29.6008 112.423 29.5633C112.479 29.5258 112.554 29.4883 112.648 29.4883H113.754C113.961 29.4883 114.055 29.5821 114.055 29.7884C114.055 29.9197 114.036 29.9947 113.979 30.0322C113.923 30.0697 113.848 30.1072 113.754 30.1072H112.648Z" fill="white"/>
<path id="Vector_81" d="M113.753 30.1072C113.547 30.1072 113.453 30.0134 113.453 29.807C113.453 29.6758 113.472 29.6007 113.528 29.5632C113.584 29.5257 113.659 29.4882 113.753 29.4882H114.597V24.7803H115.216V28.4378C115.46 28.0252 115.76 27.7063 116.098 27.4812C116.435 27.2561 116.829 27.1436 117.279 27.1436C117.767 27.1436 118.142 27.2937 118.405 27.5938C118.667 27.8939 118.818 28.3065 118.818 28.8505V29.4882H119.38C119.587 29.4882 119.68 29.582 119.68 29.7883C119.68 29.9196 119.662 29.9946 119.605 30.0321C119.549 30.0696 119.474 30.1072 119.38 30.1072H113.753ZM118.199 29.4882V28.9818C118.199 28.8129 118.18 28.6441 118.142 28.4941C118.105 28.344 118.048 28.2127 117.955 28.1002C117.861 27.9877 117.767 27.9126 117.617 27.8376C117.486 27.7813 117.317 27.7438 117.111 27.7438C116.867 27.7438 116.661 27.8001 116.454 27.9126C116.248 28.0252 116.06 28.1565 115.91 28.3253C115.741 28.4941 115.61 28.6816 115.479 28.888C115.366 29.0943 115.254 29.2819 115.179 29.4882H118.199Z" fill="white"/>
<path id="Vector_82" d="M119.382 30.1073C119.176 30.1073 119.082 30.0135 119.082 29.8072C119.082 29.6759 119.101 29.6008 119.157 29.5633C119.213 29.5258 119.288 29.4883 119.382 29.4883H120.545V27.2375H121.164V30.1073H119.382ZM119.889 25.9808C119.889 25.8683 119.926 25.7745 120.001 25.6995C120.076 25.6244 120.17 25.5869 120.282 25.5869C120.395 25.5869 120.489 25.6244 120.564 25.6995C120.639 25.7745 120.676 25.8683 120.676 25.9808C120.676 26.0933 120.639 26.1871 120.564 26.2622C120.489 26.3372 120.395 26.3747 120.282 26.3747C120.17 26.3747 120.076 26.3372 120.001 26.2622C119.926 26.1871 119.889 26.0933 119.889 25.9808ZM120.845 25.9808C120.845 25.8683 120.883 25.7745 120.958 25.6995C121.033 25.6244 121.127 25.5869 121.239 25.5869C121.352 25.5869 121.445 25.6244 121.52 25.6995C121.595 25.7745 121.633 25.8683 121.633 25.9808C121.633 26.0933 121.595 26.1871 121.52 26.2622C121.445 26.3372 121.352 26.3747 121.239 26.3747C121.127 26.3747 121.033 26.3372 120.958 26.2622C120.883 26.1871 120.845 26.0933 120.845 25.9808Z" fill="white"/>
</g>
<g id="Group_5">
<path id="Vector_83" d="M5.19057 35.3594C5.2656 35.3594 5.32187 35.3969 5.32187 35.4719V35.9971C5.32187 36.0721 5.28435 36.1284 5.19057 36.1284H3.52123V38.9794C3.52123 39.0544 3.48372 39.0919 3.40869 39.0919H2.82724C2.75221 39.0919 2.7147 39.0544 2.7147 38.9794V36.1284H1.04536C0.970332 36.1284 0.914062 36.0909 0.914062 35.9971V35.4719C0.914062 35.3969 0.951576 35.3594 1.04536 35.3594H5.19057Z" fill="white"/>
<path id="Vector_84" d="M8.13485 36.166C8.37869 36.166 8.56625 36.1848 8.73506 36.2223C8.90387 36.2598 9.03517 36.3348 9.12895 36.4099C9.22274 36.5036 9.29776 36.6162 9.33527 36.7475C9.37279 36.8788 9.39155 37.0476 9.39155 37.2351V38.6419C9.39155 38.7357 9.39154 38.7919 9.37279 38.8482C9.35403 38.9045 9.33528 38.942 9.31652 38.9795C9.27901 39.017 9.24149 39.0358 9.20398 39.0545C9.14771 39.0733 9.09144 39.0733 9.01641 39.0733H6.48427C6.33422 39.0733 6.20292 39.0545 6.09038 39.0358C5.97784 38.9983 5.90281 38.9608 5.84654 38.9045C5.79027 38.8482 5.734 38.7732 5.71525 38.6794C5.69649 38.5856 5.67773 38.4731 5.67773 38.3418V38.0792C5.67773 37.9667 5.69649 37.8729 5.71525 37.7791C5.734 37.6853 5.79027 37.6103 5.84654 37.554C5.90281 37.4977 5.9966 37.4415 6.09038 37.4227C6.20292 37.3852 6.33422 37.3852 6.48427 37.3852H8.64128V37.2914C8.64128 37.1976 8.64128 37.1414 8.62252 37.0663C8.60377 37.0101 8.56625 36.9538 8.52874 36.9163C8.49123 36.8788 8.43496 36.86 8.35993 36.8413C8.2849 36.8225 8.19112 36.8225 8.07858 36.8225H5.84654C5.79027 36.8225 5.75276 36.785 5.75276 36.7287V36.2786C5.75276 36.2223 5.79027 36.1848 5.84654 36.1848H8.13485V36.166ZM8.49123 38.4918C8.5475 38.4918 8.58501 38.4731 8.60377 38.4543C8.62252 38.4356 8.64128 38.3793 8.64128 38.3043V37.8354H6.69059C6.57805 37.8354 6.50303 37.8541 6.46551 37.9104C6.428 37.9479 6.39049 38.0229 6.39049 38.0979V38.2105C6.39049 38.3043 6.40924 38.3793 6.46551 38.4168C6.50303 38.4543 6.57805 38.4918 6.69059 38.4918H8.49123Z" fill="white"/>
<path id="Vector_85" d="M10.3307 36.1659V35.4719C10.3307 35.3969 10.3682 35.3594 10.4432 35.3594H10.9684C11.0434 35.3594 11.0809 35.3969 11.0809 35.4719V36.1659H12.0188C12.075 36.1659 12.1126 36.2034 12.1126 36.2597V36.6911C12.1126 36.7474 12.075 36.7849 12.0188 36.7849H11.0809V38.0228C11.0809 38.1729 11.1185 38.2854 11.1747 38.3417C11.231 38.4167 11.3623 38.4542 11.5311 38.4542H12.0563C12.1126 38.4542 12.1501 38.4917 12.1501 38.548V38.9794C12.1501 39.0357 12.1126 39.0732 12.0563 39.0732H11.4186C11.2122 39.0732 11.0247 39.0544 10.8934 39.0169C10.7621 38.9794 10.6495 38.9231 10.5558 38.8293C10.4807 38.7356 10.4057 38.6418 10.387 38.4917C10.3494 38.3604 10.3307 38.1916 10.3307 38.0041V36.7661H9.82425C9.76798 36.7661 9.73047 36.7286 9.73047 36.6723V36.2409C9.73047 36.1847 9.76798 36.1472 9.82425 36.1472H10.3307V36.1659Z" fill="white"/>
<path id="Vector_86" d="M13.0315 36.166C13.0878 36.166 13.144 36.2035 13.1628 36.2598L13.8568 38.4543C13.8756 38.4731 13.8943 38.4918 13.9131 38.4918H13.9318C13.9693 38.4918 13.9881 38.4731 13.9881 38.4543L14.7008 36.4286C14.7384 36.3348 14.7759 36.2598 14.8321 36.2223C14.8884 36.1848 14.9447 36.166 15.0385 36.166H15.6762C15.77 36.166 15.845 36.1848 15.8825 36.2223C15.9388 36.2598 15.9763 36.3348 16.0138 36.4286L16.7266 38.4543C16.7266 38.4731 16.7453 38.4918 16.7828 38.4918H16.8016C16.8203 38.4918 16.8391 38.4731 16.8579 38.4543L17.5519 36.2598C17.5706 36.2035 17.6081 36.166 17.6831 36.166H18.2834C18.3209 36.166 18.3584 36.1848 18.3771 36.2035C18.3959 36.2223 18.3959 36.2598 18.3771 36.2973L17.5519 38.7544C17.5143 38.8857 17.4581 38.9795 17.4018 39.017C17.3455 39.0545 17.2517 39.0733 17.1392 39.0733H16.464C16.3702 39.0733 16.2952 39.0545 16.2576 38.9983C16.2014 38.942 16.1639 38.867 16.1076 38.7357L15.4136 36.785C15.4136 36.7662 15.3948 36.7475 15.3573 36.7475H15.3198C15.2823 36.7475 15.2823 36.7662 15.2635 36.785L14.5695 38.7544C14.532 38.8857 14.4758 38.9608 14.4195 39.017C14.3632 39.0733 14.307 39.0921 14.2132 39.0921H13.5379C13.4254 39.0921 13.3316 39.0733 13.2753 39.0358C13.2191 38.9983 13.1628 38.9045 13.1253 38.7732L12.3188 36.3161C12.3 36.2786 12.3 36.241 12.3188 36.2223C12.3375 36.2035 12.3563 36.1848 12.4125 36.1848H13.0315V36.166Z" fill="white"/>
<path id="Vector_87" d="M21.3955 36.166C21.5831 36.166 21.7331 36.1848 21.8457 36.2035C21.9582 36.241 22.052 36.2786 22.127 36.3536C22.2021 36.4286 22.2396 36.5224 22.2771 36.6162C22.3146 36.7287 22.3146 36.86 22.3146 37.0288V37.5353C22.3146 37.6478 22.2958 37.7228 22.2396 37.7791C22.1833 37.8166 22.1083 37.8541 22.0145 37.8541H19.3323V37.9854C19.3323 38.1542 19.3698 38.2668 19.4448 38.3418C19.5199 38.4168 19.6887 38.4543 19.9138 38.4543H22.127C22.1833 38.4543 22.2208 38.4918 22.2208 38.5481V38.9983C22.2208 39.0545 22.1833 39.0921 22.127 39.0921H19.8387C19.5949 39.0921 19.3886 39.0733 19.2385 39.0358C19.0697 38.9983 18.9384 38.942 18.8446 38.8482C18.7508 38.7544 18.6758 38.6419 18.6383 38.5106C18.6008 38.3793 18.582 38.2105 18.582 38.0229V37.2539C18.582 37.0663 18.6008 36.8975 18.6383 36.7662C18.6758 36.6349 18.7508 36.5224 18.8446 36.4286C18.9384 36.3348 19.0697 36.2786 19.2385 36.241C19.4073 36.2035 19.5949 36.1848 19.8387 36.1848H21.3955V36.166ZM19.3323 37.3664H21.4893C21.5456 37.3664 21.5831 37.3289 21.5831 37.2727V37.0663C21.5831 36.9538 21.5643 36.8788 21.5081 36.8413C21.4705 36.8037 21.3768 36.7662 21.2455 36.7662H19.9138C19.6887 36.7662 19.5199 36.8037 19.4448 36.8788C19.3698 36.9538 19.3323 37.0663 19.3323 37.2351V37.3664Z" fill="white"/>
<path id="Vector_88" d="M25.5986 36.166C25.7862 36.166 25.9363 36.1848 26.0488 36.2035C26.1613 36.241 26.2551 36.2786 26.3302 36.3536C26.4052 36.4286 26.4427 36.5224 26.4802 36.6162C26.5177 36.7287 26.5177 36.86 26.5177 37.0288V37.5353C26.5177 37.6478 26.499 37.7228 26.4427 37.7791C26.3864 37.8166 26.3114 37.8541 26.2176 37.8541H23.5354V37.9854C23.5354 38.1542 23.5729 38.2668 23.648 38.3418C23.723 38.4168 23.8918 38.4543 24.1169 38.4543H26.3302C26.3864 38.4543 26.4239 38.4918 26.4239 38.5481V38.9983C26.4239 39.0545 26.3864 39.0921 26.3302 39.0921H24.0418C23.798 39.0921 23.5917 39.0733 23.4416 39.0358C23.2728 38.9983 23.1415 38.942 23.0477 38.8482C22.954 38.7544 22.8789 38.6419 22.8414 38.5106C22.8039 38.3793 22.7852 38.2105 22.7852 38.0229V37.2539C22.7852 37.0663 22.8039 36.8975 22.8414 36.7662C22.8789 36.6349 22.954 36.5224 23.0477 36.4286C23.1415 36.3348 23.2728 36.2786 23.4416 36.241C23.6104 36.2035 23.798 36.1848 24.0418 36.1848H25.5986V36.166ZM23.5354 37.3664H25.6924C25.7487 37.3664 25.7862 37.3289 25.7862 37.2727V37.0663C25.7862 36.9538 25.7675 36.8788 25.7112 36.8413C25.6737 36.8037 25.5799 36.7662 25.4486 36.7662H24.1169C23.8918 36.7662 23.723 36.8037 23.648 36.8788C23.5729 36.9538 23.5354 37.0663 23.5354 37.2351V37.3664Z" fill="white"/>
<path id="Vector_89" d="M29.8373 36.166C29.8936 36.166 29.9311 36.2035 29.9311 36.2598V36.71C29.9311 36.7662 29.8936 36.8037 29.8373 36.8037H28.4306C28.318 36.8037 28.2242 36.8225 28.1492 36.8413C28.0742 36.86 28.0179 36.8975 27.9616 36.935C27.9241 36.9726 27.8866 37.0476 27.8679 37.1226C27.8491 37.1976 27.8491 37.2914 27.8491 37.404V38.9795C27.8491 39.0545 27.8116 39.0921 27.7366 39.0921H27.2114C27.1363 39.0921 27.0801 39.0545 27.0801 38.9795V37.2539C27.0801 37.0663 27.0988 36.8975 27.1363 36.7662C27.1739 36.6349 27.2489 36.5224 27.3427 36.4286C27.4365 36.3348 27.5678 36.2786 27.7366 36.241C27.9054 36.2035 28.0929 36.1848 28.3368 36.1848H29.8373V36.166Z" fill="white"/>
<path id="Vector_90" d="M35.933 35.3596C36.008 35.3596 36.0643 35.3971 36.0643 35.4721V35.9785C36.0643 36.0536 36.0268 36.0911 35.933 36.0911H33.6072C33.4759 36.0911 33.3633 36.1098 33.2696 36.1286C33.1758 36.1474 33.1007 36.1849 33.0445 36.2411C32.9882 36.2974 32.9507 36.3724 32.9319 36.4662C32.9132 36.56 32.8944 36.6725 32.8944 36.8226V36.8789H35.8955C35.9705 36.8789 36.008 36.9164 36.008 36.9914V37.404C36.008 37.4791 35.9705 37.5166 35.8955 37.5166H32.8944V37.6104C32.8944 37.7417 32.9132 37.873 32.9319 37.9667C32.9507 38.0605 32.9882 38.1356 33.0445 38.1918C33.1007 38.2481 33.1758 38.2856 33.2696 38.3044C33.3633 38.3231 33.4759 38.3419 33.6072 38.3419H35.933C36.008 38.3419 36.0643 38.3794 36.0643 38.4544V38.9608C36.0643 39.0359 36.0268 39.0734 35.933 39.0734H33.5884C33.3258 39.0734 33.082 39.0546 32.8944 38.9984C32.7069 38.9421 32.5568 38.8671 32.4255 38.7545C32.313 38.642 32.2192 38.4919 32.1629 38.3231C32.1066 38.1356 32.0879 37.9292 32.0879 37.6666V36.7476C32.0879 36.485 32.1066 36.2787 32.1629 36.0911C32.2192 35.9223 32.313 35.7722 32.4255 35.6597C32.5381 35.5471 32.7069 35.4721 32.8944 35.4158C33.082 35.3596 33.3071 35.3408 33.5884 35.3408H35.933V35.3596Z" fill="white"/>
<path id="Vector_91" d="M39.8718 36.1658V35.2092C39.8718 35.1342 39.9094 35.0967 39.9844 35.0967H40.5096C40.5846 35.0967 40.6221 35.1342 40.6221 35.2092V38.004C40.6221 38.1915 40.6034 38.3603 40.5658 38.4916C40.5283 38.6229 40.4533 38.7355 40.3595 38.8292C40.2657 38.923 40.1344 38.9793 39.9656 39.0168C39.7968 39.0543 39.6093 39.0731 39.3654 39.0731H37.8836C37.6398 39.0731 37.4335 39.0543 37.2834 39.0168C37.1146 38.9793 36.9833 38.923 36.8895 38.8292C36.7958 38.7355 36.7207 38.6229 36.6832 38.4916C36.6457 38.3603 36.627 38.1915 36.627 38.004V37.2537C36.627 37.0661 36.6457 36.8973 36.6832 36.766C36.7207 36.6347 36.7958 36.5222 36.8895 36.4284C36.9833 36.3346 37.1146 36.2783 37.2834 36.2408C37.4522 36.2033 37.6398 36.1846 37.8836 36.1846H39.8718V36.1658ZM39.2904 38.4541C39.4029 38.4541 39.4967 38.4354 39.5717 38.4166C39.6468 38.3978 39.703 38.3603 39.7593 38.3228C39.7968 38.2853 39.8343 38.2103 39.8531 38.1353C39.8718 38.0602 39.8718 37.9664 39.8718 37.8539V36.8035H37.9399C37.8274 36.8035 37.7336 36.8223 37.6586 36.841C37.5835 36.8598 37.5273 36.8973 37.471 36.9348C37.4335 36.9723 37.396 37.0474 37.3772 37.1224C37.3585 37.1974 37.3585 37.2912 37.3585 37.4037V37.8727C37.3585 37.9852 37.3585 38.079 37.3772 38.154C37.396 38.229 37.4335 38.2853 37.471 38.3416C37.5085 38.3791 37.5835 38.4166 37.6586 38.4354C37.7336 38.4541 37.8274 38.4729 37.9399 38.4729H39.2904V38.4541Z" fill="white"/>
<path id="Vector_92" d="M41.9151 36.166C41.9901 36.166 42.0276 36.2035 42.0276 36.2973V37.8354C42.0276 37.9479 42.0276 38.0417 42.0464 38.1167C42.0651 38.1917 42.0839 38.248 42.1214 38.3043C42.1589 38.3418 42.2152 38.3793 42.2902 38.3981C42.3652 38.4168 42.459 38.4356 42.5716 38.4356H43.9408C44.0533 38.4356 44.1471 38.4168 44.2221 38.3981C44.2972 38.3793 44.3534 38.3418 44.4097 38.3043C44.4472 38.2668 44.4847 38.1917 44.5035 38.1167C44.5222 38.0417 44.5222 37.9479 44.5222 37.8354V36.2973C44.5222 36.2223 44.5598 36.166 44.6348 36.166H45.16C45.235 36.166 45.2725 36.2035 45.2725 36.2973V38.0229C45.2725 38.2105 45.2537 38.3793 45.2162 38.5106C45.1787 38.6419 45.1037 38.7544 45.0099 38.8482C44.9161 38.942 44.7848 38.9983 44.616 39.0358C44.4472 39.0733 44.2596 39.0921 44.0158 39.0921H42.534C42.2902 39.0921 42.0839 39.0733 41.9338 39.0358C41.765 38.9983 41.6337 38.942 41.5399 38.8482C41.4462 38.7544 41.3711 38.6419 41.3336 38.5106C41.2961 38.3793 41.2773 38.2105 41.2773 38.0229V36.2973C41.2773 36.2223 41.3149 36.166 41.4086 36.166H41.9151Z" fill="white"/>
<path id="Vector_93" d="M49.2309 36.166C49.2872 36.166 49.3247 36.2035 49.3247 36.2598V36.71C49.3247 36.7662 49.2872 36.8037 49.2309 36.8037H47.1677C47.0551 36.8037 46.9613 36.8225 46.8863 36.8413C46.8113 36.86 46.755 36.8975 46.7175 36.935C46.68 36.9726 46.6425 37.0476 46.6237 37.1226C46.605 37.1976 46.605 37.2914 46.605 37.404V37.8729C46.605 37.9854 46.605 38.0792 46.6237 38.1542C46.6425 38.2292 46.68 38.2855 46.7175 38.3418C46.755 38.3793 46.8113 38.4168 46.8863 38.4356C46.9613 38.4543 47.0551 38.4731 47.1677 38.4731H49.2309C49.2872 38.4731 49.3247 38.5106 49.3247 38.5669V39.017C49.3247 39.0733 49.2872 39.1108 49.2309 39.1108H47.0926C46.8488 39.1108 46.6425 39.0921 46.4924 39.0545C46.3236 39.017 46.1923 38.9608 46.0985 38.867C46.0047 38.7732 45.9297 38.6606 45.8922 38.5294C45.8547 38.3981 45.8359 38.2292 45.8359 38.0417V37.2539C45.8359 37.0663 45.8547 36.8975 45.8922 36.7662C45.9297 36.6349 46.0047 36.5224 46.0985 36.4286C46.1923 36.3348 46.3236 36.2786 46.4924 36.241C46.6612 36.2035 46.8488 36.1848 47.0926 36.1848H49.2309V36.166Z" fill="white"/>
<path id="Vector_94" d="M52.1954 36.166C52.4392 36.166 52.6268 36.1848 52.7956 36.2223C52.9644 36.2598 53.0957 36.3348 53.1895 36.4099C53.2833 36.5036 53.3583 36.6162 53.3958 36.7475C53.4333 36.8788 53.4521 37.0476 53.4521 37.2351V38.6419C53.4521 38.7357 53.4521 38.7919 53.4333 38.8482C53.4146 38.9045 53.3958 38.942 53.3771 38.9795C53.3396 39.017 53.302 39.0358 53.2645 39.0545C53.2083 39.0733 53.152 39.0733 53.077 39.0733H50.5448C50.3948 39.0733 50.2635 39.0545 50.1509 39.0358C50.0384 38.9983 49.9634 38.9608 49.9071 38.9045C49.8508 38.8482 49.7946 38.7732 49.7758 38.6794C49.757 38.5856 49.7383 38.4731 49.7383 38.3418V38.0792C49.7383 37.9667 49.757 37.8729 49.7758 37.7791C49.7946 37.6853 49.8508 37.6103 49.9071 37.554C49.9634 37.4977 50.0571 37.4415 50.1509 37.4227C50.2635 37.3852 50.3948 37.3852 50.5448 37.3852H52.7018V37.2914C52.7018 37.1976 52.7018 37.1414 52.6831 37.0663C52.6643 37.0101 52.6268 36.9538 52.5893 36.9163C52.5518 36.8788 52.4955 36.86 52.4205 36.8413C52.3455 36.8225 52.2517 36.8225 52.1391 36.8225H49.9071C49.8508 36.8225 49.8133 36.785 49.8133 36.7287V36.2786C49.8133 36.2223 49.8508 36.1848 49.9071 36.1848H52.1954V36.166ZM52.5518 38.4918C52.608 38.4918 52.6456 38.4731 52.6643 38.4543C52.6831 38.4356 52.7018 38.3793 52.7018 38.3043V37.8354H50.7511C50.6386 37.8354 50.5636 37.8541 50.5261 37.9104C50.4885 37.9479 50.451 38.0229 50.451 38.0979V38.2105C50.451 38.3043 50.4698 38.3793 50.5261 38.4168C50.5636 38.4543 50.6386 38.4918 50.7511 38.4918H52.5518Z" fill="white"/>
<path id="Vector_95" d="M54.3893 36.1659V35.4719C54.3893 35.3969 54.4268 35.3594 54.5018 35.3594H55.027C55.102 35.3594 55.1395 35.3969 55.1395 35.4719V36.1659H56.0774C56.1336 36.1659 56.1711 36.2034 56.1711 36.2597V36.6911C56.1711 36.7474 56.1336 36.7849 56.0774 36.7849H55.1395V38.0228C55.1395 38.1729 55.177 38.2854 55.2333 38.3417C55.2896 38.4167 55.4209 38.4542 55.5897 38.4542H56.1149C56.1712 38.4542 56.2087 38.4917 56.2087 38.548V38.9794C56.2087 39.0357 56.1712 39.0732 56.1149 39.0732H55.4772C55.2708 39.0732 55.0833 39.0544 54.952 39.0169C54.8207 38.9794 54.7081 38.9231 54.6144 38.8293C54.5393 38.7356 54.4643 38.6418 54.4455 38.4917C54.408 38.3604 54.3893 38.1916 54.3893 38.0041V36.7661H53.8828C53.8266 36.7661 53.7891 36.7286 53.7891 36.6723V36.2409C53.7891 36.1847 53.8266 36.1472 53.8828 36.1472H54.3893V36.1659Z" fill="white"/>
<path id="Vector_96" d="M57.2971 35.0781C57.3721 35.0781 57.4096 35.1156 57.4096 35.1907V35.6971C57.4096 35.7721 57.3721 35.8284 57.2971 35.8284H56.7719C56.6969 35.8284 56.6406 35.7909 56.6406 35.6971V35.1907C56.6406 35.1156 56.6781 35.0781 56.7719 35.0781H57.2971ZM57.2971 36.166C57.3721 36.166 57.4096 36.2035 57.4096 36.2973V38.9795C57.4096 39.0545 57.3721 39.092 57.2971 39.092H56.7719C56.6969 39.092 56.6594 39.0545 56.6594 38.9795V36.2973C56.6594 36.2223 56.6969 36.166 56.7719 36.166H57.2971Z" fill="white"/>
<path id="Vector_97" d="M60.8041 36.166C61.0479 36.166 61.2355 36.1848 61.4043 36.2223C61.5731 36.2598 61.7044 36.3348 61.7982 36.4099C61.892 36.5036 61.967 36.6162 62.0045 36.7475C62.042 36.8788 62.0608 37.0476 62.0608 37.2351V38.0042C62.0608 38.1917 62.042 38.3605 62.0045 38.4918C61.967 38.6231 61.892 38.7357 61.7982 38.8295C61.7044 38.9232 61.5731 38.9795 61.4043 39.017C61.2355 39.0545 61.0479 39.0733 60.8041 39.0733H59.3036C59.0597 39.0733 58.8534 39.0545 58.7034 39.017C58.5533 38.9795 58.4033 38.9232 58.3095 38.8295C58.2157 38.7357 58.1407 38.6231 58.1031 38.4918C58.0656 38.3605 58.0469 38.1917 58.0469 38.0042V37.2539C58.0469 37.0663 58.0656 36.8975 58.1031 36.7662C58.1407 36.6349 58.2157 36.5224 58.3095 36.4286C58.4033 36.3348 58.5345 36.2786 58.7034 36.241C58.8722 36.2035 59.0597 36.1848 59.3036 36.1848H60.8041V36.166ZM58.7971 37.8729C58.7971 37.9854 58.7971 38.0792 58.8159 38.1542C58.8347 38.2292 58.8722 38.2855 58.9097 38.3418C58.9472 38.3793 59.0222 38.4168 59.0972 38.4356C59.1723 38.4543 59.2661 38.4731 59.3786 38.4731H60.7291C60.8416 38.4731 60.9354 38.4543 61.0104 38.4356C61.0854 38.4168 61.1417 38.3793 61.198 38.3418C61.2355 38.3043 61.273 38.2292 61.2918 38.1542C61.3105 38.0792 61.3105 37.9854 61.3105 37.8729V37.3664C61.3105 37.2539 61.3105 37.1601 61.2918 37.0851C61.273 37.0101 61.2355 36.9538 61.198 36.8975C61.1605 36.86 61.0854 36.8225 61.0104 36.8037C60.9354 36.785 60.8416 36.785 60.7291 36.785H59.3786C59.2661 36.785 59.1723 36.785 59.0972 36.8037C59.0222 36.8225 58.966 36.86 58.9097 36.8975C58.8722 36.935 58.8347 37.0101 58.8159 37.0851C58.7971 37.1601 58.7971 37.2539 58.7971 37.3664V37.8729Z" fill="white"/>
<path id="Vector_98" d="M65.4744 36.166C65.7183 36.166 65.9058 36.1848 66.0746 36.2223C66.2434 36.2598 66.3747 36.3348 66.4685 36.4099C66.5623 36.5036 66.6373 36.6162 66.6748 36.7475C66.7124 36.8788 66.7311 37.0476 66.7311 37.2351V38.9608C66.7311 39.0358 66.6936 39.0733 66.6186 39.0733H66.0934C66.0184 39.0733 65.9809 39.0358 65.9809 38.9608V37.4227C65.9809 37.3102 65.9809 37.2164 65.9621 37.1414C65.9433 37.0663 65.9246 37.0101 65.8871 36.9538C65.8496 36.9163 65.7933 36.8788 65.7183 36.86C65.6432 36.8413 65.5495 36.8225 65.4369 36.8225H64.0302C63.9176 36.8225 63.8238 36.8413 63.7488 36.86C63.6738 36.8788 63.6175 36.9163 63.5613 36.9538C63.5237 36.9913 63.4862 37.0663 63.4675 37.1414C63.4487 37.2164 63.4487 37.3102 63.4487 37.4227V38.9608C63.4487 39.0358 63.4112 39.0733 63.3362 39.0733H62.811C62.736 39.0733 62.6797 39.0358 62.6797 38.9608V37.2539C62.6797 37.0663 62.6984 36.8975 62.736 36.7662C62.7735 36.6349 62.8485 36.5224 62.9423 36.4286C63.0361 36.3348 63.1674 36.2786 63.3362 36.241C63.505 36.2035 63.6925 36.1848 63.9364 36.1848H65.4744V36.166Z" fill="white"/>
<path id="Vector_99" d="M69.7696 36.166C70.0134 36.166 70.201 36.1848 70.3698 36.2223C70.5386 36.2598 70.6699 36.3348 70.7637 36.4099C70.8575 36.5036 70.9325 36.6162 70.97 36.7475C71.0076 36.8788 71.0263 37.0476 71.0263 37.2351V38.6419C71.0263 38.7357 71.0263 38.7919 71.0075 38.8482C70.9888 38.9045 70.97 38.942 70.9513 38.9795C70.9138 39.017 70.8763 39.0358 70.8387 39.0545C70.7825 39.0733 70.7262 39.0733 70.6512 39.0733H68.119C67.969 39.0733 67.8377 39.0545 67.7251 39.0358C67.6126 38.9983 67.5376 38.9608 67.4813 38.9045C67.425 38.8482 67.3688 38.7732 67.35 38.6794C67.3313 38.5856 67.3125 38.4731 67.3125 38.3418V38.0792C67.3125 37.9667 67.3313 37.8729 67.35 37.7791C67.3688 37.6853 67.425 37.6103 67.4813 37.554C67.5376 37.4977 67.6314 37.4415 67.7251 37.4227C67.8377 37.3852 67.969 37.3852 68.119 37.3852H70.276V37.2914C70.276 37.1976 70.276 37.1414 70.2573 37.0663C70.2385 37.0101 70.201 36.9538 70.1635 36.9163C70.126 36.8788 70.0697 36.86 69.9947 36.8413C69.9197 36.8225 69.8259 36.8225 69.7133 36.8225H67.4626C67.4063 36.8225 67.3688 36.785 67.3688 36.7287V36.2786C67.3688 36.2223 67.4063 36.1848 67.4626 36.1848H69.7696V36.166ZM70.126 38.4918C70.1823 38.4918 70.2198 38.4731 70.2385 38.4543C70.2573 38.4356 70.276 38.3793 70.276 38.3043V37.8354H68.3254C68.2128 37.8354 68.1378 37.8541 68.1003 37.9104C68.0628 37.9479 68.0252 38.0229 68.0252 38.0979V38.2105C68.0252 38.3043 68.044 38.3793 68.1003 38.4168C68.1378 38.4543 68.2128 38.4918 68.3254 38.4918H70.126Z" fill="white"/>
<path id="Vector_100" d="M72.2451 35.0967C72.3202 35.0967 72.3577 35.1342 72.3577 35.2092V38.9605C72.3577 39.0356 72.3202 39.0731 72.2451 39.0731H71.72C71.6449 39.0731 71.6074 39.0356 71.6074 38.9605V35.2092C71.6074 35.1342 71.6449 35.0967 71.72 35.0967H72.2451Z" fill="white"/>
<path id="Vector_101" d="M78.8859 35.3594C78.9609 35.3594 79.0172 35.3969 79.0172 35.4719V35.9971C79.0172 36.0721 78.9797 36.1284 78.8859 36.1284H77.2165V38.9794C77.2165 39.0544 77.179 39.0919 77.104 39.0919H76.5225C76.4475 39.0919 76.41 39.0544 76.41 38.9794V36.1284H74.7407C74.6656 36.1284 74.6094 36.0909 74.6094 35.9971V35.4719C74.6094 35.3969 74.6469 35.3594 74.7407 35.3594H78.8859Z" fill="white"/>
<path id="Vector_102" d="M82.0733 36.166C82.2608 36.166 82.4109 36.1848 82.5234 36.2035C82.636 36.241 82.7297 36.2786 82.8048 36.3536C82.8798 36.4286 82.9173 36.5224 82.9548 36.6162C82.9923 36.7287 82.9923 36.86 82.9923 37.0288V37.5353C82.9923 37.6478 82.9736 37.7228 82.9173 37.7791C82.861 37.8166 82.786 37.8541 82.6922 37.8541H80.01V37.9854C80.01 38.1542 80.0475 38.2668 80.1226 38.3418C80.1976 38.4168 80.3664 38.4543 80.5915 38.4543H82.8048C82.861 38.4543 82.8985 38.4918 82.8985 38.5481V38.9983C82.8985 39.0545 82.861 39.0921 82.8048 39.0921H80.5165C80.2726 39.0921 80.0663 39.0733 79.9162 39.0358C79.7474 38.9983 79.6161 38.942 79.5224 38.8482C79.4286 38.7544 79.3536 38.6419 79.316 38.5106C79.2785 38.3793 79.2598 38.2105 79.2598 38.0229V37.2539C79.2598 37.0663 79.2785 36.8975 79.316 36.7662C79.3536 36.6349 79.4286 36.5224 79.5224 36.4286C79.6161 36.3348 79.7474 36.2786 79.9162 36.241C80.0851 36.2035 80.2726 36.1848 80.5165 36.1848H82.0733V36.166ZM80.01 37.3664H82.167C82.2233 37.3664 82.2608 37.3289 82.2608 37.2727V37.0663C82.2608 36.9538 82.2421 36.8788 82.1858 36.8413C82.1483 36.8037 82.0545 36.7662 81.9232 36.7662H80.5915C80.3664 36.7662 80.1976 36.8037 80.1226 36.8788C80.0475 36.9538 80.01 37.0663 80.01 37.2351V37.3664Z" fill="white"/>
<path id="Vector_103" d="M86.8383 36.166C86.8946 36.166 86.9321 36.2035 86.9321 36.2598V36.71C86.9321 36.7662 86.8946 36.8037 86.8383 36.8037H84.7751C84.6625 36.8037 84.5688 36.8225 84.4937 36.8413C84.4187 36.86 84.3624 36.8975 84.3249 36.935C84.2874 36.9726 84.2499 37.0476 84.2311 37.1226C84.2124 37.1976 84.2124 37.2914 84.2124 37.404V37.8729C84.2124 37.9854 84.2124 38.0792 84.2311 38.1542C84.2499 38.2292 84.2874 38.2855 84.3249 38.3418C84.3624 38.3793 84.4187 38.4168 84.4937 38.4356C84.5688 38.4543 84.6625 38.4731 84.7751 38.4731H86.8383C86.8946 38.4731 86.9321 38.5106 86.9321 38.5669V39.017C86.9321 39.0733 86.8946 39.1108 86.8383 39.1108H84.7C84.4562 39.1108 84.2499 39.0921 84.0998 39.0545C83.931 39.017 83.7997 38.9608 83.706 38.867C83.6122 38.7732 83.5371 38.6606 83.4996 38.5294C83.4621 38.3981 83.4434 38.2292 83.4434 38.0417V37.2539C83.4434 37.0663 83.4621 36.8975 83.4996 36.7662C83.5371 36.6349 83.6122 36.5224 83.706 36.4286C83.7997 36.3348 83.931 36.2786 84.0998 36.241C84.2686 36.2035 84.4562 36.1848 84.7 36.1848H86.8383V36.166Z" fill="white"/>
<path id="Vector_104" d="M88.0948 35.0969C88.1698 35.0969 88.2073 35.1344 88.2073 35.2094V36.166H90.1955C90.4393 36.166 90.6269 36.1848 90.7957 36.2223C90.9645 36.2598 91.0958 36.3348 91.1896 36.4098C91.2834 36.5036 91.3584 36.6162 91.3959 36.7475C91.4334 36.8788 91.4522 37.0476 91.4522 37.2351V38.9607C91.4522 39.0358 91.4147 39.0733 91.3397 39.0733H90.8145C90.7394 39.0733 90.7019 39.0358 90.7019 38.9607V37.4227C90.7019 37.3102 90.7019 37.2164 90.6832 37.1414C90.6644 37.0663 90.6457 37.0101 90.6081 36.9538C90.5706 36.9163 90.5144 36.8788 90.4393 36.86C90.3643 36.8412 90.2705 36.8225 90.158 36.8225H88.2073V38.942C88.2073 39.017 88.1698 39.0545 88.0948 39.0545H87.5696C87.4945 39.0545 87.457 39.017 87.457 38.942V35.1907C87.457 35.1156 87.4945 35.0781 87.5696 35.0781H88.0948V35.0969Z" fill="white"/>
<path id="Vector_105" d="M94.9033 36.166C95.1472 36.166 95.3347 36.1848 95.5036 36.2223C95.6724 36.2598 95.8037 36.3348 95.8974 36.4099C95.9912 36.5036 96.0663 36.6162 96.1038 36.7475C96.1413 36.8788 96.16 37.0476 96.16 37.2351V38.9608C96.16 39.0358 96.1225 39.0733 96.0475 39.0733H95.5223C95.4473 39.0733 95.4098 39.0358 95.4098 38.9608V37.4227C95.4098 37.3102 95.4098 37.2164 95.391 37.1414C95.3723 37.0663 95.3535 37.0101 95.316 36.9538C95.2785 36.9163 95.2222 36.8788 95.1472 36.86C95.0721 36.8413 94.9784 36.8225 94.8658 36.8225H93.4591C93.3465 36.8225 93.2528 36.8413 93.1777 36.86C93.1027 36.8788 93.0464 36.9163 92.9902 36.9538C92.9527 36.9913 92.9151 37.0663 92.8964 37.1414C92.8776 37.2164 92.8776 37.3102 92.8776 37.4227V38.9608C92.8776 39.0358 92.8401 39.0733 92.7651 39.0733H92.2211C92.1461 39.0733 92.0898 39.0358 92.0898 38.9608V37.2539C92.0898 37.0663 92.1086 36.8975 92.1461 36.7662C92.1836 36.6349 92.2587 36.5224 92.3524 36.4286C92.4462 36.3348 92.5775 36.2786 92.7463 36.241C92.9151 36.2035 93.1027 36.1848 93.3465 36.1848H94.9033V36.166Z" fill="white"/>
<path id="Vector_106" d="M99.556 36.166C99.7999 36.166 99.9874 36.1848 100.156 36.2223C100.325 36.2598 100.456 36.3348 100.55 36.4099C100.644 36.5036 100.719 36.6162 100.756 36.7475C100.794 36.8788 100.813 37.0476 100.813 37.2351V38.0042C100.813 38.1917 100.794 38.3605 100.756 38.4918C100.719 38.6231 100.644 38.7357 100.55 38.8295C100.456 38.9232 100.325 38.9795 100.156 39.017C99.9874 39.0545 99.7999 39.0733 99.556 39.0733H98.0555C97.8117 39.0733 97.6054 39.0545 97.4553 39.017C97.2865 38.9795 97.1552 38.9232 97.0614 38.8295C96.9676 38.7357 96.8926 38.6231 96.8551 38.4918C96.8176 38.3605 96.7988 38.1917 96.7988 38.0042V37.2539C96.7988 37.0663 96.8176 36.8975 96.8551 36.7662C96.8926 36.6349 96.9676 36.5224 97.0614 36.4286C97.1552 36.3348 97.2865 36.2786 97.4553 36.241C97.6241 36.2035 97.8117 36.1848 98.0555 36.1848H99.556V36.166ZM97.5491 37.8729C97.5491 37.9854 97.5491 38.0792 97.5678 38.1542C97.5866 38.2292 97.6241 38.2855 97.6616 38.3418C97.6991 38.3793 97.7742 38.4168 97.8492 38.4356C97.9242 38.4543 98.018 38.4731 98.1305 38.4731H99.481C99.5936 38.4731 99.6873 38.4543 99.7624 38.4356C99.8374 38.4168 99.8937 38.3793 99.9499 38.3418C99.9875 38.3043 100.025 38.2292 100.044 38.1542C100.062 38.0792 100.062 37.9854 100.062 37.8729V37.3664C100.062 37.2539 100.062 37.1601 100.044 37.0851C100.025 37.0101 99.9875 36.9538 99.9499 36.8975C99.9124 36.86 99.8374 36.8225 99.7624 36.8037C99.6873 36.785 99.5936 36.785 99.481 36.785H98.1305C98.018 36.785 97.9242 36.785 97.8492 36.8037C97.7742 36.8225 97.7179 36.86 97.6616 36.8975C97.6241 36.935 97.5866 37.0101 97.5678 37.0851C97.5491 37.1601 97.5491 37.2539 97.5491 37.3664V37.8729Z" fill="white"/>
<path id="Vector_107" d="M102.087 35.0967C102.162 35.0967 102.199 35.1342 102.199 35.2092V38.9605C102.199 39.0356 102.162 39.0731 102.087 39.0731H101.562C101.487 39.0731 101.449 39.0356 101.449 38.9605V35.2092C101.449 35.1342 101.487 35.0967 101.562 35.0967H102.087Z" fill="white"/>
<path id="Vector_108" d="M105.613 36.166C105.857 36.166 106.044 36.1848 106.213 36.2223C106.382 36.2598 106.513 36.3348 106.607 36.4099C106.701 36.5036 106.776 36.6162 106.813 36.7475C106.851 36.8788 106.869 37.0476 106.869 37.2351V38.0042C106.869 38.1917 106.851 38.3605 106.813 38.4918C106.776 38.6231 106.701 38.7357 106.607 38.8295C106.513 38.9232 106.382 38.9795 106.213 39.017C106.044 39.0545 105.857 39.0733 105.613 39.0733H104.112C103.868 39.0733 103.662 39.0545 103.512 39.017C103.343 38.9795 103.212 38.9232 103.118 38.8295C103.024 38.7357 102.949 38.6231 102.912 38.4918C102.874 38.3605 102.855 38.1917 102.855 38.0042V37.2539C102.855 37.0663 102.874 36.8975 102.912 36.7662C102.949 36.6349 103.024 36.5224 103.118 36.4286C103.212 36.3348 103.343 36.2786 103.512 36.241C103.681 36.2035 103.868 36.1848 104.112 36.1848H105.613V36.166ZM103.606 37.8729C103.606 37.9854 103.606 38.0792 103.624 38.1542C103.643 38.2292 103.681 38.2855 103.718 38.3418C103.756 38.3793 103.831 38.4168 103.906 38.4356C103.981 38.4543 104.075 38.4731 104.187 38.4731H105.538C105.65 38.4731 105.744 38.4543 105.819 38.4356C105.894 38.4168 105.95 38.3793 106.007 38.3418C106.044 38.3043 106.082 38.2292 106.1 38.1542C106.119 38.0792 106.119 37.9854 106.119 37.8729V37.3664C106.119 37.2539 106.119 37.1601 106.1 37.0851C106.082 37.0101 106.044 36.9538 106.007 36.8975C105.969 36.86 105.894 36.8225 105.819 36.8037C105.744 36.785 105.65 36.785 105.538 36.785H104.187C104.075 36.785 103.981 36.785 103.906 36.8037C103.831 36.8225 103.775 36.86 103.718 36.8975C103.681 36.935 103.643 37.0101 103.624 37.0851C103.606 37.1601 103.606 37.2539 103.606 37.3664V37.8729Z" fill="white"/>
<path id="Vector_109" d="M110.209 36.1662C110.453 36.1662 110.659 36.185 110.809 36.2225C110.978 36.26 111.109 36.335 111.203 36.4101C111.297 36.5038 111.372 36.5976 111.41 36.7477C111.447 36.879 111.466 37.0478 111.466 37.2353V39.1673C111.466 39.3548 111.447 39.5236 111.41 39.6737C111.372 39.805 111.297 39.9175 111.203 40.0113C111.109 40.1051 110.978 40.1614 110.809 40.1989C110.641 40.2364 110.453 40.2552 110.209 40.2552H107.696C107.64 40.2552 107.602 40.2176 107.602 40.1614V39.7112C107.602 39.6549 107.64 39.6174 107.696 39.6174H110.134C110.247 39.6174 110.34 39.5987 110.415 39.5799C110.491 39.5612 110.547 39.5236 110.603 39.4861C110.641 39.4486 110.678 39.3736 110.697 39.2986C110.716 39.2235 110.716 39.1298 110.716 39.0172V38.8859H108.727C108.484 38.8859 108.277 38.8672 108.127 38.8297C107.958 38.7921 107.827 38.7171 107.733 38.6421C107.64 38.5483 107.564 38.4358 107.527 38.3045C107.489 38.1732 107.471 38.0044 107.471 37.798V37.2353C107.471 37.0478 107.489 36.879 107.527 36.7289C107.564 36.5976 107.64 36.4851 107.733 36.3913C107.827 36.2975 107.958 36.2412 108.127 36.2037C108.296 36.1662 108.484 36.1475 108.727 36.1475H110.209V36.1662ZM108.221 37.798C108.221 37.8918 108.221 37.9669 108.24 38.0231C108.258 38.0794 108.296 38.1357 108.334 38.1732C108.371 38.2107 108.446 38.2482 108.521 38.267C108.596 38.2857 108.69 38.2857 108.802 38.2857H110.734V37.2916C110.734 37.104 110.697 36.9728 110.622 36.8977C110.547 36.8227 110.378 36.7852 110.153 36.7852H108.802C108.69 36.7852 108.596 36.7852 108.521 36.8039C108.446 36.8227 108.39 36.8602 108.334 36.8977C108.277 36.9352 108.258 36.9915 108.24 37.0478C108.221 37.104 108.221 37.1791 108.221 37.2729V37.798Z" fill="white"/>
<path id="Vector_110" d="M112.778 35.0781C112.853 35.0781 112.89 35.1156 112.89 35.1907V35.6971C112.89 35.7721 112.853 35.8284 112.778 35.8284H112.252C112.177 35.8284 112.121 35.7909 112.121 35.6971V35.1907C112.121 35.1156 112.159 35.0781 112.252 35.0781H112.778ZM112.778 36.166C112.853 36.166 112.89 36.2035 112.89 36.2973V38.9795C112.89 39.0545 112.853 39.092 112.778 39.092H112.252C112.177 39.092 112.14 39.0545 112.14 38.9795V36.2973C112.14 36.2223 112.177 36.166 112.252 36.166H112.778Z" fill="white"/>
<path id="Vector_111" d="M116.286 36.166C116.474 36.166 116.624 36.1848 116.736 36.2035C116.849 36.241 116.943 36.2786 117.018 36.3536C117.093 36.4286 117.13 36.5224 117.168 36.6162C117.205 36.7287 117.205 36.86 117.205 37.0288V37.5353C117.205 37.6478 117.186 37.7228 117.13 37.7791C117.074 37.8166 116.999 37.8541 116.905 37.8541H114.223V37.9854C114.223 38.1542 114.26 38.2668 114.335 38.3418C114.41 38.4168 114.579 38.4543 114.804 38.4543H117.018C117.074 38.4543 117.111 38.4918 117.111 38.5481V38.9983C117.111 39.0545 117.074 39.0921 117.018 39.0921H114.729C114.486 39.0921 114.279 39.0733 114.129 39.0358C113.96 38.9983 113.829 38.942 113.735 38.8482C113.641 38.7544 113.566 38.6419 113.529 38.5106C113.491 38.3793 113.473 38.2105 113.473 38.0229V37.2539C113.473 37.0663 113.491 36.8975 113.529 36.7662C113.566 36.6349 113.641 36.5224 113.735 36.4286C113.829 36.3348 113.96 36.2786 114.129 36.241C114.298 36.2035 114.486 36.1848 114.729 36.1848H116.286V36.166ZM114.223 37.3664H116.38C116.436 37.3664 116.474 37.3289 116.474 37.2727V37.0663C116.474 36.9538 116.455 36.8788 116.399 36.8413C116.361 36.8037 116.267 36.7662 116.136 36.7662H114.804C114.579 36.7662 114.41 36.8037 114.335 36.8788C114.26 36.9538 114.223 37.0663 114.223 37.2351V37.3664Z" fill="white"/>
<path id="Vector_112" d="M121.143 36.1662C121.2 36.1662 121.237 36.2037 121.237 36.26V36.6914C121.237 36.7477 121.2 36.7852 121.143 36.7852H118.743C118.63 36.7852 118.555 36.8039 118.517 36.8415C118.48 36.879 118.461 36.9352 118.461 37.029V37.104C118.461 37.1791 118.48 37.2353 118.517 37.2729C118.555 37.3104 118.63 37.3291 118.743 37.3291H120.543C120.843 37.3291 121.05 37.3854 121.181 37.5167C121.312 37.648 121.368 37.8168 121.368 38.0419V38.342C121.368 38.4545 121.35 38.5671 121.331 38.6608C121.293 38.7546 121.256 38.8297 121.181 38.8859C121.106 38.9422 121.031 38.9985 120.918 39.036C120.806 39.0735 120.674 39.0923 120.524 39.0923H117.805C117.748 39.0923 117.711 39.0547 117.711 38.9985V38.5671C117.711 38.5108 117.748 38.4733 117.805 38.4733H120.337C120.449 38.4733 120.524 38.4545 120.562 38.417C120.599 38.3795 120.637 38.3045 120.637 38.2107V38.0606C120.637 37.9856 120.618 37.9293 120.562 37.8918C120.506 37.8543 120.449 37.8356 120.337 37.8356H118.555C118.255 37.8356 118.049 37.7793 117.917 37.648C117.786 37.5167 117.73 37.3479 117.73 37.104V36.879C117.73 36.7664 117.748 36.6726 117.767 36.5789C117.805 36.4851 117.842 36.4101 117.917 36.3538C117.974 36.2975 118.067 36.2412 118.18 36.2037C118.292 36.1662 118.424 36.1475 118.574 36.1475H121.143V36.1662Z" fill="white"/>
</g>
</g>
</svg>
