<svg width="63" height="36" viewBox="0 0 63 36" fill="none" xmlns="http://www.w3.org/2000/svg">
<path d="M49.6308 0.0204931H39.5066C38.5833 0.0204931 37.6618 -0.0245177 36.7385 0.0204931C35.387 0.130865 34.0706 0.499616 32.8635 1.10595C29.6735 2.75794 26.8525 5.01875 24.5664 7.75543H27.3574C25.6733 6.33066 24.0598 4.81241 22.3297 3.42747C20.6656 2.15018 18.7213 1.27005 16.6506 0.856655C13.4307 0.452984 10.177 0.376984 6.94116 0.62987C5.27997 0.62987 3.64349 0.62987 1.9823 0.494838C1.45846 0.502436 0.958244 0.709885 0.587791 1.07317C0.217337 1.43645 0.00579527 1.92698 -0.00195312 2.44069V26.4366C0.00579527 26.9504 0.217337 27.4409 0.587791 27.8042C0.958244 28.1675 1.45846 28.3749 1.9823 28.3825H14.1208C14.5586 28.405 13.8666 28.315 14.2126 28.405C16.8269 29.0577 19.1958 30.431 21.0392 32.3625L23.6219 34.7602C23.967 35.1333 24.3537 35.4672 24.7747 35.7556C26.5277 36.751 28.3266 34.4434 29.4564 33.4029C30.5862 32.3625 31.739 31.3896 32.8229 30.3491C32.9018 30.2604 32.9867 30.1772 33.0772 30.0998L33.4002 29.783C33.4691 29.738 34.0004 29.3087 33.7692 29.4662C34.6656 28.7282 35.8048 28.3345 36.975 28.3583C41.173 28.6076 45.371 28.7201 49.5902 28.6751C50.0988 28.654 50.5793 28.441 50.9316 28.0807C51.2838 27.7203 51.4804 27.2405 51.4804 26.7413C51.4804 26.2422 51.2838 25.7623 50.9316 25.402C50.5793 25.0417 50.0988 24.8287 49.5902 24.8076C45.7612 24.8526 41.8633 24.8976 38.036 24.6033C36.7117 24.4225 35.3627 24.5409 34.0922 24.9496C32.8317 25.4316 31.6681 26.1285 30.6551 27.0079C29.8254 27.7316 29.0168 28.5227 28.1836 29.2689C26.9143 30.4218 25.6468 31.5765 24.3775 32.707C24.8383 32.5339 25.3008 32.3227 25.7615 32.1409H25.7156C26.1764 32.314 26.6389 32.5252 27.0997 32.707C23.6166 29.5182 20.319 25.8757 15.4978 24.7435C14.2974 24.5211 13.0736 24.4449 11.8541 24.5168H1.88874L3.87299 26.4678V2.4632L1.88874 4.40732C3.08741 4.49734 4.31079 4.51984 5.53242 4.51984C6.91645 4.54235 8.30048 4.51984 9.68452 4.47483C11.3373 4.35393 12.9966 4.34641 14.6504 4.45233C16.4308 4.63794 18.1328 5.26859 19.5934 6.28392C19.9624 6.51071 19.5705 6.26142 19.5934 6.26142C19.6623 6.32893 19.7311 6.37394 19.8017 6.43453C19.8656 6.49836 19.9354 6.55631 20.01 6.60765C20.3102 6.87945 20.6332 7.15124 20.9563 7.42131C22.132 8.43925 23.3324 9.45718 24.5082 10.4751C24.8831 10.829 25.3833 11.0267 25.9037 11.0267C26.424 11.0267 26.9242 10.829 27.2992 10.4751C29.2499 8.17051 31.6018 6.22337 34.2458 4.72412C34.4489 4.61694 34.6569 4.51874 34.869 4.42982C35.3297 4.20304 34.6607 4.49734 35.1002 4.3398C35.4233 4.22727 35.7464 4.11301 36.0694 4.02299C36.2777 3.97798 36.5302 3.95548 36.7385 3.88796C36.6696 3.91047 36.2318 3.91047 36.6926 3.91047C39.5525 3.93297 42.4353 3.91047 45.2951 3.91047H49.5849C50.1017 3.9024 50.5948 3.69694 50.9595 3.33779C51.3241 2.97864 51.5315 2.49415 51.5375 1.98737C51.5434 1.4806 51.3476 0.991533 50.9915 0.624207C50.6354 0.256882 50.1472 0.0402861 49.6308 0.0204931Z" fill="white"/>
<path d="M36.1168 18.4978H47.5562C48.0648 18.4767 48.5453 18.2638 48.8976 17.9034C49.2498 17.5431 49.4464 17.0633 49.4464 16.5641C49.4464 16.065 49.2498 15.5851 48.8976 15.2248C48.5453 14.8644 48.0648 14.6515 47.5562 14.6304H36.1168C35.6082 14.6515 35.1277 14.8644 34.7754 15.2248C34.4232 15.5851 34.2266 16.065 34.2266 16.5641C34.2266 17.0633 34.4232 17.5431 34.7754 17.9034C35.1277 18.2638 35.6082 18.4767 36.1168 18.4978Z" fill="white"/>
<path d="M39.5748 11.1468H51.0142C51.5228 11.1257 52.0033 10.9127 52.3556 10.5524C52.7078 10.192 52.9044 9.71218 52.9044 9.21303C52.9044 8.71388 52.7078 8.23403 52.3556 7.8737C52.0033 7.51336 51.5228 7.3004 51.0142 7.2793H39.5748C39.0662 7.3004 38.5857 7.51336 38.2334 7.8737C37.8812 8.23403 37.6846 8.71388 37.6846 9.21303C37.6846 9.71218 37.8812 10.192 38.2334 10.5524C38.5857 10.9127 39.0662 11.1257 39.5748 11.1468Z" fill="white"/>
<path d="M53.9907 18.4976H56.7588C57.2839 18.4939 57.7864 18.2878 58.1578 17.9236C58.5291 17.5595 58.7393 17.0667 58.743 16.5517C58.7313 16.0392 58.5185 15.5509 58.1489 15.1885C57.7793 14.826 57.2814 14.6173 56.7588 14.6058H53.9907C53.7253 14.5981 53.4609 14.6426 53.2134 14.7369C52.9658 14.8311 52.7401 14.9732 52.5495 15.1545C52.359 15.3359 52.2075 15.553 52.104 15.7928C52.0006 16.0326 51.9473 16.2904 51.9473 16.5508C51.9473 16.8113 52.0006 17.069 52.104 17.3089C52.2075 17.5487 52.359 17.7657 52.5495 17.9471C52.7401 18.1285 52.9658 18.2705 53.2134 18.3648C53.4609 18.459 53.7253 18.5036 53.9907 18.4958V18.4976Z" fill="white"/>
<path d="M55.7668 28.6526H61.0947C61.6032 28.6315 62.0838 28.4186 62.436 28.0582C62.7882 27.6979 62.9849 27.218 62.9849 26.7189C62.9849 26.2198 62.7882 25.7399 62.436 25.3796C62.0838 25.0192 61.6032 24.8063 61.0947 24.7852H55.7668C55.2438 24.7852 54.7423 24.9889 54.3725 25.3515C54.0027 25.7142 53.7949 26.206 53.7949 26.7189C53.7949 27.2318 54.0027 27.7236 54.3725 28.0862C54.7423 28.4489 55.2438 28.6526 55.7668 28.6526Z" fill="white"/>
</svg>
