<svg width="122" height="41" fill="none" xmlns="http://www.w3.org/2000/svg"><path d="M52.982.51h-12.51c-.788 0-1.257.374-1.276 1.012-.019.657.469 1.088 1.275 1.088 1.538 0 3.076.019 4.614-.019.526-.018.657.15.638.657-.019 4.164-.019 8.346-.019 12.51 0 .826.357 1.238 1.013 1.238.657 0 1.013-.431 1.013-1.256V9.55c0-2.1.019-4.22-.019-6.321 0-.544.17-.656.676-.638 1.519.038 3.02.019 4.539.019.825 0 1.275-.394 1.275-1.07.019-.674-.394-1.03-1.22-1.03zM70.39 14.915c-.17-.02-.357 0-.526 0H59.661c-.976 0-1.557-.544-1.557-1.482-.019-2.945-.019-5.871 0-8.816 0-1.088.806-1.97 1.894-1.988a250.12 250.12 0 0 1 7.503 0c1.05.019 1.82.9 1.857 1.95.019.263 0 .526 0 .788 0 1.557-.788 2.326-2.364 2.345h-5.589c-.638 0-1.107.413-1.125.975-.02.582.243 1.013.9 1.088h6.583c.92-.037 1.67-.431 2.364-1.031 1.538-1.332 1.65-4.014 1.013-5.627C70.577 1.654 69.49.79 67.895.584a122.18 122.18 0 0 0-8.29 0c-1.97.188-3.564 1.839-3.602 3.864a251.55 251.55 0 0 0 0 9.21c.038 1.894 1.594 3.357 3.508 3.376 1.425.019 2.85 0 4.276 0h6.584c.656 0 1.088-.469 1.069-1.07 0-.6-.432-1.012-1.05-1.05zM121.07 4.58c-.019-2.307-1.838-4.07-4.127-4.09-3.357-.018-6.715 0-10.072 0-.919 0-1.294.338-1.294 1.257 0 3.902-.019 7.803 0 11.705.018 1.875 1.331 3.3 3.113 3.488.244.02.469.057.713.057h10.222c.225 0 .432-.038.657-.057.6-.131.788-.562.788-1.125 0-3.733.018-7.484 0-11.235zm-13.374 8.646V8.237c0-1.688.019-3.376 0-5.064 0-.431.113-.563.544-.563 2.889.019 5.796 0 8.684.019 1.163 0 2.045.863 2.064 2.026.018 3.245 0 6.49.018 9.734 0 .45-.168.544-.581.544-3.02-.018-6.058 0-9.078-.018-1.107-.02-1.651-.582-1.651-1.688zM102.669 14.914h-8.234c-1.482 0-2.307-.825-2.307-2.325 0-3.077.019-6.134-.019-9.21 0-.6.132-.769.75-.769 3.227.038 6.453.019 9.679.019.581 0 1.032-.169 1.238-.75.244-.732-.281-1.351-1.2-1.37H91.659c-1.332 0-1.632.282-1.632 1.613v9.998c0 .487.038.956.094 1.444.225 1.782 1.782 3.264 3.564 3.414 2.044.112 4.089.037 6.114.056 1.07 0 2.158.075 3.227-.056.637-.15.862-.6.769-1.182-.094-.619-.525-.882-1.126-.882zM87.026.51H74.534c-.826 0-1.294.412-1.276 1.068.02.638.488 1.032 1.257 1.032 1.5 0 2.982.038 4.464-.019.6-.018.75.132.75.75-.037 4.146-.018 8.291-.018 12.436 0 .6.187 1.05.787 1.182.544.112.995-.038 1.182-.638.188-.263.113-.544.113-.825 0-4.108.018-8.197 0-12.305 0-.45.093-.6.581-.6 1.538.038 3.076.019 4.614.019.826 0 1.294-.394 1.276-1.07 0-.656-.45-1.03-1.238-1.03z" fill="#fff"/><g fill="#fff"><path d="M28.992.51h-5.72c-.526 0-1.051-.02-1.558 0-.769.037-1.5.3-2.194.618-1.82.863-3.358 2.326-4.69 3.827h1.576c-.938-.826-1.857-1.707-2.85-2.476-.92-.75-2.045-1.238-3.208-1.482C8.566.622 6.709.866 4.89.866c-.938 0-1.876 0-2.795-.075-.6-.038-1.107.544-1.107 1.106V15.721c0 .6.507 1.107 1.107 1.107H8.94c.244 0-.15-.038.056 0 1.538.318 2.72 1.2 3.864 2.27.488.45.976.918 1.463 1.368.207.188.413.432.657.582.994.581 2.007-.75 2.644-1.35.638-.582 1.295-1.164 1.914-1.764.056-.056.093-.094.13-.15.057-.056.132-.112.188-.169.038-.037.338-.262.207-.187.544-.394 1.125-.675 1.8-.638 2.383.131 4.746.206 7.128.188 1.425-.02 1.444-2.251 0-2.232-2.176.018-4.352.056-6.527-.132-.77-.056-1.5-.075-2.232.207a6.024 6.024 0 0 0-1.932 1.181c-.47.413-.92.863-1.388 1.295l-2.157 1.988c.262-.113.525-.225.787-.32h-.018c.262.113.525.226.787.32-1.969-1.838-3.826-3.94-6.546-4.577-.675-.169-1.369-.131-2.063-.131H2.076l1.107 1.106V1.86L2.076 2.966c.675.057 1.37.057 2.045.075.787 0 1.556 0 2.344-.018.938-.02 1.876-.132 2.795 0 1.125.131 1.894.45 2.776 1.05a.337.337 0 0 0 .131.094l.113.112c.169.15.356.3.525.47.675.58 1.332 1.162 2.007 1.762.431.376 1.163.47 1.575 0 1.145-1.275 2.401-2.513 3.94-3.32.112-.056.224-.112.356-.168.262-.132-.113.037.131-.057.188-.056.356-.13.544-.187.113-.038.263-.038.375-.075-.037.019-.281.019-.037.019 1.613.018 3.244 0 4.858 0h2.42c1.462.018 1.462-2.214.018-2.214z"/><path d="M21.358 11.144h6.453c1.425 0 1.444-2.232 0-2.232h-6.453c-1.425 0-1.425 2.232 0 2.232zM23.31 6.905h6.452c1.425 0 1.444-2.232 0-2.232h-6.453c-1.425.02-1.425 2.232 0 2.232zM31.448 11.144h1.557c.581 0 1.144-.506 1.107-1.106-.02-.6-.488-1.107-1.107-1.107h-1.557c-.581 0-1.144.507-1.106 1.107.018.6.487 1.106 1.106 1.106zM32.442 16.996h3.001c1.426 0 1.445-2.232 0-2.232h-3c-1.426 0-1.426 2.232 0 2.232z"/></g><g fill="#fff"><path d="M5.735 30.108a.987.987 0 0 1-.488-.113.95.95 0 0 1-.337-.375V29.6a1.06 1.06 0 0 1-.413.45 1.29 1.29 0 0 1-.675.17 2.45 2.45 0 0 1-.713-.113 2.334 2.334 0 0 1-.732-.394 1.022 1.022 0 0 0-.318.13.67.67 0 0 0-.188.207 1.328 1.328 0 0 0-.075.32c-.019.13-.019.3-.019.487v2.27h-.619v-2.289c0-.263.019-.469.038-.656a1.35 1.35 0 0 1 .15-.488.974.974 0 0 1 .319-.357c.13-.093.318-.187.525-.262.056-.338.15-.62.262-.844.113-.225.263-.394.394-.544.15-.131.3-.225.45-.281a1.26 1.26 0 0 1 1.37.338c.112.13.206.28.281.468.075.188.094.394.094.6v.188c.056.15.131.281.225.356.094.075.244.132.45.132.206 0 .3.093.3.3 0 .131-.019.206-.075.262-.019.038-.094.057-.206.057zm-1.276-1.313a.876.876 0 0 0-.056-.32.817.817 0 0 0-.15-.28.551.551 0 0 0-.225-.188.575.575 0 0 0-.319-.075c-.206 0-.413.094-.6.281-.188.188-.356.506-.469.957.188.112.375.206.544.281.187.075.375.113.563.113.206 0 .375-.057.506-.188.15-.094.206-.3.206-.581z"/><path d="M5.753 30.107c-.206 0-.3-.093-.3-.3 0-.131.019-.206.075-.244a.402.402 0 0 1 .225-.075H6.86c.206 0 .3.094.3.3 0 .132-.019.207-.075.244a.402.402 0 0 1-.225.075H5.753z"/><path d="M6.841 30.107c-.206 0-.3-.093-.3-.3 0-.131.019-.206.075-.244a.402.402 0 0 1 .225-.075h1.107c.206 0 .3.094.3.3 0 .132-.019.207-.075.244a.402.402 0 0 1-.225.075H6.84z"/><path d="M7.949 30.107c-.207 0-.3-.093-.3-.3 0-.131.018-.206.074-.244a.402.402 0 0 1 .226-.075h1.106c.207 0 .3.094.3.3 0 .132-.018.207-.075.244a.402.402 0 0 1-.225.075H7.95z"/><path d="M9.054 30.107c-.206 0-.3-.093-.3-.3 0-.131.019-.206.075-.244a.402.402 0 0 1 .225-.075h1.107c.206 0 .3.094.3.3 0 .132-.019.207-.075.244a.402.402 0 0 1-.225.075H9.054z"/><path d="M10.161 30.107c-.206 0-.3-.093-.3-.3 0-.131.02-.206.075-.244a.402.402 0 0 1 .225-.075h1.107c.206 0 .3.094.3.3 0 .132-.019.207-.075.244a.402.402 0 0 1-.225.075h-1.107z"/><path d="M11.25 30.107c-.207 0-.3-.093-.3-.3 0-.131.018-.206.074-.244a.402.402 0 0 1 .225-.075h1.107c.206 0 .3.094.3.3 0 .132-.019.207-.075.244a.402.402 0 0 1-.225.075h-1.107z"/><path d="M12.357 30.107c-.207 0-.3-.093-.3-.3 0-.131.018-.206.075-.244a.402.402 0 0 1 .225-.075h1.106c.207 0 .3.094.3.3 0 .132-.018.207-.075.244a.402.402 0 0 1-.225.075h-1.106z"/><path d="M13.462 30.107c-.206 0-.3-.093-.3-.3 0-.131.019-.206.075-.244a.402.402 0 0 1 .225-.075h1.107c.206 0 .3.094.3.3 0 .132-.019.207-.075.244a.402.402 0 0 1-.225.075h-1.107z"/><path d="M14.57 30.107c-.207 0-.3-.093-.3-.3 0-.131.018-.206.075-.244a.402.402 0 0 1 .225-.075h1.106c.207 0 .3.094.3.3 0 .132-.018.207-.075.244a.402.402 0 0 1-.225.075H14.57z"/><path d="M15.658 30.107c-.207 0-.3-.093-.3-.3 0-.131.018-.206.074-.244a.402.402 0 0 1 .226-.075h1.106c.207 0 .3.094.3.3 0 .132-.018.207-.075.244a.402.402 0 0 1-.225.075h-1.106z"/><path d="M16.763 30.107c-.206 0-.3-.093-.3-.3 0-.131.019-.206.075-.244a.402.402 0 0 1 .225-.075h1.107c.206 0 .3.094.3.3 0 .132-.019.207-.075.244a.402.402 0 0 1-.225.075h-1.107z"/><path d="M17.87 30.107c-.206 0-.3-.093-.3-.3 0-.131.02-.206.075-.244a.402.402 0 0 1 .225-.075h1.107c.206 0 .3.094.3.3 0 .132-.019.207-.075.244a.402.402 0 0 1-.225.075H17.87z"/><path d="M18.978 30.107c-.207 0-.3-.093-.3-.3 0-.131.018-.206.075-.244a.402.402 0 0 1 .225-.075h1.106c.207 0 .3.094.3.3 0 .132-.018.207-.074.244a.402.402 0 0 1-.226.075h-1.106z"/><path d="M20.066 30.107c-.207 0-.3-.093-.3-.3 0-.131.018-.206.075-.244a.402.402 0 0 1 .225-.075h1.106c.207 0 .3.094.3.3 0 .132-.018.207-.075.244a.402.402 0 0 1-.225.075h-1.106z"/><path d="M21.171 30.107c-.206 0-.3-.093-.3-.3 0-.131.019-.206.075-.244a.402.402 0 0 1 .225-.075h1.107c.206 0 .3.094.3.3 0 .132-.019.207-.075.244a.402.402 0 0 1-.225.075H21.17z"/><path d="M22.279 30.107c-.207 0-.3-.093-.3-.3 0-.131.018-.206.075-.244a.402.402 0 0 1 .225-.075h1.106c.207 0 .3.094.3.3 0 .132-.018.207-.075.244a.402.402 0 0 1-.225.075H22.28z"/><path d="M23.384 30.107c-.206 0-.3-.093-.3-.3 0-.131.019-.206.075-.244a.402.402 0 0 1 .225-.075h1.107c.206 0 .3.094.3.3 0 .132-.019.207-.075.244a.402.402 0 0 1-.225.075h-1.107z"/><path d="M24.472 30.107c-.206 0-.3-.093-.3-.3 0-.131.019-.206.075-.244a.402.402 0 0 1 .225-.075h1.107c.206 0 .3.094.3.3 0 .132-.019.207-.075.244a.402.402 0 0 1-.225.075h-1.107z"/><path d="M25.58 30.107c-.207 0-.3-.093-.3-.3 0-.131.018-.206.074-.244a.402.402 0 0 1 .225-.075h.507c.112 0 .225 0 .3-.018a.67.67 0 0 0 .206-.075.41.41 0 0 0 .132-.17c.018-.074.037-.168.037-.3V27.22h.619v1.425c0 .132 0 .244.019.338.018.094.056.187.094.262a.458.458 0 0 0 .206.17.748.748 0 0 0 .319.055c.206 0 .3.094.3.3 0 .132-.019.207-.075.245a.402.402 0 0 1-.225.075c-.188 0-.357-.038-.47-.132a.714.714 0 0 1-.243-.337c-.094.206-.225.337-.413.393a2.524 2.524 0 0 1-.712.094h-.6zm.6 1.126a.382.382 0 0 1 .394-.394.382.382 0 0 1 .393.394.382.382 0 0 1-.393.394.382.382 0 0 1-.394-.394zm.956 0a.382.382 0 0 1 .394-.394.382.382 0 0 1 .394.394.382.382 0 0 1-.394.394.382.382 0 0 1-.394-.394z"/><path d="M28.017 30.107c-.206 0-.3-.093-.3-.3 0-.131.019-.206.075-.244a.402.402 0 0 1 .225-.075h1.107c.206 0 .3.094.3.3 0 .132-.02.207-.075.244a.402.402 0 0 1-.226.075h-1.106z"/><path d="M29.124 30.107c-.206 0-.3-.093-.3-.3 0-.131.019-.206.075-.244a.402.402 0 0 1 .225-.075h.6c.094 0 .17 0 .244-.018.075-.02.132-.038.17-.075.055-.038.074-.094.112-.17.018-.074.037-.168.037-.3v-4.163h.62v3.882c0 .244.055.45.15.6.093.15.262.226.487.226.206 0 .3.093.3.3 0 .131-.019.206-.075.244a.402.402 0 0 1-.225.075c-.188 0-.356-.038-.469-.132a.868.868 0 0 1-.244-.337c-.094.206-.225.337-.431.394-.188.056-.45.093-.75.093h-.526z"/><path d="M31.544 30.107c-.206 0-.3-.093-.3-.3 0-.131.019-.206.075-.244a.402.402 0 0 1 .225-.075h1.107c.206 0 .3.094.3.3 0 .132-.019.207-.075.244a.402.402 0 0 1-.225.075h-1.107z"/><path d="M32.65 30.107c-.207 0-.3-.093-.3-.3 0-.131.018-.206.075-.244a.402.402 0 0 1 .225-.075h.337c.188 0 .375-.018.563-.037.188-.019.356-.056.525-.113l-.938-1.05c.02-.056.038-.113.057-.169.018-.056.056-.112.075-.169.018-.056.056-.112.075-.15a.192.192 0 0 1 .093-.112c.15-.15.357-.282.582-.375.225-.094.469-.15.732-.15.224 0 .412.018.562.075.169.056.3.112.394.206a.907.907 0 0 1 .244.3.736.736 0 0 1 .075.338c0 .281-.075.525-.244.769-.15.244-.375.45-.638.637.094.02.225.038.376.038h1.05c.206 0 .3.094.3.3 0 .131-.019.206-.075.244a.402.402 0 0 1-.225.075h-1.238c-.15 0-.281-.019-.413-.056a1.079 1.079 0 0 1-.412-.244 4.172 4.172 0 0 1-.732.225 3.456 3.456 0 0 1-.769.075h-.356v-.038zm2.063-2.382c-.206 0-.394.038-.563.113a1.02 1.02 0 0 0-.412.319l.9.956c.244-.112.431-.262.581-.431.15-.169.225-.338.225-.525a.36.36 0 0 0-.168-.3c-.132-.094-.32-.132-.563-.132z"/><path d="M36.59 30.107c-.207 0-.3-.093-.3-.3 0-.131.018-.206.074-.244a.402.402 0 0 1 .225-.075h.507c.112 0 .225 0 .3-.018a.67.67 0 0 0 .206-.075.408.408 0 0 0 .131-.17c.02-.074.038-.168.038-.3V27.22h.619v1.425c0 .132 0 .244.019.338.018.094.056.187.093.262a.459.459 0 0 0 .207.17.747.747 0 0 0 .319.055c.206 0 .3.094.3.3 0 .132-.02.207-.075.245a.402.402 0 0 1-.225.075c-.188 0-.357-.038-.47-.132a.714.714 0 0 1-.243-.337c-.094.206-.225.337-.413.393a2.527 2.527 0 0 1-.713.094h-.6zm.58-4.126c0-.113.038-.207.113-.282a.381.381 0 0 1 .282-.112.382.382 0 0 1 .393.394.382.382 0 0 1-.393.394.382.382 0 0 1-.394-.394zm.976 0a.382.382 0 0 1 .394-.394c.112 0 .206.037.281.113a.382.382 0 0 1 .113.28.382.382 0 0 1-.394.395.382.382 0 0 1-.394-.394z"/><path d="M39.029 30.107c-.207 0-.3-.094-.3-.3 0-.131.018-.206.075-.244a.402.402 0 0 1 .225-.075h1.162V24.78h.62v5.308h-1.782v.02zM42.441 24.8v5.307h-.619V24.8h.62zM51.05 30.107h-4.52a3.78 3.78 0 0 1-.713-.056 1.174 1.174 0 0 1-.469-.188.713.713 0 0 1-.244-.337c-.056-.131-.075-.3-.075-.507v-1.162h.62v.937c0 .15.018.282.056.375a.341.341 0 0 0 .187.207c.094.056.206.075.356.094a5.3 5.3 0 0 0 .582.018h3.601v-2.25h.62v2.87zm-3.826-3.676a.381.381 0 0 1 .394-.394.382.382 0 0 1 .394.394.382.382 0 0 1-.394.394.381.381 0 0 1-.282-.113.381.381 0 0 1-.112-.281zm.956 0a.382.382 0 0 1 .394-.394c.113 0 .207.038.282.113a.381.381 0 0 1 .112.281.381.381 0 0 1-.112.281.381.381 0 0 1-.282.113.382.382 0 0 1-.394-.394zM53.658 29.788c0 .132-.018.207-.075.244a.402.402 0 0 1-.225.075h-.187a1.6 1.6 0 0 1-.432-.056.952.952 0 0 1-.337-.169.816.816 0 0 1-.225-.319 1.27 1.27 0 0 1-.075-.487V24.78h.619v4.127c0 .206.037.356.093.45.057.094.207.131.432.131h.112c.207 0 .3.094.3.3z"/><path d="M53.359 30.107c-.207 0-.3-.093-.3-.3 0-.131.018-.206.075-.244a.402.402 0 0 1 .225-.075h1.106c.207 0 .3.094.3.3 0 .132-.018.207-.075.244a.402.402 0 0 1-.225.075H53.36z"/><path d="M54.464 30.107c-.206 0-.3-.093-.3-.3 0-.131.019-.206.075-.244a.402.402 0 0 1 .225-.075h1.107c.206 0 .3.094.3.3 0 .132-.019.207-.075.244a.402.402 0 0 1-.225.075h-1.107z"/><path d="M55.572 30.107c-.207 0-.3-.093-.3-.3 0-.131.018-.206.075-.244a.402.402 0 0 1 .225-.075h1.106c.207 0 .3.094.3.3 0 .132-.018.207-.075.244a.402.402 0 0 1-.225.075h-1.106z"/><path d="M56.66 30.107c-.207 0-.3-.093-.3-.3 0-.131.018-.206.074-.244a.402.402 0 0 1 .226-.075h1.106c.206 0 .3.094.3.3 0 .132-.019.207-.075.244a.402.402 0 0 1-.225.075H56.66z"/><path d="M57.765 30.107c-.206 0-.3-.093-.3-.3 0-.131.019-.206.075-.244a.402.402 0 0 1 .225-.075h1.107c.206 0 .3.094.3.3 0 .132-.02.207-.075.244a.402.402 0 0 1-.225.075h-1.107z"/><path d="M58.872 30.107c-.206 0-.3-.093-.3-.3 0-.131.019-.206.075-.244a.402.402 0 0 1 .225-.075h1.107c.206 0 .3.094.3.3 0 .132-.019.207-.075.244a.402.402 0 0 1-.225.075h-1.107z"/><path d="M59.98 30.107c-.206 0-.3-.093-.3-.3 0-.131.018-.206.075-.244a.402.402 0 0 1 .225-.075h1.106c.207 0 .3.094.3.3 0 .132-.018.207-.075.244a.402.402 0 0 1-.225.075H59.98z"/><path d="M61.068 30.107c-.207 0-.3-.093-.3-.3 0-.131.018-.206.075-.244a.402.402 0 0 1 .225-.075h1.106c.207 0 .3.094.3.3 0 .132-.018.207-.075.244a.402.402 0 0 1-.225.075h-1.106z"/><path d="M62.173 30.107c-.206 0-.3-.093-.3-.3 0-.131.019-.206.075-.244a.402.402 0 0 1 .225-.075h1.107c.206 0 .3.094.3.3 0 .132-.019.207-.075.244a.402.402 0 0 1-.225.075h-1.107z"/><path d="M63.28 30.107c-.206 0-.3-.093-.3-.3 0-.131.02-.206.076-.244a.402.402 0 0 1 .225-.075h1.106c.207 0 .3.094.3.3 0 .132-.018.207-.075.244a.402.402 0 0 1-.225.075h-1.106z"/><path d="M64.386 30.107c-.206 0-.3-.093-.3-.3 0-.131.019-.206.075-.244a.402.402 0 0 1 .225-.075h1.107c.206 0 .3.094.3.3 0 .132-.019.207-.075.244a.402.402 0 0 1-.225.075h-1.107z"/><path d="M65.474 30.107c-.206 0-.3-.093-.3-.3 0-.131.019-.206.075-.244a.402.402 0 0 1 .225-.075h1.107c.206 0 .3.094.3.3 0 .132-.02.207-.075.244a.402.402 0 0 1-.225.075h-1.107z"/><path d="M66.581 30.107c-.206 0-.3-.093-.3-.3 0-.131.019-.206.075-.244a.402.402 0 0 1 .225-.075h1.107c.206 0 .3.094.3.3 0 .132-.019.207-.075.244a.402.402 0 0 1-.225.075h-1.107z"/><path d="M67.689 30.107c-.206 0-.3-.093-.3-.3 0-.131.018-.206.075-.244a.402.402 0 0 1 .225-.075h1.106c.207 0 .3.094.3.3 0 .132-.018.207-.075.244a.402.402 0 0 1-.225.075H67.69z"/><path d="M68.794 30.107c-.206 0-.3-.093-.3-.3 0-.131.019-.206.075-.244a.402.402 0 0 1 .225-.075h.507c.112 0 .225 0 .3-.018a.671.671 0 0 0 .206-.075.408.408 0 0 0 .131-.17c.02-.074.038-.168.038-.3V27.22h.619v1.425c0 .132 0 .244.019.338.018.094.056.187.093.262a.46.46 0 0 0 .207.17.748.748 0 0 0 .319.055c.206 0 .3.094.3.3 0 .132-.019.207-.075.245a.402.402 0 0 1-.225.075c-.188 0-.357-.038-.47-.132a.714.714 0 0 1-.243-.337c-.094.206-.225.337-.413.393a2.524 2.524 0 0 1-.713.094h-.6zm.582 1.126a.382.382 0 0 1 .394-.394.382.382 0 0 1 .394.394.382.382 0 0 1-.394.394.382.382 0 0 1-.394-.394zm.975 0a.382.382 0 0 1 .394-.394.382.382 0 0 1 .394.394.382.382 0 0 1-.394.394.382.382 0 0 1-.394-.394z"/><path d="M71.234 30.107c-.207 0-.3-.093-.3-.3 0-.131.018-.206.075-.244a.402.402 0 0 1 .225-.075h1.106c.207 0 .3.094.3.3 0 .132-.018.207-.075.244a.402.402 0 0 1-.225.075h-1.106z"/><path d="M72.34 30.107c-.207 0-.3-.093-.3-.3 0-.131.018-.206.074-.244a.402.402 0 0 1 .225-.075h.507c.112 0 .225 0 .3-.018a.67.67 0 0 0 .206-.075.408.408 0 0 0 .131-.17c.02-.074.038-.168.038-.3V27.22h.619v1.425c0 .132 0 .244.019.338.018.094.056.187.093.262a.459.459 0 0 0 .207.17.747.747 0 0 0 .319.055c.206 0 .3.094.3.3 0 .132-.02.207-.075.245a.402.402 0 0 1-.225.075c-.188 0-.357-.038-.47-.132a.714.714 0 0 1-.243-.337c-.094.206-.225.337-.413.393a2.527 2.527 0 0 1-.713.094h-.6zm1.106-4.126a.382.382 0 0 1 .394-.394c.112 0 .206.037.281.113a.381.381 0 0 1 .113.28.382.382 0 0 1-.394.395.382.382 0 0 1-.394-.394z"/><path d="M74.779 30.107c-.207 0-.3-.093-.3-.3 0-.131.018-.206.075-.244a.402.402 0 0 1 .225-.075h1.106c.207 0 .3.094.3.3 0 .132-.018.207-.075.244a.402.402 0 0 1-.225.075H74.78z"/><path d="M75.884 30.107c-.206 0-.3-.093-.3-.3 0-.131.019-.206.075-.244a.402.402 0 0 1 .225-.075h.844c-.056-.112-.094-.225-.15-.337a1.504 1.504 0 0 1-.056-.432c0-.187.037-.394.094-.581.056-.188.15-.357.28-.507.132-.15.282-.262.451-.356.188-.094.394-.131.638-.131.281 0 .506.056.675.15.169.093.319.225.413.375.094.15.169.319.206.506.038.188.056.375.056.544v.77h.563c.188 0 .3.093.3.3 0 .13-.019.206-.075.243a.402.402 0 0 1-.225.075h-4.014zm1.126-4.126a.382.382 0 0 1 .393-.394c.113 0 .207.037.282.113a.381.381 0 0 1 .112.28.382.382 0 0 1-.394.395.382.382 0 0 1-.394-.394zm.093 2.626c0 .3.094.525.263.675.187.15.394.206.656.206h.713v-.75c0-.113-.019-.244-.037-.356a.682.682 0 0 0-.132-.32c-.056-.093-.15-.168-.243-.243a.872.872 0 0 0-.394-.094.792.792 0 0 0-.62.263.984.984 0 0 0-.206.619zm.882-2.626a.381.381 0 0 1 .394-.394.382.382 0 0 1 .394.394.382.382 0 0 1-.394.394.382.382 0 0 1-.394-.394z"/><path d="M79.917 30.107c-.206 0-.3-.093-.3-.3 0-.131.019-.206.075-.244a.402.402 0 0 1 .225-.075h.507c.112 0 .225 0 .3-.018a.67.67 0 0 0 .206-.075.409.409 0 0 0 .131-.17c.02-.074.038-.168.038-.3V27.22h.619v1.425c0 .132 0 .244.019.338.018.094.056.187.094.262a.458.458 0 0 0 .206.17.748.748 0 0 0 .319.055c.206 0 .3.094.3.3 0 .132-.019.207-.075.245a.402.402 0 0 1-.225.075c-.188 0-.357-.038-.47-.132a.714.714 0 0 1-.243-.337c-.094.206-.225.337-.413.393a2.528 2.528 0 0 1-.713.094h-.6zm.582-4.126a.382.382 0 0 1 .394-.394c.112 0 .206.037.281.113a.382.382 0 0 1 .112.28.382.382 0 0 1-.393.395.382.382 0 0 1-.394-.394zm.975 0a.382.382 0 0 1 .394-.394c.113 0 .206.037.281.113a.381.381 0 0 1 .113.28.382.382 0 0 1-.394.395.382.382 0 0 1-.394-.394z"/><path d="M82.355 30.107c-.207 0-.3-.094-.3-.3 0-.131.018-.206.075-.244a.402.402 0 0 1 .225-.075h1.163V24.78h.619v5.308h-1.782v.02zM89.033 30.107a.713.713 0 0 1-.656-.375c0 .357-.019.657-.075.9-.038.244-.132.45-.244.6a.895.895 0 0 1-.488.32c-.206.075-.487.093-.806.093v-.619c.243 0 .431-.018.562-.075.132-.056.244-.13.3-.243a.8.8 0 0 0 .113-.45c.019-.188.019-.394.019-.657v-1.988h.6v1.05c0 .244.037.45.131.6.094.15.263.225.507.225.206 0 .3.094.3.3 0 .132-.019.207-.075.244 0 .057-.075.075-.188.075z"/><path d="M89.032 30.107c-.206 0-.3-.093-.3-.3 0-.131.02-.206.075-.244a.402.402 0 0 1 .225-.075h1.107c.207 0 .3.094.3.3 0 .132-.018.207-.075.244a.402.402 0 0 1-.225.075h-1.106z"/><path d="M90.14 30.107c-.206 0-.3-.093-.3-.3 0-.131.019-.206.075-.244a.402.402 0 0 1 .225-.075h1.107c.206 0 .3.094.3.3 0 .132-.02.207-.075.244a.402.402 0 0 1-.225.075H90.14z"/><path d="M91.245 30.107c-.206 0-.3-.093-.3-.3 0-.131.02-.206.075-.244a.402.402 0 0 1 .225-.075h1.107c.206 0 .3.094.3.3 0 .132-.019.207-.075.244a.402.402 0 0 1-.225.075h-1.107z"/><path d="M92.333 30.107c-.206 0-.3-.093-.3-.3 0-.131.019-.206.075-.244a.402.402 0 0 1 .225-.075h1.107c.206 0 .3.094.3.3 0 .132-.019.207-.075.244a.402.402 0 0 1-.225.075h-1.107z"/><path d="M93.44 30.107c-.206 0-.3-.093-.3-.3 0-.131.02-.206.076-.244a.402.402 0 0 1 .225-.075h1.106c.207 0 .3.094.3.3 0 .132-.018.207-.075.244a.402.402 0 0 1-.225.075h-1.106z"/><path d="M94.548 30.107c-.206 0-.3-.093-.3-.3 0-.131.019-.206.075-.244a.402.402 0 0 1 .225-.075h1.107c.206 0 .3.094.3.3 0 .132-.019.207-.075.244a.402.402 0 0 1-.225.075h-1.107z"/><path d="M95.654 30.107c-.207 0-.3-.093-.3-.3 0-.131.018-.206.075-.244a.402.402 0 0 1 .225-.075h1.106c.207 0 .3.094.3.3 0 .132-.018.207-.075.244a.402.402 0 0 1-.225.075h-1.106z"/><path d="M96.742 30.107c-.207 0-.3-.093-.3-.3 0-.131.018-.206.074-.244a.402.402 0 0 1 .225-.075h1.107c.207 0 .3.094.3.3 0 .132-.019.207-.075.244a.402.402 0 0 1-.225.075h-1.106z"/><path d="M97.849 30.107c-.206 0-.3-.093-.3-.3 0-.131.019-.206.075-.244a.402.402 0 0 1 .225-.075h1.107c.206 0 .3.094.3.3 0 .132-.02.207-.075.244a.402.402 0 0 1-.225.075h-1.107z"/><path d="M98.954 30.107c-.206 0-.3-.093-.3-.3 0-.131.02-.206.075-.244a.402.402 0 0 1 .225-.075h1.107c.206 0 .3.094.3.3 0 .132-.019.207-.075.244a.4.4 0 0 1-.225.075h-1.107z"/><path d="M100.062 30.107c-.206 0-.3-.093-.3-.3 0-.131.019-.206.075-.244a.403.403 0 0 1 .225-.075h1.106c.207 0 .301.094.301.3 0 .132-.019.207-.075.244a.407.407 0 0 1-.226.075h-1.106z"/><path d="M101.15 30.107c-.207 0-.3-.093-.3-.3 0-.131.018-.206.075-.244a.4.4 0 0 1 .225-.075h1.106c.207 0 .3.094.3.3 0 .132-.018.207-.075.244a.4.4 0 0 1-.225.075h-1.106z"/><path d="M102.257 30.108c-.206 0-.3-.094-.3-.3 0-.132.019-.207.075-.244a.4.4 0 0 1 .225-.075h1.163v-2.251h.619v2.87h-1.782zm.3 1.125c0-.113.038-.206.113-.281a.382.382 0 0 1 .281-.113.38.38 0 0 1 .281.113.378.378 0 0 1 .113.28.378.378 0 0 1-.113.282.38.38 0 0 1-.281.113.382.382 0 0 1-.281-.113.382.382 0 0 1-.113-.281zm.976 0a.381.381 0 0 1 .393-.394.383.383 0 0 1 .394.394.381.381 0 0 1-.394.394.382.382 0 0 1-.393-.394zM107.696 30.107c-.019.3-.075.563-.188.75a1.154 1.154 0 0 1-.431.47 1.838 1.838 0 0 1-.657.243 4.028 4.028 0 0 1-.844.075h-.318v-.619h.225c.225 0 .45-.018.637-.037.188-.019.357-.075.507-.132a.995.995 0 0 0 .337-.28.937.937 0 0 0 .132-.489h-.844c-.207 0-.394-.018-.563-.075-.169-.056-.319-.112-.45-.225-.131-.093-.225-.244-.3-.394a1.52 1.52 0 0 1-.113-.618c0-.207.038-.394.094-.6.075-.188.169-.357.281-.507.132-.15.282-.263.469-.357.188-.093.394-.13.619-.13.263 0 .469.037.657.13.187.094.319.226.431.394.113.17.188.375.244.62.056.243.075.506.075.787v.357h.525c.206 0 .3.093.3.3 0 .13-.019.206-.075.243a.4.4 0 0 1-.225.075h-.525v.02zm-2.27-1.35c0 .243.075.431.225.562.151.113.357.188.638.188h.788V29c0-.375-.056-.656-.188-.881-.131-.225-.337-.319-.637-.319a.79.79 0 0 0-.638.319.893.893 0 0 0-.15.3 2.041 2.041 0 0 0-.038.338z"/><path d="M108.24 30.107c-.207 0-.301-.093-.301-.3 0-.131.019-.206.075-.244a.407.407 0 0 1 .226-.075h1.106c.207 0 .3.094.3.3 0 .132-.018.207-.075.244a.4.4 0 0 1-.225.075h-1.106z"/><path d="M109.347 30.107c-.206 0-.3-.093-.3-.3 0-.131.019-.206.075-.244a.4.4 0 0 1 .225-.075h1.107c.206 0 .3.094.3.3 0 .132-.019.207-.075.244a.406.406 0 0 1-.225.075h-1.107z"/><path d="M110.452 30.107c-.206 0-.3-.093-.3-.3 0-.131.019-.206.075-.244a.406.406 0 0 1 .225-.075h1.107c.206 0 .3.094.3.3 0 .132-.019.207-.075.244a.4.4 0 0 1-.225.075h-1.107z"/><path d="M111.54 30.107c-.206 0-.3-.093-.3-.3 0-.131.019-.206.075-.244a.406.406 0 0 1 .225-.075h1.107c.206 0 .3.094.3.3 0 .132-.019.207-.075.244a.4.4 0 0 1-.225.075h-1.107z"/><path d="M112.648 30.107c-.207 0-.3-.093-.3-.3 0-.131.018-.206.075-.244a.4.4 0 0 1 .225-.075h1.106c.207 0 .301.094.301.3 0 .132-.019.207-.076.244a.4.4 0 0 1-.225.075h-1.106z"/><path d="M113.753 30.107c-.206 0-.3-.094-.3-.3 0-.131.019-.206.075-.244a.4.4 0 0 1 .225-.075h.844V24.78h.619v3.658c.244-.413.544-.732.882-.957a2.077 2.077 0 0 1 1.181-.337c.488 0 .863.15 1.126.45.262.3.413.712.413 1.256v.638h.562c.207 0 .3.094.3.3 0 .132-.018.207-.075.244a.4.4 0 0 1-.225.075h-5.627zm4.446-.619v-.506c0-.17-.019-.338-.057-.488a.962.962 0 0 0-.187-.394.965.965 0 0 0-.338-.262 1.281 1.281 0 0 0-.506-.094c-.244 0-.45.056-.657.169a1.991 1.991 0 0 0-.544.412c-.169.17-.3.357-.431.563-.113.206-.225.394-.3.6h3.02z"/><path d="M119.382 30.107c-.206 0-.3-.093-.3-.3 0-.131.019-.206.075-.244a.4.4 0 0 1 .225-.075h1.163v-2.25h.619v2.87h-1.782zm.507-4.126a.381.381 0 0 1 .393-.394.382.382 0 0 1 .394.394.382.382 0 0 1-.394.394.382.382 0 0 1-.393-.394zm.956 0c0-.113.038-.207.113-.282a.382.382 0 0 1 .281-.112.38.38 0 0 1 .281.113.382.382 0 0 1 .113.28.383.383 0 0 1-.394.395.383.383 0 0 1-.394-.394z"/></g><g fill="#fff"><path d="M5.19 35.36c.076 0 .132.037.132.112v.525c0 .075-.038.131-.131.131H3.52v2.851c0 .075-.037.113-.112.113h-.582c-.075 0-.112-.038-.112-.113v-2.85h-1.67c-.075 0-.13-.038-.13-.132v-.525c0-.075.037-.113.13-.113h4.146zM8.135 36.166c.244 0 .431.019.6.056.169.038.3.113.394.188a.784.784 0 0 1 .206.338c.038.13.057.3.057.487v1.407c0 .094 0 .15-.02.206a.912.912 0 0 1-.055.132.391.391 0 0 1-.113.075c-.056.018-.113.018-.188.018H6.484c-.15 0-.281-.019-.394-.037a.593.593 0 0 1-.243-.132.45.45 0 0 1-.132-.225 1.682 1.682 0 0 1-.037-.337v-.263c0-.112.018-.206.037-.3a.45.45 0 0 1 .132-.225.512.512 0 0 1 .243-.131c.113-.038.244-.038.394-.038h2.157v-.094c0-.093 0-.15-.018-.225a.409.409 0 0 0-.094-.15c-.038-.037-.094-.056-.17-.075-.074-.019-.168-.019-.28-.019H5.847c-.057 0-.094-.037-.094-.093v-.45c0-.057.037-.094.094-.094h2.288v-.019zm.356 2.326c.056 0 .094-.019.113-.038.019-.018.037-.075.037-.15v-.469h-1.95c-.113 0-.188.02-.225.075a.286.286 0 0 0-.076.188v.113c0 .093.02.168.076.206.037.037.112.075.225.075h1.8zM10.33 36.166v-.694c0-.075.038-.113.113-.113h.525c.075 0 .113.038.113.113v.694h.938c.056 0 .094.037.094.094v.431c0 .056-.038.094-.094.094h-.938v1.238c0 .15.037.262.094.319.056.075.187.112.356.112h.525c.057 0 .094.038.094.094v.431c0 .057-.037.094-.094.094h-.637c-.207 0-.394-.019-.526-.056a.75.75 0 0 1-.337-.188c-.075-.093-.15-.187-.169-.337a1.83 1.83 0 0 1-.056-.488v-1.238h-.507c-.056 0-.094-.037-.094-.094v-.431c0-.056.038-.094.094-.094h.507v.019zM13.031 36.166c.057 0 .113.038.132.094l.694 2.194c.019.02.037.038.056.038h.019c.037 0 .056-.019.056-.038l.713-2.025c.037-.094.075-.17.131-.207a.337.337 0 0 1 .207-.056h.637c.094 0 .169.019.207.056.056.038.093.113.13.207l.714 2.025c0 .02.018.038.056.038h.019c.018 0 .037-.019.056-.038l.694-2.194c.019-.056.056-.094.131-.094h.6c.038 0 .075.019.094.038.019.018.019.056 0 .093l-.825 2.457c-.038.132-.094.226-.15.263a.497.497 0 0 1-.263.056h-.675c-.094 0-.169-.019-.206-.075-.057-.056-.094-.131-.15-.262l-.694-1.951c0-.019-.02-.037-.057-.037h-.037c-.038 0-.038.018-.056.037l-.694 1.97a.569.569 0 0 1-.15.262c-.057.056-.113.075-.207.075h-.675a.497.497 0 0 1-.263-.056c-.056-.038-.112-.132-.15-.263l-.806-2.457c-.019-.037-.019-.075 0-.094.018-.019.037-.037.093-.037h.62v-.019zM21.395 36.166a2.7 2.7 0 0 1 .45.038.677.677 0 0 1 .282.15c.075.075.113.168.15.262.038.113.038.244.038.413v.506c0 .113-.02.188-.075.244a.402.402 0 0 1-.225.075h-2.683v.131c0 .17.038.282.113.357.075.075.244.112.469.112h2.213c.056 0 .094.038.094.094v.45c0 .056-.038.094-.094.094h-2.288c-.244 0-.45-.019-.6-.056-.17-.038-.3-.094-.394-.188a.785.785 0 0 1-.207-.337 1.835 1.835 0 0 1-.056-.488v-.77c0-.187.019-.355.056-.487a.785.785 0 0 1 .207-.337c.093-.094.225-.15.393-.188a2.72 2.72 0 0 1 .6-.056h1.557v-.019zm-2.063 1.2h2.157c.057 0 .094-.037.094-.093v-.207c0-.112-.019-.187-.075-.225-.037-.037-.131-.075-.262-.075h-1.332c-.225 0-.394.038-.47.113-.074.075-.112.187-.112.356v.131zM25.599 36.166a2.7 2.7 0 0 1 .45.038.678.678 0 0 1 .281.15c.075.075.113.168.15.262.038.113.038.244.038.413v.506c0 .113-.019.188-.075.244a.402.402 0 0 1-.225.075h-2.683v.131c0 .17.038.282.113.357.075.075.244.112.469.112h2.213c.056 0 .094.038.094.094v.45c0 .056-.038.094-.094.094h-2.288c-.244 0-.45-.019-.6-.056-.17-.038-.3-.094-.394-.188a.786.786 0 0 1-.207-.337 1.835 1.835 0 0 1-.056-.488v-.77c0-.187.019-.355.056-.487a.786.786 0 0 1 .207-.337c.094-.094.225-.15.394-.188a2.72 2.72 0 0 1 .6-.056h1.557v-.019zm-2.064 1.2h2.157c.057 0 .094-.037.094-.093v-.207c0-.112-.019-.187-.075-.225-.037-.037-.131-.075-.262-.075h-1.332c-.225 0-.394.038-.469.113-.075.075-.113.187-.113.356v.131zM29.837 36.166c.057 0 .094.038.094.094v.45c0 .056-.037.094-.094.094h-1.406c-.113 0-.207.018-.282.037a.586.586 0 0 0-.187.094.44.44 0 0 0-.094.188c-.019.075-.019.168-.019.281v1.575c0 .075-.037.113-.112.113h-.526c-.075 0-.13-.038-.13-.112v-1.726c0-.188.018-.356.055-.488a.786.786 0 0 1 .207-.337c.093-.094.225-.15.394-.188.168-.038.356-.056.6-.056h1.5v-.019zM35.933 35.36c.075 0 .131.037.131.112v.506c0 .076-.037.113-.131.113h-2.326c-.131 0-.244.019-.337.038a.428.428 0 0 0-.226.112.428.428 0 0 0-.112.225 1.73 1.73 0 0 0-.038.357v.056h3.002c.075 0 .112.037.112.112v.413c0 .075-.038.113-.113.113h-3v.093c0 .132.018.263.037.357a.428.428 0 0 0 .112.225.428.428 0 0 0 .226.112c.093.02.206.038.337.038h2.326c.075 0 .131.037.131.112v.507c0 .075-.037.112-.131.112h-2.345c-.262 0-.506-.018-.694-.075a1.24 1.24 0 0 1-.468-.243 1.114 1.114 0 0 1-.263-.432 2.257 2.257 0 0 1-.075-.656v-.92c0-.262.019-.468.075-.656.056-.169.15-.319.263-.431.112-.113.28-.188.468-.244.188-.056.413-.075.694-.075h2.345v.019zM39.872 36.166v-.957c0-.075.037-.112.112-.112h.526c.075 0 .112.037.112.112v2.795c0 .188-.019.356-.056.488a.784.784 0 0 1-.207.337c-.093.094-.225.15-.393.188a2.718 2.718 0 0 1-.6.056h-1.482c-.244 0-.45-.019-.6-.056-.17-.038-.3-.094-.395-.188a.785.785 0 0 1-.206-.337 1.835 1.835 0 0 1-.056-.488v-.75c0-.188.019-.357.056-.488a.786.786 0 0 1 .206-.338c.094-.093.226-.15.394-.187a2.72 2.72 0 0 1 .6-.056h1.989v-.02zm-.582 2.288c.113 0 .207-.019.282-.037.075-.02.131-.057.187-.094a.44.44 0 0 0 .094-.188c.019-.075.019-.169.019-.281v-1.05H37.94c-.113 0-.206.018-.281.037-.075.019-.132.056-.188.094a.44.44 0 0 0-.094.187c-.019.075-.019.17-.019.282v.469c0 .112 0 .206.02.281.018.075.056.131.093.188a.44.44 0 0 0 .188.093c.075.02.168.038.28.038h1.351v-.019zM41.915 36.166c.075 0 .113.038.113.131v1.538c0 .113 0 .207.018.282a.561.561 0 0 0 .075.187.363.363 0 0 0 .17.094c.074.019.168.038.28.038h1.37c.112 0 .206-.02.281-.038.075-.019.131-.056.188-.094a.44.44 0 0 0 .094-.187c.018-.075.018-.17.018-.282v-1.538c0-.075.038-.131.113-.131h.525c.075 0 .113.038.113.131v1.726c0 .188-.02.356-.057.488a.785.785 0 0 1-.206.337c-.094.094-.225.15-.394.188a2.719 2.719 0 0 1-.6.056h-1.482c-.244 0-.45-.019-.6-.056-.169-.038-.3-.094-.394-.188a.786.786 0 0 1-.206-.337 1.835 1.835 0 0 1-.057-.488v-1.726c0-.075.038-.131.132-.131h.506zM49.23 36.166c.057 0 .095.038.095.094v.45c0 .056-.038.094-.094.094h-2.063c-.113 0-.207.018-.282.037a.362.362 0 0 0-.169.094.441.441 0 0 0-.093.188c-.019.075-.019.168-.019.281v.469c0 .112 0 .206.019.281.018.075.056.131.093.188a.363.363 0 0 0 .17.094c.074.018.168.037.28.037h2.064c.056 0 .094.038.094.094v.45c0 .056-.038.094-.094.094h-2.138c-.244 0-.45-.019-.6-.056-.17-.038-.3-.094-.395-.188a.785.785 0 0 1-.206-.338 1.835 1.835 0 0 1-.056-.487v-.788c0-.188.019-.356.056-.488a.785.785 0 0 1 .206-.337c.094-.094.226-.15.394-.188a2.72 2.72 0 0 1 .6-.056h2.139v-.019zM52.195 36.166c.244 0 .432.019.6.056.17.038.3.113.395.188a.784.784 0 0 1 .206.338c.037.13.056.3.056.487v1.407c0 .094 0 .15-.019.206-.018.056-.037.094-.056.132a.392.392 0 0 1-.113.075c-.056.018-.112.018-.187.018h-2.532c-.15 0-.282-.019-.394-.037a.593.593 0 0 1-.244-.132.45.45 0 0 1-.131-.225 1.68 1.68 0 0 1-.038-.337v-.263c0-.112.019-.206.038-.3a.45.45 0 0 1 .131-.225.512.512 0 0 1 .244-.131c.112-.038.244-.038.394-.038h2.157v-.094c0-.093 0-.15-.019-.225a.41.41 0 0 0-.094-.15c-.037-.037-.093-.056-.169-.075-.075-.019-.168-.019-.28-.019h-2.233c-.056 0-.094-.037-.094-.093v-.45c0-.057.038-.094.094-.094h2.288v-.019zm.357 2.326c.056 0 .094-.019.112-.038.02-.018.038-.075.038-.15v-.469h-1.95c-.113 0-.188.02-.226.075a.286.286 0 0 0-.075.188v.113c0 .093.019.168.075.206.038.037.113.075.225.075h1.8zM54.39 36.166v-.694c0-.075.037-.113.112-.113h.525c.075 0 .112.038.112.113v.694h.938c.057 0 .094.037.094.094v.431c0 .056-.037.094-.094.094h-.938v1.238c0 .15.038.262.094.319.057.075.188.112.357.112h.525c.056 0 .094.038.094.094v.431c0 .057-.038.094-.094.094h-.638c-.206 0-.394-.019-.525-.056a.75.75 0 0 1-.338-.188c-.075-.093-.15-.187-.168-.337a1.835 1.835 0 0 1-.057-.488v-1.238h-.506c-.056 0-.094-.037-.094-.094v-.431c0-.056.038-.094.094-.094h.506v.019zM57.297 35.078c.075 0 .113.038.113.113v.506c0 .075-.038.131-.113.131h-.525c-.075 0-.131-.037-.131-.13v-.507c0-.075.037-.113.13-.113h.526zm0 1.088c.075 0 .113.038.113.131v2.683c0 .075-.038.112-.113.112h-.525c-.075 0-.113-.038-.113-.112v-2.683c0-.075.038-.131.113-.131h.525zM60.804 36.166c.244 0 .431.019.6.056.17.038.3.113.394.188a.784.784 0 0 1 .206.338c.038.13.057.3.057.487v.77c0 .187-.019.355-.056.487a.785.785 0 0 1-.207.338c-.094.093-.225.15-.394.187a2.719 2.719 0 0 1-.6.056h-1.5c-.244 0-.45-.019-.6-.056-.15-.038-.3-.094-.395-.188a.786.786 0 0 1-.206-.337 1.835 1.835 0 0 1-.056-.488v-.75c0-.188.019-.356.056-.488a.786.786 0 0 1 .206-.337c.094-.094.226-.15.394-.188.17-.038.357-.056.6-.056h1.501v-.019zm-2.007 1.707c0 .112 0 .206.019.281.019.075.056.131.094.188a.44.44 0 0 0 .187.094c.075.018.17.037.282.037h1.35c.113 0 .206-.019.281-.037.075-.02.132-.057.188-.094a.44.44 0 0 0 .094-.188c.018-.075.018-.169.018-.281v-.507c0-.112 0-.206-.018-.28-.019-.076-.056-.132-.094-.188a.44.44 0 0 0-.188-.094c-.075-.019-.168-.019-.28-.019h-1.351c-.113 0-.207 0-.282.019-.075.018-.131.056-.187.093a.44.44 0 0 0-.094.188c-.019.075-.019.169-.019.281v.507zM65.474 36.166c.244 0 .432.019.6.056.17.038.3.113.395.188a.784.784 0 0 1 .206.338c.037.13.056.3.056.487v1.726c0 .075-.037.112-.112.112h-.526c-.075 0-.112-.037-.112-.112v-1.538c0-.113 0-.207-.019-.282a.563.563 0 0 0-.075-.187.363.363 0 0 0-.169-.094 1.139 1.139 0 0 0-.281-.038H64.03c-.112 0-.206.02-.281.038a.587.587 0 0 0-.188.094.438.438 0 0 0-.093.187c-.02.075-.02.17-.02.282v1.538c0 .075-.037.112-.112.112h-.525c-.075 0-.131-.037-.131-.112v-1.707c0-.188.018-.356.056-.488a.785.785 0 0 1 .206-.337c.094-.094.225-.15.394-.188.169-.038.357-.056.6-.056h1.538v-.019zM69.77 36.166c.243 0 .431.019.6.056.169.038.3.113.394.188a.784.784 0 0 1 .206.338c.038.13.056.3.056.487v1.407c0 .094 0 .15-.019.206-.018.056-.037.094-.056.132a.39.39 0 0 1-.112.075c-.056.018-.113.018-.188.018H68.12c-.15 0-.281-.019-.394-.037a.593.593 0 0 1-.244-.132.45.45 0 0 1-.131-.225 1.686 1.686 0 0 1-.037-.337v-.263c0-.112.018-.206.037-.3a.45.45 0 0 1 .131-.225.512.512 0 0 1 .244-.131c.113-.038.244-.038.394-.038h2.157v-.094c0-.093 0-.15-.019-.225a.41.41 0 0 0-.094-.15c-.037-.037-.093-.056-.168-.075-.075-.019-.17-.019-.282-.019h-2.25c-.057 0-.094-.037-.094-.093v-.45c0-.057.037-.094.094-.094h2.307v-.019zm.356 2.326c.056 0 .094-.019.112-.038.02-.018.038-.075.038-.15v-.469h-1.95c-.113 0-.188.02-.226.075a.286.286 0 0 0-.075.188v.113c0 .093.019.168.075.206.038.037.113.075.225.075h1.801zM72.245 35.097c.075 0 .113.037.113.112v3.752c0 .075-.038.112-.113.112h-.525c-.075 0-.113-.037-.113-.112v-3.752c0-.075.038-.112.113-.112h.525zM78.886 35.36c.075 0 .131.037.131.112v.525c0 .075-.037.131-.131.131h-1.67v2.851c0 .075-.037.113-.112.113h-.582c-.075 0-.112-.038-.112-.113v-2.85h-1.67c-.074 0-.13-.038-.13-.132v-.525c0-.075.037-.113.13-.113h4.146zM82.073 36.166a2.7 2.7 0 0 1 .45.038.677.677 0 0 1 .282.15c.075.075.112.168.15.262.037.113.037.244.037.413v.506c0 .113-.018.188-.075.244a.402.402 0 0 1-.225.075H80.01v.131c0 .17.037.282.113.357.075.075.243.112.468.112h2.214c.056 0 .093.038.093.094v.45c0 .056-.037.094-.093.094h-2.289c-.243 0-.45-.019-.6-.056-.169-.038-.3-.094-.394-.188a.786.786 0 0 1-.206-.337 1.835 1.835 0 0 1-.056-.488v-.77c0-.187.018-.355.056-.487a.786.786 0 0 1 .206-.337c.094-.094.225-.15.394-.188a2.72 2.72 0 0 1 .6-.056h1.557v-.019zm-2.063 1.2h2.157c.056 0 .094-.037.094-.093v-.207c0-.112-.019-.187-.075-.225-.038-.037-.132-.075-.263-.075h-1.332c-.225 0-.393.038-.468.113-.076.075-.113.187-.113.356v.131zM86.838 36.166c.057 0 .094.038.094.094v.45c0 .056-.037.094-.094.094h-2.063c-.113 0-.206.018-.281.037a.362.362 0 0 0-.17.094.441.441 0 0 0-.093.188c-.019.075-.019.168-.019.281v.469c0 .112 0 .206.02.281.018.075.055.131.093.188a.363.363 0 0 0 .169.094c.075.018.168.037.281.037h2.063c.057 0 .094.038.094.094v.45c0 .056-.037.094-.094.094H84.7c-.244 0-.45-.019-.6-.056-.169-.038-.3-.094-.394-.188a.785.785 0 0 1-.206-.338 1.836 1.836 0 0 1-.057-.487v-.788c0-.188.02-.356.057-.488a.785.785 0 0 1 .206-.337c.094-.094.225-.15.394-.188a2.72 2.72 0 0 1 .6-.056h2.138v-.019zM88.095 35.097c.075 0 .112.037.112.112v.957h1.989c.243 0 .43.019.6.056.168.038.3.113.394.188a.785.785 0 0 1 .206.338c.037.13.056.3.056.487v1.726c0 .075-.037.112-.112.112h-.526c-.075 0-.112-.037-.112-.112v-1.538c0-.113 0-.207-.019-.282a.56.56 0 0 0-.075-.187.363.363 0 0 0-.169-.094 1.133 1.133 0 0 0-.281-.038h-1.95v2.12c0 .075-.038.112-.113.112h-.525c-.075 0-.113-.037-.113-.112v-3.751c0-.075.038-.113.113-.113h.525v.019zM94.903 36.166c.244 0 .432.019.6.056.17.038.3.113.394.188a.784.784 0 0 1 .207.338c.037.13.056.3.056.487v1.726c0 .075-.037.112-.112.112h-.526c-.075 0-.112-.037-.112-.112v-1.538c0-.113 0-.207-.019-.282a.56.56 0 0 0-.075-.187.363.363 0 0 0-.169-.094 1.139 1.139 0 0 0-.281-.038h-1.407c-.112 0-.206.02-.281.038a.587.587 0 0 0-.188.094.439.439 0 0 0-.094.187c-.018.075-.018.17-.018.282v1.538c0 .075-.038.112-.113.112h-.544c-.075 0-.131-.037-.131-.112v-1.707c0-.188.019-.356.056-.488a.786.786 0 0 1 .206-.337c.094-.094.225-.15.394-.188a2.72 2.72 0 0 1 .6-.056h1.557v-.019zM99.556 36.166c.244 0 .431.019.6.056.169.038.3.113.394.188a.777.777 0 0 1 .206.338c.038.13.057.3.057.487v.77c0 .187-.019.355-.057.487a.778.778 0 0 1-.206.338c-.094.093-.225.15-.394.187a2.715 2.715 0 0 1-.6.056h-1.5c-.244 0-.45-.019-.6-.056-.17-.038-.3-.094-.395-.188a.785.785 0 0 1-.206-.337 1.835 1.835 0 0 1-.056-.488v-.75c0-.188.019-.356.056-.488a.785.785 0 0 1 .206-.337c.094-.094.225-.15.394-.188a2.72 2.72 0 0 1 .6-.056h1.501v-.019zm-2.007 1.707c0 .112 0 .206.019.281a.589.589 0 0 0 .094.188.44.44 0 0 0 .187.094c.075.018.169.037.281.037h1.351c.113 0 .206-.019.281-.037a.587.587 0 0 0 .188-.094.442.442 0 0 0 .094-.188c.018-.075.018-.169.018-.281v-.507c0-.112 0-.206-.018-.28a.591.591 0 0 0-.094-.188.44.44 0 0 0-.188-.094c-.075-.019-.168-.019-.281-.019h-1.35c-.113 0-.207 0-.282.019a.589.589 0 0 0-.187.093.44.44 0 0 0-.094.188c-.019.075-.019.169-.019.281v.507zM102.087 35.097c.075 0 .112.037.112.112v3.752c0 .075-.037.112-.112.112h-.525c-.075 0-.113-.037-.113-.112v-3.752c0-.075.038-.112.113-.112h.525zM105.613 36.166c.244 0 .431.019.6.056.169.038.3.113.394.188a.777.777 0 0 1 .206.338c.038.13.056.3.056.487v.77c0 .187-.018.355-.056.487a.778.778 0 0 1-.206.338c-.094.093-.225.15-.394.187a2.717 2.717 0 0 1-.6.056h-1.501a2.6 2.6 0 0 1-.6-.056c-.169-.038-.3-.094-.394-.188a.778.778 0 0 1-.206-.337 1.812 1.812 0 0 1-.057-.488v-.75c0-.188.019-.356.057-.488a.777.777 0 0 1 .206-.337c.094-.094.225-.15.394-.188.169-.038.356-.056.6-.056h1.501v-.019zm-2.007 1.707c0 .112 0 .206.018.281.019.075.057.131.094.188a.445.445 0 0 0 .188.094c.075.018.169.037.281.037h1.351c.112 0 .206-.019.281-.037.075-.02.131-.057.188-.094a.437.437 0 0 0 .093-.188c.019-.075.019-.169.019-.281v-.507c0-.112 0-.206-.019-.28-.018-.076-.056-.132-.093-.188a.445.445 0 0 0-.188-.094c-.075-.019-.169-.019-.281-.019h-1.351c-.112 0-.206 0-.281.019-.075.018-.131.056-.188.093a.449.449 0 0 0-.094.188c-.018.075-.018.169-.018.281v.507zM110.209 36.166c.244 0 .45.019.6.056.169.038.3.113.394.188a.69.69 0 0 1 .207.338c.037.131.056.3.056.487v1.932c0 .188-.019.357-.056.507a.789.789 0 0 1-.207.337c-.094.094-.225.15-.394.188a2.71 2.71 0 0 1-.6.056h-2.513c-.056 0-.094-.037-.094-.094v-.45c0-.056.038-.094.094-.094h2.438c.113 0 .206-.018.281-.037.076-.019.132-.056.188-.094a.437.437 0 0 0 .094-.187c.019-.075.019-.17.019-.282v-.131h-1.989c-.243 0-.45-.019-.6-.056a.967.967 0 0 1-.394-.188.787.787 0 0 1-.206-.338 1.87 1.87 0 0 1-.056-.506v-.563c0-.187.018-.356.056-.506a.787.787 0 0 1 .206-.338c.094-.093.225-.15.394-.187.169-.038.357-.056.6-.056h1.482v.018zm-1.988 1.632c0 .094 0 .169.019.225a.393.393 0 0 0 .094.15.435.435 0 0 0 .187.094c.075.019.169.019.281.019h1.932v-.994c0-.188-.037-.32-.112-.394-.075-.075-.244-.113-.469-.113h-1.351c-.112 0-.206 0-.281.019-.075.019-.131.056-.187.094-.057.037-.076.093-.094.15-.019.056-.019.131-.019.225v.525zM112.778 35.078c.075 0 .112.038.112.113v.506c0 .075-.037.131-.112.131h-.526c-.075 0-.131-.037-.131-.13v-.507c0-.075.038-.113.131-.113h.526zm0 1.088c.075 0 .112.038.112.131v2.683c0 .075-.037.112-.112.112h-.526c-.075 0-.112-.038-.112-.112v-2.683c0-.075.037-.131.112-.131h.526zM116.286 36.166c.188 0 .338.019.45.038a.676.676 0 0 1 .282.15c.075.075.112.168.15.262.037.113.037.244.037.413v.506c0 .113-.019.188-.075.244a.4.4 0 0 1-.225.075h-2.682v.131c0 .17.037.282.112.357.075.075.244.112.469.112h2.214c.056 0 .093.038.093.094v.45c0 .056-.037.094-.093.094h-2.289c-.243 0-.45-.019-.6-.056-.169-.038-.3-.094-.394-.188a.777.777 0 0 1-.206-.337 1.816 1.816 0 0 1-.056-.488v-.77c0-.187.018-.355.056-.487a.777.777 0 0 1 .206-.337c.094-.094.225-.15.394-.188.169-.038.357-.056.6-.056h1.557v-.019zm-2.063 1.2h2.157c.056 0 .094-.037.094-.093v-.207c0-.112-.019-.187-.075-.225-.038-.037-.132-.075-.263-.075h-1.332c-.225 0-.394.038-.469.113-.075.075-.112.187-.112.356v.131zM121.143 36.166c.057 0 .094.038.094.094v.431c0 .057-.037.094-.094.094h-2.4c-.113 0-.188.019-.226.057-.037.037-.056.093-.056.187v.075c0 .075.019.131.056.169.038.037.113.056.226.056h1.8c.3 0 .507.056.638.188.131.131.187.3.187.525v.3c0 .113-.018.225-.037.319a.482.482 0 0 1-.15.225c-.075.056-.15.112-.263.15a1.246 1.246 0 0 1-.394.056h-2.719c-.057 0-.094-.037-.094-.093v-.432c0-.056.037-.094.094-.094h2.532c.112 0 .187-.018.225-.056a.302.302 0 0 0 .075-.206v-.15c0-.075-.019-.132-.075-.17-.056-.037-.113-.055-.225-.055h-1.782c-.3 0-.506-.057-.638-.188-.131-.131-.187-.3-.187-.544v-.225c0-.113.018-.206.037-.3a.482.482 0 0 1 .15-.225.695.695 0 0 1 .263-.15c.112-.038.244-.056.394-.056h2.569v.018z"/></g></svg>