<svg width="243" height="80" viewBox="0 0 243 80" fill="none" xmlns="http://www.w3.org/2000/svg">
<g clip-path="url(#clip0_137_3783)">
<path d="M104.978 -0.0414432C96.5703 -0.0460814 88.1627 -0.0460814 79.7597 -0.0414432C78.1737 -0.0414432 77.223 0.733139 77.1767 2.00865C77.1257 3.33518 78.1273 4.20716 79.7504 4.21644C82.8482 4.23036 85.946 4.26746 89.0438 4.19325C90.1197 4.16542 90.3515 4.50865 90.3469 5.52906C90.3052 13.9381 90.3237 22.3472 90.3283 30.7563C90.3283 32.4168 91.0379 33.261 92.3827 33.2517C93.7136 33.2424 94.4278 32.3751 94.4324 30.7285C94.4371 26.568 94.4324 22.4075 94.4371 18.2471C94.4371 13.9984 94.4742 9.74984 94.4093 5.50123C94.3907 4.42052 94.7339 4.17934 95.7541 4.19789C98.8055 4.26282 101.862 4.22572 104.913 4.21644C106.592 4.2118 107.491 3.43722 107.473 2.04575C107.45 0.672842 106.615 -0.0414432 104.978 -0.0414432Z" fill="#00778B"/>
<path d="M140.069 29.0169C139.716 28.9984 139.359 29.0123 139.007 29.0123C132.153 29.0123 125.294 29.0169 118.44 29.0076C116.492 29.003 115.309 27.8991 115.3 26.0253C115.277 20.0976 115.277 14.17 115.3 8.24233C115.309 6.05309 116.928 4.27665 119.103 4.24882C124.144 4.17925 129.189 4.17925 134.225 4.26274C136.331 4.29984 137.898 6.06237 137.991 8.17739C138.014 8.70615 137.996 9.23955 137.996 9.7683C137.991 12.9037 136.414 14.4761 133.247 14.4807C129.486 14.4854 125.73 14.4668 121.969 14.49C120.689 14.4993 119.724 15.3156 119.701 16.4427C119.678 17.6254 120.188 18.4835 121.5 18.618C125.92 18.618 130.339 18.6134 134.763 18.6134C136.618 18.5438 138.13 17.7275 139.512 16.5447C142.633 13.8685 142.837 8.45569 141.566 5.19038C140.421 2.24975 138.223 0.487227 135.028 0.092978C129.458 -0.106465 123.889 -0.097189 118.319 0.0883398C114.34 0.454759 111.131 3.78036 111.066 7.89446C110.969 14.0865 110.969 20.2831 111.066 26.4705C111.126 30.3017 114.289 33.2331 118.152 33.2702C121.027 33.298 123.903 33.2748 126.778 33.2748C131.202 33.2748 135.621 33.2887 140.045 33.2609C141.376 33.2516 142.244 32.324 142.206 31.0902C142.183 29.9214 141.335 29.0911 140.069 29.0169Z" fill="#00778B"/>
<path d="M242.25 8.19582C242.212 3.56223 238.554 -0.0231116 233.944 -0.0416645C227.178 -0.0694938 220.412 -0.0555791 213.646 -0.0463027C211.782 -0.0463027 211.054 0.644792 211.049 2.50472C211.031 10.3758 210.998 18.2515 211.063 26.1225C211.091 29.898 213.762 32.7877 217.324 33.1448C217.806 33.1819 218.288 33.2468 218.766 33.2468C225.634 33.2515 232.497 33.2515 239.365 33.2468C239.801 33.2468 240.237 33.1726 240.673 33.1355C241.879 32.8619 242.263 31.9899 242.263 30.8813C242.273 23.3211 242.314 15.7608 242.25 8.19582ZM215.283 25.6123C215.269 22.2496 215.278 18.8916 215.278 15.5288C215.278 12.1244 215.302 8.71993 215.26 5.31548C215.251 4.46205 215.478 4.18839 216.373 4.19303C222.207 4.23478 228.045 4.20231 233.879 4.22086C236.239 4.23014 238.02 5.95555 238.03 8.30713C238.062 14.8517 238.025 21.3962 238.062 27.9407C238.067 28.8637 237.719 29.0307 236.903 29.0261C230.8 28.9982 224.702 29.0214 218.599 29.0075C216.401 29.0029 215.292 27.8619 215.283 25.6123Z" fill="#00778B"/>
<path d="M205.145 29.0122C199.617 29.0122 194.085 29.0168 188.557 29.0075C185.561 29.0029 183.896 27.3285 183.896 24.3044C183.892 18.1123 183.924 11.9157 183.868 5.72366C183.859 4.527 184.142 4.1745 185.38 4.18378C191.882 4.24871 198.384 4.20233 204.89 4.22552C206.077 4.23016 206.991 3.88229 207.389 2.69955C207.895 1.20604 206.805 -0.0416402 204.983 -0.0462784C197.637 -0.0509166 190.296 -0.0462784 182.95 -0.0462784C180.261 -0.0462784 179.672 0.528861 179.672 3.1912C179.667 9.91661 179.662 16.642 179.676 23.3674C179.676 24.3368 179.741 25.3109 179.857 26.2756C180.298 29.8609 183.46 32.8712 187.045 33.1494C191.158 33.3906 195.272 33.2237 199.385 33.2422C201.551 33.2515 203.721 33.386 205.882 33.1448C207.158 32.8526 207.626 31.9481 207.436 30.7747C207.241 29.5548 206.36 29.0122 205.145 29.0122Z" fill="#00778B"/>
<path d="M173.625 -0.0415192C165.222 -0.0507957 156.823 -0.0461575 148.421 -0.0415192C146.76 -0.0415192 145.81 0.774807 145.847 2.12453C145.884 3.42787 146.816 4.20709 148.388 4.21173C151.393 4.221 154.403 4.27202 157.408 4.1839C158.609 4.14679 158.938 4.46219 158.929 5.69132C158.869 14.0494 158.906 22.4121 158.892 30.7702C158.887 31.9715 159.263 32.8991 160.501 33.1681C161.6 33.4093 162.514 33.0754 162.898 31.8741C163.274 31.3592 163.121 30.7655 163.121 30.2089C163.13 21.939 163.14 13.6691 163.107 5.39447C163.103 4.49002 163.311 4.17462 164.271 4.19318C167.364 4.25347 170.462 4.221 173.555 4.21173C175.215 4.20709 176.157 3.40932 176.134 2.04568C176.115 0.733063 175.211 -0.0415192 173.625 -0.0415192Z" fill="#00778B"/>
<path d="M56.5954 -0.0277255H45.0761C44.028 -0.0277255 42.9707 -0.0741077 41.9226 -0.0277255C40.3691 0.0372095 38.9037 0.579881 37.5078 1.23387C33.8257 2.96393 30.7233 5.93702 28.0522 8.94259H31.2288C29.3228 7.27747 27.4679 5.51958 25.4923 3.93331C23.6281 2.43517 21.3789 1.43331 19.0417 0.9463C15.406 0.190271 11.6729 0.672645 7.99076 0.681922C6.11262 0.68656 4.22519 0.672645 2.35168 0.533499C1.13668 0.440734 0.102539 1.63739 0.102539 2.7784V27.2079V30.6402C0.102539 31.8554 1.13204 32.8851 2.34704 32.8851H12.7812H15.2576C15.457 32.8851 15.6564 32.8804 15.8558 32.8851C15.8975 32.8851 15.9439 32.8851 15.9856 32.8851C16.0413 32.8851 16.1016 32.8897 16.1572 32.8897C16.6627 32.9083 15.8651 32.8201 16.2732 32.9036C19.371 33.5437 21.7731 35.3387 24.0501 37.4908C25.0332 38.4185 26.0117 39.3461 26.9948 40.2691C27.3983 40.6494 27.8296 41.1504 28.3119 41.4333C30.3013 42.5975 32.3464 39.912 33.6449 38.7153C34.9248 37.5372 36.2465 36.3869 37.4893 35.1671C37.5867 35.0697 37.6748 34.9676 37.7722 34.8702C37.8974 34.7496 38.0226 34.629 38.1478 34.5131C38.2174 34.4528 38.8202 33.9704 38.5744 34.1467C39.6689 33.3443 40.8375 32.7738 42.2194 32.8526C47.0099 33.1309 51.7818 33.27 56.5861 33.219C59.4752 33.1866 59.4845 28.6968 56.5861 28.7246C52.2131 28.771 47.7936 28.8359 43.4344 28.4741C41.8855 28.3443 40.4248 28.3257 38.9362 28.8776C37.48 29.4203 36.1955 30.2459 35.0361 31.271C34.0808 32.1151 33.1765 33.0289 32.2397 33.8916C30.7929 35.2274 29.346 36.5585 27.8991 37.8943C28.4278 37.6763 28.9565 37.4537 29.4898 37.2357H29.448C29.9767 37.4537 30.5054 37.6763 31.0387 37.8943C27.0783 34.1884 23.322 29.963 17.836 28.6457C16.4633 28.3164 15.0906 28.3814 13.6948 28.3814H6.98445H2.34704C3.09366 29.1281 3.84492 29.8795 4.59155 30.6263V6.21068V2.7784C3.84492 3.52515 3.09366 4.27654 2.34704 5.02329C3.72435 5.12533 5.1063 5.15316 6.48361 5.16708C8.06032 5.18563 9.6324 5.16708 11.2091 5.12533C13.0826 5.07431 14.984 4.87487 16.8528 5.11142C19.1066 5.38971 20.6787 6.03906 22.4595 7.23109C22.8676 7.50474 22.4456 7.21253 22.4456 7.21717C22.5244 7.29138 22.6125 7.35168 22.6913 7.42589C22.7702 7.5001 22.849 7.57431 22.9278 7.64853C23.2803 7.96392 23.642 8.27005 23.9991 8.58545C25.3486 9.76355 26.6981 10.9463 28.0522 12.1244C28.924 12.8851 30.3802 13.0799 31.2288 12.1244C33.5289 9.53628 36.0656 7.04556 39.1541 5.42682C39.386 5.30623 39.6225 5.19491 39.8544 5.07895C40.3738 4.82385 39.6086 5.14389 40.1048 4.96764C40.4711 4.83777 40.8329 4.70326 41.2085 4.60122C41.445 4.53628 41.7372 4.527 41.9644 4.43888C41.8948 4.46671 41.3801 4.46207 41.8995 4.46671C45.1688 4.49454 48.4382 4.46671 51.7076 4.46671H56.5908C59.4891 4.46207 59.4938 -0.0277255 56.5954 -0.0277255Z" fill="#00778B"/>
<path d="M41.2086 21.4285H54.2351C57.1242 21.4285 57.1288 16.9341 54.2351 16.9341H41.2086C38.3195 16.9341 38.3149 21.4285 41.2086 21.4285Z" fill="#DD5354"/>
<path d="M45.1412 12.8895H58.1677C61.0568 12.8895 61.0614 8.39502 58.1677 8.39502H45.1412C42.2521 8.39502 42.2475 12.8895 45.1412 12.8895Z" fill="#279B6F"/>
<path d="M61.5385 21.4288H64.6826C65.8559 21.4288 66.9828 20.3944 66.9271 19.1839C66.8715 17.9686 65.9394 16.939 64.6826 16.939H61.5385C60.3652 16.939 59.2383 17.9733 59.294 19.1839C59.3496 20.3991 60.2817 21.4288 61.5385 21.4288Z" fill="#DD5354"/>
<path d="M63.5611 33.2234H69.6269C72.516 33.2234 72.5206 28.729 69.6269 28.729H63.5611C60.672 28.729 60.6674 33.2234 63.5611 33.2234Z" fill="#279B6F"/>
<path d="M9.69768 59.6662C9.31741 59.6662 8.98815 59.592 8.70527 59.4389C8.42703 59.2905 8.19979 59.0354 8.02821 58.6736V58.6458C7.83808 59.0261 7.55983 59.323 7.19811 59.541C6.83176 59.7543 6.37729 59.8656 5.82544 59.8656C5.35706 59.8656 4.87941 59.7868 4.40176 59.6245C3.92411 59.4621 3.42791 59.1931 2.91779 58.8128C2.64882 58.8731 2.43086 58.9566 2.27319 59.0586C2.11552 59.1653 1.99495 59.3044 1.91147 59.4807C1.83264 59.6569 1.78163 59.8749 1.76308 60.1439C1.74453 60.4083 1.73525 60.733 1.73525 61.1133V65.6773H0.478516V61.0762C0.478516 60.566 0.50634 60.1254 0.561989 59.7543C0.617638 59.3833 0.724298 59.0586 0.877332 58.7849C1.03037 58.5113 1.24832 58.2701 1.52193 58.0707C1.79554 57.8712 2.15262 57.695 2.59317 57.5419C2.71374 56.8694 2.8946 56.3081 3.14039 55.8582C3.38617 55.4083 3.6505 55.0465 3.94266 54.7775C4.23018 54.5085 4.53624 54.3183 4.85159 54.207C5.16693 54.0957 5.45909 54.04 5.72806 54.04C6.10832 54.04 6.45613 54.1143 6.77611 54.258C7.09609 54.4018 7.37434 54.6105 7.60621 54.8749C7.84271 55.1393 8.02357 55.4593 8.16269 55.8258C8.29718 56.1922 8.36674 56.6003 8.36674 57.0549C8.36674 57.1245 8.3621 57.194 8.35747 57.259C8.35283 57.3239 8.34819 57.3888 8.34819 57.4491C8.45021 57.7692 8.59397 58.015 8.79338 58.1773C8.98815 58.3443 9.28958 58.4278 9.70231 58.4278C10.1011 58.4278 10.3052 58.6272 10.3052 59.0308C10.3052 59.2812 10.2588 59.4528 10.1614 59.541C10.0594 59.6198 9.90636 59.6662 9.69768 59.6662ZM7.12855 57.0085C7.12855 56.7905 7.09609 56.5725 7.03117 56.3638C6.96624 56.1551 6.86886 55.9695 6.74365 55.8072C6.61844 55.6449 6.4654 55.5196 6.28455 55.4222C6.10369 55.3248 5.895 55.2784 5.65386 55.2784C5.23186 55.2784 4.8284 55.4733 4.43886 55.8629C4.04932 56.2525 3.73861 56.8925 3.50674 57.7831C3.87773 58.0243 4.24409 58.2144 4.61044 58.3629C4.9768 58.5066 5.34779 58.5809 5.72806 58.5809C6.15006 58.5809 6.48859 58.4603 6.74365 58.2191C7.00334 57.9872 7.12855 57.579 7.12855 57.0085Z" fill="#00778B"/>
<path d="M9.71126 59.6661C9.31244 59.6661 9.1084 59.4667 9.1084 59.0632C9.1084 58.8127 9.15477 58.6411 9.25216 58.553C9.34954 58.4648 9.49794 58.4185 9.71126 58.4185H11.9326C12.3314 58.4185 12.5354 58.6179 12.5354 59.0214C12.5354 59.2719 12.4891 59.4435 12.3917 59.5316C12.2943 59.6198 12.1459 59.6661 11.9326 59.6661H9.71126Z" fill="#00778B"/>
<path d="M11.9329 59.6661C11.5341 59.6661 11.3301 59.4667 11.3301 59.0632C11.3301 58.8127 11.3765 58.6411 11.4738 58.553C11.5712 58.4648 11.7196 58.4185 11.9329 58.4185H14.1543C14.5531 58.4185 14.7571 58.6179 14.7571 59.0214C14.7571 59.2719 14.7107 59.4435 14.6134 59.5316C14.516 59.6198 14.3676 59.6661 14.1543 59.6661H11.9329Z" fill="#00778B"/>
<path d="M14.1585 59.6661C13.7597 59.6661 13.5557 59.4667 13.5557 59.0632C13.5557 58.8127 13.602 58.6411 13.6994 58.553C13.7968 58.4648 13.9452 58.4185 14.1585 58.4185H16.3798C16.7787 58.4185 16.9827 58.6179 16.9827 59.0214C16.9827 59.2719 16.9363 59.4435 16.8389 59.5316C16.7416 59.6198 16.5932 59.6661 16.3798 59.6661H14.1585Z" fill="#00778B"/>
<path d="M16.3802 59.6661C15.9814 59.6661 15.7773 59.4667 15.7773 59.0632C15.7773 58.8127 15.8237 58.6411 15.9211 58.553C16.0185 58.4648 16.1669 58.4185 16.3802 58.4185H18.6015C19.0003 58.4185 19.2044 58.6179 19.2044 59.0214C19.2044 59.2719 19.158 59.4435 19.0606 59.5316C18.9632 59.6198 18.8148 59.6661 18.6015 59.6661H16.3802Z" fill="#00778B"/>
<path d="M18.6009 59.6661C18.2021 59.6661 17.998 59.4667 17.998 59.0632C17.998 58.8127 18.0444 58.6411 18.1418 58.553C18.2392 58.4648 18.3876 58.4185 18.6009 58.4185H20.8222C21.221 58.4185 21.4251 58.6179 21.4251 59.0214C21.4251 59.2719 21.3787 59.4435 21.2813 59.5316C21.1839 59.6198 21.0355 59.6661 20.8222 59.6661H18.6009Z" fill="#00778B"/>
<path d="M20.8226 59.6661C20.4238 59.6661 20.2197 59.4667 20.2197 59.0632C20.2197 58.8127 20.2661 58.6411 20.3635 58.553C20.4609 58.4648 20.6093 58.4185 20.8226 58.4185H23.0485C23.4474 58.4185 23.6514 58.6179 23.6514 59.0214C23.6514 59.2719 23.605 59.4435 23.5076 59.5316C23.4103 59.6198 23.2619 59.6661 23.0485 59.6661H20.8226Z" fill="#00778B"/>
<path d="M23.0433 59.6661C22.6445 59.6661 22.4404 59.4667 22.4404 59.0632C22.4404 58.8127 22.4868 58.6411 22.5842 58.553C22.6816 58.4648 22.83 58.4185 23.0433 58.4185H25.2646C25.6634 58.4185 25.8675 58.6179 25.8675 59.0214C25.8675 59.2719 25.8211 59.4435 25.7237 59.5316C25.6263 59.6198 25.4779 59.6661 25.2646 59.6661H23.0433Z" fill="#00778B"/>
<path d="M25.2699 59.6661C24.871 59.6661 24.667 59.4667 24.667 59.0632C24.667 58.8127 24.7134 58.6411 24.8108 58.553C24.9081 58.4648 25.0565 58.4185 25.2699 58.4185H27.4912C27.89 58.4185 28.094 58.6179 28.094 59.0214C28.094 59.2719 28.0477 59.4435 27.9503 59.5316C27.8529 59.6198 27.7045 59.6661 27.4912 59.6661H25.2699Z" fill="#00778B"/>
<path d="M27.4906 59.6661C27.0917 59.6661 26.8877 59.4667 26.8877 59.0632C26.8877 58.8127 26.9341 58.6411 27.0315 58.553C27.1288 58.4648 27.2772 58.4185 27.4906 58.4185H29.7119C30.1107 58.4185 30.3147 58.6179 30.3147 59.0214C30.3147 59.2719 30.2684 59.4435 30.171 59.5316C30.0736 59.6198 29.9252 59.6661 29.7119 59.6661H27.4906Z" fill="#00778B"/>
<path d="M29.7122 59.6661C29.3134 59.6661 29.1094 59.4667 29.1094 59.0632C29.1094 58.8127 29.1557 58.6411 29.2531 58.553C29.3505 58.4648 29.4989 58.4185 29.7122 58.4185H31.9336C32.3324 58.4185 32.5364 58.6179 32.5364 59.0214C32.5364 59.2719 32.49 59.4435 32.3927 59.5316C32.2953 59.6198 32.1469 59.6661 31.9336 59.6661H29.7122Z" fill="#00778B"/>
<path d="M31.9339 59.6661C31.5351 59.6661 31.3311 59.4667 31.3311 59.0632C31.3311 58.8127 31.3774 58.6411 31.4748 58.553C31.5722 58.4648 31.7206 58.4185 31.9339 58.4185H34.1552C34.5541 58.4185 34.7581 58.6179 34.7581 59.0214C34.7581 59.2719 34.7117 59.4435 34.6143 59.5316C34.517 59.6198 34.3686 59.6661 34.1552 59.6661H31.9339Z" fill="#00778B"/>
<path d="M34.1595 59.6661C33.7607 59.6661 33.5566 59.4667 33.5566 59.0632C33.5566 58.8127 33.603 58.6411 33.7004 58.553C33.7978 58.4648 33.9462 58.4185 34.1595 58.4185H36.3808C36.7796 58.4185 36.9837 58.6179 36.9837 59.0214C36.9837 59.2719 36.9373 59.4435 36.8399 59.5316C36.7425 59.6198 36.5941 59.6661 36.3808 59.6661H34.1595Z" fill="#00778B"/>
<path d="M36.3812 59.6661C35.9824 59.6661 35.7783 59.4667 35.7783 59.0632C35.7783 58.8127 35.8247 58.6411 35.9221 58.553C36.0195 58.4648 36.1679 58.4185 36.3812 58.4185H38.6025C39.0013 58.4185 39.2054 58.6179 39.2054 59.0214C39.2054 59.2719 39.159 59.4435 39.0616 59.5316C38.9642 59.6198 38.8158 59.6661 38.6025 59.6661H36.3812Z" fill="#00778B"/>
<path d="M38.6019 59.6661C38.2031 59.6661 37.999 59.4667 37.999 59.0632C37.999 58.8127 38.0454 58.6411 38.1428 58.553C38.2402 58.4648 38.3886 58.4185 38.6019 58.4185H40.8232C41.222 58.4185 41.4261 58.6179 41.4261 59.0214C41.4261 59.2719 41.3797 59.4435 41.2823 59.5316C41.1849 59.6198 41.0365 59.6661 40.8232 59.6661H38.6019Z" fill="#00778B"/>
<path d="M40.8236 59.6661C40.4247 59.6661 40.2207 59.4667 40.2207 59.0632C40.2207 58.8127 40.2671 58.6411 40.3645 58.553C40.4619 58.4648 40.6102 58.4185 40.8236 58.4185H43.0449C43.4437 58.4185 43.6478 58.6179 43.6478 59.0214C43.6478 59.2719 43.6014 59.4435 43.504 59.5316C43.4066 59.6198 43.2582 59.6661 43.0449 59.6661H40.8236Z" fill="#00778B"/>
<path d="M43.0492 59.6661C42.6503 59.6661 42.4463 59.4667 42.4463 59.0632C42.4463 58.8127 42.4927 58.6411 42.5901 58.553C42.6874 58.4648 42.8358 58.4185 43.0492 58.4185H45.2705C45.6693 58.4185 45.8733 58.6179 45.8733 59.0214C45.8733 59.2719 45.827 59.4435 45.7296 59.5316C45.6322 59.6198 45.4838 59.6661 45.2705 59.6661H43.0492Z" fill="#00778B"/>
<path d="M45.2708 59.6661C44.872 59.6661 44.668 59.4667 44.668 59.0632C44.668 58.8127 44.7143 58.6411 44.8117 58.553C44.9091 58.4648 45.0575 58.4185 45.2708 58.4185H47.4922C47.891 58.4185 48.095 58.6179 48.095 59.0214C48.095 59.2719 48.0487 59.4435 47.9513 59.5316C47.8539 59.6198 47.7055 59.6661 47.4922 59.6661H45.2708Z" fill="#00778B"/>
<path d="M47.4925 59.6661C47.0937 59.6661 46.8896 59.4667 46.8896 59.0632C46.8896 58.8127 46.936 58.6411 47.0334 58.553C47.1308 58.4648 47.2792 58.4185 47.4925 58.4185H49.7138C50.1126 58.4185 50.3167 58.6179 50.3167 59.0214C50.3167 59.2719 50.2703 59.4435 50.1729 59.5316C50.0755 59.6198 49.9271 59.6661 49.7138 59.6661H47.4925Z" fill="#00778B"/>
<path d="M49.7132 59.6662C49.3144 59.6662 49.1104 59.4667 49.1104 59.0632C49.1104 58.8128 49.1567 58.6411 49.2541 58.553C49.3515 58.4649 49.4999 58.4185 49.7132 58.4185H50.7195C50.9607 58.4185 51.1647 58.4092 51.3363 58.3907C51.5079 58.3721 51.647 58.3211 51.7629 58.2469C51.8789 58.1727 51.9624 58.0614 52.018 57.9176C52.0737 57.7738 52.1015 57.5743 52.1015 57.3239V53.8823H53.335V56.7673C53.335 57.0178 53.3536 57.245 53.386 57.4491C53.4231 57.6532 53.4881 57.8295 53.5901 57.9686C53.6921 58.1077 53.8266 58.2191 53.9935 58.2979C54.1651 58.3768 54.3784 58.4185 54.6381 58.4185C55.037 58.4185 55.241 58.6179 55.241 59.0215C55.241 59.2719 55.1946 59.4436 55.0972 59.5317C54.9999 59.6198 54.8515 59.6662 54.6381 59.6662C54.2486 59.6662 53.9333 59.5734 53.6921 59.3879C53.451 59.2024 53.2933 58.9705 53.2098 58.6875C53.029 59.1003 52.7461 59.3647 52.3612 59.4853C51.9763 59.6059 51.5033 59.6662 50.9421 59.6662H49.7132ZM50.9004 61.9343C50.9004 61.7116 50.9792 61.5261 51.1323 61.373C51.2853 61.22 51.4754 61.1411 51.6934 61.1411C51.9113 61.1411 52.1015 61.22 52.2545 61.373C52.4075 61.5261 52.4864 61.7163 52.4864 61.9343C52.4864 62.1523 52.4075 62.3424 52.2545 62.4955C52.0968 62.6486 51.9113 62.7274 51.6934 62.7274C51.4708 62.7274 51.2853 62.6486 51.1323 62.4955C50.9792 62.3424 50.9004 62.1569 50.9004 61.9343ZM52.8527 61.9343C52.8527 61.7116 52.9316 61.5261 53.0846 61.373C53.2376 61.22 53.4278 61.1411 53.6457 61.1411C53.8637 61.1411 54.0538 61.22 54.2069 61.373C54.3599 61.5261 54.4387 61.7163 54.4387 61.9343C54.4387 62.1523 54.3599 62.3424 54.2069 62.4955C54.0492 62.6486 53.8637 62.7274 53.6457 62.7274C53.4231 62.7274 53.2376 62.6486 53.0846 62.4955C52.9316 62.3424 52.8527 62.1569 52.8527 61.9343Z" fill="#00778B"/>
<path d="M54.638 59.6661C54.2392 59.6661 54.0352 59.4667 54.0352 59.0632C54.0352 58.8127 54.0815 58.6411 54.1789 58.553C54.2763 58.4648 54.4247 58.4185 54.638 58.4185H56.8593C57.2582 58.4185 57.4622 58.6179 57.4622 59.0214C57.4622 59.2719 57.4158 59.4435 57.3185 59.5316C57.2211 59.6198 57.0727 59.6661 56.8593 59.6661H54.638Z" fill="#00778B"/>
<path d="M56.8646 59.666C56.4658 59.666 56.2617 59.4665 56.2617 59.063C56.2617 58.8125 56.3081 58.6409 56.4055 58.5528C56.5029 58.4647 56.6513 58.4183 56.8646 58.4183H58.0657C58.2465 58.4183 58.4042 58.409 58.548 58.3904C58.6871 58.3719 58.8077 58.3209 58.9004 58.2467C58.9932 58.1724 59.072 58.0611 59.1276 57.9173C59.1833 57.7736 59.2111 57.5741 59.2111 57.3237V48.9424H60.4447V56.7671C60.4447 57.2773 60.5467 57.6808 60.7507 57.9776C60.9548 58.2745 61.284 58.4229 61.7339 58.4229C62.1327 58.4229 62.3367 58.6224 62.3367 59.0259C62.3367 59.2763 62.2903 59.448 62.193 59.5361C62.0956 59.6242 61.9472 59.6706 61.7339 59.6706C61.3443 59.6706 61.029 59.5778 60.7971 59.3923C60.5606 59.2068 60.4029 58.9749 60.3241 58.6919C60.1432 59.1047 59.8557 59.3691 59.4615 59.4897C59.0673 59.6103 58.5572 59.6706 57.9358 59.6706H56.8646V59.666Z" fill="#00778B"/>
<path d="M61.7288 59.6661C61.33 59.6661 61.126 59.4667 61.126 59.0632C61.126 58.8127 61.1723 58.6411 61.2697 58.553C61.3671 58.4648 61.5155 58.4185 61.7288 58.4185H63.9502C64.349 58.4185 64.5531 58.6179 64.5531 59.0214C64.5531 59.2719 64.5067 59.4435 64.4093 59.5316C64.3119 59.6198 64.1635 59.6661 63.9502 59.6661H61.7288Z" fill="#00778B"/>
<path d="M63.9642 59.6662C63.5654 59.6662 63.3613 59.4667 63.3613 59.0632C63.3613 58.8127 63.4077 58.6411 63.5051 58.553C63.6025 58.4649 63.7509 58.4185 63.9642 58.4185H64.6413C65.0215 58.4185 65.3971 58.3953 65.7681 58.3443C66.1391 58.2933 66.4962 58.2144 66.8347 58.1031L64.9566 55.9695C64.9844 55.8582 65.0262 55.7422 65.0679 55.6263C65.1143 55.5057 65.1606 55.3897 65.2163 55.2738C65.2719 55.1578 65.3276 55.0558 65.3832 54.9584C65.4389 54.8656 65.4945 54.7868 65.5548 54.7265C65.8748 54.4064 66.2643 54.1513 66.7188 53.9612C67.1733 53.771 67.6648 53.6782 68.1981 53.6782C68.6387 53.6782 69.0236 53.7292 69.3482 53.8359C69.6728 53.9426 69.9418 54.0817 70.1598 54.258C70.3731 54.4343 70.5354 54.6337 70.6421 54.861C70.7487 55.0882 70.7997 55.3155 70.7997 55.5428C70.7997 56.0947 70.6421 56.6096 70.3267 57.092C70.0114 57.5743 69.5894 57.9964 69.0561 58.3675C69.2462 58.4092 69.4966 58.4278 69.8073 58.4278H71.9081C72.3069 58.4278 72.5109 58.6272 72.5109 59.0307C72.5109 59.2812 72.4646 59.4528 72.3672 59.5409C72.2698 59.6291 72.1214 59.6755 71.9081 59.6755H69.3992C69.1071 59.6755 68.8288 59.6383 68.5645 59.5641C68.3002 59.4899 68.0219 59.3276 67.7298 59.0771C67.2567 59.2673 66.7698 59.4157 66.2597 59.5224C65.7496 59.6291 65.2302 59.6801 64.6969 59.6801H63.9642V59.6662ZM68.11 54.8471C67.7112 54.8471 67.3309 54.9259 66.9739 55.0882C66.6168 55.2506 66.3339 55.4593 66.1252 55.719L67.957 57.6578C68.4393 57.4166 68.8242 57.1337 69.121 56.7997C69.4178 56.4704 69.5662 56.1179 69.5662 55.7469C69.5662 55.515 69.4502 55.3109 69.2137 55.1253C68.9772 54.9398 68.6109 54.8471 68.11 54.8471Z" fill="#00778B"/>
<path d="M71.8939 59.6661C71.4951 59.6661 71.291 59.4667 71.291 59.0631C71.291 58.8127 71.3374 58.6411 71.4348 58.5529C71.5322 58.4648 71.6806 58.4184 71.8939 58.4184H72.9002C73.1413 58.4184 73.3454 58.4092 73.517 58.3906C73.6886 58.372 73.8277 58.321 73.9436 58.2468C74.0595 58.1726 74.143 58.0613 74.1987 57.9175C74.2543 57.7737 74.2821 57.5743 74.2821 57.3238V53.8822H75.5157V56.7672C75.5157 57.0177 75.5342 57.245 75.5667 57.449C75.6038 57.6531 75.6687 57.8294 75.7707 57.9685C75.8728 58.1077 76.0072 58.219 76.1742 58.2978C76.3458 58.3767 76.5591 58.4184 76.8188 58.4184C77.2176 58.4184 77.4217 58.6179 77.4217 59.0214C77.4217 59.2719 77.3753 59.4435 77.2779 59.5316C77.1805 59.6197 77.0321 59.6661 76.8188 59.6661C76.4293 59.6661 76.1139 59.5733 75.8728 59.3878C75.6316 59.2023 75.4739 58.9704 75.3905 58.6874C75.2096 59.1002 74.9267 59.3646 74.5418 59.4852C74.1569 59.6058 73.6839 59.6661 73.1228 59.6661H71.8939ZM73.0811 51.3591C73.0811 51.1411 73.1599 50.9509 73.3129 50.7978C73.466 50.6448 73.6561 50.5659 73.874 50.5659C74.092 50.5659 74.2821 50.6448 74.4352 50.7978C74.5882 50.9555 74.667 51.1411 74.667 51.3591C74.667 51.5817 74.5882 51.7672 74.4352 51.9203C74.2775 52.078 74.092 52.1522 73.874 52.1522C73.6514 52.1522 73.466 52.0733 73.3129 51.9203C73.1552 51.7672 73.0811 51.5817 73.0811 51.3591ZM75.0334 51.3591C75.0334 51.1411 75.1122 50.9509 75.2653 50.7978C75.4183 50.6448 75.6084 50.5659 75.8264 50.5659C76.0443 50.5659 76.2345 50.6448 76.3875 50.7978C76.5405 50.9555 76.6194 51.1411 76.6194 51.3591C76.6194 51.5817 76.5405 51.7672 76.3875 51.9203C76.2298 52.078 76.0443 52.1522 75.8264 52.1522C75.6038 52.1522 75.4183 52.0733 75.2653 51.9203C75.1076 51.7672 75.0334 51.5817 75.0334 51.3591Z" fill="#00778B"/>
<path d="M76.8187 59.6659C76.4199 59.6659 76.2158 59.4665 76.2158 59.063C76.2158 58.8125 76.2622 58.6409 76.3596 58.5528C76.457 58.4646 76.6054 58.4183 76.8187 58.4183H79.1606V48.9424H80.3941V59.6659H76.8187Z" fill="#00778B"/>
<path d="M83.7287 48.9424H82.4951V59.6659H83.7287V48.9424Z" fill="#00778B"/>
<path d="M101.087 59.6662H91.9882C91.4085 59.6662 90.9262 59.6244 90.5413 59.5456C90.1564 59.4667 89.8457 59.3369 89.6092 59.1606C89.3727 58.9844 89.2057 58.7617 89.1084 58.4834C89.0063 58.2098 88.96 57.8712 88.96 57.4677V55.1393H90.1935V57.0178C90.1935 57.3285 90.2306 57.5743 90.3048 57.7599C90.379 57.9454 90.5089 58.0846 90.6897 58.182C90.8706 58.2794 91.1164 58.3397 91.4271 58.3675C91.7378 58.3953 92.1319 58.4139 92.6142 58.4139H99.8671V53.8777H101.101V59.6662H101.087ZM93.3377 52.2497C93.3377 52.0317 93.4165 51.8415 93.5695 51.6885C93.7226 51.5354 93.9127 51.4565 94.1307 51.4565C94.3486 51.4565 94.5388 51.5354 94.6918 51.6885C94.8448 51.8462 94.9237 52.0317 94.9237 52.2497C94.9237 52.4723 94.8448 52.6578 94.6918 52.8109C94.5388 52.964 94.3486 53.0428 94.1307 53.0428C93.9081 53.0428 93.7226 52.964 93.5695 52.8109C93.4165 52.6578 93.3377 52.4677 93.3377 52.2497ZM95.29 52.2497C95.29 52.0317 95.3689 51.8415 95.5219 51.6885C95.6749 51.5354 95.8651 51.4565 96.083 51.4565C96.301 51.4565 96.4911 51.5354 96.6441 51.6885C96.7972 51.8462 96.876 52.0317 96.876 52.2497C96.876 52.4723 96.7972 52.6578 96.6441 52.8109C96.4865 52.964 96.301 53.0428 96.083 53.0428C95.8604 53.0428 95.6749 52.964 95.5219 52.8109C95.3689 52.6578 95.29 52.4677 95.29 52.2497Z" fill="#00778B"/>
<path d="M106.327 59.0212C106.327 59.2717 106.281 59.4433 106.183 59.5314C106.086 59.6196 105.937 59.6659 105.724 59.6659H105.335C105.015 59.6659 104.722 59.6335 104.458 59.5685C104.194 59.5036 103.967 59.3923 103.781 59.2299C103.596 59.0676 103.452 58.8589 103.345 58.5899C103.239 58.3255 103.188 57.9915 103.188 57.5927V48.9424H104.421V57.2633C104.421 57.6854 104.486 57.9823 104.616 58.1585C104.746 58.3348 105.038 58.4229 105.488 58.4229H105.729C106.128 58.4183 106.327 58.6223 106.327 59.0212Z" fill="#00778B"/>
<path d="M105.724 59.6661C105.325 59.6661 105.121 59.4667 105.121 59.0632C105.121 58.8127 105.167 58.6411 105.265 58.553C105.362 58.4648 105.511 58.4185 105.724 58.4185H107.945C108.344 58.4185 108.548 58.6179 108.548 59.0214C108.548 59.2719 108.502 59.4435 108.404 59.5316C108.307 59.6198 108.159 59.6661 107.945 59.6661H105.724Z" fill="#00778B"/>
<path d="M107.95 59.6661C107.551 59.6661 107.347 59.4667 107.347 59.0632C107.347 58.8127 107.393 58.6411 107.49 58.553C107.588 58.4648 107.736 58.4185 107.95 58.4185H110.171C110.57 58.4185 110.774 58.6179 110.774 59.0214C110.774 59.2719 110.727 59.4435 110.63 59.5316C110.533 59.6198 110.384 59.6661 110.171 59.6661H107.95Z" fill="#00778B"/>
<path d="M110.171 59.6661C109.772 59.6661 109.568 59.4667 109.568 59.0632C109.568 58.8127 109.615 58.6411 109.712 58.553C109.81 58.4648 109.958 58.4185 110.171 58.4185H112.393C112.791 58.4185 112.995 58.6179 112.995 59.0214C112.995 59.2719 112.949 59.4435 112.852 59.5316C112.754 59.6198 112.606 59.6661 112.393 59.6661H110.171Z" fill="#00778B"/>
<path d="M112.393 59.6661C111.994 59.6661 111.79 59.4667 111.79 59.0632C111.79 58.8127 111.836 58.6411 111.934 58.553C112.031 58.4648 112.18 58.4185 112.393 58.4185H114.614C115.013 58.4185 115.217 58.6179 115.217 59.0214C115.217 59.2719 115.171 59.4435 115.073 59.5316C114.976 59.6198 114.828 59.6661 114.614 59.6661H112.393Z" fill="#00778B"/>
<path d="M114.614 59.6661C114.215 59.6661 114.011 59.4667 114.011 59.0632C114.011 58.8127 114.057 58.6411 114.155 58.553C114.252 58.4648 114.4 58.4185 114.614 58.4185H116.835C117.234 58.4185 117.438 58.6179 117.438 59.0214C117.438 59.2719 117.391 59.4435 117.294 59.5316C117.201 59.6198 117.048 59.6661 116.835 59.6661H114.614Z" fill="#00778B"/>
<path d="M116.84 59.6661C116.441 59.6661 116.237 59.4667 116.237 59.0632C116.237 58.8127 116.284 58.6411 116.381 58.553C116.478 58.4648 116.627 58.4185 116.84 58.4185H119.061C119.46 58.4185 119.664 58.6179 119.664 59.0214C119.664 59.2719 119.618 59.4435 119.521 59.5316C119.423 59.6198 119.275 59.6661 119.061 59.6661H116.84Z" fill="#00778B"/>
<path d="M119.061 59.6661C118.662 59.6661 118.458 59.4667 118.458 59.0632C118.458 58.8127 118.504 58.6411 118.602 58.553C118.699 58.4648 118.848 58.4185 119.061 58.4185H121.282C121.681 58.4185 121.885 58.6179 121.885 59.0214C121.885 59.2719 121.839 59.4435 121.741 59.5316C121.644 59.6198 121.496 59.6661 121.282 59.6661H119.061Z" fill="#00778B"/>
<path d="M121.283 59.6661C120.884 59.6661 120.68 59.4667 120.68 59.0632C120.68 58.8127 120.726 58.6411 120.823 58.553C120.921 58.4648 121.069 58.4185 121.283 58.4185H123.504C123.903 58.4185 124.107 58.6179 124.107 59.0214C124.107 59.2719 124.06 59.4435 123.963 59.5316C123.866 59.6198 123.717 59.6661 123.504 59.6661H121.283Z" fill="#00778B"/>
<path d="M123.504 59.6661C123.105 59.6661 122.901 59.4667 122.901 59.0632C122.901 58.8127 122.948 58.6411 123.045 58.553C123.143 58.4648 123.291 58.4185 123.504 58.4185H125.726C126.124 58.4185 126.328 58.6179 126.328 59.0214C126.328 59.2719 126.282 59.4435 126.185 59.5316C126.087 59.6198 125.939 59.6661 125.726 59.6661H123.504Z" fill="#00778B"/>
<path d="M125.73 59.6661C125.331 59.6661 125.127 59.4667 125.127 59.0632C125.127 58.8127 125.173 58.6411 125.271 58.553C125.368 58.4648 125.516 58.4185 125.73 58.4185H127.951C128.35 58.4185 128.554 58.6179 128.554 59.0214C128.554 59.2719 128.508 59.4435 128.41 59.5316C128.313 59.6198 128.164 59.6661 127.951 59.6661H125.73Z" fill="#00778B"/>
<path d="M127.952 59.6661C127.553 59.6661 127.349 59.4667 127.349 59.0632C127.349 58.8127 127.395 58.6411 127.492 58.553C127.59 58.4648 127.738 58.4185 127.952 58.4185H130.173C130.572 58.4185 130.776 58.6179 130.776 59.0214C130.776 59.2719 130.729 59.4435 130.632 59.5316C130.535 59.6198 130.386 59.6661 130.173 59.6661H127.952Z" fill="#00778B"/>
<path d="M130.172 59.6661C129.773 59.6661 129.569 59.4667 129.569 59.0632C129.569 58.8127 129.616 58.6411 129.713 58.553C129.81 58.4648 129.959 58.4185 130.172 58.4185H132.394C132.792 58.4185 132.996 58.6179 132.996 59.0214C132.996 59.2719 132.95 59.4435 132.853 59.5316C132.755 59.6198 132.607 59.6661 132.394 59.6661H130.172Z" fill="#00778B"/>
<path d="M132.394 59.6661C131.995 59.6661 131.791 59.4667 131.791 59.0632C131.791 58.8127 131.837 58.6411 131.935 58.553C132.032 58.4648 132.181 58.4185 132.394 58.4185H134.615C135.014 58.4185 135.218 58.6179 135.218 59.0214C135.218 59.2719 135.172 59.4435 135.074 59.5316C134.977 59.6198 134.829 59.6661 134.615 59.6661H132.394Z" fill="#00778B"/>
<path d="M134.619 59.6661C134.221 59.6661 134.017 59.4667 134.017 59.0632C134.017 58.8127 134.063 58.6411 134.16 58.553C134.258 58.4648 134.406 58.4185 134.619 58.4185H136.841C137.24 58.4185 137.444 58.6179 137.444 59.0214C137.444 59.2719 137.397 59.4435 137.3 59.5316C137.203 59.6198 137.054 59.6661 136.841 59.6661H134.619Z" fill="#00778B"/>
<path d="M136.841 59.6662C136.442 59.6662 136.238 59.4667 136.238 59.0632C136.238 58.8128 136.285 58.6411 136.382 58.553C136.479 58.4649 136.628 58.4185 136.841 58.4185H137.847C138.089 58.4185 138.293 58.4092 138.464 58.3907C138.636 58.3721 138.775 58.3211 138.891 58.2469C139.007 58.1727 139.09 58.0614 139.146 57.9176C139.202 57.7738 139.229 57.5743 139.229 57.3239V53.8823H140.458V56.7673C140.458 57.0178 140.477 57.245 140.509 57.4491C140.546 57.6532 140.611 57.8295 140.713 57.9686C140.815 58.1077 140.95 58.2191 141.117 58.2979C141.288 58.3768 141.502 58.4185 141.761 58.4185C142.16 58.4185 142.364 58.6179 142.364 59.0215C142.364 59.2719 142.318 59.4436 142.221 59.5317C142.123 59.6198 141.975 59.6662 141.761 59.6662C141.372 59.6662 141.057 59.5734 140.815 59.3879C140.574 59.2024 140.417 58.9705 140.333 58.6875C140.152 59.1003 139.869 59.3647 139.484 59.4853C139.1 59.6059 138.627 59.6662 138.065 59.6662H136.841ZM138.028 61.9343C138.028 61.7116 138.107 61.5261 138.26 61.373C138.413 61.22 138.603 61.1411 138.821 61.1411C139.039 61.1411 139.229 61.22 139.382 61.373C139.535 61.5261 139.614 61.7163 139.614 61.9343C139.614 62.1523 139.535 62.3424 139.382 62.4955C139.229 62.6486 139.039 62.7274 138.821 62.7274C138.599 62.7274 138.413 62.6486 138.26 62.4955C138.103 62.3424 138.028 62.1569 138.028 61.9343ZM139.976 61.9343C139.976 61.7116 140.055 61.5261 140.208 61.373C140.361 61.22 140.551 61.1411 140.769 61.1411C140.987 61.1411 141.177 61.22 141.33 61.373C141.483 61.5261 141.562 61.7163 141.562 61.9343C141.562 62.1523 141.483 62.3424 141.33 62.4955C141.172 62.6486 140.987 62.7274 140.769 62.7274C140.546 62.7274 140.361 62.6486 140.208 62.4955C140.055 62.3424 139.976 62.1569 139.976 61.9343Z" fill="#00778B"/>
<path d="M141.766 59.6661C141.367 59.6661 141.163 59.4667 141.163 59.0632C141.163 58.8127 141.209 58.6411 141.307 58.553C141.404 58.4648 141.553 58.4185 141.766 58.4185H143.987C144.386 58.4185 144.59 58.6179 144.59 59.0214C144.59 59.2719 144.544 59.4435 144.446 59.5316C144.349 59.6198 144.201 59.6661 143.987 59.6661H141.766Z" fill="#00778B"/>
<path d="M143.988 59.6661C143.589 59.6661 143.385 59.4667 143.385 59.0631C143.385 58.8127 143.431 58.6411 143.529 58.5529C143.626 58.4648 143.774 58.4184 143.988 58.4184H144.994C145.235 58.4184 145.439 58.4092 145.611 58.3906C145.782 58.372 145.921 58.321 146.037 58.2468C146.153 58.1726 146.237 58.0613 146.292 57.9175C146.348 57.7737 146.376 57.5743 146.376 57.3238V53.8822H147.609V56.7672C147.609 57.0177 147.628 57.245 147.66 57.449C147.698 57.6531 147.762 57.8294 147.864 57.9685C147.967 58.1077 148.101 58.219 148.268 58.2978C148.44 58.3767 148.653 58.4184 148.913 58.4184C149.311 58.4184 149.515 58.6179 149.515 59.0214C149.515 59.2719 149.469 59.4435 149.372 59.5316C149.274 59.6197 149.126 59.6661 148.913 59.6661C148.523 59.6661 148.208 59.5733 147.967 59.3878C147.725 59.2023 147.568 58.9704 147.484 58.6874C147.303 59.1002 147.02 59.3646 146.636 59.4852C146.251 59.6058 145.778 59.6661 145.217 59.6661H143.988ZM146.241 51.3591C146.241 51.1411 146.32 50.9509 146.473 50.7978C146.626 50.6448 146.816 50.5659 147.034 50.5659C147.252 50.5659 147.442 50.6448 147.596 50.7978C147.749 50.9555 147.827 51.1411 147.827 51.3591C147.827 51.5817 147.749 51.7672 147.596 51.9203C147.438 52.078 147.252 52.1522 147.034 52.1522C146.812 52.1522 146.626 52.0733 146.473 51.9203C146.316 51.7672 146.241 51.5817 146.241 51.3591Z" fill="#00778B"/>
<path d="M148.912 59.6661C148.514 59.6661 148.31 59.4667 148.31 59.0632C148.31 58.8127 148.356 58.6411 148.453 58.553C148.551 58.4648 148.699 58.4185 148.912 58.4185H151.134C151.533 58.4185 151.737 58.6179 151.737 59.0214C151.737 59.2719 151.69 59.4435 151.593 59.5316C151.495 59.6198 151.347 59.6661 151.134 59.6661H148.912Z" fill="#00778B"/>
<path d="M151.133 59.6661C150.734 59.6661 150.53 59.4667 150.53 59.0631C150.53 58.8127 150.577 58.6411 150.674 58.5529C150.771 58.4648 150.92 58.4184 151.133 58.4184H152.844C152.733 58.2097 152.64 57.9732 152.557 57.7181C152.478 57.463 152.436 57.1708 152.436 56.8414C152.436 56.4518 152.501 56.0669 152.631 55.6865C152.761 55.3062 152.951 54.9676 153.201 54.6707C153.452 54.3739 153.763 54.1374 154.129 53.9518C154.495 53.7663 154.917 53.6735 155.4 53.6735C155.951 53.6735 156.401 53.7756 156.754 53.975C157.106 54.1745 157.384 54.4296 157.588 54.7403C157.792 55.0511 157.936 55.3943 158.02 55.77C158.098 56.1457 158.14 56.5121 158.14 56.8739V58.4231H159.272C159.671 58.4231 159.865 58.6225 159.865 59.026C159.865 59.2765 159.819 59.4481 159.722 59.5362C159.624 59.6244 159.476 59.6708 159.262 59.6708H151.133V59.6661ZM153.419 51.3591C153.419 51.1411 153.498 50.9509 153.651 50.7978C153.804 50.6448 153.994 50.5659 154.212 50.5659C154.43 50.5659 154.62 50.6448 154.773 50.7978C154.927 50.9555 155.005 51.1411 155.005 51.3591C155.005 51.5817 154.927 51.7672 154.773 51.9203C154.616 52.078 154.43 52.1522 154.212 52.1522C153.99 52.1522 153.804 52.0733 153.651 51.9203C153.494 51.7672 153.419 51.5817 153.419 51.3591ZM153.614 56.6466C153.614 57.2589 153.795 57.7041 154.157 57.9917C154.518 58.2747 154.959 58.4184 155.478 58.4184H156.921V56.9156C156.921 56.6745 156.897 56.4333 156.851 56.1874C156.805 55.9416 156.721 55.7236 156.605 55.5288C156.485 55.334 156.318 55.1717 156.109 55.0464C155.9 54.9212 155.631 54.8609 155.311 54.8609C154.783 54.8609 154.365 55.0372 154.064 55.385C153.763 55.7375 153.614 56.1596 153.614 56.6466ZM155.372 51.3591C155.372 51.1411 155.451 50.9509 155.604 50.7978C155.757 50.6448 155.947 50.5659 156.165 50.5659C156.383 50.5659 156.573 50.6448 156.726 50.7978C156.879 50.9555 156.958 51.1411 156.958 51.3591C156.958 51.5817 156.879 51.7672 156.726 51.9203C156.573 52.078 156.383 52.1522 156.165 52.1522C155.942 52.1522 155.757 52.0733 155.604 51.9203C155.446 51.7672 155.372 51.5817 155.372 51.3591Z" fill="#00778B"/>
<path d="M159.272 59.6661C158.873 59.6661 158.669 59.4667 158.669 59.0631C158.669 58.8127 158.715 58.6411 158.813 58.5529C158.91 58.4648 159.058 58.4184 159.272 58.4184H160.278C160.519 58.4184 160.723 58.4092 160.895 58.3906C161.066 58.372 161.206 58.321 161.322 58.2468C161.437 58.1726 161.521 58.0613 161.577 57.9175C161.632 57.7737 161.66 57.5743 161.66 57.3238V53.8822H162.889V56.7672C162.889 57.0177 162.908 57.245 162.94 57.449C162.977 57.6531 163.042 57.8294 163.144 57.9685C163.246 58.1077 163.381 58.219 163.547 58.2978C163.719 58.3767 163.932 58.4184 164.192 58.4184C164.591 58.4184 164.795 58.6179 164.795 59.0214C164.795 59.2719 164.749 59.4435 164.651 59.5316C164.554 59.6197 164.405 59.6661 164.192 59.6661C163.803 59.6661 163.487 59.5733 163.246 59.3878C163.005 59.2023 162.847 58.9704 162.764 58.6874C162.583 59.1002 162.3 59.3646 161.915 59.4852C161.53 59.6058 161.057 59.6661 160.496 59.6661H159.272ZM160.459 51.3591C160.459 51.1411 160.538 50.9509 160.691 50.7978C160.844 50.6448 161.034 50.5659 161.252 50.5659C161.47 50.5659 161.66 50.6448 161.813 50.7978C161.966 50.9555 162.045 51.1411 162.045 51.3591C162.045 51.5817 161.966 51.7672 161.813 51.9203C161.66 52.078 161.47 52.1522 161.252 52.1522C161.029 52.1522 160.844 52.0733 160.691 51.9203C160.538 51.7672 160.459 51.5817 160.459 51.3591ZM162.411 51.3591C162.411 51.1411 162.49 50.9509 162.643 50.7978C162.796 50.6448 162.986 50.5659 163.204 50.5659C163.422 50.5659 163.612 50.6448 163.765 50.7978C163.918 50.9555 163.997 51.1411 163.997 51.3591C163.997 51.5817 163.918 51.7672 163.765 51.9203C163.608 52.078 163.422 52.1522 163.204 52.1522C162.982 52.1522 162.796 52.0733 162.643 51.9203C162.49 51.7672 162.411 51.5817 162.411 51.3591Z" fill="#00778B"/>
<path d="M164.197 59.6659C163.798 59.6659 163.594 59.4665 163.594 59.063C163.594 58.8125 163.64 58.6409 163.738 58.5528C163.835 58.4646 163.983 58.4183 164.197 58.4183H166.539V48.9424H167.772V59.6659H164.197Z" fill="#00778B"/>
<path d="M177.669 59.6663C177.339 59.6663 177.061 59.5921 176.843 59.439C176.621 59.2906 176.458 59.1143 176.347 58.9149C176.347 59.6338 176.301 60.246 176.213 60.7377C176.124 61.234 175.957 61.6329 175.726 61.939C175.489 62.2451 175.164 62.4631 174.742 62.6023C174.32 62.7368 173.778 62.8063 173.105 62.8063V61.5587C173.597 61.5587 173.977 61.5076 174.256 61.401C174.529 61.2943 174.738 61.1273 174.872 60.8908C175.007 60.6542 175.086 60.3574 175.113 59.9909C175.137 59.6245 175.151 59.1839 175.151 58.6598V54.6338H176.366V56.7674C176.366 57.2776 176.458 57.6811 176.644 57.9779C176.829 58.2748 177.172 58.4232 177.673 58.4232C178.072 58.4232 178.276 58.6227 178.276 59.0262C178.276 59.2767 178.23 59.4483 178.132 59.5364C178.03 59.6199 177.882 59.6663 177.669 59.6663Z" fill="#00778B"/>
<path d="M177.668 59.6661C177.269 59.6661 177.065 59.4667 177.065 59.0632C177.065 58.8127 177.112 58.6411 177.209 58.553C177.307 58.4648 177.455 58.4185 177.668 58.4185H179.89C180.288 58.4185 180.492 58.6179 180.492 59.0214C180.492 59.2719 180.446 59.4435 180.349 59.5316C180.251 59.6198 180.103 59.6661 179.89 59.6661H177.668Z" fill="#00778B"/>
<path d="M179.89 59.6661C179.491 59.6661 179.287 59.4667 179.287 59.0632C179.287 58.8127 179.333 58.6411 179.431 58.553C179.528 58.4648 179.677 58.4185 179.89 58.4185H182.111C182.51 58.4185 182.714 58.6179 182.714 59.0214C182.714 59.2719 182.668 59.4435 182.57 59.5316C182.473 59.6198 182.325 59.6661 182.111 59.6661H179.89Z" fill="#00778B"/>
<path d="M182.116 59.6661C181.717 59.6661 181.513 59.4667 181.513 59.0632C181.513 58.8127 181.559 58.6411 181.656 58.553C181.754 58.4648 181.902 58.4185 182.116 58.4185H184.337C184.736 58.4185 184.94 58.6179 184.94 59.0214C184.94 59.2719 184.893 59.4435 184.796 59.5316C184.699 59.6198 184.55 59.6661 184.337 59.6661H182.116Z" fill="#00778B"/>
<path d="M184.337 59.6661C183.938 59.6661 183.734 59.4667 183.734 59.0632C183.734 58.8127 183.781 58.6411 183.878 58.553C183.976 58.4648 184.124 58.4185 184.337 58.4185H186.559C186.957 58.4185 187.161 58.6179 187.161 59.0214C187.161 59.2719 187.115 59.4435 187.018 59.5316C186.92 59.6198 186.772 59.6661 186.559 59.6661H184.337Z" fill="#00778B"/>
<path d="M186.559 59.6661C186.16 59.6661 185.956 59.4667 185.956 59.0632C185.956 58.8127 186.002 58.6411 186.1 58.553C186.197 58.4648 186.346 58.4185 186.559 58.4185H188.78C189.179 58.4185 189.383 58.6179 189.383 59.0214C189.383 59.2719 189.337 59.4435 189.239 59.5316C189.142 59.6198 188.994 59.6661 188.78 59.6661H186.559Z" fill="#00778B"/>
<path d="M188.78 59.6661C188.381 59.6661 188.177 59.4667 188.177 59.0632C188.177 58.8127 188.223 58.6411 188.321 58.553C188.418 58.4648 188.566 58.4185 188.78 58.4185H191.001C191.4 58.4185 191.604 58.6179 191.604 59.0214C191.604 59.2719 191.557 59.4435 191.46 59.5316C191.363 59.6198 191.214 59.6661 191.001 59.6661H188.78Z" fill="#00778B"/>
<path d="M191.006 59.6661C190.607 59.6661 190.403 59.4667 190.403 59.0632C190.403 58.8127 190.45 58.6411 190.547 58.553C190.644 58.4648 190.793 58.4185 191.006 58.4185H193.227C193.626 58.4185 193.83 58.6179 193.83 59.0214C193.83 59.2719 193.784 59.4435 193.687 59.5316C193.589 59.6198 193.441 59.6661 193.227 59.6661H191.006Z" fill="#00778B"/>
<path d="M193.227 59.6661C192.828 59.6661 192.624 59.4667 192.624 59.0632C192.624 58.8127 192.67 58.6411 192.768 58.553C192.865 58.4648 193.014 58.4185 193.227 58.4185H195.448C195.847 58.4185 196.051 58.6179 196.051 59.0214C196.051 59.2719 196.005 59.4435 195.907 59.5316C195.81 59.6198 195.662 59.6661 195.448 59.6661H193.227Z" fill="#00778B"/>
<path d="M195.449 59.6661C195.05 59.6661 194.846 59.4667 194.846 59.0632C194.846 58.8127 194.892 58.6411 194.989 58.553C195.087 58.4648 195.235 58.4185 195.449 58.4185H197.67C198.069 58.4185 198.273 58.6179 198.273 59.0214C198.273 59.2719 198.226 59.4435 198.129 59.5316C198.032 59.6198 197.883 59.6661 197.67 59.6661H195.449Z" fill="#00778B"/>
<path d="M197.67 59.6661C197.271 59.6661 197.067 59.4667 197.067 59.0632C197.067 58.8127 197.114 58.6411 197.211 58.553C197.309 58.4648 197.457 58.4185 197.67 58.4185H199.892C200.29 58.4185 200.494 58.6179 200.494 59.0214C200.494 59.2719 200.448 59.4435 200.351 59.5316C200.253 59.6198 200.105 59.6661 199.892 59.6661H197.67Z" fill="#00778B"/>
<path d="M199.891 59.6661C199.492 59.6661 199.288 59.4667 199.288 59.0632C199.288 58.8127 199.334 58.6411 199.432 58.553C199.529 58.4648 199.678 58.4185 199.891 58.4185H202.112C202.511 58.4185 202.715 58.6179 202.715 59.0214C202.715 59.2719 202.669 59.4435 202.571 59.5316C202.474 59.6198 202.326 59.6661 202.112 59.6661H199.891Z" fill="#00778B"/>
<path d="M202.118 59.6661C201.719 59.6661 201.515 59.4667 201.515 59.0632C201.515 58.8127 201.561 58.6411 201.658 58.553C201.756 58.4648 201.904 58.4185 202.118 58.4185H204.339C204.738 58.4185 204.942 58.6179 204.942 59.0214C204.942 59.2719 204.895 59.4435 204.798 59.5316C204.701 59.6198 204.552 59.6661 204.339 59.6661H202.118Z" fill="#00778B"/>
<path d="M204.338 59.6662C203.939 59.6662 203.735 59.4667 203.735 59.0632C203.735 58.8128 203.782 58.6411 203.879 58.553C203.977 58.4649 204.125 58.4185 204.338 58.4185H206.68V53.8823H207.914V59.6662H204.338ZM204.936 61.9343C204.936 61.7116 205.015 61.5261 205.168 61.373C205.321 61.22 205.511 61.1411 205.729 61.1411C205.947 61.1411 206.138 61.22 206.291 61.373C206.444 61.5261 206.522 61.7163 206.522 61.9343C206.522 62.1523 206.444 62.3424 206.291 62.4955C206.133 62.6486 205.947 62.7274 205.729 62.7274C205.507 62.7274 205.321 62.6486 205.168 62.4955C205.015 62.3424 204.936 62.1569 204.936 61.9343ZM206.889 61.9343C206.889 61.7116 206.968 61.5261 207.121 61.373C207.274 61.22 207.464 61.1411 207.682 61.1411C207.9 61.1411 208.09 61.22 208.243 61.373C208.396 61.5261 208.475 61.7163 208.475 61.9343C208.475 62.1523 208.396 62.3424 208.243 62.4955C208.085 62.6486 207.9 62.7274 207.682 62.7274C207.459 62.7274 207.274 62.6486 207.121 62.4955C206.968 62.3424 206.889 62.1569 206.889 61.9343Z" fill="#00778B"/>
<path d="M215.315 59.6659C215.273 60.2782 215.148 60.7837 214.93 61.1826C214.717 61.5815 214.42 61.9015 214.054 62.1427C213.683 62.3839 213.242 62.5509 212.723 62.6529C212.208 62.755 211.633 62.8014 211.002 62.8014H210.372V61.5537H210.835C211.304 61.5537 211.735 61.5305 212.125 61.4841C212.514 61.4377 212.853 61.3496 213.14 61.2151C213.428 61.0806 213.65 60.8858 213.817 60.6353C213.984 60.3849 214.072 60.0602 214.082 59.6613H212.384C211.971 59.6613 211.596 59.6149 211.253 59.5268C210.91 59.4387 210.608 59.2902 210.353 59.0815C210.098 58.8774 209.899 58.6084 209.75 58.2791C209.606 57.9498 209.532 57.537 209.532 57.0453C209.532 56.6372 209.602 56.2336 209.736 55.844C209.871 55.4544 210.066 55.1066 210.321 54.8097C210.576 54.5082 210.886 54.267 211.253 54.0815C211.619 53.896 212.036 53.8032 212.505 53.8032C213.024 53.8032 213.465 53.896 213.826 54.0815C214.188 54.267 214.48 54.5314 214.703 54.87C214.93 55.2086 215.092 55.6214 215.19 56.1038C215.292 56.5862 215.338 57.1195 215.338 57.7132V58.4182H216.391C216.79 58.4182 216.994 58.6177 216.994 59.0212C216.994 59.2717 216.947 59.4433 216.85 59.5314C216.753 59.6195 216.604 59.6659 216.391 59.6659H215.315ZM210.733 56.934C210.733 57.4442 210.882 57.8199 211.179 58.0611C211.475 58.3023 211.907 58.4229 212.477 58.4229H214.086V57.4303C214.086 56.6882 213.961 56.0991 213.711 55.6585C213.46 55.2179 213.029 54.9999 212.421 54.9999C212.129 54.9999 211.879 55.0555 211.67 55.1715C211.461 55.2875 211.285 55.4359 211.151 55.6214C211.016 55.8069 210.914 56.0157 210.845 56.2429C210.77 56.4748 210.733 56.7021 210.733 56.934Z" fill="#00778B"/>
<path d="M216.396 59.6661C215.997 59.6661 215.793 59.4667 215.793 59.0632C215.793 58.8127 215.839 58.6411 215.937 58.553C216.034 58.4648 216.183 58.4185 216.396 58.4185H218.617C219.016 58.4185 219.22 58.6179 219.22 59.0214C219.22 59.2719 219.174 59.4435 219.076 59.5316C218.979 59.6198 218.831 59.6661 218.617 59.6661H216.396Z" fill="#00778B"/>
<path d="M218.618 59.6661C218.219 59.6661 218.015 59.4667 218.015 59.0632C218.015 58.8127 218.061 58.6411 218.158 58.553C218.256 58.4648 218.404 58.4185 218.618 58.4185H220.839C221.238 58.4185 221.442 58.6179 221.442 59.0214C221.442 59.2719 221.395 59.4435 221.298 59.5316C221.201 59.6198 221.052 59.6661 220.839 59.6661H218.618Z" fill="#00778B"/>
<path d="M220.843 59.6661C220.444 59.6661 220.24 59.4667 220.24 59.0632C220.24 58.8127 220.287 58.6411 220.384 58.553C220.481 58.4648 220.63 58.4185 220.843 58.4185H223.064C223.463 58.4185 223.667 58.6179 223.667 59.0214C223.667 59.2719 223.621 59.4435 223.523 59.5316C223.426 59.6198 223.278 59.6661 223.064 59.6661H220.843Z" fill="#00778B"/>
<path d="M223.065 59.6661C222.666 59.6661 222.462 59.4667 222.462 59.0632C222.462 58.8127 222.508 58.6411 222.606 58.553C222.703 58.4648 222.851 58.4185 223.065 58.4185H225.286C225.685 58.4185 225.889 58.6179 225.889 59.0214C225.889 59.2719 225.842 59.4435 225.745 59.5316C225.648 59.6198 225.499 59.6661 225.286 59.6661H223.065Z" fill="#00778B"/>
<path d="M225.285 59.6661C224.887 59.6661 224.683 59.4667 224.683 59.0632C224.683 58.8127 224.729 58.6411 224.826 58.553C224.924 58.4648 225.072 58.4185 225.285 58.4185H227.507C227.906 58.4185 228.11 58.6179 228.11 59.0214C228.11 59.2719 228.063 59.4435 227.966 59.5316C227.868 59.6198 227.72 59.6661 227.507 59.6661H225.285Z" fill="#00778B"/>
<path d="M227.507 59.666C227.108 59.666 226.904 59.4665 226.904 59.063C226.904 58.8125 226.951 58.6409 227.048 58.5528C227.145 58.4647 227.294 58.4183 227.507 58.4183H229.204V48.9424H230.438V56.3032C230.948 55.473 231.546 54.8283 232.233 54.3737C232.919 53.9192 233.717 53.6919 234.63 53.6919C235.599 53.6919 236.36 53.998 236.907 54.6057C237.454 55.2133 237.728 56.0574 237.728 57.1335V58.4229H238.869C239.268 58.4229 239.472 58.6224 239.472 59.0259C239.472 59.2763 239.425 59.448 239.328 59.5361C239.231 59.6242 239.082 59.6706 238.869 59.6706H227.507V59.666ZM236.49 58.4183V57.4118C236.49 57.0732 236.453 56.7485 236.383 56.4424C236.314 56.1363 236.193 55.8719 236.021 55.6539C235.85 55.4359 235.627 55.2596 235.354 55.1298C235.08 54.9999 234.742 54.935 234.338 54.935C233.856 54.935 233.411 55.0463 233.003 55.2643C232.59 55.4869 232.223 55.7606 231.89 56.0992C231.56 56.4331 231.273 56.8088 231.027 57.217C230.781 57.6298 230.582 58.0287 230.433 58.4183H236.49Z" fill="#00778B"/>
<path d="M238.86 59.6661C238.461 59.6661 238.257 59.4667 238.257 59.0631C238.257 58.8127 238.303 58.6411 238.401 58.5529C238.498 58.4648 238.646 58.4184 238.86 58.4184H241.202V53.8822H242.435V59.6661H238.86ZM239.866 51.3591C239.866 51.1411 239.945 50.9509 240.098 50.7978C240.251 50.6448 240.441 50.5659 240.659 50.5659C240.877 50.5659 241.067 50.6448 241.22 50.7978C241.373 50.9555 241.452 51.1411 241.452 51.3591C241.452 51.5817 241.373 51.7672 241.22 51.9203C241.062 52.078 240.877 52.1522 240.659 52.1522C240.436 52.1522 240.251 52.0733 240.098 51.9203C239.945 51.7672 239.866 51.5817 239.866 51.3591ZM241.818 51.3591C241.818 51.1411 241.897 50.9509 242.05 50.7978C242.203 50.6448 242.393 50.5659 242.611 50.5659C242.829 50.5659 243.019 50.6448 243.172 50.7978C243.325 50.9555 243.404 51.1411 243.404 51.3591C243.404 51.5817 243.325 51.7672 243.172 51.9203C243.015 52.078 242.829 52.1522 242.611 52.1522C242.389 52.1522 242.203 52.0733 242.05 51.9203C241.897 51.7672 241.818 51.5817 241.818 51.3591Z" fill="#00778B"/>
<path d="M8.59823 70.2646C8.76054 70.2646 8.84401 70.3435 8.84401 70.5012V71.5541C8.84401 71.721 8.76054 71.7999 8.59823 71.7999H5.22684V77.542C5.22684 77.6997 5.148 77.7786 4.99033 77.7786H3.8217C3.66403 77.7786 3.58519 77.6997 3.58519 77.542V71.7999H0.218439C0.0514921 71.7999 -0.0273438 71.7164 -0.0273438 71.5541V70.5012C-0.0273438 70.3435 0.0561295 70.2646 0.218439 70.2646H8.59823Z" fill="#00778B"/>
<path d="M14.5343 71.8833C15.0119 71.8833 15.42 71.925 15.7446 72.0085C16.0739 72.092 16.3382 72.2219 16.533 72.3935C16.7278 72.5698 16.8715 72.7924 16.955 73.0707C17.0385 73.3443 17.0848 73.6783 17.0848 74.0633V76.9204C17.0848 77.092 17.0709 77.2358 17.0477 77.3425C17.0246 77.4538 16.9782 77.5419 16.9179 77.6069C16.8576 77.6718 16.7788 77.7182 16.6768 77.7414C16.5747 77.7646 16.4495 77.7785 16.2918 77.7785H11.1861C10.8707 77.7785 10.6064 77.746 10.3977 77.6857C10.1844 77.6254 10.0174 77.5326 9.8876 77.4121C9.75775 77.2915 9.66964 77.1338 9.61399 76.939C9.55834 76.7442 9.53516 76.5169 9.53516 76.2525V75.7377C9.53516 75.515 9.56298 75.3156 9.61399 75.144C9.66964 74.9677 9.75775 74.8193 9.8876 74.6987C10.0174 74.5781 10.1844 74.4853 10.3977 74.425C10.6064 74.3647 10.8707 74.3323 11.1861 74.3323H15.5545V74.1282C15.5545 73.9566 15.536 73.8082 15.4989 73.6876C15.4618 73.567 15.4015 73.4696 15.318 73.3907C15.2345 73.3165 15.114 73.2608 14.9656 73.2237C14.8172 73.1866 14.6224 73.1681 14.3859 73.1681H9.90151C9.77166 73.1681 9.70674 73.1032 9.70674 72.9733V72.0781C9.70674 71.9482 9.77166 71.8833 9.90151 71.8833H14.5343ZM15.2438 76.5957C15.3597 76.5957 15.4386 76.5679 15.4849 76.5169C15.5313 76.4612 15.5545 76.3685 15.5545 76.2339V75.2877H11.6266C11.404 75.2877 11.251 75.3341 11.1582 75.4223C11.0701 75.5104 11.0238 75.6403 11.0238 75.8119V76.0391C11.0238 76.2339 11.0701 76.3731 11.1582 76.4612C11.2464 76.5493 11.404 76.5957 11.6266 76.5957H15.2438Z" fill="#00778B"/>
<path d="M18.9582 71.8831V70.4685C18.9582 70.3108 19.037 70.2319 19.1947 70.2319H20.2566C20.4143 70.2319 20.4931 70.3108 20.4931 70.4685V71.8831H22.3713C22.5011 71.8831 22.5661 71.9481 22.5661 72.0779V72.9592C22.5661 73.0891 22.5011 73.154 22.3713 73.154H20.4931V75.6447C20.4931 75.9462 20.5534 76.1642 20.674 76.3034C20.7946 76.4425 21.0357 76.5121 21.3928 76.5121H22.4362C22.5661 76.5121 22.631 76.577 22.631 76.7069V77.5881C22.631 77.718 22.5661 77.783 22.4362 77.783H21.1377C20.7065 77.783 20.354 77.7458 20.0758 77.667C19.7975 77.5881 19.5749 77.4629 19.4034 77.2913C19.2364 77.1197 19.1205 76.8971 19.0555 76.6234C18.9906 76.3497 18.9582 76.0251 18.9582 75.6447V73.154H17.9379C17.8081 73.154 17.7432 73.0891 17.7432 72.9592V72.0779C17.7432 71.9481 17.8081 71.8831 17.9379 71.8831H18.9582Z" fill="#00778B"/>
<path d="M24.4067 71.8833C24.5365 71.8833 24.6153 71.939 24.6524 72.0549L26.039 76.4659C26.0622 76.5169 26.0947 76.5401 26.1457 76.5401H26.1874C26.2523 76.5401 26.2894 76.5169 26.2941 76.4659L27.741 72.3981C27.8105 72.2033 27.8986 72.0688 27.9914 71.9946C28.0888 71.9204 28.2325 71.8833 28.4273 71.8833H29.7026C29.8973 71.8833 30.0411 71.9204 30.1385 71.9946C30.2359 72.0688 30.3193 72.2033 30.3889 72.3981L31.8265 76.4659C31.8358 76.5169 31.8682 76.5401 31.9332 76.5401H31.9749C32.0259 76.5401 32.063 76.5169 32.0816 76.4659L33.4774 72.0549C33.5006 71.939 33.5794 71.8833 33.7232 71.8833H34.9382C35.031 71.8833 35.0912 71.9065 35.1144 71.9529C35.1376 71.9993 35.1423 72.0642 35.1191 72.143L33.4867 77.1152C33.3986 77.3889 33.3012 77.5651 33.1806 77.6533C33.0647 77.7414 32.8885 77.7831 32.6612 77.7831H31.3071C31.1216 77.7831 30.9779 77.7367 30.8758 77.6393C30.7738 77.5419 30.6811 77.3703 30.5883 77.1199L29.1693 73.2006C29.1554 73.1588 29.1229 73.1356 29.0719 73.1356H29.007C28.9513 73.1356 28.9189 73.1588 28.9096 73.2006L27.5044 77.1199C27.4117 77.3703 27.3143 77.5419 27.2169 77.6393C27.1149 77.7367 26.9758 77.7831 26.7856 77.7831H25.4315C25.2043 77.7831 25.0281 77.7414 24.9121 77.6533C24.7962 77.5651 24.6942 77.3889 24.6061 77.1152L22.9969 72.143C22.9737 72.0642 22.9737 72.0039 22.9969 71.9529C23.0201 71.9065 23.0804 71.8833 23.1777 71.8833H24.4067Z" fill="#00778B"/>
<path d="M41.2829 71.8833C41.6492 71.8833 41.9507 71.9158 42.1918 71.9761C42.433 72.0364 42.6231 72.1384 42.7622 72.2776C42.9013 72.4167 42.9987 72.5976 43.059 72.8249C43.1147 73.0521 43.1425 73.3258 43.1425 73.6458V74.6662C43.1425 74.8935 43.0915 75.0558 42.9941 75.144C42.8921 75.2321 42.739 75.2785 42.5303 75.2785H37.1046V75.5382C37.1046 75.8768 37.1834 76.118 37.3457 76.2664C37.508 76.4149 37.8187 76.4937 38.2825 76.4937H42.7576C42.8874 76.4937 42.9524 76.5586 42.9524 76.6885V77.5883C42.9524 77.7182 42.8874 77.7831 42.7576 77.7831H38.1294C37.6425 77.7831 37.2391 77.746 36.9098 77.6672C36.5852 77.5883 36.3208 77.4631 36.1261 77.2868C35.9313 77.1106 35.7875 76.8879 35.7041 76.6097C35.6206 76.336 35.5742 76.002 35.5742 75.6171V74.0725C35.5742 73.6876 35.616 73.3536 35.7041 73.08C35.7922 72.8063 35.9313 72.579 36.1261 72.4028C36.3208 72.2265 36.5852 72.0967 36.9098 72.0178C37.2344 71.9343 37.6425 71.8926 38.1294 71.8926H41.2829V71.8833ZM37.1046 74.323H41.4498C41.5704 74.323 41.6307 74.2627 41.6307 74.1421V73.6922C41.6307 73.4696 41.5843 73.3119 41.4916 73.2191C41.3988 73.1263 41.2272 73.08 40.9768 73.08H38.2825C37.8187 73.08 37.5034 73.1542 37.3457 73.298C37.1834 73.4464 37.1046 73.6876 37.1046 74.0354V74.323Z" fill="#00778B"/>
<path d="M49.7502 71.8833C50.1165 71.8833 50.4179 71.9158 50.6591 71.9761C50.9002 72.0364 51.0904 72.1384 51.2295 72.2776C51.3686 72.4167 51.466 72.5976 51.5263 72.8249C51.5819 73.0521 51.6098 73.3258 51.6098 73.6458V74.6662C51.6098 74.8935 51.5587 75.0558 51.4614 75.144C51.3593 75.2321 51.2063 75.2785 50.9976 75.2785H45.5718V75.5382C45.5718 75.8768 45.6507 76.118 45.813 76.2664C45.9753 76.4149 46.286 76.4937 46.7544 76.4937H51.2295C51.3593 76.4937 51.4243 76.5586 51.4243 76.6885V77.5883C51.4243 77.7182 51.3593 77.7831 51.2295 77.7831H46.606C46.1191 77.7831 45.7156 77.746 45.3864 77.6672C45.0617 77.5883 44.7974 77.4631 44.6026 77.2868C44.4079 77.1106 44.2641 76.8879 44.1806 76.6097C44.0972 76.336 44.0508 76.002 44.0508 75.6171V74.0725C44.0508 73.6876 44.0925 73.3536 44.1806 73.08C44.2687 72.8063 44.4079 72.579 44.6026 72.4028C44.7974 72.2265 45.0617 72.0967 45.3864 72.0178C45.711 71.9343 46.1191 71.8926 46.606 71.8926H49.7502V71.8833ZM45.5718 74.323H49.9171C50.0377 74.323 50.098 74.2627 50.098 74.1421V73.6922C50.098 73.4696 50.0516 73.3119 49.9588 73.2191C49.8661 73.1263 49.6945 73.08 49.4441 73.08H46.7497C46.286 73.08 45.9707 73.1542 45.8084 73.298C45.646 73.4464 45.5672 73.6876 45.5672 74.0354V74.323H45.5718Z" fill="#00778B"/>
<path d="M58.2836 71.8833C58.4135 71.8833 58.4784 71.9482 58.4784 72.0781V72.9779C58.4784 73.1078 58.4135 73.1727 58.2836 73.1727H55.427C55.1998 73.1727 55.0096 73.1913 54.8566 73.233C54.7082 73.2701 54.5876 73.3351 54.4949 73.4278C54.4068 73.5159 54.3418 73.6412 54.3094 73.7942C54.2723 73.9473 54.2537 74.1375 54.2537 74.3555V77.5419C54.2537 77.6996 54.1749 77.7785 54.0172 77.7785H52.9645C52.7976 77.7785 52.7188 77.6996 52.7188 77.5419V74.0633C52.7188 73.6783 52.7605 73.3443 52.8486 73.0707C52.9321 72.797 53.0758 72.5698 53.2706 72.3935C53.4654 72.2173 53.7297 72.0874 54.0543 72.0085C54.3789 71.925 54.787 71.8833 55.274 71.8833H58.2836Z" fill="#00778B"/>
<path d="M70.5999 70.2646C70.7623 70.2646 70.8457 70.3435 70.8457 70.5012V71.5216C70.8457 71.6793 70.7623 71.7582 70.5999 71.7582H65.9115C65.6333 71.7582 65.4014 71.7813 65.2206 71.8277C65.0397 71.8741 64.8913 71.953 64.78 72.0643C64.6687 72.1756 64.5945 72.324 64.5481 72.5142C64.5064 72.7044 64.4832 72.9363 64.4832 73.2192V73.3259H70.5489C70.7066 73.3259 70.7854 73.4047 70.7854 73.5624V74.4112C70.7854 74.5689 70.7066 74.6478 70.5489 74.6478H64.4832V74.8287C64.4832 75.107 64.5064 75.3435 64.5481 75.5337C64.5899 75.7238 64.6687 75.8723 64.78 75.9836C64.8913 76.0949 65.0397 76.1738 65.2206 76.2201C65.4014 76.2665 65.6333 76.2897 65.9115 76.2897H70.5999C70.7623 76.2897 70.8457 76.3686 70.8457 76.5263V77.5467C70.8457 77.7044 70.7623 77.7832 70.5999 77.7832H65.8791C65.3365 77.7832 64.8727 77.7322 64.4925 77.6348C64.1122 77.5328 63.8015 77.3704 63.565 77.1478C63.3238 76.9205 63.1523 76.6283 63.041 76.2665C62.9297 75.9047 62.874 75.4687 62.874 74.9493V73.0986C62.874 72.5838 62.9297 72.1478 63.041 71.7906C63.1523 71.4335 63.3285 71.1413 63.565 70.914C63.8061 70.6867 64.1122 70.5244 64.4925 70.4223C64.8727 70.3203 65.3318 70.2646 65.8791 70.2646H70.5999Z" fill="#00778B"/>
<path d="M78.5438 71.8833V69.9631C78.5438 69.8054 78.6227 69.7266 78.7803 69.7266H79.833C79.9907 69.7266 80.0695 69.8054 80.0695 69.9631V75.6078C80.0695 75.9928 80.0278 76.3267 79.9397 76.6004C79.8516 76.8741 79.7125 77.1013 79.5177 77.2776C79.3229 77.4538 79.0586 77.5791 78.7293 77.6579C78.4001 77.7368 77.9966 77.7739 77.5143 77.7739H74.5093C74.0224 77.7739 73.6189 77.7368 73.2897 77.6579C72.9651 77.5791 72.7007 77.4538 72.506 77.2776C72.3112 77.1013 72.1674 76.8787 72.084 76.6004C72.0005 76.3267 71.9541 75.9928 71.9541 75.6078V74.0633C71.9541 73.6783 71.9958 73.3444 72.084 73.0707C72.1721 72.7971 72.3112 72.5698 72.506 72.3935C72.7007 72.2173 72.9651 72.0874 73.2897 72.0086C73.6143 71.9251 74.0224 71.8833 74.5093 71.8833H78.5438ZM77.3659 76.4891C77.6025 76.4891 77.7972 76.4705 77.9456 76.4288C78.094 76.3917 78.2146 76.3267 78.3073 76.234C78.3954 76.1459 78.4604 76.0253 78.4975 75.8722C78.5346 75.7238 78.5531 75.5336 78.5531 75.3017V73.1635H74.667C74.4397 73.1635 74.2496 73.182 74.0966 73.2238C73.9482 73.2609 73.8276 73.3258 73.7349 73.4186C73.6468 73.5067 73.5818 73.6319 73.5447 73.785C73.5076 73.9381 73.4891 74.1282 73.4891 74.3462V75.3017C73.4891 75.529 73.5076 75.7191 73.5447 75.8722C73.5818 76.0206 73.6421 76.1412 73.7349 76.234C73.823 76.3221 73.9435 76.387 74.0966 76.4288C74.245 76.4659 74.4351 76.4891 74.667 76.4891H77.3659Z" fill="#00778B"/>
<path d="M82.6671 71.8833C82.8248 71.8833 82.9036 71.9668 82.9036 72.1291V75.2321C82.9036 75.4594 82.9175 75.6495 82.9454 75.8026C82.9732 75.951 83.0288 76.0716 83.1077 76.1644C83.1865 76.2525 83.2978 76.3175 83.4416 76.3592C83.5853 76.3963 83.7755 76.4195 84.012 76.4195H86.7712C87.0077 76.4195 87.2025 76.4009 87.3509 76.3592C87.4993 76.3221 87.6199 76.2572 87.7126 76.1644C87.8007 76.0763 87.8657 75.9557 87.9028 75.8026C87.9399 75.6542 87.9584 75.464 87.9584 75.2321V72.1291C87.9584 71.9621 88.0372 71.8833 88.1949 71.8833H89.2476C89.4053 71.8833 89.4841 71.9668 89.4841 72.1291V75.6078C89.4841 75.9928 89.4424 76.3267 89.3543 76.6004C89.2662 76.874 89.127 77.1013 88.9323 77.2776C88.7375 77.4538 88.4732 77.5791 88.1439 77.6579C87.8146 77.7368 87.4112 77.7739 86.9289 77.7739H83.9331C83.4462 77.7739 83.0428 77.7368 82.7135 77.6579C82.3889 77.5791 82.1245 77.4538 81.9298 77.2776C81.735 77.1013 81.5912 76.8787 81.5078 76.6004C81.4197 76.3267 81.3779 75.9928 81.3779 75.6078V72.1291C81.3779 71.9621 81.4614 71.8833 81.6237 71.8833H82.6671Z" fill="#00778B"/>
<path d="M97.4139 71.8833C97.5438 71.8833 97.6087 71.9482 97.6087 72.0781V72.9779C97.6087 73.1078 97.5438 73.1727 97.4139 73.1727H93.2495C93.013 73.1727 92.8182 73.1913 92.6698 73.233C92.5214 73.2748 92.4009 73.3351 92.3174 73.4278C92.2293 73.516 92.169 73.6412 92.1365 73.7942C92.0994 73.9473 92.0809 74.1375 92.0809 74.3555V75.3109C92.0809 75.5382 92.0994 75.7284 92.1365 75.8815C92.1736 76.0299 92.2339 76.1505 92.3174 76.2432C92.4055 76.3314 92.5214 76.3963 92.6698 76.438C92.8182 76.4751 93.013 76.4983 93.2495 76.4983H97.4139C97.5438 76.4983 97.6087 76.5633 97.6087 76.6931V77.593C97.6087 77.7228 97.5438 77.7878 97.4139 77.7878H93.1011C92.6142 77.7878 92.2061 77.7507 91.8815 77.6718C91.5569 77.593 91.2925 77.4677 91.0978 77.2915C90.903 77.1152 90.7592 76.8926 90.6757 76.6143C90.5876 76.3406 90.5459 76.0067 90.5459 75.6217V74.0772C90.5459 73.6922 90.5876 73.3583 90.6757 73.0846C90.7639 72.8109 90.903 72.5837 91.0978 72.4074C91.2925 72.2312 91.5569 72.1013 91.8815 72.0224C92.2061 71.939 92.6142 71.8972 93.1011 71.8972H97.4139V71.8833Z" fill="#00778B"/>
<path d="M103.392 71.8833C103.869 71.8833 104.277 71.925 104.607 72.0085C104.936 72.092 105.2 72.2219 105.395 72.3935C105.59 72.5698 105.734 72.7924 105.817 73.0707C105.905 73.3443 105.947 73.6783 105.947 74.0633V76.9204C105.947 77.092 105.933 77.2358 105.91 77.3425C105.887 77.4538 105.84 77.5419 105.78 77.6069C105.72 77.6718 105.636 77.7182 105.539 77.7414C105.437 77.7646 105.312 77.7785 105.154 77.7785H100.043C99.7282 77.7785 99.4638 77.746 99.2551 77.6857C99.0418 77.6254 98.8749 77.5326 98.745 77.4121C98.6152 77.2915 98.5271 77.1338 98.4714 76.939C98.4158 76.7442 98.3926 76.5169 98.3926 76.2525V75.7377C98.3926 75.515 98.4204 75.3156 98.4714 75.144C98.5271 74.9677 98.6152 74.8193 98.745 74.6987C98.8749 74.5781 99.0418 74.4853 99.2551 74.425C99.4638 74.3647 99.7282 74.3323 100.043 74.3323H104.412V74.1282C104.412 73.9566 104.393 73.8082 104.356 73.6876C104.319 73.567 104.259 73.4696 104.175 73.3907C104.092 73.3165 103.971 73.2608 103.823 73.2237C103.675 73.1866 103.48 73.1681 103.243 73.1681H98.7589C98.6291 73.1681 98.5642 73.1032 98.5642 72.9733V72.0781C98.5642 71.9482 98.6291 71.8833 98.7589 71.8833H103.392ZM104.101 76.5957C104.217 76.5957 104.296 76.5679 104.342 76.5169C104.389 76.4612 104.412 76.3685 104.412 76.2339V75.2877H100.484C100.261 75.2877 100.108 75.3341 100.016 75.4223C99.9276 75.5104 99.8812 75.6403 99.8812 75.8119V76.0391C99.8812 76.2339 99.9276 76.3731 100.016 76.4612C100.104 76.5493 100.261 76.5957 100.484 76.5957H104.101Z" fill="#00778B"/>
<path d="M107.811 71.8831V70.4685C107.811 70.3108 107.89 70.2319 108.047 70.2319H109.109C109.267 70.2319 109.346 70.3108 109.346 70.4685V71.8831H111.224C111.354 71.8831 111.419 71.9481 111.419 72.0779V72.9592C111.419 73.0891 111.354 73.154 111.224 73.154H109.346V75.6447C109.346 75.9462 109.406 76.1642 109.527 76.3034C109.647 76.4425 109.888 76.5121 110.245 76.5121H111.289C111.419 76.5121 111.484 76.577 111.484 76.7069V77.5881C111.484 77.718 111.419 77.783 111.289 77.783H109.99C109.559 77.783 109.207 77.7458 108.928 77.667C108.65 77.5881 108.427 77.4629 108.256 77.2913C108.089 77.1197 107.973 76.8971 107.908 76.6234C107.843 76.3497 107.811 76.0251 107.811 75.6447V73.154H106.79C106.661 73.154 106.596 73.0891 106.596 72.9592V72.0779C106.596 71.9481 106.661 71.8831 106.79 71.8831H107.811Z" fill="#00778B"/>
<path d="M113.649 69.7031C113.807 69.7031 113.886 69.782 113.886 69.9397V70.9601C113.886 71.1224 113.807 71.2059 113.649 71.2059H112.596C112.429 71.2059 112.351 71.1224 112.351 70.9601V69.9397C112.351 69.782 112.434 69.7031 112.596 69.7031H113.649ZM113.649 71.8831C113.807 71.8831 113.886 71.9666 113.886 72.1289V77.5371C113.886 77.6948 113.807 77.7736 113.649 77.7736H112.596C112.439 77.7736 112.36 77.6948 112.36 77.5371V72.1289C112.36 71.9619 112.439 71.8831 112.596 71.8831H113.649Z" fill="#00778B"/>
<path d="M120.745 71.8833C121.223 71.8833 121.631 71.925 121.96 72.0085C122.289 72.092 122.554 72.2219 122.748 72.3935C122.943 72.5698 123.087 72.7924 123.17 73.0707C123.258 73.3443 123.3 73.6783 123.3 74.0633V75.6078C123.3 75.9928 123.258 76.3267 123.17 76.6004C123.087 76.874 122.943 77.1013 122.748 77.2776C122.554 77.4538 122.289 77.5791 121.96 77.6579C121.631 77.7368 121.227 77.7739 120.745 77.7739H117.708C117.221 77.7739 116.817 77.7368 116.488 77.6579C116.163 77.5791 115.899 77.4538 115.704 77.2776C115.509 77.1013 115.366 76.8787 115.282 76.6004C115.194 76.3267 115.152 75.9928 115.152 75.6078V74.0633C115.152 73.6783 115.194 73.3443 115.282 73.0707C115.366 72.797 115.509 72.5698 115.704 72.3935C115.899 72.2173 116.163 72.0874 116.488 72.0085C116.813 71.925 117.221 71.8833 117.708 71.8833H120.745ZM116.687 75.3388C116.687 75.5661 116.706 75.7562 116.743 75.9093C116.78 76.0577 116.84 76.1783 116.928 76.2711C117.017 76.3592 117.137 76.4241 117.29 76.4659C117.439 76.5076 117.629 76.5262 117.861 76.5262H120.597C120.833 76.5262 121.028 76.5076 121.176 76.4659C121.325 76.4288 121.445 76.3638 121.538 76.2711C121.626 76.1829 121.691 76.0623 121.724 75.9093C121.761 75.7609 121.779 75.5707 121.779 75.3388V74.3184C121.779 74.0957 121.761 73.9102 121.724 73.7618C121.686 73.6134 121.626 73.4881 121.538 73.3954C121.45 73.3026 121.329 73.2377 121.176 73.2006C121.028 73.1634 120.833 73.1449 120.597 73.1449H117.861C117.633 73.1449 117.443 73.1634 117.29 73.2006C117.142 73.2377 117.021 73.3026 116.928 73.3954C116.84 73.4881 116.775 73.6087 116.743 73.7618C116.706 73.9102 116.687 74.1004 116.687 74.3184V75.3388Z" fill="#00778B"/>
<path d="M130.168 71.8833C130.646 71.8833 131.054 71.925 131.383 72.0085C131.712 72.092 131.977 72.2219 132.171 72.3935C132.366 72.5698 132.51 72.7924 132.593 73.0707C132.682 73.3443 132.723 73.6783 132.723 74.0633V77.5419C132.723 77.6996 132.645 77.7785 132.487 77.7785H131.434C131.276 77.7785 131.198 77.6996 131.198 77.5419V74.4297C131.198 74.207 131.184 74.0215 131.156 73.8685C131.128 73.7154 131.072 73.5948 130.989 73.502C130.905 73.4139 130.794 73.349 130.65 73.3072C130.507 73.2701 130.321 73.2469 130.094 73.2469H127.237C127.01 73.2469 126.82 73.2655 126.667 73.3072C126.518 73.3443 126.398 73.4093 126.305 73.502C126.217 73.5902 126.152 73.7154 126.115 73.8685C126.078 74.0215 126.059 74.2117 126.059 74.4297V77.5419C126.059 77.6996 125.981 77.7785 125.823 77.7785H124.77C124.608 77.7785 124.524 77.6996 124.524 77.5419V74.0633C124.524 73.6783 124.566 73.3443 124.654 73.0707C124.742 72.797 124.882 72.5698 125.076 72.3935C125.271 72.2173 125.535 72.0874 125.86 72.0085C126.185 71.925 126.593 71.8833 127.08 71.8833H130.168Z" fill="#00778B"/>
<path d="M138.821 71.8833C139.299 71.8833 139.707 71.925 140.036 72.0085C140.366 72.092 140.63 72.2219 140.825 72.3935C141.02 72.5698 141.163 72.7924 141.247 73.0707C141.335 73.3443 141.377 73.6783 141.377 74.0633V76.9204C141.377 77.092 141.363 77.2358 141.34 77.3425C141.316 77.4538 141.27 77.5419 141.21 77.6069C141.149 77.6718 141.071 77.7182 140.969 77.7414C140.867 77.7646 140.741 77.7785 140.584 77.7785H135.473C135.158 77.7785 134.894 77.746 134.685 77.6857C134.472 77.6254 134.305 77.5326 134.175 77.4121C134.045 77.2915 133.957 77.1338 133.901 76.939C133.845 76.7442 133.822 76.5169 133.822 76.2525V75.7377C133.822 75.515 133.85 75.3156 133.901 75.144C133.957 74.9677 134.045 74.8193 134.175 74.6987C134.305 74.5781 134.472 74.4853 134.685 74.425C134.898 74.3647 135.158 74.3323 135.473 74.3323H139.842V74.1282C139.842 73.9566 139.823 73.8082 139.786 73.6876C139.749 73.567 139.689 73.4696 139.605 73.3907C139.517 73.3165 139.401 73.2608 139.253 73.2237C139.104 73.1866 138.91 73.1681 138.673 73.1681H134.189C134.059 73.1681 133.994 73.1032 133.994 72.9733V72.0781C133.994 71.9482 134.059 71.8833 134.189 71.8833H138.821ZM139.526 76.5957C139.642 76.5957 139.721 76.5679 139.767 76.5169C139.814 76.4612 139.837 76.3685 139.837 76.2339V75.2877H135.909C135.687 75.2877 135.533 75.3341 135.441 75.4223C135.353 75.5104 135.306 75.6403 135.306 75.8119V76.0391C135.306 76.2339 135.353 76.3731 135.441 76.4612C135.529 76.5493 135.687 76.5957 135.909 76.5957H139.526Z" fill="#00778B"/>
<path d="M143.82 69.7266C143.978 69.7266 144.057 69.8054 144.057 69.9631V77.5419C144.057 77.6996 143.978 77.7785 143.82 77.7785H142.768C142.61 77.7785 142.531 77.6996 142.531 77.5419V69.9631C142.531 69.8054 142.61 69.7266 142.768 69.7266H143.82Z" fill="#00778B"/>
<path d="M157.213 70.2646C157.375 70.2646 157.459 70.3435 157.459 70.5012V71.5541C157.459 71.721 157.375 71.7999 157.213 71.7999H153.842V77.542C153.842 77.6997 153.763 77.7786 153.605 77.7786H152.437C152.279 77.7786 152.2 77.6997 152.2 77.542V71.7999H148.829C148.662 71.7999 148.583 71.7164 148.583 71.5541V70.5012C148.583 70.3435 148.666 70.2646 148.829 70.2646H157.213Z" fill="#00778B"/>
<path d="M163.631 71.8833C163.998 71.8833 164.299 71.9158 164.54 71.9761C164.781 72.0364 164.971 72.1384 165.111 72.2776C165.25 72.4167 165.347 72.5976 165.407 72.8249C165.463 73.0521 165.495 73.3258 165.495 73.6458V74.6662C165.495 74.8935 165.444 75.0558 165.347 75.144C165.245 75.2321 165.092 75.2785 164.883 75.2785H159.462V75.5382C159.462 75.8768 159.541 76.118 159.703 76.2664C159.866 76.4149 160.176 76.4937 160.645 76.4937H165.12C165.25 76.4937 165.315 76.5586 165.315 76.6885V77.5883C165.315 77.7182 165.25 77.7831 165.12 77.7831H160.492C160.005 77.7831 159.597 77.746 159.272 77.6672C158.947 77.5883 158.683 77.4631 158.488 77.2868C158.294 77.1106 158.15 76.8879 158.066 76.6097C157.978 76.336 157.937 76.002 157.937 75.6171V74.0725C157.937 73.6876 157.978 73.3536 158.066 73.08C158.154 72.8063 158.294 72.579 158.488 72.4028C158.683 72.2265 158.947 72.0967 159.272 72.0178C159.597 71.9343 160.005 71.8926 160.492 71.8926H163.631V71.8833ZM159.458 74.323H163.803C163.923 74.323 163.984 74.2627 163.984 74.1421V73.6922C163.984 73.4696 163.937 73.3119 163.845 73.2191C163.752 73.1263 163.58 73.08 163.33 73.08H160.64C160.176 73.08 159.861 73.1542 159.699 73.298C159.536 73.4464 159.458 73.6876 159.458 74.0354V74.323Z" fill="#00778B"/>
<path d="M173.249 71.8833C173.379 71.8833 173.444 71.9482 173.444 72.0781V72.9779C173.444 73.1078 173.379 73.1727 173.249 73.1727H169.084C168.848 73.1727 168.653 73.1913 168.505 73.233C168.356 73.2701 168.236 73.3351 168.152 73.4278C168.064 73.516 168.004 73.6412 167.971 73.7942C167.934 73.9473 167.916 74.1375 167.916 74.3555V75.3109C167.916 75.5382 167.934 75.7284 167.971 75.8815C168.009 76.0299 168.069 76.1505 168.152 76.2432C168.24 76.3314 168.356 76.3963 168.505 76.438C168.653 76.4751 168.848 76.4983 169.084 76.4983H173.249C173.379 76.4983 173.444 76.5633 173.444 76.6931V77.593C173.444 77.7228 173.379 77.7878 173.249 77.7878H168.936C168.449 77.7878 168.041 77.7507 167.716 77.6718C167.392 77.593 167.127 77.4677 166.933 77.2915C166.738 77.1152 166.594 76.8926 166.511 76.6143C166.427 76.3406 166.381 76.0067 166.381 75.6217V74.0772C166.381 73.6922 166.423 73.3583 166.511 73.0846C166.599 72.8109 166.738 72.5837 166.933 72.4074C167.127 72.2312 167.392 72.1013 167.716 72.0224C168.041 71.939 168.449 71.8972 168.936 71.8972H173.249V71.8833Z" fill="#00778B"/>
<path d="M175.763 69.7266C175.921 69.7266 175.999 69.8054 175.999 69.9631V71.8833H180.015C180.493 71.8833 180.901 71.9251 181.23 72.0086C181.56 72.092 181.824 72.2219 182.019 72.3935C182.214 72.5698 182.357 72.7924 182.441 73.0707C182.524 73.3444 182.571 73.6783 182.571 74.0633V77.5419C182.571 77.6996 182.492 77.7785 182.334 77.7785H181.277C181.119 77.7785 181.04 77.6996 181.04 77.5419V74.4297C181.04 74.2071 181.026 74.0215 180.999 73.8685C180.971 73.7154 180.915 73.5948 180.832 73.5021C180.748 73.4139 180.637 73.349 180.493 73.3073C180.349 73.2702 180.164 73.247 179.937 73.247H175.999V77.5419C175.999 77.6996 175.921 77.7785 175.763 77.7785H174.71C174.552 77.7785 174.474 77.6996 174.474 77.5419V69.9631C174.474 69.8054 174.552 69.7266 174.71 69.7266H175.763Z" fill="#00778B"/>
<path d="M189.499 71.8833C189.977 71.8833 190.385 71.925 190.714 72.0085C191.043 72.092 191.308 72.2219 191.503 72.3935C191.697 72.5698 191.841 72.7924 191.925 73.0707C192.013 73.3443 192.054 73.6783 192.054 74.0633V77.5419C192.054 77.6996 191.976 77.7785 191.818 77.7785H190.765C190.608 77.7785 190.529 77.6996 190.529 77.5419V74.4297C190.529 74.207 190.515 74.0215 190.487 73.8685C190.459 73.7154 190.404 73.5948 190.32 73.502C190.237 73.4139 190.125 73.349 189.982 73.3072C189.838 73.2701 189.652 73.2469 189.425 73.2469H186.568C186.341 73.2469 186.151 73.2655 185.998 73.3072C185.85 73.3443 185.729 73.4093 185.636 73.502C185.548 73.5902 185.483 73.7154 185.446 73.8685C185.409 74.0215 185.39 74.2117 185.39 74.4297V77.5419C185.39 77.6996 185.312 77.7785 185.154 77.7785H184.101C183.939 77.7785 183.855 77.6996 183.855 77.5419V74.0633C183.855 73.6783 183.897 73.3443 183.985 73.0707C184.073 72.797 184.213 72.5698 184.407 72.3935C184.602 72.2173 184.866 72.0874 185.191 72.0085C185.516 71.925 185.924 71.8833 186.411 71.8833H189.499Z" fill="#00778B"/>
<path d="M198.88 71.8833C199.357 71.8833 199.766 71.925 200.095 72.0085C200.424 72.092 200.688 72.2219 200.883 72.3935C201.078 72.5698 201.222 72.7924 201.305 73.0707C201.393 73.3443 201.435 73.6783 201.435 74.0633V75.6078C201.435 75.9928 201.393 76.3267 201.305 76.6004C201.222 76.874 201.078 77.1013 200.883 77.2776C200.688 77.4538 200.424 77.5791 200.095 77.6579C199.766 77.7368 199.362 77.7739 198.88 77.7739H195.842C195.355 77.7739 194.947 77.7368 194.623 77.6579C194.298 77.5791 194.034 77.4538 193.839 77.2776C193.644 77.1013 193.5 76.8787 193.417 76.6004C193.329 76.3267 193.287 75.9928 193.287 75.6078V74.0633C193.287 73.6783 193.329 73.3443 193.417 73.0707C193.505 72.797 193.644 72.5698 193.839 72.3935C194.034 72.2173 194.298 72.0874 194.623 72.0085C194.947 71.925 195.355 71.8833 195.842 71.8833H198.88ZM194.822 75.3388C194.822 75.5661 194.841 75.7562 194.878 75.9093C194.915 76.0577 194.975 76.1783 195.063 76.2711C195.151 76.3592 195.272 76.4241 195.425 76.4659C195.573 76.5076 195.763 76.5262 195.995 76.5262H198.731C198.968 76.5262 199.163 76.5076 199.311 76.4659C199.46 76.4288 199.58 76.3638 199.673 76.2711C199.761 76.1829 199.826 76.0623 199.858 75.9093C199.895 75.7609 199.914 75.5707 199.914 75.3388V74.3184C199.914 74.0957 199.895 73.9102 199.858 73.7618C199.821 73.6134 199.761 73.4881 199.673 73.3954C199.585 73.3026 199.464 73.2377 199.311 73.2006C199.163 73.1634 198.968 73.1449 198.731 73.1449H195.995C195.768 73.1449 195.578 73.1634 195.425 73.2006C195.277 73.2377 195.156 73.3026 195.063 73.3954C194.975 73.4881 194.91 73.6087 194.878 73.7618C194.841 73.9102 194.822 74.1004 194.822 74.3184V75.3388Z" fill="#00778B"/>
<path d="M204 69.7266C204.158 69.7266 204.237 69.8054 204.237 69.9631V77.5419C204.237 77.6996 204.158 77.7785 204 77.7785H202.947C202.79 77.7785 202.711 77.6996 202.711 77.5419V69.9631C202.711 69.8054 202.79 69.7266 202.947 69.7266H204Z" fill="#00778B"/>
<path d="M211.091 71.8833C211.568 71.8833 211.977 71.925 212.306 72.0085C212.635 72.092 212.899 72.2219 213.094 72.3935C213.289 72.5698 213.433 72.7924 213.516 73.0707C213.604 73.3443 213.646 73.6783 213.646 74.0633V75.6078C213.646 75.9928 213.604 76.3267 213.516 76.6004C213.433 76.874 213.289 77.1013 213.094 77.2776C212.899 77.4538 212.635 77.5791 212.306 77.6579C211.977 77.7368 211.573 77.7739 211.091 77.7739H208.053C207.566 77.7739 207.158 77.7368 206.834 77.6579C206.509 77.5791 206.245 77.4538 206.05 77.2776C205.855 77.1013 205.711 76.8787 205.628 76.6004C205.54 76.3267 205.498 75.9928 205.498 75.6078V74.0633C205.498 73.6783 205.54 73.3443 205.628 73.0707C205.716 72.797 205.855 72.5698 206.05 72.3935C206.245 72.2173 206.509 72.0874 206.834 72.0085C207.158 71.925 207.566 71.8833 208.053 71.8833H211.091ZM207.038 75.3388C207.038 75.5661 207.056 75.7562 207.093 75.9093C207.13 76.0577 207.191 76.1783 207.279 76.2711C207.367 76.3592 207.488 76.4241 207.641 76.4659C207.789 76.5076 207.979 76.5262 208.211 76.5262H210.947C211.184 76.5262 211.378 76.5076 211.527 76.4659C211.675 76.4288 211.796 76.3638 211.888 76.2711C211.977 76.1829 212.041 76.0623 212.074 75.9093C212.111 75.7609 212.13 75.5707 212.13 75.3388V74.3184C212.13 74.0957 212.111 73.9102 212.074 73.7618C212.037 73.6134 211.977 73.4881 211.888 73.3954C211.8 73.3026 211.68 73.2377 211.527 73.2006C211.378 73.1634 211.184 73.1449 210.947 73.1449H208.211C207.984 73.1449 207.794 73.1634 207.641 73.2006C207.492 73.2377 207.372 73.3026 207.279 73.3954C207.191 73.4881 207.126 73.6087 207.093 73.7618C207.056 73.9102 207.038 74.1004 207.038 74.3184V75.3388Z" fill="#00778B"/>
<path d="M220.374 71.8833C220.861 71.8833 221.265 71.925 221.594 72.0085C221.918 72.092 222.183 72.2172 222.382 72.3889C222.582 72.5605 222.725 72.7831 222.804 73.0614C222.888 73.3351 222.929 73.669 222.929 74.054V77.9594C222.929 78.3536 222.888 78.6876 222.804 78.9612C222.721 79.2349 222.582 79.4622 222.382 79.6384C222.183 79.8147 221.918 79.9445 221.594 80.0234C221.269 80.1069 220.861 80.1486 220.374 80.1486H215.319C215.19 80.1486 215.125 80.0837 215.125 79.9538V79.054C215.125 78.9241 215.19 78.8592 215.319 78.8592H220.226C220.462 78.8592 220.657 78.8406 220.805 78.7989C220.954 78.7572 221.074 78.6969 221.167 78.6041C221.255 78.516 221.32 78.3907 221.357 78.2377C221.394 78.0846 221.413 77.8944 221.413 77.6625V77.3842H217.378C216.892 77.3842 216.483 77.3425 216.159 77.259C215.834 77.1755 215.57 77.0456 215.375 76.874C215.18 76.6978 215.037 76.4751 214.953 76.1969C214.865 75.9232 214.823 75.5846 214.823 75.195V74.0725C214.823 73.6783 214.865 73.3443 214.953 73.0707C215.041 72.797 215.18 72.5698 215.375 72.3935C215.57 72.2173 215.834 72.0874 216.159 72.0085C216.483 71.925 216.892 71.8833 217.378 71.8833H220.374ZM216.354 75.1904C216.354 75.3759 216.372 75.5336 216.409 75.6588C216.446 75.784 216.507 75.8861 216.595 75.9696C216.683 76.0531 216.803 76.1087 216.956 76.1458C217.105 76.1829 217.295 76.2015 217.527 76.2015H221.413V74.1931C221.413 73.8128 221.334 73.5438 221.172 73.3861C221.01 73.2284 220.699 73.1495 220.23 73.1495H217.527C217.3 73.1495 217.109 73.1681 216.956 73.2052C216.808 73.2423 216.687 73.298 216.595 73.3814C216.507 73.4649 216.442 73.567 216.409 73.6968C216.372 73.8267 216.354 73.9798 216.354 74.1607V75.1904Z" fill="#00778B"/>
<path d="M225.559 69.7031C225.717 69.7031 225.796 69.782 225.796 69.9397V70.9601C225.796 71.1224 225.717 71.2059 225.559 71.2059H224.507C224.34 71.2059 224.261 71.1224 224.261 70.9601V69.9397C224.261 69.782 224.344 69.7031 224.507 69.7031H225.559ZM225.559 71.8831C225.717 71.8831 225.796 71.9666 225.796 72.1289V77.5371C225.796 77.6948 225.717 77.7736 225.559 77.7736H224.507C224.349 77.7736 224.27 77.6948 224.27 77.5371V72.1289C224.27 71.9619 224.349 71.8831 224.507 71.8831H225.559Z" fill="#00778B"/>
<path d="M232.622 71.8833C232.989 71.8833 233.29 71.9158 233.531 71.9761C233.773 72.0364 233.963 72.1384 234.102 72.2776C234.241 72.4167 234.338 72.5976 234.399 72.8249C234.454 73.0521 234.487 73.3258 234.487 73.6458V74.6662C234.487 74.8935 234.436 75.0558 234.338 75.144C234.236 75.2321 234.083 75.2785 233.875 75.2785H228.453V75.5382C228.453 75.8768 228.532 76.118 228.695 76.2664C228.857 76.4149 229.168 76.4937 229.636 76.4937H234.111C234.241 76.4937 234.306 76.5586 234.306 76.6885V77.5883C234.306 77.7182 234.241 77.7831 234.111 77.7831H229.483C228.996 77.7831 228.593 77.746 228.263 77.6672C227.939 77.5883 227.674 77.4631 227.48 77.2868C227.285 77.1106 227.141 76.8879 227.058 76.6097C226.969 76.336 226.928 76.002 226.928 75.6171V74.0725C226.928 73.6876 226.969 73.3536 227.058 73.08C227.146 72.8063 227.285 72.579 227.48 72.4028C227.674 72.2265 227.939 72.0967 228.263 72.0178C228.588 71.9343 228.996 71.8926 229.483 71.8926H232.622V71.8833ZM228.449 74.323H232.794C232.915 74.323 232.975 74.2627 232.975 74.1421V73.6922C232.975 73.4696 232.929 73.3119 232.836 73.2191C232.743 73.1263 232.571 73.08 232.321 73.08H229.627C229.163 73.08 228.848 73.1542 228.685 73.298C228.523 73.4464 228.444 73.6876 228.444 74.0354V74.323H228.449Z" fill="#00778B"/>
<path d="M242.421 71.8833C242.551 71.8833 242.616 71.9482 242.616 72.0781V72.9362C242.616 73.066 242.551 73.131 242.421 73.131H237.579C237.357 73.131 237.204 73.1727 237.116 73.2562C237.027 73.3397 236.986 73.4603 236.986 73.618V73.7803C236.986 73.9241 237.027 74.0354 237.116 74.1189C237.204 74.2024 237.357 74.2442 237.579 74.2442H241.196C241.799 74.2442 242.226 74.3694 242.486 74.6199C242.745 74.8703 242.871 75.2228 242.871 75.682V76.285C242.871 76.5215 242.843 76.7303 242.782 76.9204C242.727 77.1059 242.629 77.2636 242.5 77.3935C242.365 77.5234 242.194 77.6208 241.98 77.6904C241.767 77.7599 241.503 77.7924 241.187 77.7924H235.692C235.562 77.7924 235.497 77.7275 235.497 77.5976V76.7395C235.497 76.6097 235.562 76.5447 235.692 76.5447H240.779C241.002 76.5447 241.155 76.5076 241.247 76.4288C241.336 76.3499 241.382 76.2154 241.382 76.0299V75.7423C241.382 75.5985 241.336 75.4872 241.247 75.4084C241.159 75.3295 241.002 75.2924 240.779 75.2924H237.171C236.568 75.2924 236.142 75.1672 235.882 74.9213C235.622 74.6755 235.497 74.3137 235.497 73.8406V73.3675C235.497 73.1449 235.525 72.9455 235.585 72.7599C235.641 72.579 235.738 72.4213 235.868 72.2915C236.003 72.1616 236.174 72.0642 236.387 71.9946C236.601 71.925 236.865 71.8926 237.18 71.8926H242.421V71.8833Z" fill="#00778B"/>
</g>
<defs>
<clipPath id="clip0_137_3783">
<rect width="243" height="80" fill="white"/>
</clipPath>
</defs>
</svg>
