<svg width="41" height="27" viewBox="0 0 41 27" fill="none" xmlns="http://www.w3.org/2000/svg">
<path d="M40.3212 22.6153C39.8734 23.0683 39.2577 23.3513 38.5861 23.3513C37.9704 23.3513 37.3547 23.0683 36.8509 22.6153C36.4032 22.1624 36.1233 21.5396 36.1233 20.9168C36.1233 19.6712 37.2987 18.4257 38.5861 18.4257C39.2017 18.4257 39.8174 18.7087 40.2652 19.1617C40.713 19.6146 40.9928 20.294 40.9928 20.9168C41.0488 21.5396 40.769 22.1624 40.3212 22.6153Z" fill="white"/>
<path d="M20.3441 24.4113C19.4375 23.8993 19.0409 22.7616 19.5508 21.7945C20.0608 20.8842 21.1941 20.5429 22.1007 20.998C23.0073 21.51 23.4039 22.6478 22.894 23.6149C22.8373 23.7856 22.6673 23.8993 22.554 24.07C21.9874 24.6389 21.0807 24.8096 20.3441 24.4113Z" fill="white"/>
<path d="M28.6978 22.6681C27.704 21.8632 27.5383 20.3684 28.2561 19.3336C29.0291 18.2987 30.4646 18.1262 31.4584 18.9311C32.4523 19.736 32.6179 21.2308 31.8449 22.2656C31.7897 22.3231 31.7345 22.4381 31.6793 22.4956C30.9063 23.3005 29.6364 23.4155 28.6978 22.6681Z" fill="white"/>
<path d="M14.455 26.6113C14.2254 26.8334 13.8809 27 13.4791 27C13.1346 27 12.7902 26.8334 12.5032 26.6113C12.2735 26.3892 12.1013 26.0561 12.1013 25.7229C12.1013 25.0012 12.7328 24.4459 13.4217 24.4459C13.7661 24.4459 14.1106 24.557 14.3976 24.8346C14.6272 25.0567 14.7994 25.4453 14.7994 25.7785C14.8569 26.0561 14.6846 26.3892 14.455 26.6113Z" fill="white"/>
<path d="M14.1393 17.9005C13.1804 17.4454 12.7291 16.3078 13.1804 15.3976C13.5752 14.4307 14.7034 13.9756 15.6624 14.3738C16.6214 14.8288 17.0727 15.9665 16.6214 16.8766C16.5086 17.1041 16.3957 17.2748 16.2265 17.4454C15.6624 18.0142 14.8727 18.2418 14.1393 17.9005Z" fill="white"/>
<path d="M40.1077 5.30049C39.4942 5.92076 38.7134 6.2027 37.9326 6.2027C37.1518 6.2027 36.371 5.86437 35.7575 5.30049C35.144 4.68022 34.8094 3.89079 34.8651 3.10135C34.8651 1.52248 36.3152 0 37.9326 0C38.7134 0 39.55 0.281941 40.1077 0.902211C40.6655 1.46609 41.0001 2.31192 41.0001 3.10135C41.0001 3.89079 40.7212 4.73661 40.1077 5.30049Z" fill="white"/>
<path d="M1.20119 15.6556C0.366055 15.4348 -0.135024 14.6068 0.0320026 13.7788C0.254705 12.9508 1.03416 12.454 1.8693 12.6196C2.70443 12.8404 3.20551 13.6684 3.03848 14.4964C2.98281 14.7724 2.81578 15.0484 2.64875 15.214C2.25902 15.6004 1.70227 15.766 1.20119 15.6556Z" fill="white"/>
<path d="M7.70375 11.9142C6.76935 11.5661 6.27466 10.4639 6.60445 9.47765C6.93424 8.49143 7.97858 7.96932 8.91298 8.3174C9.84739 8.66547 10.3421 9.76772 10.0123 10.7539C9.90235 11.044 9.79242 11.2761 9.57256 11.4501C9.13284 11.9722 8.36333 12.2043 7.70375 11.9142Z" fill="white"/>
<path d="M14.3494 9.57194C13.1586 8.99633 12.6482 7.49975 13.272 6.29097C13.8958 5.08219 15.3134 4.56414 16.5609 5.19731C17.7517 5.83048 18.2054 7.32706 17.6383 8.47828C17.5249 8.70853 17.3548 8.93877 17.1847 9.11145C16.4475 9.85975 15.2567 10.09 14.3494 9.57194Z" fill="white"/>
<path d="M21.2997 7.7244C20.0049 6.87428 19.6671 5.11736 20.5116 3.81384C21.356 2.51032 23.1012 2.17027 24.3961 3.02039C25.6909 3.92719 26.0287 5.68411 25.1843 6.98762C25.128 7.15765 24.9591 7.271 24.8465 7.38435C23.8894 8.29114 22.4257 8.51784 21.2997 7.7244Z" fill="white"/>
<path d="M28.6031 6.06271C27.4232 5.04442 27.3108 3.23411 28.3222 2.10267C29.3335 0.914657 31.0754 0.744941 32.2553 1.76324C33.4352 2.78153 33.5476 4.53527 32.5924 5.77985C32.5362 5.83642 32.48 5.893 32.4238 5.94957C31.3563 6.96786 29.7269 7.02444 28.6031 6.06271Z" fill="white"/>
<path d="M40.218 14.1696C39.7152 14.6774 38.9891 14.9595 38.2629 14.9595C37.5367 14.9595 36.8663 14.6774 36.3636 14.1696C35.8608 13.6618 35.5815 12.9847 35.5815 12.2512C35.5815 10.7842 36.8663 9.48651 38.3187 9.48651C38.9891 9.48651 39.7152 9.76862 40.218 10.2764C40.7207 10.7842 41 11.5177 41 12.1948C41 12.9847 40.7207 13.6618 40.218 14.1696Z" fill="white"/>
<path d="M7.2027 21.2802C6.31121 20.9981 5.75402 20.039 6.03261 19.1362C6.31121 18.2335 7.25842 17.6693 8.14992 17.9514C9.04141 18.2335 9.5986 19.1927 9.32001 20.0954C9.20857 20.3775 9.09713 20.6596 8.87426 20.8288C8.42851 21.2802 7.81561 21.4494 7.2027 21.2802Z" fill="white"/>
<path d="M21.1266 15.7195C20.0595 15.0451 19.7226 13.6401 20.3965 12.5722C21.0705 11.5044 22.4745 11.1672 23.4855 11.8416C24.5526 12.516 24.8895 13.9211 24.2156 14.9889C24.1033 15.1575 23.9909 15.2699 23.8786 15.3823C23.2047 16.1129 22.0252 16.2815 21.1266 15.7195Z" fill="white"/>
<path d="M28.5243 14.4292C27.4625 13.5796 27.3508 11.9938 28.189 10.9176C29.0272 9.89812 30.5919 9.7282 31.5978 10.5778C32.6595 11.4274 32.8272 13.0132 31.933 14.0327C31.8772 14.0894 31.8213 14.146 31.7654 14.2027C30.9272 15.1089 29.4743 15.2222 28.5243 14.4292Z" fill="white"/>
</svg>
