<svg xmlns="http://www.w3.org/2000/svg" viewBox="0 0 1000 1000" fill="#fff" xmlns:v="https://vecta.io/nano"><path d="M571.8 242.4h9v9h-9zm186.9 111.5h9v9h-9zm109.2-9.6c2.2-1 4-2.6 5.3-4.5 1.3-2 2.3-4.4 2.9-7.2s.8-6 .8-9.5v-62.8h-9v62.8c0 2.5-.1 4.7-.4 6.4-.3 1.8-.7 3.2-1.3 4.3s-1.5 1.9-2.6 2.4-2.5.7-4.2.7c-.8 0-1.5 0-2.1-.1s-1.4-.3-2.5-.6l-2.4 8.6a26.73 26.73 0 0 0 7.3 1c3.3.1 6-.4 8.2-1.5M837 244.4h-12.3v-2.1c0-1.1.2-2 .7-2.6.4-.5 1.4-.8 2.8-.8h6.2v-6.3H828c-3.4 0-6.1.9-7.9 2.7s-2.8 4.7-2.8 8.6v7.3H837v-6.8zm-96.3 109.5h9v9h-9zM589.8 242.4h9v9h-9zm206.7 71.7c3.4 2.4 7.4 4.2 11.9 5.4s9.2 1.7 14.3 1.7h2.4l3-6.3v8.9c0 4.7-1.3 8.1-4 10.1s-6.5 3-11.4 3c-2.8 0-5.3-.3-7.5-.8s-4.7-1.4-7.6-2.7l-2.8 8.6c3.4 1.3 6.5 2.2 9.2 2.9 2.7.6 5.3 1 8 1 8.8 0 15.1-2.1 19.1-6.2 4-4.2 6-9.7 6-16.8v-62.6h-14.4c-5.5 0-10.6.8-15.2 2.4s-8.5 3.7-11.7 6.4c-3.3 2.7-5.8 6-7.6 9.8s-2.7 7.9-2.7 12.3c0 5.3 1 9.8 3 13.6a24.85 24.85 0 0 0 8 9.3m0-31.8c1.4-2.7 3.2-5 5.5-6.9s4.9-3.4 7.8-4.4c2.8-1 5.8-1.5 8.8-1.6h0 14.5L828 272v40.3h-9a32.56 32.56 0 0 1-9.5-1.4c-3-.9-5.6-2.3-7.8-4.1s-4-4-5.3-6.6-1.9-5.6-1.9-9c0-3.3.7-6.2 2-8.9m-222.3 62.3h18.7v-6.7l.6.9c1.4 2 3.1 3.5 5.3 4.5s4.9 1.6 8.1 1.6h163.9v-84.6h-9V336h-9.3-145.2c-1.7 0-3.1-.2-4.2-.7s-1.9-1.3-2.6-2.4c-.6-1.1-1.1-2.5-1.3-4.3-.3-1.8-.4-3.9-.4-6.4v-61.9h-24.3c-24.8 0-41.8 19.7-41.8 42.2v.2c0 22.5 16.7 41.9 41.5 41.9m-31.9-42.4c0-18.5 13.3-33.4 32-33.4h21l-5.5 2.7v50.6c0 3.5.3 6.7.8 9.5.3 1.6.8 3.1 1.4 4.5h-17.5c-18.7 0-32.2-15.1-32.2-33.7v-.2zm-54.6 20.2l3.9 10.3-57-72.5h-9v84.3h9.3V281l-5.3-12.3 59.8 75.8h7.6v-84.3h-9.3zm128 156.6l51.8-49.4v-33.9H529.1v38.6h71l26.3-16.9-65.7 66 7 28.6h18.7c25.2 0 40.1 9.3 40.1 26v.6c0 15.2-12 24.8-29 24.8-20.8 0-35.4-8.8-49.5-24.5l-31 29.5c17.6 20.7 43 35.4 79.9 35.4 45.7 0 73.8-28.3 73.8-66.9v-.6c.1-38-27.2-52.6-55-57.3M367.1 258.8c-25.7 0-43.2 20.3-43.2 43.6v.2c0 23.2 17.2 43.3 42.9 43.3s43.2-20.3 43.2-43.6v-.2c.1-23.2-17.2-43.3-42.9-43.3m33.1 43.8c0 19.1-13.7 34.5-33 34.5s-33.3-15.6-33.3-34.8v-.2c0-19.1 13.7-34.5 33-34.5s33.3 15.6 33.3 34.8v.2zm391.4 89.7c-63.2 0-109.2 47.6-109.2 105.8v.6c0 58.1 45.4 105.2 108.6 105.2s109.2-47.6 109.2-105.8v-.6c0-58.2-45.4-105.2-108.6-105.2m61.5 106.3c0 35.1-25.2 63.7-61.5 63.7s-62.1-29.2-62.1-64.3v-.6c0-35.1 25.2-63.7 61.5-63.7s62.1 29.2 62.1 64.3v.6zM298 260.2h9.5v84.2H298zM145 576.9l8.7-6.7 44.8-34.5c36.3-28 53.9-45 53.9-79.2v-.5c0-38.3-28.1-63.1-70.6-63.1-36.6 0-56.2 14.9-76.4 42.4l31.6 25.4c15.2-18.7 26.1-27.5 41.9-27.5 16.1 0 27.5 9.3 27.5 26.6 0 16.9-10 28-35.4 49.1l-68.2 55.8v35.6h151.6v-38.9h-78.1L145 576.9zm.7-231.8l36.2-84.9h-10.2L143 329.3l.9 9.2-2.3-5.7-24.9-60-5.2-12.6h-10.6l36.3 84.9zm49.2-84.9h9.5v84.2h-9.5zm59.9 37.6c-18.6-4-22.9-8.4-22.9-16.4v-.2c0-7.6 7-13.6 18-13.6 8.7 0 16.5 2.8 24.4 9.1l5.5-7.3c-8.6-6.9-17.4-10.4-29.7-10.4-16 0-27.7 9.7-27.7 23v.2c0 13.8 8.9 20.1 28.3 24.3 17.7 3.7 21.9 8.2 21.9 16v.2c0 8.3-7.5 14.3-18.8 14.3-11.7 0-20.1-4-28.9-11.9l-5.9 7c10.1 9 21.1 13.5 34.5 13.5 16.8 0 28.8-9.4 28.8-23.8v-.2c0-12.9-8.7-19.7-27.5-23.8m122.1 81l10.4 9.9-10 10.4-10.3-9.9zm23.8 10.4l10.4 9.9 9.9-10.4-10.4-9.9zm-14.6 13l8 7.8 7.8-8.1-8.1-7.7zm29.6 4.4l8.1 7.8 7.7-8.1-8.1-7.7zm-42.8 7.9l8 7.8 7.8-8.1-8.1-7.7zm27.1 1l8 7.7 7.8-8-8.1-7.8zm-10.6 9.3l5.6 5.4 5.5-5.7-5.7-5.4zm21.4 4.2l5.7 5.5 5.4-5.7-5.6-5.4zm46.802-43.126l17.606-3.226 3.226 17.606-17.606 3.226zm-23.016 7.336l14.164-2.593 2.593 14.164-14.164 2.593zm27.329 19.725l14.164-2.598 2.598 14.164-14.164 2.598zM442.5 415l2 11 11-2-2-11zm21.354 20.897l11.016-2.017 2.017 11.016-11.016 2.017zm-37.896-16.407l11.016-2.017 2.017 11.016-11.016 2.017zm19.999 14.399l11.016-2.017 2.017 11.016-11.016 2.017zm-14.001 1.277l7.77-1.425 1.425 7.77-7.77 1.425zm14.817 16.004l7.771-1.421 1.421 7.771-7.771 1.421zm63.327-7.67l-7.7 16.2 16.2 7.7 7.7-16.2zm-23-7.4l-6.2 12.9 13 6.2 6.2-13zm10.6 31.9l-6.2 13 13 6.1 6.2-12.9zm-17-9.7l-4.8 10.1 10.1 4.8 4.8-10.1zm5.1 29.4l-4.8 10.1 10.1 4.8 4.8-10.1zm-21.1-35.4l-4.8 10.1 10.1 4.8 4.8-10.1zm7.8 23.3l-4.8 10.1 10.1 4.8 4.8-10.1zm-12.2-7.1l-3.4 7.1 7.1 3.4 3.4-7.1zm-.674 28.829l3.395-7.133 7.133 3.395-3.395 7.133zM518.8 520.9l-15.7 8.6 8.6 15.7 15.7-8.6zm-14.3-19.5l-12.6 6.9 6.9 12.6 12.6-6.9zm-10.1 32.1l-12.6 6.9 6.9 12.6 12.6-6.9zm-8.1-17.8l-9.8 5.4 5.4 9.8 9.8-5.4zm-13.1 26.9l-9.8 5.4 5.4 9.8 9.8-5.4zm3.7-41.1l-9.8 5.4 5.3 9.8 9.9-5.4zm-7.4 23.5l-9.8 5.4 5.4 9.7 9.8-5.3zm-5.7-12.9l-6.9 3.8 3.8 6.9 6.9-3.8zm-10.5 19.1l-6.9 3.8 3.8 6.9 6.9-3.8zm7.23 73.111l2.196-17.764 17.764 2.196-2.196 17.764zm3.823-27.211l1.771-14.291 14.291 1.771-1.771 14.291zm-27.046 20.125l1.771-14.291 14.291 1.771-1.771 14.291zm7.377-21.89l1.374-11.115 11.115 1.374-1.374 11.115zm-26.339 14.168l1.374-11.115 11.115 1.374-1.374 11.115zm27.072-31.291l1.378-11.115 11.115 1.378-1.378 11.115zm-19.784 14.769l1.378-11.115 11.115 1.378-1.378 11.115zm6.67-16.556l.969-7.84 7.84.969-.969 7.84zm-19.681 9.285l.969-7.841 7.841.969-.969 7.841zM409.7 621.4l-13.2-12.2-12.1 13.2 13.1 12.1zm-2.4-250.6l-13.2-12.2-12.2 13.1 13.2 12.2zm16.4 231l-10.5-9.8-9.8 10.5 10.5 9.8zm-33.7.5l-10.5-9.7-9.8 10.5 10.5 9.7zm14.4-13.3l-8.2-7.6-7.6 8.2 8.2 7.6zm-29.7-3.9l-8.2-7.6-7.6 8.2 8.2 7.6zm40.2-9.5l-8.2-7.6-7.6 8.2 8.2 7.6zm-24.6.4l-8.2-7.6-7.6 8.2 8.2 7.6zm10.4-9.5l-5.8-5.3-5.3 5.8 5.8 5.3zm-21.5-3.9l-5.8-5.3-5.3 5.7 5.8 5.4zm-67.161 29.916l17.551-3.517 3.517 17.551-17.551 3.517zm26.967-4.954l14.119-2.828 2.828 14.119-14.119 2.828zm-27.57-19.182l14.119-2.832 2.832 14.119-14.119 2.832zm36.364 8.82l-2.2-11-11 2.2 2.2 11zm3.202-13.491l10.982-2.2 2.2 10.982-10.982 2.2zm-20.206-14.106l10.982-2.2 2.2 10.982-10.982 2.2zm17.905 1.018l7.746-1.551 1.551 7.746-7.746 1.551zm-15.105-15.695l7.745-1.555 1.555 7.745-7.745 1.555zM279.7 549.8l7.5-16.3-16.4-7.4-7.4 16.2zm23.1 7.1l6-13.1-13.1-6-6 13.1zm-11.1-31.8l5.9-13.1-13.1-5.9-5.9 13.1zm6.945 4.749l4.647-10.191 10.191 4.647-4.647 10.191zM322.5 560l4.6-10.2-10.2-4.6-4.6 10.1zm-29.409-59.471l4.649-10.19 10.19 4.649-4.649 10.19zm21.706 35.13l4.649-10.19 10.19 4.649-4.649 10.19zm-8.191-23.175l4.652-10.188 10.188 4.652-4.652 10.188zM329.1 524l3.2-7.2-7.1-3.2-3.3 7.1zm-3.1-21.6l3.3-7.2-7.2-3.2-3.3 7.1zm-56.3-29.9l15.6-8.8-8.9-15.6-15.6 8.9zm14.6 19.3l12.5-7.1-7.1-12.5-12.5 7.1zm9.6-32.3l12.5-7.1-7.2-12.5-12.5 7.1zm8.4 17.7l9.7-5.5-5.6-9.7-9.7 5.5zm12.6-27.1l9.7-5.5-5.5-9.7-9.7 5.5zm-3 41.2l9.8-5.6-5.6-9.7-9.7 5.6zm7-23.6l9.8-5.6-5.6-9.7-9.7 5.6zm6 12.7l6.8-3.8-3.9-6.9-6.9 3.9zm10.1-19.3l6.9-3.9-3.9-6.8-6.9 3.9zm-28.12-57.022l1.903-17.798 17.798 1.903-1.903 17.798zm.508 24.085l1.532-14.318 14.318 1.532-1.532 14.318zm26.646-20.51l1.532-14.318 14.318 1.532-1.532 14.318zm-3.525 19.195l1.193-11.136 11.136 1.193-1.193 11.136zm26.138-14.603l1.189-11.136 11.136 1.189-1.189 11.136zm-26.464 31.72l1.194-11.136 11.136 1.194-1.194 11.136zm19.455-15.061l1.194-11.136 11.136 1.194-1.194 11.136zm-2.658 13.748l.84-7.855 7.855.84-.84 7.855zm19.502-9.659l.837-7.856 7.856.837-.837 7.856zM451.1 507.6c-1.3-.8-3.8-2-7.1-3.1-4.8-1.5-11.6-2.7-19.6-1.4-2.7.4-5.5 1.1-8.5 2.2-.3.1-.6.2-.8.3-1.5.6-3 1.2-4.5 2-1.3.6-2.5 1.4-3.8 2.1-2.9 1.7-5.7 3.7-8.5 5.8-3.1-19.1-1.6-36.8-.9-45.5 0 0 .1-.1.1 0 6.8 4.2 4.9 16.1 3.4 19.5 0 .1.1.1.1.1 8.4-9.9 4.3-20.9 2.6-23.7 0-.1 0-.1.1-.1 1.2 1 2.2 2 3 3.1 2.6 3.3 3.6 6.9 3.8 10.1.1 1.7.1 3.2 0 4.6 0 .4-.1.7-.1 1 0 .1 0 .1.1.1 2.3-4.5 3.4-11.2 0-17.8-.9-1.8-2.2-3.5-3.8-5.2l-1.5-1.5c-.1 0 0-.1.1-.1.5.1 1 .3 1.5.4a15.24 15.24 0 0 1 3.8 2c2.6 1.9 4.3 4.5 5.3 7.2.9 2.2 1.3 4.5 1.2 6.6 0 .1.1.1.1 0 1.6-5.8.6-10.2-1.4-13.4-1.4-2.3-3.4-4-5.3-5.1-1.3-.8-2.7-1.4-3.8-1.7-.7-.2-1.3-.3-1.8-.4-.1 0-.1-.1 0-.1.6-.1 1.2-.1 1.8-.1 1.4 0 2.7.1 3.8.3 2.3.4 4 1.2 5.3 2.1 2.1 1.4 3.2 3.1 3.6 3.8 0 .1.1 0 .1 0-.3-3.1-1.7-5.5-3.7-7.2-1.5-1.3-3.4-2.3-5.3-2.8-1.3-.3-2.6-.5-3.8-.5-1.7 0-3.4.3-4.8.9-.1 0-.1 0-.1-.1 1.2-1.8 3-2.9 4.9-3.4 1.3-.4 2.6-.5 3.8-.5 1.2.1 2.3.3 3.1.7.1 0 .1-.1.1-.1-1-1.1-2-2-3.2-2.6a8.9 8.9 0 0 0-3.8-1.2c-3.4-.4-6.9 1.1-9.2 4.6h-.1c-.4-.8-.9-1.7-1.3-2.6-.9-2.1-1.7-4.6-2.1-6.9 0-.1-.1-.1-.1 0-.4 2.4-1.2 4.8-2.1 7-.4.9-.8 1.8-1.3 2.6h-.1c-4-6.1-11.6-6-16.2-.7 0 .1 0 .1.1.1 3.1-1.5 8.9-1 11.8 3.1 0 .1 0 .1-.1.1-4.5-1.9-11.4-.7-15.1 3.7-1.3 1.6-2.2 3.6-2.5 5.9 0 .1.1.1.1 0 .3-.5 1-1.7 2.3-2.9 2.2-1.9 5.9-3.8 12.2-3.3.1 0 .1.1 0 .1-3.2.4-9.8 3.2-12.2 9.8-1.1 2.9-1.3 6.5-.1 10.9 0 .1.1.1.1 0v-.3c.1-5.9 3.5-13.9 11.8-15.9.1 0 .1.1.1.1-9.4 8.3-8.5 18.4-5.4 24.4 0 .1.1 0 .1 0-.4-4.5-.7-12.6 6.8-18.8.1 0 .1 0 .1.1-1.7 2.8-5.8 13.8 2.6 23.7 0 .1.2 0 .1-.1-1.4-3.4-3.3-15.3 3.4-19.5h.1c.7 8.7 2.3 26.4-.9 45.5-5.4-4.2-11.2-7.8-16.8-10-.7-.3-1.4-.5-2.1-.7-5.9-1.9-11.2-2.5-15.9-2.3-7.5.3-13.3 2.6-16.4 4.1-.6.3-1.2.6-1.6.9-.2.1 0 .3.1.3.5-.2 1-.3 1.5-.4 5.8-1.6 11.2-2.1 16.4-1.6 5.6.5 10.9 2 15.9 4.3 6.9 3.1 13.2 7.6 18.9 12.3-8 7-14.8 13.8-18.9 16.2l-.6.3c-1-1.3-2.7-2.1-4.6-1.7-1.6.4-3 1.7-3.3 3.3-.3 1.4 0 3 .9 3.8 2.2 2.2 4.7 2.3 7.6 1.1 5.6-2.3 12.5-9.7 20.9-17.4.7-.6 1.4-1.3 2.2-1.9.7.6 1.4 1.3 2.1 1.9l10.6 9.9c1.3 1.2 2.6 2.3 3.8 3.3 1.9 1.5 3.7 2.8 5.3 3.7 3.2 1.7 6.1 1.9 8.5-.2.1-.1.3-.2.4-.3.6-.6 1.2-2.4.9-3.8-.2-.8-.6-1.6-1.3-2.2-.6-.5-1.3-.9-2.1-1.1-1.9-.4-3.6.4-4.6 1.7-.6-.3-1.2-.7-1.8-1.1-1.5-1-3.3-2.5-5.3-4.3l-3.8-3.4-8.5-7.7c2.7-2.3 5.6-4.4 8.5-6.5 1.2-.8 2.5-1.7 3.8-2.4 1.7-1 3.5-2 5.3-2.9 2.7-1.3 5.5-2.4 8.5-3.2 6.1-1.7 12.6-2.3 19.6-1.2 2.3.4 4.6.9 7 1.6.5-.1.6-.3.4-.4M142.6 702.5h5.3v5.3h-5.3zm355.4-6.1v-34.8h-5.1v29.7h-19.4v-29.7h-5.1v29.7h-20.5v-29.7h-8.1c-3.2 0-6.1.4-8.8 1.3-2.6.9-4.8 2.1-6.7 3.7-1.8 1.6-3.3 3.4-4.3 5.6-1 2.1-1.5 4.5-1.5 6.9 0 3 .6 5.6 1.7 7.8 1.2 2.2 2.7 4 4.6 5.4s4.2 2.5 6.8 3.1c2.6.7 5.3 1 8.1 1H498zm-65.8-6c-1.7-.6-3.2-1.4-4.4-2.4-1.3-1-2.3-2.3-3-3.9-.7-1.5-1.1-3.2-1.1-5.2 0-1.8.4-3.5 1.2-5s1.8-2.8 3.2-3.9c1.3-1.1 2.8-1.9 4.5-2.5s3.4-.9 5.1-.9h5.1v24.6h-5.1c-2 0-3.8-.2-5.5-.8M388 650.3h5.1v46.1H388zm54.6 0h5.3v5.3h-5.3zm50.2 52.1h5.3v5.3h-5.3zm-341.2 0h5.3v5.3h-5.3z"/><path d="M367.9 691.2h-8.4c-3 0-5.4-.4-7.1-1.3s-3.1-2.1-4.1-3.9c.3-1.3.5-2.9.5-4.8v-16.6h-5.1V682c0 3-.8 5.3-2.4 7.1s-4 2.7-7.2 2.7c-1.5 0-2.9-.2-4.1-.7s-2.3-1.1-3.2-1.9-1.6-1.8-2.1-2.9-.8-2.3-.8-3.5v-18.2h-5.1v17.8c0 1.6-.2 2.9-.7 4s-1.1 2-1.9 2.7-1.7 1.2-2.8 1.5c-1 .3-2.1.5-3.3.5h-10v-26.5H295v26.5h-27l9-21.5a51.2 51.2 0 0 0-4.4-3.4c-1.5-1-3.1-2-4.8-2.8-1.6-.8-3.3-1.4-5-1.9-1.7-.4-3.3-.7-5-.7s-3.3.2-5 .7-3.3 1.1-5 1.8c-1.6.8-3.2 1.7-4.8 2.8l-4.3 3.4 9.1 21.5H230v-29.7h-8.2c-3.2 0-6.1.4-8.7 1.3s-4.9 2.1-6.7 3.7c-1.9 1.6-3.3 3.4-4.3 5.6s-1.5 4.5-1.5 7c0 3 .6 5.6 1.7 7.8s2.7 3.9 4.6 5.3 4.2 2.4 6.8 3.1 5.3 1 8.2 1h3.1v1.5c0 2.7-.8 4.6-2.3 5.8s-3.7 1.7-6.5 1.7c-1.6 0-3-.1-4.3-.4s-2.7-.8-4.3-1.5l-1.6 4.9 5.2 1.6c1.5.4 3.1.5 4.6.5 5 0 8.7-1.2 10.9-3.6 2.3-2.4 3.4-5.6 3.4-9.6v-1H310c2.5 0 4.7-.5 6.7-1.6 1.9-1.1 3.5-2.5 4.7-4.3 1.2 2.1 2.9 3.7 5.1 4.8 2.1 1.2 4.7 1.7 7.7 1.7 3.1 0 5.7-.5 7.9-1.6s3.8-2.7 5-4.9c.4.7 1 1.4 1.6 2.2.6.7 1.4 1.3 2.4 1.9s2.2 1 3.6 1.3c1.1.3 2.3.4 3.7.5v.1H373V650h-5.1v41.2zm-143.1 0h-5.2c-1.9 0-3.7-.3-5.4-.8s-3.2-1.3-4.5-2.3-2.3-2.3-3-3.8-1.1-3.2-1.1-5.1a11.25 11.25 0 0 1 1.2-5.1c.8-1.5 1.8-2.9 3.1-3.9 1.3-1.1 2.8-1.9 4.5-2.5s3.4-.9 5.2-.9h5.2v24.4zm28.4 0l-8-19.7c2-1.7 4-2.9 6.1-3.7s4.2-1.2 6.5-1.2 4.6.5 6.9 1.4a21.64 21.64 0 0 1 5.8 3.4l-8 19.7h-9.3zm-128.3-40.9h5.3v5.3h-5.3zm520.4 0h5.3v5.3h-5.3zm-45.6 0h5.1v46.1h-5.1zm-166.1 0h5.3v5.3h-5.3zm-241.3 25.8c0-2-.3-3.9-.8-5.7s-1.4-3.3-2.5-4.5c-1.4-1.5-2.9-2.6-4.6-3.4-1.7-.7-3.8-1.1-6.2-1.1h-3.8v5.1h4.5c1.2 0 2.4.3 3.5.8s2 1.2 2.8 2.1a8.47 8.47 0 0 1 1.5 3c.3 1.1.4 2.4.4 3.9v14.9H163v5.1h29.3v-20.2zm679.5-25.8h5.1v46.1h-5.1zm-217.5 0h5.3v5.3h-5.3zm202.6 0h-5.1v40.9H834c1.1-2.4 1.6-4.9 1.6-7.6a19.89 19.89 0 0 0-1.4-7.4c-1-2.3-2.3-4.3-4-5.9-1.7-1.7-3.7-3-5.9-4-2.3-1-4.8-1.4-7.4-1.4s-5 .5-7.2 1.5-4.2 2.3-5.8 4-2.9 3.7-3.9 5.9c-.9 2.3-1.4 4.7-1.4 7.3 0 1.4.1 2.7.4 3.9.3 1.3.7 2.5 1.1 3.6h-15.9c1.1-2.4 1.6-4.9 1.6-7.6a19.89 19.89 0 0 0-1.4-7.4c-1-2.3-2.3-4.3-4-5.9-1.7-1.7-3.7-3-5.9-4-2.3-1-4.8-1.4-7.4-1.4s-5 .5-7.2 1.5-4.2 2.3-5.8 4c-1.7 1.7-2.9 3.7-3.9 5.9-.9 2.3-1.4 4.7-1.4 7.3 0 1.4.1 2.7.4 3.9.3 1.3.7 2.5 1.1 3.6H734v-40.9h-5.1V691h-16.4v-7.9c0-2-.3-3.8-.8-5.6s-1.3-3.3-2.4-4.5c-1.3-1.5-2.8-2.6-4.5-3.3s-3.8-1.1-6.4-1.1h-22.8l9.7-18.5h-5.6l-9.9 18.4c.2 1.1.4 2.1.8 2.9s.9 1.6 1.5 2.3h26.2c1.6 0 3 .2 4.2.7s2.1 1.2 2.9 2c.7.9 1.2 1.8 1.5 3 .3 1.1.4 2.4.4 3.7v7.9h-47.6v-29.7h-8.1c-3.2 0-6.1.4-8.7 1.3s-4.8 2.1-6.7 3.7c-1.8 1.6-3.3 3.4-4.3 5.6-1 2.1-1.5 4.5-1.5 6.9 0 3 .6 5.6 1.7 7.8 1.2 2.2 2.7 4 4.6 5.4s4.2 2.5 6.8 3.1c2.6.7 5.3 1 8.1 1h102.1c1.7 1.8 3.7 3.2 6 4.3 2.3 1 4.8 1.6 7.5 1.6s5.3-.5 7.7-1.5 4.4-2.5 6.1-4.3h22.6c1.7 1.8 3.7 3.2 6 4.3 2.3 1 4.8 1.6 7.5 1.6s5.3-.5 7.7-1.5 4.4-2.5 6.1-4.3h26.2v-46zm-202.5 40.9h-5.1c-1.9 0-3.7-.3-5.4-.8-1.7-.6-3.2-1.4-4.4-2.4-1.3-1-2.3-2.3-3-3.9-.7-1.5-1.1-3.2-1.1-5.2 0-1.8.4-3.5 1.2-5s1.8-2.8 3.2-3.9c1.3-1.1 2.8-1.9 4.5-2.5s3.4-.9 5.1-.9h5.1v24.6zm125.1-2.3c-.7 1.6-1.7 3.1-2.9 4.3s-2.7 2.1-4.3 2.8c-1.7.7-3.4 1-5.4 1a12.74 12.74 0 0 1-5.2-1.1c-1.6-.7-3-1.7-4.2-2.9s-2.1-2.6-2.8-4.3c-.7-1.6-1-3.4-1-5.2s.3-3.6 1-5.2 1.6-3.1 2.7-4.3c1.2-1.2 2.5-2.2 4.1-2.9a13.22 13.22 0 0 1 5.3-1.1c2 0 3.8.3 5.4 1 1.7.7 3.1 1.6 4.3 2.8s2.2 2.6 2.9 4.3c.7 1.6 1 3.5 1 5.4.2 2-.2 3.8-.9 5.4m49.9 0c-.7 1.6-1.7 3.1-2.9 4.3s-2.7 2.1-4.3 2.8-3.4 1-5.4 1a12.74 12.74 0 0 1-5.2-1.1c-1.6-.7-3-1.7-4.2-2.9s-2.1-2.6-2.8-4.3c-.7-1.6-1-3.4-1-5.2s.3-3.6 1-5.2 1.6-3.1 2.7-4.3c1.2-1.2 2.5-2.2 4.1-2.9a13.22 13.22 0 0 1 5.3-1.1c2 0 3.8.3 5.4 1 1.7.7 3.1 1.6 4.3 2.8s2.2 2.6 2.9 4.3c.7 1.6 1 3.5 1 5.4.2 2-.2 3.8-.9 5.4M114 695.3c2.6.7 5.3 1 8.1 1h33.7v-34.8h-5.1v29.7h-20.4v-29.7h-8.1c-3.2 0-6.1.4-8.7 1.3s-4.8 2.1-6.7 3.7c-1.8 1.6-3.3 3.4-4.3 5.6-1 2.1-1.5 4.5-1.5 6.9 0 3 .6 5.6 1.7 7.8 1.2 2.2 2.7 4 4.6 5.4a18.75 18.75 0 0 0 6.7 3.1m-7.9-16.3c0-1.8.4-3.5 1.2-5s1.8-2.8 3.1-3.9 2.8-1.9 4.5-2.5 3.4-.9 5.1-.9h5.1v24.6H120c-1.9 0-3.7-.3-5.4-.8-1.7-.6-3.2-1.4-4.4-2.4-1.3-1-2.3-2.3-3-3.9-.8-1.6-1.1-3.3-1.1-5.2M474 702.4h5.3v5.3H474zm-9 0h5.3v5.3H465z"/><path d="M518.1 702.9c.3-1.6.5-3.4.5-5.4v-1.1h66.2v-46.1h-5.1v40.9h-21.9l9-21.5a51.2 51.2 0 0 0-4.4-3.4c-1.5-1-3.1-2-4.8-2.8-1.6-.8-3.3-1.4-5-1.9-1.7-.4-3.3-.7-4.9-.7-1.7 0-3.3.2-5 .7s-3.3 1.1-5 1.8c-1.7.8-3.2 1.7-4.8 2.8l-4.3 3.4 9.1 21.5h-19.2v-29.7h-5.1v35.9c0 1.5-.1 2.7-.2 3.7-.2 1-.4 1.8-.8 2.4s-.9 1.1-1.5 1.3c-.6.3-1.4.4-2.4.4-.5 0-.9 0-1.2-.1-.3 0-.8-.2-1.4-.3l-1.3 4.9c1.4.4 2.8.6 4.2.6 1.8 0 3.4-.3 4.7-.9s2.3-1.5 3.1-2.6c.6-.8 1.1-2.2 1.5-3.8m17-31.4c2-1.7 4-2.9 6.1-3.7s4.3-1.2 6.5-1.2c2.3 0 4.6.5 6.9 1.4a21.64 21.64 0 0 1 5.8 3.4l-8 19.7h-9.2l-8.1-19.6zm-419.2-21.2h5.3v5.3h-5.3zm21.9 79.8h-7.9l-17.5 18.4v-18.4H106v36.7h6.4v-10.7l5.7-5.8 12.6 16.5h7.8l-15.9-20.9zm6.6 0h6.5v36.7h-6.5zm42.1 25.4l-19.7-25.4h-6v36.7h6.4v-26.1l20.2 26.1h5.4v-36.7h-6.3zm33.1-3.6h9.4v6.9c-2.3 1.7-5.4 2.8-8.9 2.8-7.5 0-12.5-5.6-12.5-13.1v-.1c0-7 5.1-12.9 11.9-12.9 4.7 0 7.5 1.5 10.3 3.9l4.1-4.9c-3.8-3.2-7.7-5-14.1-5-11.1 0-18.9 8.7-18.9 19v.1c0 10.7 7.6 18.9 19.1 18.9 6.5 0 11.7-2.6 15.3-5.7v-15.4h-15.6v5.5zm38.2-21.8h-13.7v36.7h13.7c11.5 0 19.5-8 19.5-18.3v-.1c0-10.4-7.9-18.3-19.5-18.3m12.8 18.4c0 7.2-5 12.4-12.8 12.4h-7.2V736h7.2c7.7 0 12.8 5.3 12.8 12.5h0zm32.1-19c-11.3 0-19.3 8.6-19.3 19v.1c0 10.3 7.9 18.9 19.2 18.9s19.3-8.6 19.3-19v-.1c-.1-10.4-8-18.9-19.2-18.9m12.3 19c0 7.1-5.1 12.9-12.4 12.9s-12.5-5.9-12.5-13v-.1c0-7.1 5.1-12.9 12.4-12.9s12.5 5.9 12.5 13v.1zm32.9-1.1l-11.2-17.3h-6.9v36.7h6.4v-26.2l11.5 17.2h.2l11.6-17.3v26.3h6.4v-36.7h-6.8zm60.9-17.9c-11.3 0-19.3 8.6-19.3 19v.1c0 10.3 7.9 18.9 19.2 18.9s19.3-8.6 19.3-19v-.1c0-10.4-7.9-18.9-19.2-18.9m12.4 19c0 7.1-5.1 12.9-12.4 12.9s-12.5-5.9-12.5-13v-.1c0-7.1 5.1-12.9 12.4-12.9s12.5 5.9 12.5 13v.1zm14.8 18.3h6.4v-15H461V746h-18.6v-10h20.9v-5.9H436zm64.3-21.3c-7-1.7-8.7-2.9-8.7-5.8v-.1c0-2.4 2.2-4.4 6-4.4 3.4 0 6.7 1.3 10 3.8l3.5-4.9c-3.7-3-8-4.6-13.3-4.6-7.3 0-12.6 4.3-12.6 10.6v.1c0 6.8 4.4 9.1 12.2 10.9 6.8 1.6 8.3 3 8.3 5.6v.1c0 2.8-2.5 4.6-6.5 4.6-4.6 0-8.1-1.7-11.6-4.8l-3.9 4.6c4.4 3.9 9.7 5.9 15.3 5.9 7.7 0 13.1-4.1 13.1-11v-.1c.1-5.8-4-8.6-11.8-10.5m31.6-15.7l-16.2 36.9h6.6l3.8-8.9h17.4l3.7 8.9h6.8l-16.2-36.9h-5.9zm-3.4 22.4l6.3-14.7 6.4 14.7h-12.7zm54.4-1c0 6.8-3.5 10.2-9.2 10.2-5.8 0-9.3-3.7-9.3-10.5V730h-6.5v21.1c0 10.6 6.1 16.1 15.6 16.1 9.6 0 15.8-5.5 15.8-16.4V730h-6.5v21.2zm29.6-21.1h-13.7v36.7h13.7c11.5 0 19.5-8 19.5-18.3v-.1c0-10.4-8-18.3-19.5-18.3m12.7 18.4c0 7.2-5 12.4-12.8 12.4h-7.2V736h7.2c7.7 0 12.8 5.3 12.8 12.5h0zm15-18.4h6.5v36.7h-6.5zm45-.3L669 766.7h6.6l3.8-8.9h17.4l3.7 8.9h6.8l-16.2-36.9h-5.9zm-3.4 22.4l6.3-14.7 6.4 14.7h-12.7zm61.7-10.4v-.1c0-3.2-1.1-5.9-3-7.9-2.4-2.3-6-3.7-10.6-3.7h-16.4v36.7h6.5V754h8 .1l9 12.8h7.6l-9.9-13.9c5.1-1.5 8.7-5.1 8.7-11.1m-23.6 6.5V736h9.4c4.8 0 7.6 2.2 7.6 6.1v.1c0 3.7-2.9 6.1-7.6 6.1h-9.4zm45.7-18.5l-16.2 36.9h6.6l3.8-8.9h17.4l3.7 8.9h6.8l-16.2-36.9h-5.9zm-3.4 22.4l6.3-14.7 6.4 14.7h-12.7zm54.9-4.5c2.7-1.4 5.2-3.8 5.2-8.2v-.1c0-2.5-.8-4.5-2.5-6.1-2.1-2.1-5.4-3.3-9.6-3.3h-16.5v36.7h17c8.2 0 13.6-3.5 13.6-10.1v-.1c.1-4.9-2.9-7.3-7.2-8.8m-16.9-11.9h9.3c4.1 0 6.5 1.8 6.5 4.7v.1c0 3.4-2.8 5-6.9 5h-8.8v-9.8zM818 756c0 3.3-2.7 5-7.1 5h-10.7v-10h10.2c5.1 0 7.6 1.8 7.6 4.9v.1zm14.4-25.9h6.5v36.7h-6.5zm34.8-.3h-6l-16.2 37h6.6l3.8-8.9h17.4l3.7 8.9h6.8l-16.1-37zm-9.4 22.4l6.3-14.7 6.4 14.7h-12.7z"/></svg>