<svg width="63" height="44" viewBox="0 0 63 44" fill="none" xmlns="http://www.w3.org/2000/svg">
<g id="Group">
<path id="Vector" d="M37.8246 1.69189H37.1152V2.40127H37.8246V1.69189Z" fill="white"/>
<path id="Vector_2" d="M52.557 10.4805H51.8477V11.1898H52.557V10.4805Z" fill="white"/>
<g id="Group_2">
<path id="Vector_3" d="M60.4541 9.72431C60.6275 9.64549 60.7694 9.51938 60.8719 9.36962C60.9743 9.21198 61.0531 9.02282 61.1004 8.80213C61.1477 8.58143 61.1635 8.32921 61.1635 8.05335V3.10352H60.4541V8.05335C60.4541 8.25039 60.4462 8.4238 60.4226 8.55779C60.3989 8.69966 60.3674 8.81001 60.3201 8.89671C60.2728 8.98341 60.2019 9.04647 60.1152 9.08588C60.0285 9.12529 59.9181 9.14105 59.7842 9.14105C59.7211 9.14105 59.6659 9.14105 59.6186 9.13317C59.5713 9.12528 59.5083 9.10952 59.4216 9.08588L59.2324 9.76372C59.4295 9.81889 59.6186 9.84254 59.8078 9.84254C60.0679 9.85042 60.2807 9.81101 60.4541 9.72431Z" fill="white"/>
<path id="Vector_4" d="M58.0176 1.84998H57.0481V1.68447C57.0481 1.59776 57.0639 1.52683 57.1033 1.47954C57.1348 1.44013 57.2136 1.41648 57.324 1.41648H57.8127V0.919922H57.3082C57.0402 0.919922 56.8274 0.990859 56.6855 1.13273C56.5437 1.27461 56.4648 1.50318 56.4648 1.81058V2.38595H58.0176V1.84998Z" fill="white"/>
<path id="Vector_5" d="M51.1371 10.4805H50.4277V11.1898H51.1371V10.4805Z" fill="white"/>
<path id="Vector_6" d="M39.2445 1.69189H38.5352V2.40127H39.2445V1.69189Z" fill="white"/>
<path id="Vector_7" d="M54.826 7.34398C55.094 7.53314 55.4093 7.67502 55.7639 7.7696C56.1186 7.86418 56.4891 7.90359 56.891 7.90359H57.0802L57.3167 7.40703V8.10852C57.3167 8.47897 57.2142 8.74695 57.0014 8.90459C56.7886 9.06223 56.4891 9.14105 56.1029 9.14105C55.8822 9.14105 55.6851 9.1174 55.5117 9.07799C55.3383 9.03859 55.1413 8.96765 54.9127 8.86518L54.692 9.54303C54.96 9.64549 55.2043 9.71643 55.4171 9.7716C55.6299 9.81889 55.8349 9.85042 56.0477 9.85042C56.7413 9.85042 57.2378 9.6849 57.5531 9.36174C57.8684 9.0307 58.026 8.5972 58.026 8.03758V3.10352H56.891C56.4575 3.10352 56.0556 3.16657 55.693 3.29268C55.3304 3.41879 55.023 3.58431 54.7708 3.79712C54.5107 4.00994 54.3137 4.27004 54.1718 4.56955C54.0299 4.86906 53.959 5.19222 53.959 5.53902C53.959 5.95676 54.0378 6.31145 54.1954 6.61096C54.3452 6.91047 54.558 7.15481 54.826 7.34398ZM54.826 4.83753C54.9363 4.62472 55.0782 4.44344 55.2595 4.29368C55.4408 4.14393 55.6457 4.0257 55.8743 3.94688C56.095 3.86806 56.3314 3.82865 56.5679 3.82077H57.7108L57.3088 4.0257V7.2021H56.5994C56.3314 7.2021 56.0871 7.16269 55.8506 7.09176C55.6142 7.02082 55.4093 6.91047 55.2359 6.7686C55.0625 6.62672 54.9206 6.45332 54.8181 6.24839C54.7156 6.04347 54.6684 5.80701 54.6684 5.53902C54.6684 5.27892 54.7235 5.05034 54.826 4.83753Z" fill="white"/>
<path id="Vector_8" d="M37.3042 9.74796H38.7781V9.21987C38.7939 9.24351 38.8096 9.26716 38.8254 9.2908C38.9357 9.44844 39.0697 9.56667 39.2431 9.64549C39.4165 9.72431 39.6294 9.7716 39.8816 9.7716H52.8V3.10352H52.0906V9.07011H51.3576H39.9131C39.7791 9.07011 39.6688 9.05435 39.5821 9.01494C39.4954 8.97553 39.4323 8.91247 39.3771 8.82577C39.3298 8.73907 39.2904 8.62873 39.2747 8.48685C39.251 8.34498 39.2431 8.17946 39.2431 7.98241V3.10352H37.3278C35.3731 3.10352 34.0332 4.65625 34.0332 6.42968V6.44544C34.0332 8.21887 35.3495 9.74796 37.3042 9.74796ZM34.7899 6.40603C34.7899 4.94788 35.8382 3.77348 37.3121 3.77348H38.9673L38.5338 3.98629V7.97453C38.5338 8.2504 38.5574 8.50262 38.5968 8.72331C38.6205 8.84942 38.6599 8.96765 38.7072 9.07799H37.3278C35.8539 9.07799 34.7899 7.88783 34.7899 6.42179V6.40603Z" fill="white"/>
<path id="Vector_9" d="M30.4865 7.99775L30.7938 8.80959L26.3012 3.09521H25.5918V9.73965H26.3248V4.73465L25.9071 3.76518L30.6204 9.73965H31.2195V3.09521H30.4865V7.99775Z" fill="white"/>
<path id="Vector_10" d="M40.5763 20.341L44.6591 16.4474V13.7754H33.7506V16.8178H39.3467L41.4197 15.4858L36.2413 20.6878L36.793 22.942H38.2669C40.2532 22.942 41.4276 23.6751 41.4276 24.9913V25.0386C41.4276 26.2367 40.4817 26.9933 39.1418 26.9933C37.5024 26.9933 36.3516 26.2997 35.2403 25.0623L32.7969 27.3874C34.1841 29.019 36.1861 30.1776 39.0945 30.1776C42.6965 30.1776 44.9114 27.947 44.9114 24.9046V24.8573C44.9192 21.8622 42.7675 20.7115 40.5763 20.341Z" fill="white"/>
<path id="Vector_11" d="M20.9812 2.98535C18.9555 2.98535 17.5762 4.58538 17.5762 6.42186V6.43762C17.5762 8.26622 18.9319 9.85048 20.9575 9.85048C22.9832 9.85048 24.3625 8.25046 24.3625 6.41398V6.39821C24.3704 4.56961 23.0068 2.98535 20.9812 2.98535ZM23.5901 6.43762C23.5901 7.94307 22.5102 9.15688 20.989 9.15688C19.4678 9.15688 18.3644 7.9273 18.3644 6.41398V6.39821C18.3644 4.89277 19.4442 3.67896 20.9654 3.67896C22.4866 3.67896 23.5901 4.90853 23.5901 6.42186V6.43762Z" fill="white"/>
<path id="Vector_12" d="M54.441 13.5073C49.4597 13.5073 45.834 17.2591 45.834 21.8464V21.8937C45.834 26.473 49.4124 30.1854 54.3937 30.1854C59.3751 30.1854 63.0008 26.4336 63.0008 21.8464V21.7991C63.0008 17.2118 59.4224 13.5073 54.441 13.5073ZM59.2884 21.8858C59.2884 24.6523 57.3021 26.9065 54.441 26.9065C51.5799 26.9065 49.5464 24.605 49.5464 21.8385V21.7912C49.5464 19.0247 51.5326 16.7704 54.3937 16.7704C57.2549 16.7704 59.2884 19.0719 59.2884 21.8385V21.8858Z" fill="white"/>
<path id="Vector_13" d="M16.2839 3.09521H15.5352V9.73177H16.2839V3.09521Z" fill="white"/>
<path id="Vector_14" d="M3.47655 28.0569L4.16228 27.5288L7.69337 24.8095C10.5545 22.6026 11.9417 21.2627 11.9417 18.5671V18.5277C11.9417 15.5089 9.7269 13.5542 6.37709 13.5542C3.49232 13.5542 1.94746 14.7286 0.35532 16.8961L2.846 18.8981C4.04405 17.4242 4.90317 16.7306 6.14851 16.7306C7.4175 16.7306 8.31604 17.4636 8.31604 18.8272C8.31604 20.1592 7.52785 21.0341 5.52584 22.6972L0.150391 27.0953V29.9013H12.0993V26.8352H5.94358L3.47655 28.0569Z" fill="white"/>
<path id="Vector_15" d="M3.53109 9.78694L6.38434 3.09521H5.58038L3.31828 8.5416L3.38921 9.26674L3.20793 8.81747L1.24534 4.08833L0.835481 3.09521H0L2.86113 9.78694H3.53109Z" fill="white"/>
<path id="Vector_16" d="M8.15698 3.09521H7.4082V9.73177H8.15698V3.09521Z" fill="white"/>
<path id="Vector_17" d="M12.1303 6.05866C10.6643 5.74339 10.3254 5.39658 10.3254 4.76603V4.75027C10.3254 4.15125 10.8771 3.67833 11.7441 3.67833C12.4298 3.67833 13.0446 3.89903 13.6673 4.39559L14.1008 3.82021C13.4229 3.27635 12.7293 3.00049 11.7599 3.00049C10.4988 3.00049 9.57658 3.76503 9.57658 4.81332V4.82909C9.57658 5.91679 10.2781 6.41335 11.8072 6.74439C13.2023 7.03602 13.5333 7.3907 13.5333 8.00549V8.02126C13.5333 8.67546 12.9421 9.14837 12.0515 9.14837C11.1293 9.14837 10.4672 8.83309 9.77363 8.21042L9.30859 8.76216C10.1047 9.47153 10.9717 9.82621 12.0278 9.82621C13.352 9.82621 14.2978 9.08531 14.2978 7.95032V7.93456C14.2978 6.91779 13.6121 6.38182 12.1303 6.05866Z" fill="white"/>
<path id="Vector_18" d="M21.7549 12.4434L22.5746 13.2237L21.7864 14.0434L20.9746 13.2631L21.7549 12.4434Z" fill="#39457C"/>
<path id="Vector_19" d="M23.6309 13.2631L24.4506 14.0434L25.2309 13.2237L24.4112 12.4434L23.6309 13.2631Z" fill="#ACACAE"/>
<path id="Vector_20" d="M22.4785 14.2878L23.1091 14.9026L23.7239 14.2641L23.0854 13.6572L22.4785 14.2878Z" fill="#CDD542"/>
<path id="Vector_21" d="M24.8125 14.6345L25.4509 15.2492L26.0578 14.6108L25.4194 14.0039L24.8125 14.6345Z" fill="#77B750"/>
<path id="Vector_22" d="M21.4395 15.257L22.07 15.8718L22.6848 15.2334L22.0464 14.6265L21.4395 15.257Z" fill="#CDD542"/>
<path id="Vector_23" d="M23.5742 15.3357L24.2048 15.9426L24.8196 15.3121L24.1811 14.6973L23.5742 15.3357Z" fill="#39B5BC"/>
<path id="Vector_24" d="M22.7402 16.0689L23.1816 16.4945L23.6151 16.0453L23.1659 15.6196L22.7402 16.0689Z" fill="#77B750"/>
<path id="Vector_25" d="M24.4258 16.3999L24.8751 16.8334L25.3007 16.3841L24.8593 15.9585L24.4258 16.3999Z" fill="#61B362"/>
<path id="Vector_26" d="M29.503 12.7467L28.1152 13.001L28.3695 14.3887L29.7572 14.1345L29.503 12.7467Z" fill="#3A89C8"/>
<path id="Vector_27" d="M27.4172 13.3747L26.3008 13.5791L26.5052 14.6955L27.6216 14.4911L27.4172 13.3747Z" fill="#344773"/>
<path id="Vector_28" d="M29.5715 14.929L28.4551 15.1338L28.6598 16.2502L29.7762 16.0454L29.5715 14.929Z" fill="#39B5BC"/>
<path id="Vector_29" d="M26.9238 15.2963L27.0815 16.1633L27.9485 16.0057L27.7908 15.1387L26.9238 15.2963Z" fill="#CDD542"/>
<path id="Vector_30" d="M29.4757 16.7844L28.6074 16.9434L28.7664 17.8117L29.6347 17.6527L29.4757 16.7844Z" fill="#ACACAE"/>
<path id="Vector_31" d="M26.4894 15.4914L25.6211 15.6504L25.7801 16.5187L26.6484 16.3597L26.4894 15.4914Z" fill="#39B5BC"/>
<path id="Vector_32" d="M28.0656 16.6262L27.1973 16.7852L27.3563 17.6535L28.2245 17.4945L28.0656 16.6262Z" fill="#77B750"/>
<path id="Vector_33" d="M26.7062 16.7739L26.0938 16.8862L26.2061 17.4987L26.8185 17.3864L26.7062 16.7739Z" fill="#ACACAE"/>
<path id="Vector_34" d="M27.8742 18.0354L27.2617 18.1475L27.3737 18.76L27.9863 18.648L27.8742 18.0354Z" fill="#61B362"/>
<path id="Vector_35" d="M32.2534 17.5425L31.6465 18.8193L32.9233 19.4263L33.5303 18.1494L32.2534 17.5425Z" fill="#39457C"/>
<path id="Vector_36" d="M30.4399 16.9595L29.9512 17.9762L30.9758 18.4649L31.4645 17.4403L30.4399 16.9595Z" fill="#39B5BC"/>
<path id="Vector_37" d="M31.2758 19.4736L30.7871 20.4983L31.8118 20.9791L32.3004 19.9623L31.2758 19.4736Z" fill="#77B750"/>
<path id="Vector_38" d="M29.935 18.7095L29.5566 19.5055L30.3527 19.8839L30.731 19.0878L29.935 18.7095Z" fill="#CDD542"/>
<path id="Vector_39" d="M30.3373 21.0269L29.959 21.8229L30.7551 22.2013L31.1334 21.4052L30.3373 21.0269Z" fill="#CDD542"/>
<path id="Vector_40" d="M28.6752 18.2368L28.2969 19.0329L29.0929 19.4112L29.4713 18.6151L28.6752 18.2368Z" fill="#3A89C8"/>
<path id="Vector_41" d="M29.2885 20.0728L28.9102 20.8688L29.7062 21.2472L30.0846 20.4511L29.2885 20.0728Z" fill="#ACACAE"/>
<path id="Vector_42" d="M28.3266 19.5132L28.0586 20.0728L28.6182 20.3408L28.8862 19.7812L28.3266 19.5132Z" fill="#77B750"/>
<path id="Vector_43" d="M28.543 21.2229L28.2754 21.7852L28.8376 22.0528L29.1052 21.4906L28.543 21.2229Z" fill="#39B5BC"/>
<path id="Vector_44" d="M32.9386 23.6431L31.7012 24.3209L32.379 25.5584L33.6165 24.8805L32.9386 23.6431Z" fill="#3A89C8"/>
<path id="Vector_45" d="M31.8115 22.1064L30.8184 22.6503L31.3622 23.6434L32.3553 23.0996L31.8115 22.1064Z" fill="#39B5BC"/>
<path id="Vector_46" d="M31.0146 24.6362L30.0215 25.1801L30.5653 26.1732L31.5585 25.6293L31.0146 24.6362Z" fill="#39B5BC"/>
<path id="Vector_47" d="M30.3779 23.2339L29.6055 23.6595L30.0311 24.4319L30.8035 24.0063L30.3779 23.2339Z" fill="#39457C"/>
<path id="Vector_48" d="M29.3447 25.354L28.5723 25.7796L28.9979 26.5521L29.7703 26.1264L29.3447 25.354Z" fill="#61B362"/>
<path id="Vector_49" d="M29.6357 22.1143L28.8633 22.5399L29.281 23.3123L30.0613 22.8867L29.6357 22.1143Z" fill="#344773"/>
<path id="Vector_50" d="M29.0537 23.9663L28.2812 24.3919L28.7069 25.1565L29.4793 24.7387L29.0537 23.9663Z" fill="#CDD542"/>
<path id="Vector_51" d="M28.6024 22.9497L28.0586 23.2492L28.3581 23.7931L28.902 23.4936L28.6024 22.9497Z" fill="#ACACAE"/>
<path id="Vector_52" d="M27.7763 24.4556L27.2324 24.7551L27.5319 25.2989L28.0758 24.9994L27.7763 24.4556Z" fill="#39B5BC"/>
<path id="Vector_53" d="M28.5188 28.8176L28.3457 30.2178L29.7458 30.3909L29.919 28.9908L28.5188 28.8176Z" fill="#77B750"/>
<path id="Vector_54" d="M28.7861 26.9469L28.6465 28.0732L29.7729 28.2128L29.9125 27.0865L28.7861 26.9469Z" fill="#344773"/>
<path id="Vector_55" d="M26.6552 28.5328L26.5156 29.6592L27.642 29.7988L27.7816 28.6724L26.6552 28.5328Z" fill="#39B5BC"/>
<path id="Vector_56" d="M27.206 27.058L27.0977 27.9341L27.9737 28.0424L28.082 27.1663L27.206 27.058Z" fill="#77B750"/>
<path id="Vector_57" d="M25.1298 28.1747L25.0215 29.0508L25.8975 29.1591L26.0059 28.283L25.1298 28.1747Z" fill="#ACACAE"/>
<path id="Vector_58" d="M27.2629 25.7079L27.1543 26.584L28.0304 26.6926L28.1389 25.8165L27.2629 25.7079Z" fill="#ACACAE"/>
<path id="Vector_59" d="M25.7043 26.8725L25.5957 27.7485L26.4718 27.8571L26.5803 26.9811L25.7043 26.8725Z" fill="#77B750"/>
<path id="Vector_60" d="M26.1975 25.8259L26.1211 26.4438L26.739 26.5202L26.8154 25.9023L26.1975 25.8259Z" fill="#ACACAE"/>
<path id="Vector_61" d="M24.6467 26.5573L24.5703 27.1753L25.1883 27.2516L25.2647 26.6336L24.6467 26.5573Z" fill="#ACACAE"/>
<path id="Vector_62" d="M24.3398 31.5646L23.2994 30.603L22.3457 31.6434L23.3782 32.5971L24.3398 31.5646Z" fill="#CDD542"/>
<path id="Vector_63" d="M24.1504 11.8127L23.11 10.8511L22.1484 11.8836L23.1888 12.8452L24.1504 11.8127Z" fill="#77B750"/>
<path id="Vector_64" d="M25.4418 30.02L24.6142 29.2476L23.8418 30.0752L24.6694 30.8476L25.4418 30.02Z" fill="#39B5BC"/>
<path id="Vector_65" d="M22.7875 30.0595L21.9599 29.2949L21.1875 30.1225L22.0151 30.8871L22.7875 30.0595Z" fill="#77B750"/>
<path id="Vector_66" d="M23.9211 29.0106L23.2748 28.4116L22.6758 29.0579L23.3221 29.657L23.9211 29.0106Z" fill="#3A89C8"/>
<path id="Vector_67" d="M21.5813 28.7035L20.935 28.1045L20.3359 28.7508L20.9823 29.3498L21.5813 28.7035Z" fill="#CDD542"/>
<path id="Vector_68" d="M24.7492 27.9545L24.1029 27.3555L23.5039 28.0018L24.1502 28.6008L24.7492 27.9545Z" fill="#CDD542"/>
<path id="Vector_69" d="M22.8098 27.9862L22.1635 27.3872L21.5645 28.0335L22.2108 28.6325L22.8098 27.9862Z" fill="#ACACAE"/>
<path id="Vector_70" d="M23.6308 27.2376L23.1736 26.8198L22.7559 27.277L23.213 27.6947L23.6308 27.2376Z" fill="#344773"/>
<path id="Vector_71" d="M21.9354 26.9304L21.4783 26.5127L21.0605 26.962L21.5177 27.3876L21.9354 26.9304Z" fill="#ACACAE"/>
<path id="Vector_72" d="M18.0259 29.0109L16.6426 29.2881L16.9198 30.6714L18.3032 30.3942L18.0259 29.0109Z" fill="#3A89C8"/>
<path id="Vector_73" d="M19.8804 28.6745L18.7676 28.8975L18.9905 30.0103L20.1034 29.7874L19.8804 28.6745Z" fill="#39B5BC"/>
<path id="Vector_74" d="M17.7066 27.1625L16.5938 27.3857L16.817 28.4986L17.9299 28.2754L17.7066 27.1625Z" fill="#77B750"/>
<path id="Vector_75" d="M19.4603 28.0809L19.2869 27.2139L18.4199 27.3873L18.5933 28.2543L19.4603 28.0809Z" fill="#CDD542"/>
<path id="Vector_76" d="M20.5785 26.8442L19.7129 27.0176L19.8863 27.8831L20.7518 27.7098L20.5785 26.8442Z" fill="#39457C"/>
<path id="Vector_77" d="M18.9847 25.7324L18.1191 25.9058L18.2925 26.7713L19.1581 26.5979L18.9847 25.7324Z" fill="#3A89C8"/>
<path id="Vector_78" d="M20.1418 25.8641L19.5312 25.9863L19.6535 26.5969L20.264 26.4746L20.1418 25.8641Z" fill="#77B750"/>
<path id="Vector_79" d="M18.9503 24.6265L18.3398 24.749L18.4624 25.3595L19.0729 25.2369L18.9503 24.6265Z" fill="#ACACAE"/>
<path id="Vector_80" d="M14.0933 25.9212L14.6845 24.6365L13.3919 24.0532L12.8086 25.3301L14.0933 25.9212Z" fill="#39B5BC"/>
<path id="Vector_81" d="M15.9134 26.481L16.3863 25.4485L15.3538 24.9756L14.8809 26.0081L15.9134 26.481Z" fill="#CDD542"/>
<path id="Vector_82" d="M15.0384 23.9746L15.5034 22.9421L14.4709 22.4771L14.0059 23.5096L15.0384 23.9746Z" fill="#3A89C8"/>
<path id="Vector_83" d="M15.9522 23.5454L15.5859 24.3486L16.3892 24.7149L16.7554 23.9117L15.9522 23.5454Z" fill="#39B5BC"/>
<path id="Vector_84" d="M17.4661 26.7256L17.8286 25.9216L17.0247 25.5591L16.6621 26.3552L17.4661 26.7256Z" fill="#ACACAE"/>
<path id="Vector_85" d="M15.5149 21.2349L15.1484 22.0381L15.9516 22.4045L16.318 21.6014L15.5149 21.2349Z" fill="#39457C"/>
<path id="Vector_86" d="M17.2258 24.004L16.8594 24.8071L17.6625 25.1736L18.029 24.3704L17.2258 24.004Z" fill="#61B362"/>
<path id="Vector_87" d="M16.5796 22.177L16.2129 22.98L17.0159 23.3467L17.3826 22.5437L16.5796 22.177Z" fill="#CDD542"/>
<path id="Vector_88" d="M17.9874 23.8876L18.2396 23.3201L17.68 23.0679L17.4199 23.6275L17.9874 23.8876Z" fill="#344773"/>
<path id="Vector_89" d="M17.7413 22.185L18.0014 21.6175L17.4339 21.3652L17.1738 21.9248L17.7413 22.185Z" fill="#77B750"/>
<path id="Vector_90" d="M13.305 19.8285L14.5346 19.1349L13.8331 17.9053L12.6035 18.6068L13.305 19.8285Z" fill="#39B5BC"/>
<path id="Vector_91" d="M14.4561 21.35L15.4413 20.7904L14.8817 19.8052L13.8965 20.3648L14.4561 21.35Z" fill="#77B750"/>
<path id="Vector_92" d="M15.212 18.8036L16.1973 18.244L15.6298 17.2588L14.6445 17.8184L15.212 18.8036Z" fill="#344773"/>
<path id="Vector_93" d="M15.875 20.199L16.6395 19.7655L16.1981 19.001L15.4336 19.4345L15.875 20.199Z" fill="#3A89C8"/>
<path id="Vector_94" d="M16.8671 18.0628L17.6316 17.6293L17.1981 16.8647L16.4336 17.2983L16.8671 18.0628Z" fill="#77B750"/>
<path id="Vector_95" d="M16.6308 21.3104L17.4032 20.869L16.9618 20.1045L16.1973 20.5459L16.6308 21.3104Z" fill="#39B5BC"/>
<path id="Vector_96" d="M17.1835 19.4501L17.9559 19.0087L17.5145 18.2441L16.75 18.6855L17.1835 19.4501Z" fill="#CDD542"/>
<path id="Vector_97" d="M17.6551 20.4513L18.1911 20.1518L17.8837 19.6079L17.3398 19.9153L17.6551 20.4513Z" fill="#ACACAE"/>
<path id="Vector_98" d="M18.4519 18.9298L18.9958 18.6224L18.6884 18.0864L18.1445 18.3938L18.4519 18.9298Z" fill="#77B750"/>
<path id="Vector_99" d="M16.3843 13.0327L16.2344 14.4355L17.6372 14.5855L17.7872 13.1827L16.3843 13.0327Z" fill="#77B750"/>
<path id="Vector_100" d="M16.3962 15.2055L16.2754 16.334L17.4039 16.4547L17.5247 15.3262L16.3962 15.2055Z" fill="#ACACAE"/>
<path id="Vector_101" d="M18.4958 13.5892L18.375 14.7178L19.5035 14.8385L19.6243 13.71L18.4958 13.5892Z" fill="#39B5BC"/>
<path id="Vector_102" d="M18.1917 15.3527L18.0977 16.2305L18.9754 16.3245L19.0694 15.4467L18.1917 15.3527Z" fill="#CDD542"/>
<path id="Vector_103" d="M20.252 14.2018L20.1582 15.0796L21.0359 15.1733L21.1297 14.2956L20.252 14.2018Z" fill="#3A89C8"/>
<path id="Vector_104" d="M18.1664 16.7018L18.0723 17.5796L18.95 17.6737L19.0441 16.796L18.1664 16.7018Z" fill="#39B5BC"/>
<path id="Vector_105" d="M19.6996 15.5148L19.6055 16.3926L20.4832 16.4867L20.5773 15.6089L19.6996 15.5148Z" fill="#77B750"/>
<path id="Vector_106" d="M19.4627 16.857L19.3965 17.4761L20.0156 17.5423L20.0818 16.9231L19.4627 16.857Z" fill="#344773"/>
<path id="Vector_107" d="M20.9995 16.0952L20.9336 16.7144L21.5528 16.7803L21.6187 16.1611L20.9995 16.0952Z" fill="#ACACAE"/>
<path id="Vector_108" d="M27.6017 22.5953C27.4992 22.5322 27.3022 22.4377 27.0421 22.351C26.6637 22.2327 26.1278 22.1382 25.4972 22.2406C25.2844 22.2721 25.0637 22.3273 24.8273 22.414C24.8036 22.4219 24.78 22.4298 24.7642 22.4377C24.646 22.485 24.5278 22.5322 24.4095 22.5953C24.3071 22.6426 24.2125 22.7057 24.11 22.7608C23.8814 22.8948 23.6607 23.0525 23.44 23.218C23.1957 21.7125 23.3139 20.3174 23.3691 19.6317C23.3691 19.6317 23.377 19.6238 23.377 19.6317C23.913 19.9628 23.7632 20.9007 23.645 21.1687C23.645 21.1766 23.6529 21.1766 23.6529 21.1766C24.3149 20.3963 23.9918 19.5292 23.8578 19.3086C23.8578 19.3007 23.8578 19.3007 23.8657 19.3007C23.9603 19.3795 24.0391 19.4583 24.1021 19.545C24.3071 19.8051 24.3859 20.0889 24.4016 20.3411C24.4095 20.4751 24.4095 20.5933 24.4016 20.7036C24.4016 20.7352 24.3938 20.7588 24.3938 20.7825C24.3938 20.7903 24.3938 20.7904 24.4016 20.7904C24.5829 20.4357 24.6696 19.9076 24.4016 19.3874C24.3307 19.2455 24.2282 19.1115 24.1021 18.9775C24.0627 18.9381 24.0233 18.8987 23.9839 18.8593C23.976 18.8593 23.9839 18.8514 23.9918 18.8514C24.0312 18.8593 24.0706 18.875 24.11 18.8829C24.2204 18.9223 24.3228 18.9775 24.4095 19.0406C24.6145 19.1903 24.7484 19.3953 24.8273 19.6081C24.8982 19.7815 24.9297 19.9627 24.9218 20.1283C24.9218 20.1362 24.9297 20.1362 24.9297 20.1283C25.0558 19.6711 24.977 19.3243 24.8194 19.0721C24.709 18.8908 24.5514 18.7568 24.4016 18.6701C24.2992 18.6071 24.1888 18.5598 24.1021 18.5361C24.047 18.5204 23.9997 18.5125 23.9603 18.5046C23.9524 18.5046 23.9524 18.4967 23.9603 18.4967C24.0075 18.4888 24.0548 18.4888 24.1021 18.4888C24.2125 18.4888 24.3149 18.4967 24.4016 18.5125C24.5829 18.544 24.7169 18.6071 24.8194 18.678C24.9849 18.7883 25.0716 18.9223 25.1031 18.9775C25.1031 18.9854 25.111 18.9775 25.111 18.9775C25.0874 18.7332 24.977 18.544 24.8194 18.41C24.7012 18.3076 24.5514 18.2287 24.4016 18.1893C24.2992 18.1657 24.1967 18.1499 24.1021 18.1499C23.9681 18.1499 23.8341 18.1736 23.7238 18.2209C23.7159 18.2209 23.7159 18.2209 23.7159 18.213C23.8105 18.0711 23.9524 17.9844 24.1021 17.945C24.2046 17.9135 24.3071 17.9056 24.4016 17.9056C24.4962 17.9135 24.5829 17.9292 24.646 17.9607C24.6539 17.9607 24.6539 17.9529 24.6539 17.9529C24.575 17.8662 24.4962 17.7952 24.4016 17.7479C24.3071 17.6928 24.2046 17.6612 24.1021 17.6534C23.8341 17.6218 23.5583 17.7401 23.377 18.0159H23.3691C23.3376 17.9529 23.2982 17.8819 23.2666 17.811C23.1957 17.6455 23.1327 17.4484 23.1011 17.2671C23.1011 17.2593 23.0932 17.2593 23.0932 17.2671C23.0617 17.4563 22.9987 17.6455 22.9277 17.8189C22.8962 17.8898 22.8647 17.9607 22.8253 18.0238H22.8174C22.5021 17.543 21.9031 17.5509 21.5405 17.9686C21.5405 17.9765 21.5405 17.9765 21.5484 17.9765C21.7927 17.8583 22.2499 17.8977 22.4785 18.2209C22.4785 18.2287 22.4785 18.2287 22.4706 18.2287C22.1159 18.079 21.572 18.1736 21.2804 18.5204C21.1779 18.6465 21.107 18.8041 21.0834 18.9854C21.0834 18.9933 21.0912 18.9933 21.0912 18.9854C21.1149 18.946 21.1701 18.8514 21.2725 18.7568C21.4459 18.6071 21.7376 18.4573 22.2341 18.4967C22.242 18.4967 22.242 18.5046 22.2341 18.5046C21.9819 18.5361 21.4617 18.7568 21.2725 19.277C21.1858 19.5056 21.1701 19.7893 21.2646 20.1362C21.2646 20.144 21.2725 20.144 21.2725 20.1362C21.2725 20.1283 21.2725 20.1204 21.2725 20.1125C21.2804 19.6475 21.5484 19.0169 22.2026 18.8593C22.2105 18.8593 22.2105 18.8672 22.2105 18.8672C21.4696 19.5214 21.5405 20.3174 21.7849 20.7904C21.7849 20.7982 21.7927 20.7904 21.7927 20.7904C21.7612 20.4357 21.7376 19.7972 22.3287 19.3086C22.3366 19.3086 22.3366 19.3086 22.3366 19.3164C22.2026 19.5371 21.8794 20.4041 22.5415 21.1844C22.5415 21.1923 22.5573 21.1844 22.5494 21.1766C22.439 20.9086 22.2893 19.9706 22.8174 19.6396H22.8253C22.8804 20.3253 23.0065 21.7204 22.7543 23.2259C22.3287 22.8948 21.8716 22.6111 21.4302 22.4377C21.375 22.414 21.3198 22.3983 21.2646 22.3825C20.7996 22.2327 20.3819 22.1854 20.0114 22.2012C19.4203 22.2249 18.9631 22.4061 18.7188 22.5244C18.6715 22.548 18.6242 22.5717 18.5927 22.5953C18.5769 22.6032 18.5927 22.6189 18.6006 22.6189C18.64 22.6032 18.6794 22.5953 18.7188 22.5874C19.1759 22.4613 19.6016 22.4219 20.0114 22.4613C20.4528 22.5007 20.8706 22.619 21.2646 22.8002C21.8085 23.0446 22.3051 23.3993 22.7543 23.7697C22.1238 24.3214 21.5878 24.8574 21.2646 25.0466C21.2489 25.0545 21.2331 25.0623 21.2174 25.0702C21.1385 24.9678 21.0045 24.9047 20.8548 24.9362C20.7287 24.9678 20.6183 25.0702 20.5947 25.1963C20.571 25.3067 20.5947 25.4328 20.6656 25.4958C20.839 25.6692 21.0361 25.6771 21.2646 25.5825C21.706 25.4013 22.2499 24.818 22.912 24.2111C22.9671 24.1638 23.0223 24.1086 23.0854 24.0613C23.1405 24.1086 23.1957 24.1638 23.2509 24.2111C23.5504 24.487 23.8341 24.7549 24.0864 24.9914C24.1888 25.086 24.2913 25.1727 24.3859 25.2515C24.5356 25.3697 24.6775 25.4722 24.8036 25.5431C25.0558 25.6771 25.2844 25.6929 25.4736 25.5274C25.4815 25.5195 25.4972 25.5116 25.5051 25.5037C25.5524 25.4564 25.5997 25.3146 25.576 25.2042C25.5603 25.1412 25.5288 25.0781 25.4736 25.0308C25.4263 24.9914 25.3711 24.9599 25.3081 24.9441C25.1583 24.9126 25.0243 24.9756 24.9455 25.0781C24.8982 25.0545 24.8509 25.0229 24.8036 24.9914C24.6854 24.9126 24.5435 24.7944 24.3859 24.6525C24.2913 24.5658 24.1888 24.4791 24.0864 24.3845C23.8814 24.1953 23.6529 23.9904 23.4164 23.7776C23.6292 23.5963 23.8578 23.4308 24.0864 23.2653C24.1809 23.2022 24.2834 23.1313 24.3859 23.0761C24.5199 22.9973 24.6617 22.9185 24.8036 22.8475C25.0164 22.7451 25.2371 22.6584 25.4736 22.5953C25.9544 22.4613 26.4667 22.414 27.0184 22.5007C27.1997 22.5322 27.381 22.5717 27.5702 22.6268C27.6096 22.6189 27.6175 22.6032 27.6017 22.5953Z" fill="#757D82"/>
<path id="Vector_109" d="M3.70485 37.957H3.28711V38.3748H3.70485V37.957Z" fill="white"/>
<path id="Vector_110" d="M31.2993 37.4763V34.7334H30.8973V37.0743H29.3682V34.7334H28.9663V37.0743H27.3505V34.7334H26.712C26.4598 34.7334 26.2313 34.7649 26.0184 34.8359C25.8135 34.9068 25.6401 35.0014 25.4904 35.1275C25.3485 35.2536 25.2303 35.3955 25.1514 35.5689C25.0726 35.7344 25.0332 35.9236 25.0332 36.1127C25.0332 36.3492 25.0805 36.5541 25.1672 36.7275C25.2618 36.9009 25.38 37.0428 25.5298 37.1531C25.6795 37.2635 25.8608 37.3502 26.0657 37.3975C26.2707 37.4527 26.4835 37.4763 26.7042 37.4763H31.2993ZM26.113 37.0034C25.979 36.9561 25.8608 36.893 25.7662 36.8142C25.6638 36.7354 25.5849 36.6329 25.5298 36.5068C25.4746 36.3886 25.4431 36.2546 25.4431 36.097C25.4431 35.9551 25.4746 35.8211 25.5376 35.7029C25.6007 35.5846 25.6795 35.4822 25.7899 35.3955C25.8923 35.3088 26.0106 35.2457 26.1446 35.1984C26.2785 35.1511 26.4125 35.1275 26.5465 35.1275H26.9485V37.0664H26.5465C26.3889 37.0664 26.247 37.0507 26.113 37.0034Z" fill="white"/>
<path id="Vector_111" d="M23.0309 33.8428H22.6289V37.4763H23.0309V33.8428Z" fill="white"/>
<path id="Vector_112" d="M27.3494 33.8428H26.9316V34.2605H27.3494V33.8428Z" fill="white"/>
<path id="Vector_113" d="M31.3064 37.9487H30.8887V38.3665H31.3064V37.9487Z" fill="white"/>
<path id="Vector_114" d="M4.41383 37.9487H3.99609V38.3665H4.41383V37.9487Z" fill="white"/>
<path id="Vector_115" d="M21.0438 37.0662H20.3818C20.1453 37.0662 19.9561 37.0347 19.8221 36.9637C19.6881 36.8928 19.5778 36.7982 19.499 36.6563C19.5226 36.5539 19.5384 36.4278 19.5384 36.278V34.9696H19.1364V36.3411C19.1364 36.5775 19.0734 36.7588 18.9472 36.9007C18.8211 37.0425 18.632 37.1135 18.3798 37.1135C18.2615 37.1135 18.1512 37.0977 18.0566 37.0583C17.962 37.0189 17.8753 36.9716 17.8044 36.9086C17.7334 36.8455 17.6783 36.7667 17.6389 36.68C17.5994 36.5933 17.5758 36.4987 17.5758 36.4041V34.9696H17.1738V36.3726C17.1738 36.4987 17.1581 36.6012 17.1187 36.6879C17.0792 36.7746 17.0319 36.8455 16.9689 36.9007C16.9058 36.9558 16.8349 36.9953 16.7482 37.0189C16.6694 37.0425 16.5827 37.0583 16.4881 37.0583H15.6999V34.9696H15.2979V37.0583H13.1698L13.8792 35.3637C13.7688 35.2691 13.6585 35.1824 13.5324 35.0957C13.4142 35.0169 13.288 34.9381 13.1541 34.875C13.0279 34.812 12.894 34.7647 12.76 34.7253C12.626 34.6937 12.4999 34.6701 12.3659 34.6701C12.2319 34.6701 12.1058 34.6859 11.9718 34.7253C11.8378 34.7647 11.7117 34.812 11.5777 34.8671C11.4516 34.9302 11.3255 35.0011 11.1993 35.0878C11.0811 35.1745 10.9708 35.2612 10.8604 35.3558L11.5777 37.0504H10.1747V34.7095H9.52838C9.27616 34.7095 9.04759 34.741 8.84266 34.812C8.63773 34.8829 8.45645 34.9775 8.31457 35.1036C8.16481 35.2297 8.05447 35.3716 7.97565 35.545C7.89683 35.7184 7.85742 35.8997 7.85742 36.0967C7.85742 36.3332 7.90471 36.5381 7.99141 36.7115C8.07811 36.8849 8.20422 37.0189 8.35398 37.1292C8.50374 37.2396 8.68502 37.3184 8.88995 37.3736C9.09488 37.4288 9.30769 37.4524 9.53627 37.4524H9.7806V37.5706C9.7806 37.7834 9.71755 37.9332 9.59932 38.0278C9.48109 38.1224 9.30769 38.1618 9.087 38.1618C8.96089 38.1618 8.85054 38.1539 8.74808 38.1302C8.64561 38.1066 8.53527 38.0672 8.40915 38.012L8.28304 38.3982C8.44068 38.4534 8.57467 38.5007 8.6929 38.5243C8.81113 38.5559 8.93724 38.5638 9.05547 38.5638C9.44956 38.5638 9.74119 38.4692 9.9146 38.28C10.0959 38.0908 10.1826 37.8386 10.1826 37.5233V37.4445H16.4802C16.6773 37.4445 16.8507 37.4051 17.0083 37.3184C17.1581 37.2317 17.2842 37.1214 17.3788 36.9795C17.4733 37.145 17.6073 37.2711 17.7807 37.3578C17.9462 37.4524 18.1512 37.4918 18.3876 37.4918C18.632 37.4918 18.8369 37.4524 19.0103 37.3657C19.1837 37.279 19.3098 37.1529 19.4044 36.9795C19.4359 37.0347 19.4832 37.0898 19.5305 37.1529C19.5778 37.2081 19.6409 37.2554 19.7197 37.3026C19.7985 37.3499 19.8931 37.3815 20.0034 37.4051C20.0901 37.4288 20.1847 37.4366 20.2951 37.4445V37.4524H21.4458V33.8188H21.0438V37.0662ZM9.76484 37.0662H9.35498C9.20523 37.0662 9.06335 37.0425 8.92936 37.0031C8.79537 36.9637 8.67714 36.9007 8.57467 36.8218C8.47221 36.743 8.39339 36.6406 8.33822 36.5223C8.28304 36.4041 8.25152 36.2701 8.25152 36.1204C8.25152 35.9785 8.28304 35.8445 8.3461 35.7184C8.40915 35.6002 8.48797 35.4898 8.59044 35.411C8.6929 35.3243 8.81113 35.2612 8.94512 35.2139C9.07911 35.1667 9.21311 35.143 9.35498 35.143H9.76484V37.0662ZM12.0033 37.0662L11.3727 35.5135C11.5304 35.3795 11.688 35.2849 11.8535 35.2218C12.0191 35.1588 12.1846 35.1272 12.3659 35.1272C12.5471 35.1272 12.7284 35.1667 12.9097 35.2376C13.091 35.3085 13.2408 35.4031 13.3669 35.5056L12.7363 37.0583H12.0033V37.0662Z" fill="white"/>
<path id="Vector_116" d="M2.31032 33.8428H1.89258V34.2605H2.31032V33.8428Z" fill="white"/>
<path id="Vector_117" d="M43.3259 33.8428H42.9082V34.2605H43.3259V33.8428Z" fill="white"/>
<path id="Vector_118" d="M39.7164 33.8428H39.3145V37.4763H39.7164V33.8428Z" fill="white"/>
<path id="Vector_119" d="M26.6404 33.8428H26.2227V34.2605H26.6404V33.8428Z" fill="white"/>
<path id="Vector_120" d="M7.20393 35.8759C7.20393 35.7183 7.18028 35.5685 7.14087 35.4267C7.10146 35.2848 7.03053 35.1666 6.94382 35.072C6.83348 34.9537 6.71525 34.867 6.58126 34.804C6.44726 34.7488 6.28174 34.7173 6.09258 34.7173H5.79307V35.1193H6.14775C6.24234 35.1193 6.33692 35.1429 6.42362 35.1823C6.51032 35.2217 6.58126 35.2769 6.64431 35.3478C6.69949 35.4188 6.73889 35.4976 6.76254 35.5843C6.78619 35.671 6.79407 35.7735 6.79407 35.8917V37.0661H4.89453V37.4681H7.20393V35.8759Z" fill="white"/>
<path id="Vector_121" d="M61.1637 33.8428H60.7617V37.4763H61.1637V33.8428Z" fill="white"/>
<path id="Vector_122" d="M44.0369 33.8428H43.6191V34.2605H44.0369V33.8428Z" fill="white"/>
<path id="Vector_123" d="M59.5869 33.8424H59.1849V37.0661H57.7819C57.8686 36.877 57.908 36.6799 57.908 36.4671C57.908 36.2543 57.8686 36.0651 57.7977 35.8838C57.7189 35.7026 57.6164 35.5449 57.4824 35.4188C57.3484 35.2848 57.1908 35.1823 57.0174 35.1035C56.8361 35.0247 56.639 34.9932 56.4341 34.9932C56.2292 34.9932 56.04 35.0326 55.8666 35.1114C55.6932 35.1902 55.5356 35.2927 55.4095 35.4267C55.2834 35.5607 55.1809 35.7183 55.1021 35.8917C55.0311 36.073 54.9917 36.2622 54.9917 36.4671C54.9917 36.5774 54.9996 36.6799 55.0232 36.7745C55.0469 36.877 55.0784 36.9715 55.1099 37.0582H53.8567C53.9434 36.8691 53.9828 36.672 53.9828 36.4592C53.9828 36.2464 53.9434 36.0572 53.8725 35.876C53.7937 35.6947 53.6912 35.537 53.5572 35.4109C53.4232 35.2769 53.2656 35.1745 53.0922 35.0956C52.9109 35.0168 52.7139 34.9853 52.5089 34.9853C52.304 34.9853 52.1148 35.0247 51.9414 35.1035C51.768 35.1823 51.6104 35.2848 51.4843 35.4188C51.3503 35.5528 51.2557 35.7104 51.1769 35.8838C51.1059 36.0651 51.0665 36.2543 51.0665 36.4592C51.0665 36.5696 51.0744 36.672 51.0981 36.7666C51.1217 36.8691 51.1532 36.9637 51.1848 37.0504H49.9V33.8267H49.498V37.0504H48.2054V36.4277C48.2054 36.27 48.1818 36.1282 48.1424 35.9863C48.1029 35.8444 48.0399 35.7262 47.9532 35.6316C47.8507 35.5134 47.7325 35.4267 47.5985 35.3715C47.4645 35.3163 47.299 35.2848 47.0941 35.2848H45.297L46.0615 33.8267H45.6201L44.8398 35.2769C44.8556 35.3636 44.8714 35.4425 44.9029 35.5055C44.9344 35.5686 44.9738 35.6316 45.0211 35.6868H47.0862C47.2123 35.6868 47.3226 35.7026 47.4172 35.742C47.5118 35.7814 47.5827 35.8365 47.6458 35.8996C47.701 35.9705 47.7404 36.0415 47.764 36.1361C47.7877 36.2228 47.7956 36.3252 47.7956 36.4277V37.0504H44.0438V34.7094H43.4053C43.1531 34.7094 42.9245 34.741 42.7196 34.8119C42.5147 34.8828 42.3413 34.9774 42.1915 35.1035C42.0496 35.2296 41.9314 35.3715 41.8526 35.5449C41.7738 35.7104 41.7344 35.8996 41.7344 36.0888C41.7344 36.3252 41.7817 36.5301 41.8684 36.7036C41.9629 36.877 42.0812 37.0188 42.2309 37.1292C42.3807 37.2395 42.562 37.3262 42.7669 37.3735C42.9718 37.4287 43.1846 37.4523 43.4053 37.4523H51.4528C51.5867 37.5942 51.7444 37.7046 51.9257 37.7913C52.1069 37.8701 52.304 37.9174 52.5168 37.9174C52.7296 37.9174 52.9345 37.878 53.1237 37.7991C53.3129 37.7203 53.4705 37.6021 53.6045 37.4602H55.3858C55.5198 37.6021 55.6774 37.7124 55.8587 37.7991C56.04 37.878 56.2371 37.9252 56.4499 37.9252C56.6627 37.9252 56.8676 37.8858 57.0568 37.807C57.2459 37.7282 57.4036 37.61 57.5376 37.4681H59.6026V33.8424H59.5869ZM43.626 37.0661H43.2241C43.0743 37.0661 42.9324 37.0425 42.7984 37.0031C42.6644 36.9558 42.5462 36.8927 42.4516 36.8139C42.3492 36.7351 42.2703 36.6326 42.2152 36.5065C42.16 36.3883 42.1285 36.2543 42.1285 36.0966C42.1285 35.9548 42.16 35.8208 42.223 35.7026C42.2861 35.5843 42.3649 35.4819 42.4753 35.3952C42.5777 35.3085 42.696 35.2454 42.83 35.1981C42.9639 35.1508 43.0979 35.1272 43.2319 35.1272H43.6339V37.0661H43.626ZM53.4863 36.8848C53.4311 37.0109 53.3523 37.1292 53.2577 37.2238C53.1631 37.3183 53.0449 37.3893 52.9188 37.4445C52.7848 37.4996 52.6508 37.5233 52.4932 37.5233C52.3434 37.5233 52.2094 37.4917 52.0833 37.4366C51.9572 37.3814 51.8468 37.3026 51.7523 37.208C51.6577 37.1134 51.5867 37.0031 51.5316 36.8691C51.4764 36.743 51.4528 36.6011 51.4528 36.4592C51.4528 36.3173 51.4764 36.1755 51.5316 36.0494C51.5867 35.9232 51.6577 35.805 51.7444 35.7104C51.839 35.6159 51.9414 35.537 52.0675 35.4819C52.1936 35.4267 52.3355 35.3952 52.4853 35.3952C52.6429 35.3952 52.7848 35.4188 52.9109 35.474C53.0449 35.5292 53.1552 35.6001 53.2498 35.6947C53.3444 35.7893 53.4232 35.8996 53.4784 36.0336C53.5336 36.1597 53.5572 36.3095 53.5572 36.4592C53.573 36.6169 53.5415 36.7587 53.4863 36.8848ZM57.4193 36.8848C57.3642 37.0109 57.2854 37.1292 57.1908 37.2238C57.0962 37.3183 56.978 37.3893 56.8519 37.4445C56.7257 37.4996 56.5839 37.5233 56.4262 37.5233C56.2765 37.5233 56.1425 37.4917 56.0164 37.4366C55.8903 37.3814 55.7799 37.3026 55.6853 37.208C55.5907 37.1134 55.5198 37.0031 55.4646 36.8691C55.4095 36.743 55.3858 36.6011 55.3858 36.4592C55.3858 36.3173 55.4095 36.1755 55.4646 36.0494C55.5198 35.9232 55.5907 35.805 55.6774 35.7104C55.772 35.6159 55.8745 35.537 56.0006 35.4819C56.1267 35.4267 56.2686 35.3952 56.4183 35.3952C56.576 35.3952 56.7179 35.4188 56.844 35.474C56.978 35.5292 57.0883 35.6001 57.1829 35.6947C57.2775 35.7893 57.3563 35.8996 57.4115 36.0336C57.4666 36.1597 57.4903 36.3095 57.4903 36.4592C57.506 36.6169 57.4745 36.7587 57.4193 36.8848Z" fill="white"/>
<path id="Vector_124" d="M1.03246 37.3892C1.23739 37.4444 1.4502 37.468 1.67089 37.468H4.32709V34.7251H3.92512V37.066H2.31721V34.7251H1.67877C1.42655 34.7251 1.19798 34.7566 0.99305 34.8276C0.78812 34.8985 0.614719 34.9931 0.464963 35.1192C0.323089 35.2453 0.20486 35.3872 0.126041 35.5606C0.047222 35.7261 0.0078125 35.9153 0.0078125 36.1044C0.0078125 36.3409 0.0551036 36.5458 0.141805 36.7192C0.236387 36.8926 0.354616 37.0345 0.504372 37.1448C0.654128 37.2552 0.835412 37.3419 1.03246 37.3892ZM0.409789 36.1044C0.409789 35.9626 0.441317 35.8286 0.504372 35.7103C0.567427 35.5921 0.646246 35.4896 0.748711 35.4029C0.851176 35.3162 0.969404 35.2532 1.1034 35.2059C1.23739 35.1586 1.37138 35.135 1.50537 35.135H1.90735V37.0739H1.50537C1.35562 37.0739 1.21374 37.0503 1.07975 37.0108C0.945758 36.9636 0.82753 36.9005 0.732947 36.8217C0.630482 36.7429 0.551663 36.6404 0.49649 36.5143C0.433435 36.3882 0.409789 36.2542 0.409789 36.1044Z" fill="white"/>
<path id="Vector_125" d="M29.8259 37.9487H29.4082V38.3665H29.8259V37.9487Z" fill="white"/>
<path id="Vector_126" d="M29.115 37.9487H28.6973V38.3665H29.115V37.9487Z" fill="white"/>
<path id="Vector_127" d="M32.8824 37.9887C32.9061 37.8625 32.9218 37.7207 32.9218 37.563V37.4763H38.1396V33.8428H37.7377V37.0665H36.0115L36.7209 35.3719C36.6106 35.2773 36.5002 35.1906 36.3741 35.1039C36.2559 35.0251 36.1298 34.9462 35.9958 34.8832C35.8697 34.8201 35.7357 34.7728 35.6017 34.7334C35.4677 34.7019 35.3416 34.6783 35.2155 34.6783C35.0815 34.6783 34.9554 34.694 34.8214 34.7334C34.6874 34.7728 34.5613 34.8201 34.4273 34.8753C34.2933 34.9384 34.175 35.0093 34.0489 35.096C33.9307 35.1827 33.8204 35.2694 33.71 35.364L34.4273 37.0586H32.9139V34.7177H32.512V37.5473C32.512 37.6655 32.5041 37.7601 32.4962 37.8389C32.4804 37.9177 32.4647 37.9808 32.4331 38.0281C32.4016 38.0754 32.3622 38.1148 32.3149 38.1305C32.2676 38.1542 32.2046 38.1621 32.1258 38.1621C32.0863 38.1621 32.0548 38.1621 32.0312 38.1542C32.0075 38.1542 31.9681 38.1384 31.9208 38.1305L31.8184 38.5167C31.9287 38.5483 32.0391 38.564 32.1494 38.564C32.2913 38.564 32.4174 38.5404 32.5198 38.4931C32.6223 38.4458 32.7011 38.3749 32.7642 38.2882C32.8115 38.2251 32.8509 38.1148 32.8824 37.9887ZM34.2223 35.5137C34.38 35.3797 34.5376 35.2852 34.7031 35.2221C34.8687 35.1591 35.0421 35.1275 35.2155 35.1275C35.3967 35.1275 35.578 35.1669 35.7593 35.2379C35.9406 35.3088 36.0903 35.4034 36.2165 35.5059L35.5859 37.0586H34.8608L34.2223 35.5137Z" fill="white"/>
<path id="Vector_128" d="M1.59938 33.8428H1.18164V34.2605H1.59938V33.8428Z" fill="white"/>
<path id="Vector_129" d="M2.90879 40.1323H2.28612L0.906785 41.5826V40.1323H0.402344V43.025H0.906785V42.1816L1.35605 41.7245L2.34917 43.025H2.96396L1.71074 41.3777L2.90879 40.1323Z" fill="white"/>
<path id="Vector_130" d="M3.94006 40.1323H3.42773V43.025H3.94006V40.1323Z" fill="white"/>
<path id="Vector_131" d="M6.74635 42.1343L5.19362 40.1323H4.7207V43.025H5.22514V40.9678L6.81729 43.025H7.24291V40.1323H6.74635V42.1343Z" fill="white"/>
<path id="Vector_132" d="M9.35673 41.8505H10.0976V42.3944C9.91634 42.5283 9.672 42.615 9.39614 42.615C8.805 42.615 8.4109 42.1737 8.4109 41.5825V41.5746C8.4109 41.0229 8.81288 40.5579 9.34885 40.5579C9.71929 40.5579 9.93999 40.6761 10.1607 40.8653L10.4838 40.4791C10.1843 40.2268 9.87693 40.085 9.37249 40.085C8.4976 40.085 7.88281 40.7707 7.88281 41.5825V41.5904C7.88281 42.4338 8.48184 43.0801 9.38826 43.0801C9.90058 43.0801 10.3104 42.8752 10.5942 42.6308V41.417H9.36461V41.8505H9.35673Z" fill="white"/>
<path id="Vector_133" d="M12.3669 40.1323H11.2871V43.025H12.3669C13.2733 43.025 13.9039 42.3944 13.9039 41.5826V41.5747C13.9039 40.755 13.2812 40.1323 12.3669 40.1323ZM13.3758 41.5826C13.3758 42.1501 12.9817 42.56 12.3669 42.56H11.7994V40.5974H12.3669C12.9738 40.5974 13.3758 41.0151 13.3758 41.5826Z" fill="white"/>
<path id="Vector_134" d="M15.906 40.085C15.0153 40.085 14.3848 40.7628 14.3848 41.5825V41.5904C14.3848 42.4022 15.0074 43.0801 15.8981 43.0801C16.7887 43.0801 17.4193 42.4022 17.4193 41.5825V41.5746C17.4114 40.7549 16.7887 40.085 15.906 40.085ZM16.8754 41.5825C16.8754 42.1421 16.4735 42.5993 15.8981 42.5993C15.3227 42.5993 14.9129 42.1343 14.9129 41.5746V41.5668C14.9129 41.0071 15.3148 40.55 15.8902 40.55C16.4656 40.55 16.8754 41.015 16.8754 41.5746V41.5825Z" fill="white"/>
<path id="Vector_135" d="M19.4676 41.4959L18.5849 40.1323H18.041V43.025H18.5455V40.9599L19.4519 42.3156H19.4676L20.3819 40.952V43.025H20.8864V40.1323H20.3504L19.4676 41.4959Z" fill="white"/>
<path id="Vector_136" d="M24.2693 40.085C23.3786 40.085 22.748 40.7628 22.748 41.5825V41.5904C22.748 42.4022 23.3707 43.0801 24.2614 43.0801C25.152 43.0801 25.7826 42.4022 25.7826 41.5825V41.5746C25.7826 40.7549 25.1599 40.085 24.2693 40.085ZM25.2466 41.5825C25.2466 42.1421 24.8446 42.5993 24.2693 42.5993C23.6939 42.5993 23.284 42.1343 23.284 41.5746V41.5668C23.284 41.0071 23.686 40.55 24.2614 40.55C24.8368 40.55 25.2466 41.015 25.2466 41.5746V41.5825Z" fill="white"/>
<path id="Vector_137" d="M26.4121 43.025H26.9166V41.8427H28.3826V41.3855H26.9166V40.5974H28.5639V40.1323H26.4121V43.025Z" fill="white"/>
<path id="Vector_138" d="M31.4803 41.3461C30.9285 41.2121 30.7945 41.1175 30.7945 40.8889V40.881C30.7945 40.6919 30.9679 40.5342 31.2675 40.5342C31.5354 40.5342 31.7955 40.6367 32.0556 40.8337L32.3315 40.4475C32.0399 40.2111 31.701 40.085 31.2832 40.085C30.7078 40.085 30.2901 40.4239 30.2901 40.9204V40.9283C30.2901 41.4643 30.6369 41.6456 31.2517 41.7874C31.7877 41.9136 31.9059 42.0239 31.9059 42.2288V42.2367C31.9059 42.4574 31.7088 42.5993 31.3936 42.5993C31.031 42.5993 30.7551 42.4653 30.4793 42.221L30.1719 42.5835C30.5187 42.8909 30.9364 43.0486 31.3778 43.0486C31.9847 43.0486 32.4103 42.7254 32.4103 42.1815V42.1737C32.4182 41.7165 32.0951 41.4958 31.4803 41.3461Z" fill="white"/>
<path id="Vector_139" d="M33.9702 40.1089L32.6934 43.0173H33.2136L33.5131 42.3158H34.8845L35.1762 43.0173H35.7121L34.4353 40.1089H33.9702ZM33.7022 41.8744L34.1988 40.7158L34.7032 41.8744H33.7022Z" fill="white"/>
<path id="Vector_140" d="M37.99 41.7955C37.99 42.3314 37.7141 42.5994 37.2649 42.5994C36.8077 42.5994 36.5319 42.3078 36.5319 41.7718V40.1245H36.0195V41.7876C36.0195 42.6231 36.5003 43.0566 37.2491 43.0566C38.0058 43.0566 38.4944 42.6231 38.4944 41.7639V40.1245H37.9821V41.7955H37.99Z" fill="white"/>
<path id="Vector_141" d="M40.324 40.1323H39.2441V43.025H40.324C41.2304 43.025 41.8609 42.3944 41.8609 41.5826V41.5747C41.8609 40.755 41.2304 40.1323 40.324 40.1323ZM41.325 41.5826C41.325 42.1501 40.9309 42.56 40.3161 42.56H39.7486V40.5974H40.3161C40.923 40.5974 41.325 41.0151 41.325 41.5826Z" fill="white"/>
<path id="Vector_142" d="M43.0201 40.1323H42.5078V43.025H43.0201V40.1323Z" fill="white"/>
<path id="Vector_143" d="M46.0542 40.1089L44.7773 43.0173H45.2975L45.5971 42.3158H46.9685L47.2601 43.0173H47.7961L46.5192 40.1089H46.0542ZM45.7862 41.8744L46.2828 40.7158L46.7872 41.8744H45.7862Z" fill="white"/>
<path id="Vector_144" d="M50.6497 41.0545V41.0466C50.6497 40.7944 50.563 40.5816 50.4133 40.424C50.2241 40.2427 49.9404 40.1323 49.5778 40.1323H48.2852V43.025H48.7975V42.0161H49.428H49.4359L50.1453 43.025H50.7443L49.964 41.9294C50.366 41.8112 50.6497 41.5274 50.6497 41.0545ZM48.7896 41.5668V40.5974H49.5305C49.9088 40.5974 50.1295 40.7708 50.1295 41.0782V41.086C50.1295 41.3777 49.9009 41.5668 49.5305 41.5668H48.7896Z" fill="white"/>
<path id="Vector_145" d="M52.3901 40.1089L51.1133 43.0173H51.6335L51.933 42.3158H53.3044L53.5961 43.0173H54.132L52.8552 40.1089H52.3901ZM52.1222 41.8744L52.6187 40.7158L53.1232 41.8744H52.1222Z" fill="white"/>
<path id="Vector_146" d="M56.4498 41.5196C56.6626 41.4093 56.8597 41.2201 56.8597 40.8733V40.8654C56.8597 40.6684 56.7966 40.5107 56.6626 40.3846C56.4971 40.2191 56.237 40.1245 55.906 40.1245H54.6055V43.0172H55.9454C56.5917 43.0172 57.0173 42.7413 57.0173 42.2211V42.2132C57.0252 41.827 56.7888 41.6378 56.4498 41.5196ZM55.1178 40.5817H55.8508C56.174 40.5817 56.3631 40.7235 56.3631 40.9521V40.96C56.3631 41.228 56.1424 41.3541 55.8193 41.3541H55.1257V40.5817H55.1178ZM56.5208 42.1738C56.5208 42.4339 56.308 42.5679 55.9612 42.5679H55.1178V41.7797H55.9217C56.3237 41.7797 56.5208 41.9216 56.5208 42.1659V42.1738Z" fill="white"/>
<path id="Vector_147" d="M58.1686 40.1323H57.6562V43.025H58.1686V40.1323Z" fill="white"/>
<path id="Vector_148" d="M60.3982 40.1089H59.9253L58.6484 43.0252H59.1686L59.4682 42.3237H60.8396L61.1312 43.0252H61.6672L60.3982 40.1089ZM59.6573 41.8744L60.1539 40.7158L60.6583 41.8744H59.6573Z" fill="white"/>
</g>
</g>
</svg>
