<svg width="63" height="44" fill="none" xmlns="http://www.w3.org/2000/svg"><path d="M37.825 1.692h-.71v.71h.71v-.71zM52.557 10.48h-.71v.71h.71v-.71zM60.454 9.724a1.02 1.02 0 0 0 .418-.354c.102-.158.181-.347.228-.568.048-.22.063-.473.063-.749v-4.95h-.709v4.95c0 .197-.008.37-.031.505a1.08 1.08 0 0 1-.103.339.433.433 0 0 1-.205.189.807.807 0 0 1-.33.055c-.064 0-.12 0-.166-.008a2.183 2.183 0 0 1-.197-.047l-.19.678c.197.055.387.079.576.079.26.007.473-.032.646-.119zM58.018 1.85h-.97v-.166c0-.086.016-.157.055-.204.032-.04.11-.064.221-.064h.489V.92h-.505c-.268 0-.48.07-.623.213-.141.142-.22.37-.22.678v.575h1.553V1.85zM51.137 10.48h-.71v.71h.71v-.71zM39.245 1.692h-.71v.71h.71v-.71zM54.826 7.344c.268.19.583.331.938.426.355.094.725.134 1.127.134h.19l.236-.497v.702c0 .37-.103.638-.316.796-.212.157-.512.236-.898.236-.22 0-.418-.024-.591-.063-.174-.04-.37-.11-.6-.213l-.22.678c.268.102.512.173.725.229.213.047.418.078.63.078.694 0 1.19-.165 1.506-.488.315-.331.473-.765.473-1.324V3.104h-1.135c-.433 0-.835.063-1.198.189s-.67.291-.922.504a2.235 2.235 0 0 0-.812 1.742c0 .418.079.772.236 1.072.15.3.363.544.631.733zm0-2.506c.11-.213.252-.395.434-.544a1.97 1.97 0 0 1 .614-.347c.221-.079.457-.118.694-.126h1.143l-.402.205v3.176h-.71c-.268 0-.512-.04-.748-.11a1.762 1.762 0 0 1-.615-.323 1.584 1.584 0 0 1-.418-.52 1.565 1.565 0 0 1-.15-.71c0-.26.056-.489.158-.701zM37.304 9.748h1.474V9.22l.047.07c.11.158.245.277.418.355.173.08.386.127.639.127H52.8V3.104h-.71V9.07H39.914a.807.807 0 0 1-.33-.055.472.472 0 0 1-.206-.19.905.905 0 0 1-.102-.338 3.127 3.127 0 0 1-.032-.505V3.104h-1.915c-1.955 0-3.295 1.552-3.295 3.326v.015c0 1.774 1.316 3.303 3.271 3.303zM34.79 6.406c0-1.458 1.048-2.633 2.522-2.633h1.655l-.433.213v3.989c0 .275.023.528.063.748.023.126.063.245.11.355h-1.38c-1.473 0-2.537-1.19-2.537-2.656v-.016zM30.486 7.998l.308.812L26.3 3.095h-.71V9.74h.734V4.735l-.418-.97L30.62 9.74h.6V3.095h-.733v4.903zM40.576 20.341l4.083-3.894v-2.672H33.751v3.043h5.596l2.073-1.332-5.179 5.202.552 2.254h1.474c1.986 0 3.16.733 3.16 2.05v.047c0 1.198-.945 1.954-2.285 1.954-1.64 0-2.79-.693-3.902-1.93l-2.443 2.324c1.387 1.632 3.39 2.79 6.297 2.79 3.602 0 5.817-2.23 5.817-5.272v-.048c.008-2.995-2.144-4.145-4.335-4.516zM20.981 2.985c-2.026 0-3.405 1.6-3.405 3.437v.016c0 1.828 1.356 3.412 3.381 3.412 2.026 0 3.405-1.6 3.405-3.436v-.016c.008-1.828-1.355-3.413-3.38-3.413zm2.61 3.453c0 1.505-1.08 2.719-2.602 2.719-1.521 0-2.625-1.23-2.625-2.743v-.016c0-1.505 1.08-2.719 2.601-2.719 1.522 0 2.625 1.23 2.625 2.743v.016zM54.441 13.507c-4.981 0-8.607 3.752-8.607 8.34v.047c0 4.579 3.578 8.291 8.56 8.291 4.981 0 8.607-3.751 8.607-8.339V21.8c0-4.587-3.579-8.292-8.56-8.292zm4.847 8.379c0 2.766-1.986 5.02-4.847 5.02-2.861 0-4.895-2.301-4.895-5.067v-.048c0-2.766 1.987-5.02 4.848-5.02 2.86 0 4.894 2.3 4.894 5.067v.048zM16.284 3.095h-.749v6.637h.749V3.095zM3.477 28.057l.685-.528 3.531-2.72c2.862-2.206 4.249-3.546 4.249-6.242v-.04c0-3.018-2.215-4.973-5.565-4.973-2.885 0-4.43 1.175-6.022 3.342l2.491 2.002c1.198-1.474 2.057-2.167 3.303-2.167 1.269 0 2.167.733 2.167 2.096 0 1.332-.788 2.207-2.79 3.87L.15 27.095v2.806H12.1v-3.066H5.943l-2.467 1.222zM3.531 9.787l2.853-6.692H5.58L3.318 8.542l.071.725-.181-.45-1.963-4.729-.41-.993H0l2.861 6.692h.67zM8.157 3.095h-.749v6.637h.749V3.095zM12.13 6.059c-1.466-.316-1.805-.662-1.805-1.293V4.75c0-.599.552-1.072 1.42-1.072.685 0 1.3.221 1.922.718l.434-.576C13.423 3.276 12.729 3 11.76 3c-1.261 0-2.183.765-2.183 1.813v.016c0 1.088.701 1.584 2.23 1.915 1.395.292 1.726.647 1.726 1.261v.016c0 .654-.59 1.127-1.481 1.127-.923 0-1.585-.315-2.278-.938l-.465.552c.796.71 1.663 1.064 2.719 1.064 1.324 0 2.27-.74 2.27-1.876v-.015c0-1.017-.686-1.553-2.168-1.876z" fill="#fff"/><path d="m21.755 12.443.82.78-.789.82-.811-.78.78-.82z" fill="#39457C"/><path d="m23.63 13.263.82.78.78-.82-.819-.78-.78.82z" fill="#ACACAE"/><path d="m22.479 14.288.63.615.615-.639-.639-.607-.607.63z" fill="#CDD542"/><path d="m24.813 14.634.638.615.607-.638-.639-.607-.607.63z" fill="#77B750"/><path d="m21.44 15.257.63.615.615-.639-.639-.607-.607.631z" fill="#CDD542"/><path d="m23.574 15.336.63.607.616-.63-.639-.616-.607.639z" fill="#39B5BC"/><path d="m22.74 16.069.442.425.433-.449-.45-.425-.425.449z" fill="#77B750"/><path d="m24.426 16.4.45.433.425-.449-.442-.425-.433.44z" fill="#61B362"/><path d="M29.503 12.747 28.115 13l.255 1.388 1.387-.255-.254-1.387z" fill="#3A89C8"/><path d="m27.417 13.375-1.116.204.204 1.116 1.117-.204-.205-1.116z" fill="#344773"/><path d="m29.572 14.929-1.117.205.205 1.116 1.116-.205-.204-1.116z" fill="#39B5BC"/><path d="m26.924 15.296.157.867.867-.157-.157-.867-.867.157z" fill="#CDD542"/><path d="m29.476 16.784-.869.16.16.868.868-.16-.16-.868z" fill="#ACACAE"/><path d="m26.49 15.491-.869.16.16.868.867-.16-.159-.868z" fill="#39B5BC"/><path d="m28.066 16.626-.869.16.16.867.867-.159-.158-.868z" fill="#77B750"/><path d="m26.706 16.774-.612.112.112.613.613-.113-.113-.612z" fill="#ACACAE"/><path d="m27.874 18.035-.612.113.112.612.612-.112-.112-.613z" fill="#61B362"/><path d="m32.253 17.543-.607 1.276 1.277.607.607-1.277-1.277-.607z" fill="#39457C"/><path d="m30.44 16.96-.489 1.016 1.025.489.489-1.025-1.025-.48z" fill="#39B5BC"/><path d="m31.276 19.474-.489 1.024 1.025.481.488-1.017-1.024-.488z" fill="#77B750"/><path d="m29.935 18.71-.378.796.796.378.378-.796-.796-.379zM30.337 21.027l-.378.796.796.378.378-.796-.796-.378z" fill="#CDD542"/><path d="m28.675 18.237-.378.796.796.378.378-.796-.796-.378z" fill="#3A89C8"/><path d="m29.288 20.073-.378.796.796.378.379-.796-.797-.378z" fill="#ACACAE"/><path d="m28.327 19.513-.268.56.56.268.267-.56-.56-.268z" fill="#77B750"/><path d="m28.543 21.223-.268.562.563.268.267-.562-.562-.268z" fill="#39B5BC"/><path d="m32.939 23.643-1.238.678.678 1.237 1.238-.677-.678-1.238z" fill="#3A89C8"/><path d="m31.811 22.106-.993.544.544.993.993-.543-.543-.994zM31.015 24.636l-.994.544.544.993.993-.544-.543-.993z" fill="#39B5BC"/><path d="m30.378 23.234-.773.425.426.773.773-.426-.426-.772z" fill="#39457C"/><path d="m29.345 25.354-.773.426.426.772.772-.426-.425-.772z" fill="#61B362"/><path d="m29.636 22.114-.773.426.418.772.78-.425-.425-.773z" fill="#344773"/><path d="m29.054 23.966-.773.426.426.765.772-.418-.425-.773z" fill="#CDD542"/><path d="m28.602 22.95-.543.3.3.543.543-.3-.3-.543z" fill="#ACACAE"/><path d="m27.776 24.456-.544.3.3.543.544-.3-.3-.543z" fill="#39B5BC"/><path d="m28.519 28.818-.173 1.4 1.4.173.173-1.4-1.4-.173z" fill="#77B750"/><path d="m28.786 26.947-.14 1.126 1.127.14.14-1.127-1.127-.14z" fill="#344773"/><path d="m26.655 28.533-.14 1.126 1.127.14.14-1.127-1.127-.14z" fill="#39B5BC"/><path d="m27.206 27.058-.108.876.876.108.108-.876-.876-.108z" fill="#77B750"/><path d="m25.13 28.175-.108.876.876.108.108-.876-.876-.108zM27.263 25.708l-.109.876.876.109.109-.877-.876-.108z" fill="#ACACAE"/><path d="m25.704 26.872-.108.877.876.108.108-.876-.876-.109z" fill="#77B750"/><path d="m26.198 25.826-.077.618.618.076.076-.618-.617-.076zM24.647 26.557l-.077.618.618.077.077-.618-.618-.077z" fill="#ACACAE"/><path d="m24.34 31.565-1.04-.962-.954 1.04 1.032.954.962-1.032z" fill="#CDD542"/><path d="m24.15 11.813-1.04-.962-.962 1.033 1.04.961.962-1.032z" fill="#77B750"/><path d="m25.442 30.02-.828-.772-.772.827.827.773.773-.828z" fill="#39B5BC"/><path d="m22.788 30.06-.828-.765-.773.827.828.765.773-.828z" fill="#77B750"/><path d="m23.921 29.01-.646-.598-.6.646.647.599.6-.646z" fill="#3A89C8"/><path d="m21.581 28.703-.646-.598-.6.646.647.599.6-.647zM24.75 27.954l-.647-.599-.6.647.647.599.6-.646z" fill="#CDD542"/><path d="m22.81 27.986-.646-.599-.6.646.647.6.599-.647z" fill="#ACACAE"/><path d="m23.63 27.238-.456-.418-.418.457.457.418.418-.457z" fill="#344773"/><path d="m21.935 26.93-.457-.417-.418.449.458.426.417-.458z" fill="#ACACAE"/><path d="m18.026 29.01-1.383.278.277 1.383 1.383-.277-.277-1.383z" fill="#3A89C8"/><path d="m19.88 28.674-1.112.224.223 1.112 1.112-.223-.223-1.113z" fill="#39B5BC"/><path d="m17.707 27.163-1.113.223.223 1.113 1.113-.224-.223-1.112z" fill="#77B750"/><path d="m19.46 28.08-.173-.866-.867.173.173.867.867-.173z" fill="#CDD542"/><path d="m20.578 26.844-.865.174.173.865.866-.173-.174-.866z" fill="#39457C"/><path d="m18.985 25.732-.866.174.174.865.865-.173-.173-.866z" fill="#3A89C8"/><path d="m20.142 25.864-.61.122.122.61.61-.121-.122-.61z" fill="#77B750"/><path d="m18.95 24.627-.61.122.122.61.61-.122-.122-.61z" fill="#ACACAE"/><path d="m14.093 25.921.591-1.284-1.292-.584-.583 1.277 1.284.591z" fill="#39B5BC"/><path d="m15.913 26.481.473-1.033-1.032-.472-.473 1.032 1.032.473z" fill="#CDD542"/><path d="m15.038 23.975.465-1.033-1.032-.465-.465 1.033 1.032.465z" fill="#3A89C8"/><path d="m15.952 23.545-.366.804.803.366.366-.803-.803-.367z" fill="#39B5BC"/><path d="m17.466 26.726.363-.804-.804-.363-.363.796.804.37z" fill="#ACACAE"/><path d="m15.515 21.235-.367.803.804.366.366-.803-.803-.366z" fill="#39457C"/><path d="m17.226 24.004-.367.803.803.367.367-.804-.803-.366z" fill="#61B362"/><path d="m16.58 22.177-.367.803.803.367.367-.803-.803-.367z" fill="#CDD542"/><path d="m17.987 23.888.253-.568-.56-.252-.26.56.567.26z" fill="#344773"/><path d="m17.741 22.185.26-.567-.567-.253-.26.56.567.26z" fill="#77B750"/><path d="m13.305 19.828 1.23-.693-.702-1.23-1.23.702.702 1.221z" fill="#39B5BC"/><path d="m14.456 21.35.985-.56-.56-.985-.985.56.56.985z" fill="#77B750"/><path d="m15.212 18.804.985-.56-.567-.985-.986.56.568.985z" fill="#344773"/><path d="m15.875 20.199.765-.434-.442-.764-.764.433.441.765z" fill="#3A89C8"/><path d="m16.867 18.063.765-.434-.434-.764-.764.433.433.765z" fill="#77B750"/><path d="m16.63 21.31.773-.441-.441-.764-.765.44.434.765z" fill="#39B5BC"/><path d="m17.183 19.45.773-.441-.441-.765-.765.442.433.764z" fill="#CDD542"/><path d="m17.655 20.451.536-.3-.307-.543-.544.307.315.536z" fill="#ACACAE"/><path d="m18.452 18.93.544-.308-.308-.536-.543.308.307.536zM16.384 13.033l-.15 1.402 1.403.15.15-1.402-1.403-.15z" fill="#77B750"/><path d="m16.396 15.206-.12 1.128 1.128.12.12-1.128-1.128-.12z" fill="#ACACAE"/><path d="m18.496 13.59-.121 1.128 1.128.12.121-1.128-1.128-.12z" fill="#39B5BC"/><path d="m18.192 15.353-.094.877.877.095.094-.878-.877-.094z" fill="#CDD542"/><path d="m20.252 14.202-.094.878.878.093.094-.877-.878-.094z" fill="#3A89C8"/><path d="m18.166 16.702-.094.878.878.094.094-.878-.878-.094z" fill="#39B5BC"/><path d="m19.7 15.515-.095.878.878.094.094-.878-.877-.094z" fill="#77B750"/><path d="m19.463 16.857-.067.62.62.065.066-.619-.62-.066z" fill="#344773"/><path d="m21 16.095-.066.62.619.065.066-.619-.62-.066z" fill="#ACACAE"/><path d="M27.602 22.595a2.901 2.901 0 0 0-.56-.244 3.36 3.36 0 0 0-1.545-.11 3.362 3.362 0 0 0-.733.197c-.118.047-.236.094-.354.157-.103.048-.198.11-.3.166-.229.134-.45.291-.67.457-.244-1.506-.126-2.9-.07-3.586 0 0 .007-.008.007 0 .536.33.386 1.269.268 1.537 0 .008.008.008.008.008.662-.78.339-1.648.205-1.868 0-.008 0-.008.008-.008.094.079.173.157.236.244.205.26.284.544.3.796.008.134.008.252 0 .363 0 .031-.008.055-.008.078 0 .008 0 .008.008.008a1.534 1.534 0 0 0 0-1.403 1.752 1.752 0 0 0-.3-.41l-.118-.118c-.008 0 0-.008.008-.008.04.008.079.024.118.032.11.04.213.095.3.158.204.15.338.354.417.567.071.174.103.355.095.52 0 .008.008.008.008 0 .126-.457.047-.804-.11-1.056a1.189 1.189 0 0 0-.418-.402 1.218 1.218 0 0 0-.3-.134c-.055-.016-.102-.024-.142-.031-.008 0-.008-.008 0-.008.047-.008.095-.008.142-.008.11 0 .213.008.3.023.18.032.315.095.417.166.166.11.253.244.284.3 0 .007.008 0 .008 0a.83.83 0 0 0-.292-.568 1.07 1.07 0 0 0-.417-.22 1.362 1.362 0 0 0-.3-.04.98.98 0 0 0-.378.07c-.008 0-.008 0-.008-.007a.658.658 0 0 1 .386-.268c.103-.032.205-.04.3-.04a.7.7 0 0 1 .244.056c.008 0 .008-.008.008-.008a.877.877 0 0 0-.252-.205.7.7 0 0 0-.3-.095c-.268-.031-.544.087-.725.363h-.008c-.031-.063-.07-.134-.102-.205a2.561 2.561 0 0 1-.166-.544c0-.008-.008-.008-.008 0-.031.19-.094.378-.165.552-.032.07-.063.142-.103.205h-.008c-.315-.481-.914-.473-1.276-.055 0 .008 0 .008.007.008.245-.119.702-.08.93.244 0 .008 0 .008-.007.008-.355-.15-.899-.055-1.19.291a.92.92 0 0 0-.198.465c0 .008.008.008.008 0 .024-.039.08-.134.181-.228.174-.15.466-.3.962-.26.008 0 .008.008 0 .008-.252.031-.772.252-.962.772-.086.229-.102.512-.007.86 0 .007.008.007.008 0v-.024c.007-.465.275-1.096.93-1.254.008 0 .008.008.008.008-.741.654-.67 1.45-.426 1.923 0 .008.008 0 .008 0-.032-.354-.055-.993.536-1.481.008 0 .008 0 .008.007-.134.221-.458 1.088.204 1.868 0 .008.016 0 .008-.007-.11-.268-.26-1.206.268-1.537h.008c.055.685.181 2.08-.07 3.586-.426-.331-.883-.615-1.325-.788-.055-.024-.11-.04-.165-.055a3.566 3.566 0 0 0-1.254-.182 3.295 3.295 0 0 0-1.292.323.898.898 0 0 0-.126.071c-.016.008 0 .024.008.024.039-.016.078-.024.118-.032a3.537 3.537 0 0 1 1.292-.126c.442.04.86.158 1.254.34.543.244 1.04.598 1.49.969-.631.551-1.167 1.087-1.49 1.277l-.048.023a.36.36 0 0 0-.362-.134.35.35 0 0 0-.26.26c-.024.11 0 .237.07.3.174.173.371.181.6.087.441-.182.985-.765 1.647-1.372.055-.047.11-.102.173-.15.055.048.11.103.166.15.3.276.583.544.835.78.103.095.205.182.3.26.15.119.291.221.418.292.252.134.48.15.67-.016.008-.008.023-.015.031-.023a.39.39 0 0 0 .071-.3.33.33 0 0 0-.102-.173.418.418 0 0 0-.166-.087.36.36 0 0 0-.363.134c-.047-.023-.094-.055-.141-.087a3.955 3.955 0 0 1-.418-.338c-.095-.087-.197-.174-.3-.268-.205-.19-.433-.395-.67-.607.213-.182.442-.347.67-.513.095-.063.197-.134.3-.189.134-.079.276-.157.418-.229.212-.102.433-.189.67-.252.48-.134.993-.181 1.544-.094.182.031.363.07.552.126.04-.008.047-.024.032-.032z" fill="#757D82"/><path d="M3.705 37.957h-.418v.418h.418v-.418zM31.3 37.476v-2.743h-.403v2.341h-1.529v-2.34h-.402v2.34H27.35v-2.34h-.638c-.252 0-.48.03-.694.102a1.63 1.63 0 0 0-.528.291 1.274 1.274 0 0 0-.457.985c0 .237.047.442.134.615.095.174.213.316.363.426.15.11.33.197.536.245.205.055.418.078.638.078H31.3zm-5.187-.473a1.125 1.125 0 0 1-.347-.189.768.768 0 0 1-.236-.307.95.95 0 0 1-.087-.41c0-.142.032-.276.095-.394a.942.942 0 0 1 .252-.308c.102-.086.22-.15.355-.197a1.2 1.2 0 0 1 .402-.07h.401v1.938h-.401c-.158 0-.3-.015-.434-.063zM23.03 33.843h-.401v3.633h.402v-3.633zM27.35 33.843h-.418v.417h.417v-.417zM31.306 37.949h-.417v.418h.417v-.418zM4.414 37.949h-.418v.418h.418v-.418zM21.044 37.066h-.662c-.237 0-.426-.031-.56-.102a.757.757 0 0 1-.323-.308c.024-.102.04-.228.04-.378V34.97h-.403v1.371c0 .236-.063.418-.189.56-.126.141-.315.212-.567.212a.844.844 0 0 1-.576-.204.68.68 0 0 1-.165-.229.67.67 0 0 1-.063-.276V34.97h-.402v1.403a.753.753 0 0 1-.055.315.544.544 0 0 1-.37.331.901.901 0 0 1-.26.04h-.79v-2.09h-.401v2.09H13.17l.71-1.695a4.042 4.042 0 0 0-.348-.268 2.982 2.982 0 0 0-.378-.221 2.39 2.39 0 0 0-.394-.15 1.693 1.693 0 0 0-.394-.055c-.134 0-.26.016-.394.055a3.96 3.96 0 0 0-.394.142 3.148 3.148 0 0 0-.379.22 5.641 5.641 0 0 0-.339.269l.718 1.694h-1.403v-2.34h-.647c-.252 0-.48.031-.685.102-.205.07-.387.166-.528.292a1.23 1.23 0 0 0-.34.441 1.31 1.31 0 0 0-.118.552c0 .236.048.441.134.614.087.174.213.308.363.418.15.11.331.19.536.245.205.055.418.078.646.078h.245v.119c0 .212-.063.362-.182.457-.118.094-.291.134-.512.134-.126 0-.236-.008-.339-.032a1.943 1.943 0 0 1-.339-.118l-.126.386c.158.055.292.103.41.126.118.032.244.04.362.04.395 0 .686-.095.86-.284.18-.19.268-.441.268-.757v-.079h6.297c.197 0 .37-.039.528-.126.15-.086.276-.197.37-.338a.932.932 0 0 0 .403.378c.165.094.37.134.607.134.244 0 .449-.04.622-.126a.889.889 0 0 0 .394-.386c.032.055.08.11.127.173.047.055.11.102.189.15a.923.923 0 0 0 .283.102c.087.024.182.032.292.04v.007h1.15V33.82h-.401v3.247zm-11.28 0h-.409c-.15 0-.292-.024-.426-.063a1.077 1.077 0 0 1-.354-.181.8.8 0 0 1-.237-.3.94.94 0 0 1 .008-.804.938.938 0 0 1 .244-.307c.103-.087.221-.15.355-.197.134-.047.268-.071.41-.071h.41v1.923zm2.24 0-.631-1.553a1.64 1.64 0 0 1 .48-.291 1.409 1.409 0 0 1 1.057.016c.181.07.33.165.457.268l-.63 1.552h-.734v.008zM2.31 33.843h-.417v.417h.417v-.417zM43.326 33.843h-.418v.417h.418v-.417zM39.716 33.843h-.401v3.633h.401v-3.633zM26.64 33.843h-.417v.417h.417v-.417zM7.204 35.876c0-.158-.024-.307-.063-.45a.864.864 0 0 0-.197-.354 1.168 1.168 0 0 0-.363-.268 1.29 1.29 0 0 0-.488-.087h-.3v.402h.355a.672.672 0 0 1 .496.229c.055.07.095.15.119.236.023.087.031.19.031.308v1.174h-1.9v.402h2.31v-1.592zM61.164 33.843h-.402v3.633h.402v-3.633zM44.037 33.843h-.418v.417h.418v-.417zM59.587 33.842h-.402v3.224h-1.403c.087-.189.126-.386.126-.599 0-.213-.04-.402-.11-.583a1.387 1.387 0 0 0-.316-.465 1.565 1.565 0 0 0-.465-.316 1.451 1.451 0 0 0-.583-.11 1.435 1.435 0 0 0-1.025.433 1.704 1.704 0 0 0-.307.466 1.556 1.556 0 0 0-.079.883c.024.102.055.197.087.283h-1.253c.086-.189.126-.386.126-.599 0-.213-.04-.402-.11-.583a1.387 1.387 0 0 0-.316-.465 1.566 1.566 0 0 0-.465-.315 1.45 1.45 0 0 0-.583-.11 1.435 1.435 0 0 0-1.025.433 1.54 1.54 0 0 0-.307.465 1.556 1.556 0 0 0-.079.883c.024.102.055.197.087.283H49.9v-3.223h-.402v3.223h-1.293v-.622c0-.158-.023-.3-.063-.442a.854.854 0 0 0-.189-.354.941.941 0 0 0-.355-.26 1.317 1.317 0 0 0-.504-.087h-1.797l.765-1.458h-.442l-.78 1.45a.875.875 0 0 0 .063.228c.031.064.07.127.118.182h2.065c.126 0 .237.016.331.055.095.04.166.095.229.158.055.07.094.142.118.236.024.087.032.19.032.292v.622h-3.752v-2.34h-.639c-.252 0-.48.031-.685.102-.205.07-.379.165-.529.291a1.274 1.274 0 0 0-.457.985c0 .237.048.442.134.616.095.173.213.315.363.425.15.11.331.197.536.245.205.055.418.078.638.078h8.048c.134.142.291.253.473.34.18.078.378.125.59.125.214 0 .419-.039.608-.118.189-.079.346-.197.48-.339h1.782c.134.142.291.252.473.34.181.078.378.125.59.125.214 0 .419-.04.608-.118a1.4 1.4 0 0 0 .48-.339h2.066v-3.626h-.016zm-15.961 3.224h-.402c-.15 0-.292-.024-.426-.063a1.125 1.125 0 0 1-.346-.19.768.768 0 0 1-.237-.306.95.95 0 0 1-.087-.41c0-.142.032-.276.095-.394a.942.942 0 0 1 .252-.308c.103-.087.221-.15.355-.197a1.2 1.2 0 0 1 .402-.07h.402v1.938h-.008zm9.86-.181a1.118 1.118 0 0 1-.228.339 1.078 1.078 0 0 1-.764.3c-.15 0-.285-.032-.41-.087a1.08 1.08 0 0 1-.332-.229 1.008 1.008 0 0 1-.22-.339 1.026 1.026 0 0 1-.08-.41c0-.142.024-.284.08-.41.055-.126.126-.244.212-.339.095-.094.197-.173.324-.228.126-.055.268-.087.417-.087.158 0 .3.024.426.079a1.01 1.01 0 0 1 .567.56c.056.126.08.276.08.425a.838.838 0 0 1-.072.426zm3.933 0a1.116 1.116 0 0 1-.228.339 1.053 1.053 0 0 1-.765.3c-.15 0-.284-.032-.41-.087a1.082 1.082 0 0 1-.33-.229 1.01 1.01 0 0 1-.221-.339 1.028 1.028 0 0 1-.08-.41c0-.142.025-.284.08-.41s.126-.244.212-.339c.095-.094.197-.173.324-.228.126-.055.268-.087.417-.087.158 0 .3.024.426.079a1.01 1.01 0 0 1 .567.56c.056.126.08.276.08.425a.84.84 0 0 1-.072.426zM1.032 37.39c.205.054.418.078.639.078h2.656v-2.743h-.402v2.341H2.317v-2.34H1.68c-.252 0-.481.03-.686.102a1.63 1.63 0 0 0-.528.291 1.274 1.274 0 0 0-.457.985c0 .237.047.442.134.615.094.174.213.316.362.426.15.11.331.197.528.244zM.41 36.103c0-.141.031-.275.094-.394a1.028 1.028 0 0 1 .6-.504 1.2 1.2 0 0 1 .401-.071h.402v1.939h-.402c-.15 0-.291-.024-.425-.063a1.123 1.123 0 0 1-.347-.19.768.768 0 0 1-.237-.307.89.89 0 0 1-.086-.41zM29.826 37.949h-.418v.418h.418v-.418zM29.115 37.949h-.418v.418h.418v-.418zM32.882 37.989c.024-.127.04-.268.04-.426v-.087h5.218v-3.633h-.402v3.223H36.01l.71-1.694a4.026 4.026 0 0 0-.347-.268 2.963 2.963 0 0 0-.378-.22 2.378 2.378 0 0 0-.394-.15 1.692 1.692 0 0 0-.386-.056c-.135 0-.26.016-.395.055-.134.04-.26.087-.394.142a2.63 2.63 0 0 0-.378.221 5.641 5.641 0 0 0-.339.268l.717 1.695h-1.513v-2.341h-.402v2.83c0 .117-.008.212-.016.29a.531.531 0 0 1-.063.19.244.244 0 0 1-.118.102.43.43 0 0 1-.19.032c-.039 0-.07 0-.094-.008-.023 0-.063-.016-.11-.024l-.103.387c.11.031.221.047.331.047a.887.887 0 0 0 .37-.07.621.621 0 0 0 .245-.206.907.907 0 0 0 .118-.3zm1.34-2.475a1.64 1.64 0 0 1 .481-.292 1.44 1.44 0 0 1 .512-.095c.182 0 .363.04.544.11.182.072.331.166.458.269l-.631 1.553h-.725l-.639-1.545zM1.6 33.843h-.418v.417h.417v-.417zM2.909 40.132h-.623l-1.38 1.45v-1.45H.403v2.893h.505v-.843l.449-.458.993 1.301h.615l-1.253-1.647 1.198-1.246zM3.94 40.132h-.512v2.893h.512v-2.893zM6.746 42.134l-1.552-2.002H4.72v2.893h.504v-2.057l1.592 2.057h.426v-2.893h-.497v2.002zM9.357 41.85h.74v.544a1.18 1.18 0 0 1-.7.221c-.592 0-.986-.441-.986-1.032v-.008c0-.552.402-1.017.938-1.017.37 0 .591.118.812.307l.323-.386c-.3-.252-.607-.394-1.112-.394-.874 0-1.49.686-1.49 1.498v.007c0 .844.6 1.49 1.506 1.49.513 0 .922-.205 1.206-.45v-1.213h-1.23v.433h-.007zM12.367 40.132h-1.08v2.893h1.08c.906 0 1.537-.63 1.537-1.442v-.008c0-.82-.623-1.443-1.537-1.443zm1.009 1.45c0 .568-.394.978-1.01.978H11.8v-1.963h.568c.607 0 1.009.418 1.009.986zM15.906 40.085c-.89 0-1.521.678-1.521 1.498v.007c0 .812.622 1.49 1.513 1.49.89 0 1.521-.678 1.521-1.497v-.008a1.48 1.48 0 0 0-1.513-1.49zm.97 1.498c0 .56-.402 1.016-.978 1.016-.575 0-.985-.465-.985-1.024v-.008c0-.56.402-1.017.977-1.017.576 0 .985.465.985 1.025v.008zM19.468 41.496l-.883-1.364h-.544v2.893h.505V40.96l.906 1.356h.016l.914-1.364v2.073h.504v-2.893h-.536l-.882 1.364zM24.27 40.085c-.891 0-1.522.678-1.522 1.498v.007c0 .812.623 1.49 1.513 1.49.891 0 1.522-.678 1.522-1.497v-.008c0-.82-.623-1.49-1.514-1.49zm.977 1.498c0 .56-.402 1.016-.978 1.016-.575 0-.985-.465-.985-1.024v-.008c0-.56.402-1.017.977-1.017.576 0 .986.465.986 1.025v.008zM26.412 43.025h.505v-1.182h1.466v-.458h-1.466v-.788h1.647v-.465h-2.152v2.893zM31.48 41.346c-.552-.134-.686-.228-.686-.457v-.008c0-.19.174-.347.473-.347.268 0 .529.103.789.3l.276-.387a1.598 1.598 0 0 0-1.049-.362c-.575 0-.993.339-.993.835v.008c0 .536.347.718.962.86.536.126.654.236.654.44v.009c0 .22-.197.362-.512.362-.363 0-.639-.134-.915-.378l-.307.363c.347.307.764.465 1.206.465.607 0 1.032-.324 1.032-.867v-.008c.008-.457-.315-.678-.93-.828zM33.97 40.109l-1.277 2.908h.52l.3-.701h1.372l.291.701h.536l-1.277-2.908h-.465zm-.268 1.765.497-1.158.504 1.158h-1zM37.99 41.795c0 .536-.276.804-.725.804-.457 0-.733-.291-.733-.827v-1.648h-.512v1.664c0 .835.48 1.269 1.23 1.269.756 0 1.244-.434 1.244-1.293v-1.64h-.512v1.671h.008zM40.324 40.132h-1.08v2.893h1.08c.906 0 1.537-.63 1.537-1.442v-.008c0-.82-.63-1.443-1.537-1.443zm1.001 1.45c0 .568-.394.978-1.009.978h-.567v-1.963h.567c.607 0 1.009.418 1.009.986zM43.02 40.132h-.512v2.893h.512v-2.893zM46.054 40.109l-1.277 2.908h.52l.3-.701h1.371l.292.701h.536L46.52 40.11h-.465zm-.268 1.765.497-1.158.504 1.158h-1zM50.65 41.054v-.007a.883.883 0 0 0-.237-.623c-.189-.181-.473-.292-.835-.292h-1.293v2.893h.513v-1.009h.638l.71 1.009h.598l-.78-1.096c.402-.118.686-.402.686-.875zm-1.86.513v-.97h.74c.379 0 .6.174.6.481v.008c0 .292-.23.48-.6.48h-.74zM52.39 40.109l-1.277 2.908h.52l.3-.701h1.371l.292.701h.536l-1.277-2.908h-.465zm-.268 1.765.497-1.158.504 1.158h-1zM56.45 41.52c.213-.11.41-.3.41-.647v-.008a.625.625 0 0 0-.197-.48c-.166-.166-.426-.26-.757-.26h-1.3v2.892h1.34c.646 0 1.071-.276 1.071-.796v-.008c.008-.386-.228-.575-.567-.693zm-1.332-.938h.733c.323 0 .512.142.512.37v.008c0 .268-.22.394-.544.394h-.693v-.772h-.008zm1.403 1.592c0 .26-.213.394-.56.394h-.843v-.788h.804c.402 0 .599.142.599.386v.008zM58.169 40.132h-.513v2.893h.513v-2.893zM60.398 40.109h-.473l-1.277 2.916h.52l.3-.701h1.372l.291.701h.536l-1.269-2.916zm-.74 1.765.496-1.158.504 1.158h-1z" fill="#fff"/></svg>